<svg width="100" height="100" viewBox="0 0 100 100" fill="none" xmlns="http://www.w3.org/2000/svg">
<g filter="url(#filter0_di_19_689)">
<path fill-rule="evenodd" clip-rule="evenodd" d="M42.5926 7C39.297 7 36.7512 9.90672 37.173 13.1881L38.8417 26.1716C39.0918 28.1177 40.7425 29.5747 42.697 29.5747C44.6752 29.5747 46.3379 28.0833 46.5598 26.11L48.0228 13.1015C48.3886 9.84856 45.8535 7 42.5926 7ZM34.1237 28.3547C35.3978 29.8677 35.3045 32.1084 33.9091 33.5093C32.6091 34.8144 30.5644 34.9966 29.0558 33.9417L18.9857 26.9004C16.2244 24.9696 15.8736 21.0018 18.2532 18.613C20.4892 16.3682 24.159 16.5222 26.2007 18.9465L34.1237 28.3547ZM26.0354 38.6503C28.001 38.8731 29.4866 40.5423 29.4866 42.5282C29.4866 44.4905 28.0352 46.1476 26.0967 46.3987L13.1639 48.074C9.89537 48.4974 7 45.9416 7 42.633C7 39.3594 9.83744 36.8144 13.0777 37.1816L26.0354 38.6503ZM27.3864 51.1411C29.0016 49.8101 31.3505 49.892 32.8698 51.3322C34.4417 52.8224 34.611 55.2743 33.259 56.9679L24.8353 67.5204C22.7657 70.113 18.9114 70.3257 16.5713 67.9764C14.2496 65.6456 14.4369 61.8127 16.9748 59.7212L27.3864 51.1411ZM58.8002 33.8908C57.0134 35.3436 54.4023 35.1186 52.8882 33.3814C51.5202 31.8119 51.4731 29.4825 52.7766 27.8585L60.2564 18.5399C62.3251 15.9625 66.1636 15.7559 68.495 18.0964C70.8225 20.433 70.6219 24.2789 68.064 26.3587L58.8002 33.8908ZM56.9722 91.8371C54.5268 94.1224 50.5332 92.8649 49.826 89.5869L40.1898 44.9219C39.5265 41.8476 42.2501 39.1134 45.3124 39.7792L89.6003 49.4091C92.909 50.1286 94.1364 54.222 91.7731 56.6555L83.7965 64.8694C82.1317 66.5837 82.1709 69.3296 83.8839 70.9954L91.0983 78.0108C92.8267 79.6915 92.8487 82.4677 91.1473 84.1759L84.3763 90.9734C82.6891 92.6672 79.9519 92.6618 78.2714 90.9612L71.4343 84.0427C69.7961 82.385 67.1429 82.332 65.4403 83.9231L56.9722 91.8371Z" fill="#E0E0FF"/>
</g>
<defs>
<filter id="filter0_di_19_689" x="7" y="7" width="86" height="89" filterUnits="userSpaceOnUse" color-interpolation-filters="sRGB">
<feFlood flood-opacity="0" result="BackgroundImageFix"/>
<feColorMatrix in="SourceAlpha" type="matrix" values="0 0 0 0 0 0 0 0 0 0 0 0 0 0 0 0 0 0 127 0" result="hardAlpha"/>
<feMorphology radius="8" operator="erode" in="SourceAlpha" result="effect1_dropShadow_19_689"/>
<feOffset dy="2"/>
<feGaussianBlur stdDeviation="2"/>
<feComposite in2="hardAlpha" operator="out"/>
<feColorMatrix type="matrix" values="0 0 0 0 0.0201736 0 0 0 0 0.0310764 0 0 0 0 0.0964931 0 0 0 0.12 0"/>
<feBlend mode="normal" in2="BackgroundImageFix" result="effect1_dropShadow_19_689"/>
<feBlend mode="normal" in="SourceGraphic" in2="effect1_dropShadow_19_689" result="shape"/>
<feColorMatrix in="SourceAlpha" type="matrix" values="0 0 0 0 0 0 0 0 0 0 0 0 0 0 0 0 0 0 127 0" result="hardAlpha"/>
<feOffset dy="3"/>
<feGaussianBlur stdDeviation="3.5"/>
<feComposite in2="hardAlpha" operator="arithmetic" k2="-1" k3="1"/>
<feColorMatrix type="matrix" values="0 0 0 0 1 0 0 0 0 1 0 0 0 0 1 0 0 0 1 0"/>
<feBlend mode="normal" in2="shape" result="effect2_innerShadow_19_689"/>
</filter>
</defs>
</svg>
