<svg width="86" height="87" viewBox="0 0 86 87" fill="none" xmlns="http://www.w3.org/2000/svg">
<g filter="url(#filter0_di_35_3131)">
<path fill-rule="evenodd" clip-rule="evenodd" d="M35.5926 0.369629C32.297 0.369629 29.7512 3.27635 30.173 6.55772L31.8417 19.5412C32.0918 21.4873 33.7425 22.9443 35.697 22.9443C37.6752 22.9443 39.3379 21.453 39.5598 19.4796L41.0228 6.47114C41.3886 3.21819 38.8535 0.369629 35.5926 0.369629ZM27.1237 21.7244C28.3978 23.2373 28.3045 25.478 26.9091 26.879C25.6091 28.184 23.5644 28.3662 22.0558 27.3114L11.9857 20.2701C9.22435 18.3392 8.87362 14.3714 11.2532 11.9826C13.4892 9.73778 17.159 9.8918 19.2007 12.3161L27.1237 21.7244ZM19.0354 32.02C21.001 32.2428 22.4866 33.912 22.4866 35.8979C22.4866 37.8601 21.0352 39.5172 19.0967 39.7683L6.16393 41.4436C2.89537 41.867 0 39.3112 0 36.0027C0 32.729 2.83744 30.184 6.0777 30.5513L19.0354 32.02ZM20.3864 44.5108C22.0016 43.1797 24.3505 43.2616 25.8698 44.7019C27.4417 46.192 27.611 48.6439 26.259 50.3375L17.8353 60.8901C15.7657 63.4827 11.9114 63.6953 9.57129 61.346C7.24957 59.0152 7.43692 55.1823 9.97478 53.0909L20.3864 44.5108ZM51.8002 27.2604C50.0134 28.7132 47.4023 28.4882 45.8882 26.751C44.5202 25.1815 44.4731 22.8521 45.7766 21.2282L53.2564 11.9095C55.3251 9.33214 59.1636 9.12552 61.495 11.466C63.8225 13.8027 63.6219 17.6486 61.064 19.7283L51.8002 27.2604ZM49.9722 85.2067C47.5268 87.4921 43.5332 86.2346 42.826 82.9565L33.1898 38.2916C32.5265 35.2173 35.2501 32.483 38.3124 33.1489L82.6003 42.7787C85.909 43.4982 87.1364 47.5916 84.7731 50.0252L76.7965 58.239C75.1317 59.9533 75.1709 62.6992 76.8839 64.365L84.0983 71.3804C85.8267 73.0612 85.8487 75.8374 84.1473 77.5455L77.3763 84.343C75.6891 86.0368 72.9519 86.0314 71.2714 84.3309L64.4343 77.4123C62.7961 75.7546 60.1429 75.7017 58.4403 77.2928L49.9722 85.2067Z" fill="#E0E0FF"/>
</g>
<defs>
<filter id="filter0_di_35_3131" x="0" y="0.369629" width="86" height="89" filterUnits="userSpaceOnUse" color-interpolation-filters="sRGB">
<feFlood flood-opacity="0" result="BackgroundImageFix"/>
<feColorMatrix in="SourceAlpha" type="matrix" values="0 0 0 0 0 0 0 0 0 0 0 0 0 0 0 0 0 0 127 0" result="hardAlpha"/>
<feMorphology radius="8" operator="erode" in="SourceAlpha" result="effect1_dropShadow_35_3131"/>
<feOffset dy="2"/>
<feGaussianBlur stdDeviation="2"/>
<feComposite in2="hardAlpha" operator="out"/>
<feColorMatrix type="matrix" values="0 0 0 0 0.0201736 0 0 0 0 0.0310764 0 0 0 0 0.0964931 0 0 0 0.12 0"/>
<feBlend mode="normal" in2="BackgroundImageFix" result="effect1_dropShadow_35_3131"/>
<feBlend mode="normal" in="SourceGraphic" in2="effect1_dropShadow_35_3131" result="shape"/>
<feColorMatrix in="SourceAlpha" type="matrix" values="0 0 0 0 0 0 0 0 0 0 0 0 0 0 0 0 0 0 127 0" result="hardAlpha"/>
<feOffset dy="3"/>
<feGaussianBlur stdDeviation="3.5"/>
<feComposite in2="hardAlpha" operator="arithmetic" k2="-1" k3="1"/>
<feColorMatrix type="matrix" values="0 0 0 0 1 0 0 0 0 1 0 0 0 0 1 0 0 0 1 0"/>
<feBlend mode="normal" in2="shape" result="effect2_innerShadow_35_3131"/>
</filter>
</defs>
</svg>
