<svg width="100" height="100" viewBox="0 0 100 100" fill="none" xmlns="http://www.w3.org/2000/svg">
<g filter="url(#filter0_di_22_3860)">
<path fill-rule="evenodd" clip-rule="evenodd" d="M19.4921 68.3455C15.5794 71.639 15.3231 77.5809 18.9375 81.1999C22.5561 84.8231 28.4986 84.561 31.785 80.6334L40.7816 69.8816C50.0076 58.8557 60.2012 48.6791 71.2402 39.4739L80.8575 31.4542C84.802 28.1649 85.0734 22.1941 81.4436 18.5596C77.8378 14.9493 71.922 15.1898 68.6204 19.081L58.4719 31.0419C49.5962 41.5027 39.8606 51.2004 29.3672 60.0332L19.4921 68.3455ZM36.4952 19.5328C41.1837 24.2273 41.1837 31.8386 36.4952 36.5331C31.8066 41.2276 24.205 41.2276 19.5164 36.5331C14.8279 31.8386 14.8279 24.2273 19.5164 19.5328C24.205 14.8383 31.8066 14.8383 36.4952 19.5328ZM80.3853 63.4788C85.0739 68.1733 85.0739 75.7846 80.3853 80.4791C75.6968 85.1736 68.0951 85.1736 63.4066 80.4791C58.718 75.7846 58.718 68.1733 63.4066 63.4788C68.0951 58.7843 75.6968 58.7843 80.3853 63.4788Z" fill="#E0E0FF"/>
</g>
<defs>
<filter id="filter0_di_22_3860" x="16" y="16" width="68" height="71" filterUnits="userSpaceOnUse" color-interpolation-filters="sRGB">
<feFlood flood-opacity="0" result="BackgroundImageFix"/>
<feColorMatrix in="SourceAlpha" type="matrix" values="0 0 0 0 0 0 0 0 0 0 0 0 0 0 0 0 0 0 127 0" result="hardAlpha"/>
<feMorphology radius="8" operator="erode" in="SourceAlpha" result="effect1_dropShadow_22_3860"/>
<feOffset dy="2"/>
<feGaussianBlur stdDeviation="2"/>
<feComposite in2="hardAlpha" operator="out"/>
<feColorMatrix type="matrix" values="0 0 0 0 0.0201736 0 0 0 0 0.0310764 0 0 0 0 0.0964931 0 0 0 0.12 0"/>
<feBlend mode="normal" in2="BackgroundImageFix" result="effect1_dropShadow_22_3860"/>
<feBlend mode="normal" in="SourceGraphic" in2="effect1_dropShadow_22_3860" result="shape"/>
<feColorMatrix in="SourceAlpha" type="matrix" values="0 0 0 0 0 0 0 0 0 0 0 0 0 0 0 0 0 0 127 0" result="hardAlpha"/>
<feOffset dy="3"/>
<feGaussianBlur stdDeviation="3.5"/>
<feComposite in2="hardAlpha" operator="arithmetic" k2="-1" k3="1"/>
<feColorMatrix type="matrix" values="0 0 0 0 1 0 0 0 0 1 0 0 0 0 1 0 0 0 1 0"/>
<feBlend mode="normal" in2="shape" result="effect2_innerShadow_22_3860"/>
</filter>
</defs>
</svg>
