<svg width="68" height="69" viewBox="0 0 68 69" fill="none" xmlns="http://www.w3.org/2000/svg">
<g filter="url(#filter0_di_35_3138)">
<path fill-rule="evenodd" clip-rule="evenodd" d="M3.4921 52.7152C-0.420564 56.0086 -0.676907 61.9505 2.93754 65.5695C6.55611 69.1927 12.4986 68.9307 15.785 65.003L24.7816 54.2513C34.0076 43.2253 44.2012 33.0488 55.2402 23.8435L64.8575 15.8238C68.802 12.5345 69.0734 6.56368 65.4436 2.92927C61.8378 -0.681065 55.922 -0.440553 52.6204 3.45062L42.4719 15.4115C33.5962 25.8724 23.8606 35.57 13.3672 44.4028L3.4921 52.7152ZM20.4952 3.90243C25.1837 8.59693 25.1837 16.2082 20.4952 20.9027C15.8066 25.5972 8.20497 25.5972 3.51641 20.9027C-1.17214 16.2082 -1.17214 8.59693 3.51641 3.90243C8.20497 -0.792076 15.8066 -0.792076 20.4952 3.90243ZM64.3853 47.8484C69.0739 52.5429 69.0739 60.1542 64.3853 64.8488C59.6968 69.5433 52.0951 69.5433 47.4066 64.8488C42.718 60.1542 42.718 52.5429 47.4066 47.8484C52.0951 43.1539 59.6968 43.1539 64.3853 47.8484Z" fill="#E0E0FF"/>
</g>
<defs>
<filter id="filter0_di_35_3138" x="0" y="0.369629" width="68" height="71" filterUnits="userSpaceOnUse" color-interpolation-filters="sRGB">
<feFlood flood-opacity="0" result="BackgroundImageFix"/>
<feColorMatrix in="SourceAlpha" type="matrix" values="0 0 0 0 0 0 0 0 0 0 0 0 0 0 0 0 0 0 127 0" result="hardAlpha"/>
<feMorphology radius="8" operator="erode" in="SourceAlpha" result="effect1_dropShadow_35_3138"/>
<feOffset dy="2"/>
<feGaussianBlur stdDeviation="2"/>
<feComposite in2="hardAlpha" operator="out"/>
<feColorMatrix type="matrix" values="0 0 0 0 0.0201736 0 0 0 0 0.0310764 0 0 0 0 0.0964931 0 0 0 0.12 0"/>
<feBlend mode="normal" in2="BackgroundImageFix" result="effect1_dropShadow_35_3138"/>
<feBlend mode="normal" in="SourceGraphic" in2="effect1_dropShadow_35_3138" result="shape"/>
<feColorMatrix in="SourceAlpha" type="matrix" values="0 0 0 0 0 0 0 0 0 0 0 0 0 0 0 0 0 0 127 0" result="hardAlpha"/>
<feOffset dy="3"/>
<feGaussianBlur stdDeviation="3.5"/>
<feComposite in2="hardAlpha" operator="arithmetic" k2="-1" k3="1"/>
<feColorMatrix type="matrix" values="0 0 0 0 1 0 0 0 0 1 0 0 0 0 1 0 0 0 1 0"/>
<feBlend mode="normal" in2="shape" result="effect2_innerShadow_35_3138"/>
</filter>
</defs>
</svg>
