<svg width="100" height="100" viewBox="0 0 100 100" fill="none" xmlns="http://www.w3.org/2000/svg">
<g filter="url(#filter0_di_22_3862)">
<path fill-rule="evenodd" clip-rule="evenodd" d="M32 50C41.9411 50 50 41.9411 50 32C50 22.0589 41.9411 14 32 14C22.0589 14 14 22.0589 14 32C14 41.9411 22.0589 50 32 50ZM24.1244 39.0684C23.234 38.178 23.234 36.7345 24.1244 35.8442L35.8859 24.0827C36.7762 23.1924 38.2197 23.1924 39.11 24.0827C40.0004 24.973 40.0004 26.4166 39.11 27.3069L27.3486 39.0684C26.4582 39.9587 25.0147 39.9587 24.1244 39.0684ZM28.3306 28.3764C29.4542 27.2528 29.4542 25.4312 28.3306 24.3076C27.207 23.184 25.3854 23.184 24.2618 24.3076C23.1382 25.4312 23.1382 27.2528 24.2618 28.3764C25.3854 29.5 27.207 29.5 28.3306 28.3764ZM38.8485 38.8945C39.9721 37.7709 39.9721 35.9492 38.8485 34.8256C37.7249 33.702 35.9033 33.702 34.7797 34.8256C33.6561 35.9492 33.6561 37.7709 34.7797 38.8945C35.9033 40.018 37.7249 40.018 38.8485 38.8945ZM57.0674 26.1673C56.9935 26.1444 56.9203 26.1198 56.8479 26.0935C56.6421 26.0187 56.443 25.93 56.252 25.8287C54.7108 25.0117 53.699 23.378 53.96 21.6205C54.2648 19.5686 56.1842 18.1308 58.1867 18.6721C58.5545 18.7715 58.9201 18.8774 59.2835 18.9896C59.4491 19.0407 59.6141 19.0931 59.7787 19.1468C64.5604 20.7081 68.9353 23.3757 72.5322 26.9631C76.1292 30.5506 78.8083 34.9184 80.3822 39.6959C80.4364 39.8604 80.4892 40.0253 80.5408 40.1907C80.6539 40.5538 80.7608 40.9192 80.8611 41.2867C81.4078 43.2878 79.975 45.2109 77.9239 45.5211C76.1671 45.7868 74.5308 44.7794 73.7096 43.2402C73.6079 43.0496 73.5187 42.8507 73.4433 42.6451C73.4168 42.5728 73.392 42.4997 73.3689 42.4258C72.181 38.6139 70.0807 35.1278 67.2274 32.282C64.3741 29.4362 60.8824 27.3452 57.0674 26.1673ZM42.4881 73.3883C42.5621 73.4111 42.6353 73.4357 42.7077 73.462C42.9135 73.5369 43.1126 73.6256 43.3035 73.7268C44.8448 74.5439 45.8566 76.1775 45.5955 77.9351C45.2908 79.987 43.3714 81.4248 41.3689 80.8835C41.0011 80.7841 40.6354 80.6782 40.272 80.566C40.1065 80.5149 39.9414 80.4625 39.7769 80.4087C34.9952 78.8475 30.6203 76.1799 27.0234 72.5924C23.4264 69.005 20.7472 64.6371 19.1734 59.8596C19.1192 59.6952 19.0663 59.5303 19.0148 59.3649C18.9016 59.0017 18.7948 58.6364 18.6944 58.2689C18.1478 56.2678 19.5806 54.3446 21.6316 54.0344C23.3885 53.7687 25.0248 54.7762 25.8459 56.3153C25.9477 56.506 26.0369 56.7049 26.1123 56.9104C26.1388 56.9827 26.1636 57.0559 26.1866 57.1298C27.3746 60.9416 29.4748 64.4278 32.3281 67.2736C35.1815 70.1194 38.6732 72.2104 42.4881 73.3883ZM86 68C86 77.9411 77.9411 86 68 86C58.0589 86 50 77.9411 50 68C50 58.0589 58.0589 50 68 50C77.9411 50 86 58.0589 86 68ZM66.0169 57.5556C65.2334 57.5556 64.6282 58.2616 64.7285 59.0586L65.1252 62.2122C65.1846 62.6849 65.577 63.0388 66.0417 63.0388C66.5119 63.0388 66.9072 62.6765 66.96 62.1973L67.3077 59.0375C67.3947 58.2475 66.792 57.5556 66.0169 57.5556ZM64.0036 62.7425C64.3065 63.11 64.2843 63.6542 63.9525 63.9945C63.6435 64.3115 63.1574 64.3558 62.7988 64.0995L60.4049 62.3892C59.7484 61.9202 59.665 60.9565 60.2307 60.3763C60.7623 59.8311 61.6347 59.8684 62.1201 60.4572L64.0036 62.7425ZM62.0808 65.2433C62.5481 65.2973 62.9012 65.7028 62.9012 66.1851C62.9012 66.6618 62.5562 67.0642 62.0953 67.1252L59.0209 67.5322C58.2439 67.635 57.5556 67.0142 57.5556 66.2106C57.5556 65.4155 58.2301 64.7973 59.0004 64.8865L62.0808 65.2433ZM62.402 68.2771C62.7859 67.9539 63.3443 67.9737 63.7055 68.3236C64.0792 68.6855 64.1194 69.281 63.798 69.6925L61.7955 72.2556C61.3035 72.8853 60.3872 72.937 59.8309 72.3663C59.279 71.8002 59.3235 70.8693 59.9268 70.3612L62.402 68.2771ZM69.8698 64.0871C69.445 64.44 68.8243 64.3854 68.4644 63.9634C68.1392 63.5822 68.128 63.0164 68.4379 62.622L70.216 60.3585C70.7078 59.7325 71.6203 59.6823 72.1745 60.2508C72.7278 60.8184 72.6801 61.7525 72.072 62.2577L69.8698 64.0871ZM69.4352 78.162C68.8539 78.7171 67.9045 78.4117 67.7364 77.6155L65.4456 66.7666C65.288 66.0199 65.9354 65.3557 66.6634 65.5175L77.1918 67.8564C77.9784 68.0312 78.2701 69.0255 77.7083 69.6166L75.8121 71.6117C75.4163 72.0281 75.4256 72.6951 75.8328 73.0996L77.5479 74.8037C77.9588 75.2119 77.964 75.8862 77.5596 76.3011L75.9499 77.9521C75.5488 78.3636 74.8981 78.3623 74.4986 77.9492L72.8733 76.2688C72.4838 75.8661 71.8531 75.8533 71.4484 76.2397L69.4352 78.162Z" fill="#E0E0FF"/>
</g>
<defs>
<filter id="filter0_di_22_3862" x="14" y="14" width="72" height="75" filterUnits="userSpaceOnUse" color-interpolation-filters="sRGB">
<feFlood flood-opacity="0" result="BackgroundImageFix"/>
<feColorMatrix in="SourceAlpha" type="matrix" values="0 0 0 0 0 0 0 0 0 0 0 0 0 0 0 0 0 0 127 0" result="hardAlpha"/>
<feMorphology radius="8" operator="erode" in="SourceAlpha" result="effect1_dropShadow_22_3862"/>
<feOffset dy="2"/>
<feGaussianBlur stdDeviation="2"/>
<feComposite in2="hardAlpha" operator="out"/>
<feColorMatrix type="matrix" values="0 0 0 0 0.0201736 0 0 0 0 0.0310764 0 0 0 0 0.0964931 0 0 0 0.12 0"/>
<feBlend mode="normal" in2="BackgroundImageFix" result="effect1_dropShadow_22_3862"/>
<feBlend mode="normal" in="SourceGraphic" in2="effect1_dropShadow_22_3862" result="shape"/>
<feColorMatrix in="SourceAlpha" type="matrix" values="0 0 0 0 0 0 0 0 0 0 0 0 0 0 0 0 0 0 127 0" result="hardAlpha"/>
<feOffset dy="3"/>
<feGaussianBlur stdDeviation="3.5"/>
<feComposite in2="hardAlpha" operator="arithmetic" k2="-1" k3="1"/>
<feColorMatrix type="matrix" values="0 0 0 0 1 0 0 0 0 1 0 0 0 0 1 0 0 0 1 0"/>
<feBlend mode="normal" in2="shape" result="effect2_innerShadow_22_3862"/>
</filter>
</defs>
</svg>
