<svg width="72" height="73" viewBox="0 0 72 73" fill="none" xmlns="http://www.w3.org/2000/svg">
<g filter="url(#filter0_di_35_3146)">
<path fill-rule="evenodd" clip-rule="evenodd" d="M18 36.3696C27.9411 36.3696 36 28.3107 36 18.3696C36 8.42855 27.9411 0.369629 18 0.369629C8.05887 0.369629 0 8.42855 0 18.3696C0 28.3107 8.05887 36.3696 18 36.3696ZM10.1244 25.438C9.23405 24.5476 9.23405 23.1041 10.1244 22.2138L21.8859 10.4523C22.7762 9.56201 24.2197 9.56201 25.11 10.4523C26.0004 11.3426 26.0004 12.7862 25.11 13.6765L13.3486 25.438C12.4582 26.3283 11.0147 26.3283 10.1244 25.438ZM14.3306 14.746C15.4542 13.6224 15.4542 11.8008 14.3306 10.6772C13.207 9.55366 11.3854 9.55366 10.2618 10.6772C9.13824 11.8008 9.13824 13.6224 10.2618 14.746C11.3854 15.8696 13.207 15.8696 14.3306 14.746ZM24.8485 25.2642C25.9721 24.1406 25.9721 22.3188 24.8485 21.1953C23.7249 20.0717 21.9033 20.0717 20.7797 21.1953C19.6561 22.3188 19.6561 24.1406 20.7797 25.2642C21.9033 26.3876 23.7249 26.3876 24.8485 25.2642ZM43.0674 12.5369C42.9935 12.5141 42.9203 12.4895 42.8479 12.4631C42.6421 12.3883 42.443 12.2996 42.252 12.1984C40.7108 11.3813 39.699 9.74767 39.96 7.99011C40.2648 5.93823 42.1842 4.50038 44.1867 5.04171C44.5545 5.14113 44.9201 5.24698 45.2835 5.35919C45.4491 5.41029 45.6141 5.46272 45.7787 5.51645C50.5604 7.07768 54.9353 9.74531 58.5322 13.3328C62.1292 16.9202 64.8083 21.2881 66.3822 26.0656C66.4364 26.23 66.4892 26.3949 66.5408 26.5603C66.6539 26.9234 66.7608 27.2888 66.8611 27.6563C67.4078 29.6574 65.975 31.5806 63.9239 31.8908C62.1671 32.1565 60.5308 31.149 59.7096 29.6099C59.6079 29.4192 59.5187 29.2203 59.4433 29.0147C59.4168 28.9424 59.392 28.8693 59.3689 28.7954C58.181 24.9836 56.0807 21.4974 53.2274 18.6516C50.3741 15.8058 46.8824 13.7148 43.0674 12.5369ZM28.4881 59.7579C28.5621 59.7807 28.6353 59.8054 28.7077 59.8317C28.9135 59.9065 29.1126 59.9952 29.3035 60.0965C30.8448 60.9135 31.8566 62.5471 31.5955 64.3047C31.2908 66.3566 29.3714 67.7944 27.3689 67.2531C27.0011 67.1537 26.6354 67.0478 26.272 66.9356C26.1065 66.8845 25.9414 66.8321 25.7769 66.7784C20.9952 65.2171 16.6203 62.5495 13.0234 58.962C9.4264 55.3746 6.74722 51.0068 5.17336 46.2292C5.11919 46.0648 5.06632 45.8999 5.01478 45.7345C4.90162 45.3714 4.7948 45.006 4.69442 44.6385C4.14779 42.6374 5.58056 40.7142 7.63163 40.404C9.38849 40.1384 11.0248 41.1458 11.8459 42.6849C11.9477 42.8756 12.0369 43.0745 12.1123 43.2801C12.1388 43.3524 12.1636 43.4255 12.1866 43.4994C13.3746 47.3113 15.4748 50.7974 18.3281 53.6432C21.1815 56.489 24.6732 58.58 28.4881 59.7579ZM72 54.3696C72 64.3107 63.9411 72.3696 54 72.3696C44.0589 72.3696 36 64.3107 36 54.3696C36 44.4285 44.0589 36.3696 54 36.3696C63.9411 36.3696 72 44.4285 72 54.3696ZM52.0169 43.9252C51.2334 43.9252 50.6282 44.6312 50.7285 45.4282L51.1252 48.5819C51.1846 49.0545 51.577 49.4085 52.0417 49.4085C52.5119 49.4085 52.9072 49.0462 52.96 48.5669L53.3077 45.4072C53.3947 44.6171 52.792 43.9252 52.0169 43.9252ZM50.0036 49.1121C50.3065 49.4797 50.2843 50.0238 49.9525 50.3641C49.6435 50.6812 49.1574 50.7254 48.7988 50.4691L46.4049 48.7588C45.7484 48.2899 45.665 47.3261 46.2307 46.7459C46.7623 46.2007 47.6347 46.238 48.1201 46.8269L50.0036 49.1121ZM48.0808 51.6129C48.5481 51.6669 48.9012 52.0724 48.9012 52.5547C48.9012 53.0314 48.5562 53.4339 48.0953 53.4948L45.0209 53.9019C44.2439 54.0046 43.5556 53.3838 43.5556 52.5802C43.5556 51.7851 44.2301 51.1669 45.0004 51.2561L48.0808 51.6129ZM48.402 54.6468C48.7859 54.3235 49.3443 54.3434 49.7055 54.6932C50.0792 55.0552 50.1194 55.6507 49.798 56.0621L47.7955 58.6253C47.3035 59.2549 46.3872 59.3066 45.8309 58.736C45.279 58.1699 45.3235 57.2389 45.9268 56.7309L48.402 54.6468ZM55.8698 50.4568C55.445 50.8096 54.8243 50.755 54.4644 50.3331C54.1392 49.9519 54.128 49.386 54.4379 48.9916L56.216 46.7281C56.7078 46.1022 57.6203 46.0519 58.1745 46.6204C58.7278 47.188 58.6801 48.1221 58.072 48.6273L55.8698 50.4568ZM55.4352 64.5316C54.8539 65.0868 53.9045 64.7813 53.7364 63.9851L51.4456 53.1362C51.288 52.3895 51.9354 51.7253 52.6634 51.8871L63.1918 54.2261C63.9784 54.4009 64.2701 55.3951 63.7083 55.9863L61.8121 57.9813C61.4163 58.3977 61.4256 59.0647 61.8328 59.4692L63.5479 61.1733C63.9588 61.5815 63.964 62.2558 63.5596 62.6707L61.9499 64.3218C61.5488 64.7332 60.8981 64.7319 60.4986 64.3188L58.8733 62.6384C58.4838 62.2357 57.8531 62.2229 57.4484 62.6093L55.4352 64.5316Z" fill="#E0E0FF"/>
</g>
<defs>
<filter id="filter0_di_35_3146" x="0" y="0.369629" width="72" height="75" filterUnits="userSpaceOnUse" color-interpolation-filters="sRGB">
<feFlood flood-opacity="0" result="BackgroundImageFix"/>
<feColorMatrix in="SourceAlpha" type="matrix" values="0 0 0 0 0 0 0 0 0 0 0 0 0 0 0 0 0 0 127 0" result="hardAlpha"/>
<feMorphology radius="8" operator="erode" in="SourceAlpha" result="effect1_dropShadow_35_3146"/>
<feOffset dy="2"/>
<feGaussianBlur stdDeviation="2"/>
<feComposite in2="hardAlpha" operator="out"/>
<feColorMatrix type="matrix" values="0 0 0 0 0.0201736 0 0 0 0 0.0310764 0 0 0 0 0.0964931 0 0 0 0.12 0"/>
<feBlend mode="normal" in2="BackgroundImageFix" result="effect1_dropShadow_35_3146"/>
<feBlend mode="normal" in="SourceGraphic" in2="effect1_dropShadow_35_3146" result="shape"/>
<feColorMatrix in="SourceAlpha" type="matrix" values="0 0 0 0 0 0 0 0 0 0 0 0 0 0 0 0 0 0 127 0" result="hardAlpha"/>
<feOffset dy="3"/>
<feGaussianBlur stdDeviation="3.5"/>
<feComposite in2="hardAlpha" operator="arithmetic" k2="-1" k3="1"/>
<feColorMatrix type="matrix" values="0 0 0 0 1 0 0 0 0 1 0 0 0 0 1 0 0 0 1 0"/>
<feBlend mode="normal" in2="shape" result="effect2_innerShadow_35_3146"/>
</filter>
</defs>
</svg>
