<svg width="20" height="20" viewBox="0 0 20 20" fill="none" xmlns="http://www.w3.org/2000/svg">
<g clip-path="url(#clip0_508_163)">
<path d="M10.0003 8.33244C10.8843 8.33244 11.732 7.9813 12.3571 7.35626C12.9821 6.73122 13.3332 5.88349 13.3332 4.99955C13.3332 4.11561 12.9821 3.26788 12.3571 2.64284C11.732 2.0178 10.8843 1.66666 10.0003 1.66666C9.11641 1.66666 8.26868 2.0178 7.64364 2.64284C7.0186 3.26788 6.66746 4.11561 6.66746 4.99955C6.66746 5.88349 7.0186 6.73122 7.64364 7.35626C8.26868 7.9813 9.11641 8.33244 10.0003 8.33244ZM5.5565 7.22148C5.5565 7.81077 5.3224 8.37592 4.90571 8.79261C4.48902 9.20931 3.92386 9.4434 3.33457 9.4434C2.74528 9.4434 2.18013 9.20931 1.76343 8.79261C1.34674 8.37592 1.11265 7.81077 1.11265 7.22148C1.11265 6.63218 1.34674 6.06703 1.76343 5.65034C2.18013 5.23365 2.74528 4.99955 3.33457 4.99955C3.92386 4.99955 4.48902 5.23365 4.90571 5.65034C5.3224 6.06703 5.5565 6.63218 5.5565 7.22148ZM0.546056 15.3604C0.356399 15.2526 0.214372 15.0773 0.148331 14.8693C-0.0474144 14.2353 -0.0494671 13.5574 0.142436 12.9222C0.334339 12.287 0.711462 11.7236 1.22551 11.304C1.73956 10.8845 2.36714 10.6279 3.02788 10.5672C3.68862 10.5065 4.35245 10.6444 4.93436 10.9632C3.73855 12.1383 2.9901 13.6938 2.81797 15.3615C2.79242 15.6081 2.80242 15.8525 2.84575 16.0881C2.03492 16.018 1.24962 15.7695 0.546056 15.3604ZM17.1549 16.087C17.9657 16.0172 18.751 15.7691 19.4546 15.3604C19.6439 15.2524 19.7855 15.0771 19.8513 14.8693C20.0473 14.2353 20.0496 13.5571 19.8578 12.9217C19.6661 12.2864 19.289 11.7227 18.7748 11.303C18.2607 10.8833 17.633 10.6266 16.9721 10.5659C16.3112 10.5051 15.6472 10.6431 15.0652 10.9621C16.2621 12.1372 17.0114 13.6931 17.1838 15.3615C17.2086 15.6038 17.1989 15.8485 17.1549 16.0881V16.087ZM18.8881 7.22148C18.8881 7.81077 18.654 8.37592 18.2373 8.79261C17.8206 9.20931 17.2554 9.4434 16.6661 9.4434C16.0768 9.4434 15.5117 9.20931 15.095 8.79261C14.6783 8.37592 14.4442 7.81077 14.4442 7.22148C14.4442 6.63218 14.6783 6.06703 15.095 5.65034C15.5117 5.23365 16.0768 4.99955 16.6661 4.99955C17.2554 4.99955 17.8206 5.23365 18.2373 5.65034C18.654 6.06703 18.8881 6.63218 18.8881 7.22148ZM4.78327 16.3203C4.6737 16.2221 4.58876 16.0996 4.5353 15.9626C4.48184 15.8256 4.46137 15.6779 4.47553 15.5315C4.61684 14.1644 5.25992 12.8983 6.28046 11.9778C7.30101 11.0573 8.62656 10.5478 10.0009 10.5478C11.3752 10.5478 12.7008 11.0573 13.7213 11.9778C14.7419 12.8983 15.385 14.1644 15.5263 15.5315C15.5405 15.6779 15.5201 15.8256 15.4666 15.9626C15.4132 16.0997 15.3282 16.2222 15.2185 16.3203C13.7901 17.6167 11.9294 18.3337 10.0003 18.3311C8.07166 18.3335 6.2114 17.6165 4.78327 16.3203Z" fill="#9EA8DD"/>
</g>
<defs>
<clipPath id="clip0_508_163">
<rect width="20" height="20" fill="white"/>
</clipPath>
</defs>
</svg>
