<svg width="20" height="20" viewBox="0 0 20 20" fill="none" xmlns="http://www.w3.org/2000/svg">
  <path fill-rule="evenodd" clip-rule="evenodd" d="M10.052 0h-.104C9.049 0 8.3 4e-8 7.706.0771085 7.078.158072 6.511.337349 6.056.775904c-.456.439516-.642.986026-.726 1.590366-.057.41156-.074 1.39373-.078 2.23614-2.022.06458-3.237.29205-4.08 1.10554C-1.2e-7 6.83663 0 8.65446 0 12.2892c0 3.6347-1.2e-7 5.4525 1.172 6.5812C2.343 20 4.229 20 8 20h4c3.771 0 5.657 0 6.828-1.1296C20 17.7417 20 15.9239 20 12.2892c0-3.63474 0-5.45257-1.172-6.58125-.843-.81349-2.058-1.04096-4.08-1.10458-.004-.84337-.02-1.82554-.078-2.23614-.084-.6053-.27-1.15181-.726-1.590362-.455-.439519-1.022-.618796-1.65-.6997595C11.7 4e-8 10.95 0 10.052 0Zm3.196 4.58024c-.005-.81638-.019-1.69446-.064-2.0212-.063-.44434-.17-.63518-.3-.76049-.13-.1253-.328-.22843-.79-.28915-.482-.06169-1.13-.06362-2.094-.06362s-1.612.00193-2.095.06458c-.461.05976-.659.16289-.789.28916-.13.1253-.237.31518-.3.75952-.045.32771-.06 1.20482-.064 2.0212.391-.00193.808-.00193 1.248-.00193h4c.441 0 .857 0 1.248.00193ZM10 7.71084c.1989 0 .3897.07617.5303.21173.1407.13557.2197.31944.2197.51116v.00964c1.089.2641 2 1.09205 2 2.23903 0 .1917-.079.3756-.2197.5112-.1406.1355-.3314.2117-.5303.2117-.1989 0-.3897-.0762-.5303-.2117-.1407-.1356-.2197-.3195-.2197-.5112 0-.3701-.426-.88288-1.25-.88288-.824 0-1.25.51278-1.25.88288s.426.8839 1.25.8839c1.385 0 2.75.9253 2.75 2.3296 0 1.147-.911 1.974-2 2.239v.0097c0 .1917-.079.3756-.2197.5111-.1406.1356-.3314.2118-.5303.2118-.19891 0-.38968-.0762-.53033-.2118-.14065-.1355-.21967-.3194-.21967-.5111v-.0097c-1.089-.2641-2-1.092-2-2.239 0-.1917.07902-.3756.21967-.5112.14065-.1355.33142-.2117.53033-.2117.19891 0 .38968.0762.53033.2117.14065.1356.21967.3195.21967.5112 0 .3701.426.8829 1.25.8829.824 0 1.25-.5128 1.25-.8829s-.426-.8839-1.25-.8839c-1.385 0-2.75-.9253-2.75-2.3296 0-1.14698.911-1.97493 2-2.23903v-.00964c0-.19172.07902-.37559.21967-.51116.14065-.13556.33142-.21173.53033-.21173Z" fill="#9EA8DD"/>
</svg>
