<svg width="20" height="20" viewBox="0 0 20 20" fill="none" xmlns="http://www.w3.org/2000/svg">
  <g clip-path="url(#a)">
    <path fill-rule="evenodd" clip-rule="evenodd" d="M11.9697 3.333c0-1.84 1.5-3.33299803 3.348-3.33299803.4387-.00105183.8734.08432453 1.2791.25125403.4058.16693.7747.412144 1.0857.721642.3109.309502.5579.677222.7268 1.082162.1689.40495.2563.83919.2574 1.27794 0 1.841-1.5 3.334-3.349 3.334-.4434.00054-.8825-.08705-1.2918-.25769-.4093-.17064-.7805-.42093-1.0922-.73631L8.29868 8.82899c.12909.643.06578 1.30981-.182 1.91701l5.08202 3.34c.5985-.4882 1.3476-.7542 2.12-.753.4387-.0009.8734.0846 1.2791.2516.4057.1671.7745.4124 1.0854.722.3109.3096.5577.6774.7265 1.0824.1687.405.2561.8392.257 1.278 0 1.84-1.5 3.333-3.349 3.333-.8859.0018-1.7363-.3482-2.3642-.9733-.6278-.625-.9817-1.4738-.9838-2.3597-.0008-.4674.0977-.9296.289-1.356L7.21668 12c-.61059.5309-1.39287.8226-2.202.821-.43878.001-.87347-.0844-1.27923-.2514-.40576-.167-.77464-.4123-1.08555-.7219-.31092-.3096-.55778-.6775-.72649-1.0825-.1687-.4051-.25594-.83942-.25672-1.27821.00092-.43869.08825-.87292.25701-1.27786.16876-.40494.41565-.77267.72655-1.08218.3109-.30951.67974-.55474 1.08543-.72168.4057-.16694.84031-.25232 1.279-.25127 1.064 0 2.01.493 2.623 1.261l4.49302-3.059c-.1069-.33047-.1612-.67567-.161-1.023Z" fill="#9EA8DD"/>
  </g>
  <defs>
    <clipPath id="a">
      <path fill="#fff" d="M0 0h20v20H0z"/>
    </clipPath>
  </defs>
</svg>
