<svg width="41" height="41" viewBox="0 0 41 41" fill="none" xmlns="http://www.w3.org/2000/svg">
<path d="M39.8333 20.3129C39.8333 30.9572 31.1793 39.5894 20.5 39.5894C9.82071 39.5894 1.16667 30.9572 1.16667 20.3129C1.16667 9.66849 9.82071 1.0363 20.5 1.0363C31.1793 1.0363 39.8333 9.66849 39.8333 20.3129Z" fill="url(#paint0_linear_35_3181)" fill-opacity="0.32" stroke="url(#paint1_linear_35_3181)" stroke-width="1.33333"/>
<g filter="url(#filter0_di_35_3181)">
<path fill-rule="evenodd" clip-rule="evenodd" d="M14.2654 14.3032C14.9853 13.5311 16.0146 13.093 17.2447 13.093H23.7556C24.9889 13.093 26.0183 13.531 26.7374 14.3035C27.4535 15.0728 27.8332 16.1426 27.8332 17.359V17.9118H13.1665V17.359C13.1665 16.1421 13.5483 15.0723 14.2654 14.3032ZM15.5126 16.2201C15.5126 15.9003 15.7718 15.6411 16.0915 15.6411H16.1343C16.4541 15.6411 16.7133 15.9003 16.7133 16.2201C16.7133 16.5398 16.4541 16.7991 16.1343 16.7991H16.0915C15.7718 16.7991 15.5126 16.5398 15.5126 16.2201ZM17.4313 16.2201C17.4313 15.9003 17.6905 15.6411 18.0103 15.6411H18.0531C18.3728 15.6411 18.6321 15.9003 18.6321 16.2201C18.6321 16.5398 18.3728 16.7991 18.0531 16.7991H18.0103C17.6905 16.7991 17.4313 16.5398 17.4313 16.2201ZM19.3507 16.2201C19.3507 15.9003 19.61 15.6411 19.9297 15.6411H19.9725C20.2923 15.6411 20.5515 15.9003 20.5515 16.2201C20.5515 16.5398 20.2923 16.7991 19.9725 16.7991H19.9297C19.61 16.7991 19.3507 16.5398 19.3507 16.2201ZM13.1665 19.0697V23.4936C13.1665 24.7101 13.5463 25.7799 14.2627 26.5492C14.982 27.3217 16.0115 27.7597 17.2447 27.7597H19.9539V23.5958L18.9385 24.6116C18.7124 24.8377 18.3458 24.8378 18.1197 24.6118C17.8935 24.3857 17.8935 24.019 18.1195 23.7929L20.1235 21.7883C20.232 21.6797 20.3793 21.6186 20.5328 21.6186C20.6865 21.6186 20.8338 21.6796 20.9423 21.7882L22.9469 23.7929C23.173 24.019 23.173 24.3856 22.9469 24.6117C22.7208 24.8378 22.3543 24.8378 22.1282 24.6117L21.1119 23.5954V27.7597H23.755C24.9885 27.7597 26.018 27.3217 26.7372 26.5492C27.4535 25.7798 27.8332 24.71 27.8332 23.4936V19.0697H13.1665Z" fill="url(#paint2_radial_35_3181)"/>
</g>
<defs>
<filter id="filter0_di_35_3181" x="13.1665" y="13.093" width="14.6667" height="16.6666" filterUnits="userSpaceOnUse" color-interpolation-filters="sRGB">
<feFlood flood-opacity="0" result="BackgroundImageFix"/>
<feColorMatrix in="SourceAlpha" type="matrix" values="0 0 0 0 0 0 0 0 0 0 0 0 0 0 0 0 0 0 127 0" result="hardAlpha"/>
<feMorphology radius="5.33333" operator="erode" in="SourceAlpha" result="effect1_dropShadow_35_3181"/>
<feOffset dy="1.33333"/>
<feGaussianBlur stdDeviation="1.33333"/>
<feComposite in2="hardAlpha" operator="out"/>
<feColorMatrix type="matrix" values="0 0 0 0 0.0201736 0 0 0 0 0.0310764 0 0 0 0 0.0964931 0 0 0 0.12 0"/>
<feBlend mode="normal" in2="BackgroundImageFix" result="effect1_dropShadow_35_3181"/>
<feBlend mode="normal" in="SourceGraphic" in2="effect1_dropShadow_35_3181" result="shape"/>
<feColorMatrix in="SourceAlpha" type="matrix" values="0 0 0 0 0 0 0 0 0 0 0 0 0 0 0 0 0 0 127 0" result="hardAlpha"/>
<feOffset dy="2"/>
<feGaussianBlur stdDeviation="3.66667"/>
<feComposite in2="hardAlpha" operator="arithmetic" k2="-1" k3="1"/>
<feColorMatrix type="matrix" values="0 0 0 0 0.191667 0 0 0 0 0.708366 0 0 0 0 1 0 0 0 1 0"/>
<feBlend mode="normal" in2="shape" result="effect2_innerShadow_35_3181"/>
</filter>
<linearGradient id="paint0_linear_35_3181" x1="0.499999" y1="40.3696" x2="40.3863" y2="0.369789" gradientUnits="userSpaceOnUse">
<stop stop-color="#6B40EA"/>
<stop offset="1" stop-color="#00A3FF"/>
</linearGradient>
<linearGradient id="paint1_linear_35_3181" x1="0.499999" y1="40.3696" x2="40.3863" y2="0.369789" gradientUnits="userSpaceOnUse">
<stop stop-color="#00A3FF"/>
<stop offset="1" stop-color="#6B40EA"/>
</linearGradient>
<radialGradient id="paint2_radial_35_3181" cx="0" cy="0" r="1" gradientUnits="userSpaceOnUse" gradientTransform="translate(18.0249 21.5485) rotate(-53.384) scale(36.1164)">
<stop stop-color="#00A3FF"/>
<stop offset="1" stop-color="#6B40EA"/>
</radialGradient>
</defs>
</svg>
