<svg width="40" height="41" viewBox="0 0 40 41" fill="none" xmlns="http://www.w3.org/2000/svg">
<path d="M39.3333 20.3129C39.3333 30.9572 30.6793 39.5894 20 39.5894C9.32071 39.5894 0.666667 30.9572 0.666667 20.3129C0.666667 9.66849 9.32071 1.0363 20 1.0363C30.6793 1.0363 39.3333 9.66849 39.3333 20.3129Z" fill="url(#paint0_linear_35_3188)" fill-opacity="0.32" stroke="url(#paint1_linear_35_3188)" stroke-width="1.33333"/>
<g filter="url(#filter0_di_35_3188)">
<path fill-rule="evenodd" clip-rule="evenodd" d="M22.5562 23.0027C22.7736 23.2277 23.1303 23.2337 23.3545 23.017C23.5795 22.8003 23.5855 22.4437 23.3696 22.2187L22.122 20.9282C21.9339 20.7311 21.6773 20.6318 21.3974 20.6325C21.1258 20.6415 20.8692 20.7657 20.6946 20.9726L19.2552 22.6724L18.6284 21.9749C18.4493 21.7747 18.1942 21.6573 17.9264 21.6536C17.6788 21.6611 17.3981 21.7589 17.2123 21.9538L16.3003 22.9154C16.0859 23.1419 16.0957 23.4993 16.3214 23.713C16.5464 23.9267 16.9038 23.9184 17.119 23.692L17.9076 22.8613L18.5419 23.5678C18.7255 23.771 18.9851 23.8868 19.2582 23.8868H19.2695C19.5479 23.8838 19.8112 23.7597 19.9933 23.5467L21.4365 21.8425L22.5562 23.0027ZM18.5216 19.8176C18.5216 19.3978 18.1807 19.0569 17.7608 19.0569C17.3417 19.0569 17.0009 19.3978 17.0009 19.8176C17.0009 20.2367 17.3417 20.5776 17.7608 20.5776C18.1807 20.5776 18.5216 20.2367 18.5216 19.8176ZM23.6781 18.2413H25.9068C26.0881 18.2413 26.2334 18.388 26.2334 18.5708V24.467C26.2334 26.2856 24.7744 27.7597 22.9663 27.7597H17.1942C15.3064 27.7597 13.7668 26.2119 13.7668 24.3052V16.4C13.7668 14.5814 15.2341 13.093 17.0415 13.093H20.9188C21.1077 13.093 21.2529 13.2473 21.2529 13.4301V15.792C21.2529 17.1337 22.3492 18.2337 23.6781 18.2413ZM25.5811 17.175C24.9844 17.1772 24.2808 17.175 23.7745 17.1697C22.9716 17.1697 22.3102 16.5015 22.3102 15.6904V13.7574C22.3102 13.4413 22.6894 13.2848 22.9069 13.5128C23.2997 13.9251 23.8399 14.4925 24.3779 15.0576L24.6181 15.3099C25.0702 15.7848 25.5045 16.2412 25.8301 16.5828C26.0416 16.8055 25.8866 17.1742 25.5811 17.175Z" fill="black"/>
<path fill-rule="evenodd" clip-rule="evenodd" d="M22.5562 23.0027C22.7736 23.2277 23.1303 23.2337 23.3545 23.017C23.5795 22.8003 23.5855 22.4437 23.3696 22.2187L22.122 20.9282C21.9339 20.7311 21.6773 20.6318 21.3974 20.6325C21.1258 20.6415 20.8692 20.7657 20.6946 20.9726L19.2552 22.6724L18.6284 21.9749C18.4493 21.7747 18.1942 21.6573 17.9264 21.6536C17.6788 21.6611 17.3981 21.7589 17.2123 21.9538L16.3003 22.9154C16.0859 23.1419 16.0957 23.4993 16.3214 23.713C16.5464 23.9267 16.9038 23.9184 17.119 23.692L17.9076 22.8613L18.5419 23.5678C18.7255 23.771 18.9851 23.8868 19.2582 23.8868H19.2695C19.5479 23.8838 19.8112 23.7597 19.9933 23.5467L21.4365 21.8425L22.5562 23.0027ZM18.5216 19.8176C18.5216 19.3978 18.1807 19.0569 17.7608 19.0569C17.3417 19.0569 17.0009 19.3978 17.0009 19.8176C17.0009 20.2367 17.3417 20.5776 17.7608 20.5776C18.1807 20.5776 18.5216 20.2367 18.5216 19.8176ZM23.6781 18.2413H25.9068C26.0881 18.2413 26.2334 18.388 26.2334 18.5708V24.467C26.2334 26.2856 24.7744 27.7597 22.9663 27.7597H17.1942C15.3064 27.7597 13.7668 26.2119 13.7668 24.3052V16.4C13.7668 14.5814 15.2341 13.093 17.0415 13.093H20.9188C21.1077 13.093 21.2529 13.2473 21.2529 13.4301V15.792C21.2529 17.1337 22.3492 18.2337 23.6781 18.2413ZM25.5811 17.175C24.9844 17.1772 24.2808 17.175 23.7745 17.1697C22.9716 17.1697 22.3102 16.5015 22.3102 15.6904V13.7574C22.3102 13.4413 22.6894 13.2848 22.9069 13.5128C23.2997 13.9251 23.8399 14.4925 24.3779 15.0576L24.6181 15.3099C25.0702 15.7848 25.5045 16.2412 25.8301 16.5828C26.0416 16.8055 25.8866 17.1742 25.5811 17.175Z" fill="url(#paint2_radial_35_3188)"/>
</g>
<defs>
<filter id="filter0_di_35_3188" x="13.7668" y="13.093" width="12.4666" height="16.6667" filterUnits="userSpaceOnUse" color-interpolation-filters="sRGB">
<feFlood flood-opacity="0" result="BackgroundImageFix"/>
<feColorMatrix in="SourceAlpha" type="matrix" values="0 0 0 0 0 0 0 0 0 0 0 0 0 0 0 0 0 0 127 0" result="hardAlpha"/>
<feMorphology radius="5.33333" operator="erode" in="SourceAlpha" result="effect1_dropShadow_35_3188"/>
<feOffset dy="1.33333"/>
<feGaussianBlur stdDeviation="1.33333"/>
<feComposite in2="hardAlpha" operator="out"/>
<feColorMatrix type="matrix" values="0 0 0 0 0.0201736 0 0 0 0 0.0310764 0 0 0 0 0.0964931 0 0 0 0.12 0"/>
<feBlend mode="normal" in2="BackgroundImageFix" result="effect1_dropShadow_35_3188"/>
<feBlend mode="normal" in="SourceGraphic" in2="effect1_dropShadow_35_3188" result="shape"/>
<feColorMatrix in="SourceAlpha" type="matrix" values="0 0 0 0 0 0 0 0 0 0 0 0 0 0 0 0 0 0 127 0" result="hardAlpha"/>
<feOffset dy="2"/>
<feGaussianBlur stdDeviation="3.66667"/>
<feComposite in2="hardAlpha" operator="arithmetic" k2="-1" k3="1"/>
<feColorMatrix type="matrix" values="0 0 0 0 0.191667 0 0 0 0 0.708366 0 0 0 0 1 0 0 0 1 0"/>
<feBlend mode="normal" in2="shape" result="effect2_innerShadow_35_3188"/>
</filter>
<linearGradient id="paint0_linear_35_3188" x1="-7.45058e-07" y1="40.3696" x2="39.8863" y2="0.369789" gradientUnits="userSpaceOnUse">
<stop stop-color="#6B40EA"/>
<stop offset="1" stop-color="#00A3FF"/>
</linearGradient>
<linearGradient id="paint1_linear_35_3188" x1="-7.45058e-07" y1="40.3696" x2="39.8863" y2="0.369789" gradientUnits="userSpaceOnUse">
<stop stop-color="#00A3FF"/>
<stop offset="1" stop-color="#6B40EA"/>
</linearGradient>
<radialGradient id="paint2_radial_35_3188" cx="0" cy="0" r="1" gradientUnits="userSpaceOnUse" gradientTransform="translate(17.8965 21.5485) rotate(-57.7224) scale(34.2872 32.3363)">
<stop stop-color="#00A3FF"/>
<stop offset="1" stop-color="#6B40EA"/>
</radialGradient>
</defs>
</svg>
