<svg width="41" height="41" viewBox="0 0 41 41" fill="none" xmlns="http://www.w3.org/2000/svg">
<path d="M39.8333 20.3129C39.8333 30.9572 31.1793 39.5894 20.5 39.5894C9.82071 39.5894 1.16667 30.9572 1.16667 20.3129C1.16667 9.66849 9.82071 1.0363 20.5 1.0363C31.1793 1.0363 39.8333 9.66849 39.8333 20.3129Z" fill="url(#paint0_linear_35_3195)" fill-opacity="0.32" stroke="url(#paint1_linear_35_3195)" stroke-width="1.33333"/>
<g filter="url(#filter0_di_35_3195)">
<path fill-rule="evenodd" clip-rule="evenodd" d="M17.8193 16.922C17.7147 16.922 17.6231 16.8519 17.5958 16.751L16.6877 13.3985C16.6508 13.2623 16.7431 13.1226 16.8835 13.108C16.9683 13.0992 17.0543 13.093 17.1434 13.093H18.88C18.9846 13.093 19.076 13.1627 19.1034 13.2636C19.2515 13.8088 19.7212 15.5371 20.0233 16.6289C20.0642 16.7766 19.953 16.922 19.7998 16.922H17.8193ZM22.556 13.093C22.6606 13.093 22.7521 13.1627 22.7795 13.2636C22.9275 13.8086 23.3975 15.5363 23.7001 16.6288C23.741 16.7765 23.6297 16.922 23.4765 16.922H21.4832C21.3792 16.922 21.288 16.8527 21.2601 16.7526L20.3223 13.3868C20.2812 13.2392 20.3922 13.093 20.5454 13.093H22.556ZM24.9363 16.7524C24.9642 16.8526 25.0554 16.9219 25.1594 16.9219H27.3352C27.4642 16.9219 27.5689 16.8162 27.5616 16.6874C27.4463 14.655 26.1503 13.2708 24.2275 13.1129C24.0735 13.1003 23.9597 13.2473 24.0011 13.3962L24.9363 16.7524ZM16.3629 16.6292C16.4028 16.7765 16.2919 16.9214 16.1393 16.9214H13.6656C13.5367 16.9214 13.432 16.8157 13.4393 16.687C13.5206 15.2538 14.1923 14.1471 15.2554 13.5616C15.3803 13.4927 15.5325 13.5647 15.5698 13.7024L16.3629 16.6292ZM20.01 20.6457C19.9359 20.6156 19.8648 20.5993 19.8008 20.5993C19.7444 20.5993 19.6935 20.6117 19.6533 20.6349C19.5784 20.6781 19.5321 20.763 19.5159 20.8873C19.4248 21.7017 19.4248 22.5741 19.5174 23.4695C19.5259 23.5313 19.5553 23.6641 19.6502 23.7197C19.7321 23.7675 19.8633 23.7613 20.0123 23.7019C20.6862 23.4325 21.3285 23.0303 21.8696 22.5378C21.9584 22.4567 22.0642 22.3278 22.0634 22.1734C22.0634 22.0182 21.9584 21.8916 21.8712 21.8129C21.3323 21.3211 20.7071 20.929 20.01 20.6457ZM20.443 24.7768C21.2435 24.4564 22.0054 23.9786 22.6485 23.3942C23.019 23.0568 23.2228 22.6222 23.2213 22.1698C23.2205 21.7182 23.0159 21.2867 22.6493 20.9555C22.0116 20.3735 21.2705 19.908 20.4507 19.5753C19.9798 19.3799 19.4788 19.3992 19.075 19.6316C18.6829 19.8578 18.432 20.25 18.3664 20.7479C18.2653 21.6549 18.2645 22.6106 18.3672 23.6011C18.4289 24.0928 18.676 24.4896 19.0619 24.7173C19.2804 24.8463 19.5259 24.9111 19.7837 24.9111C19.9975 24.9111 20.2199 24.8663 20.443 24.7768ZM13.4258 18.3108C13.4258 18.1829 13.5295 18.0792 13.6574 18.0792H27.3428C27.4707 18.0792 27.5744 18.1829 27.5744 18.3108V23.869C27.5744 26.1964 26.0807 27.7597 23.8558 27.7597H17.1436C14.9203 27.7597 13.4258 26.1964 13.4258 23.869V18.3108Z" fill="black"/>
<path fill-rule="evenodd" clip-rule="evenodd" d="M17.8193 16.922C17.7147 16.922 17.6231 16.8519 17.5958 16.751L16.6877 13.3985C16.6508 13.2623 16.7431 13.1226 16.8835 13.108C16.9683 13.0992 17.0543 13.093 17.1434 13.093H18.88C18.9846 13.093 19.076 13.1627 19.1034 13.2636C19.2515 13.8088 19.7212 15.5371 20.0233 16.6289C20.0642 16.7766 19.953 16.922 19.7998 16.922H17.8193ZM22.556 13.093C22.6606 13.093 22.7521 13.1627 22.7795 13.2636C22.9275 13.8086 23.3975 15.5363 23.7001 16.6288C23.741 16.7765 23.6297 16.922 23.4765 16.922H21.4832C21.3792 16.922 21.288 16.8527 21.2601 16.7526L20.3223 13.3868C20.2812 13.2392 20.3922 13.093 20.5454 13.093H22.556ZM24.9363 16.7524C24.9642 16.8526 25.0554 16.9219 25.1594 16.9219H27.3352C27.4642 16.9219 27.5689 16.8162 27.5616 16.6874C27.4463 14.655 26.1503 13.2708 24.2275 13.1129C24.0735 13.1003 23.9597 13.2473 24.0011 13.3962L24.9363 16.7524ZM16.3629 16.6292C16.4028 16.7765 16.2919 16.9214 16.1393 16.9214H13.6656C13.5367 16.9214 13.432 16.8157 13.4393 16.687C13.5206 15.2538 14.1923 14.1471 15.2554 13.5616C15.3803 13.4927 15.5325 13.5647 15.5698 13.7024L16.3629 16.6292ZM20.01 20.6457C19.9359 20.6156 19.8648 20.5993 19.8008 20.5993C19.7444 20.5993 19.6935 20.6117 19.6533 20.6349C19.5784 20.6781 19.5321 20.763 19.5159 20.8873C19.4248 21.7017 19.4248 22.5741 19.5174 23.4695C19.5259 23.5313 19.5553 23.6641 19.6502 23.7197C19.7321 23.7675 19.8633 23.7613 20.0123 23.7019C20.6862 23.4325 21.3285 23.0303 21.8696 22.5378C21.9584 22.4567 22.0642 22.3278 22.0634 22.1734C22.0634 22.0182 21.9584 21.8916 21.8712 21.8129C21.3323 21.3211 20.7071 20.929 20.01 20.6457ZM20.443 24.7768C21.2435 24.4564 22.0054 23.9786 22.6485 23.3942C23.019 23.0568 23.2228 22.6222 23.2213 22.1698C23.2205 21.7182 23.0159 21.2867 22.6493 20.9555C22.0116 20.3735 21.2705 19.908 20.4507 19.5753C19.9798 19.3799 19.4788 19.3992 19.075 19.6316C18.6829 19.8578 18.432 20.25 18.3664 20.7479C18.2653 21.6549 18.2645 22.6106 18.3672 23.6011C18.4289 24.0928 18.676 24.4896 19.0619 24.7173C19.2804 24.8463 19.5259 24.9111 19.7837 24.9111C19.9975 24.9111 20.2199 24.8663 20.443 24.7768ZM13.4258 18.3108C13.4258 18.1829 13.5295 18.0792 13.6574 18.0792H27.3428C27.4707 18.0792 27.5744 18.1829 27.5744 18.3108V23.869C27.5744 26.1964 26.0807 27.7597 23.8558 27.7597H17.1436C14.9203 27.7597 13.4258 26.1964 13.4258 23.869V18.3108Z" fill="url(#paint2_radial_35_3195)"/>
</g>
<defs>
<filter id="filter0_di_35_3195" x="13.4258" y="13.093" width="14.1487" height="16.6667" filterUnits="userSpaceOnUse" color-interpolation-filters="sRGB">
<feFlood flood-opacity="0" result="BackgroundImageFix"/>
<feColorMatrix in="SourceAlpha" type="matrix" values="0 0 0 0 0 0 0 0 0 0 0 0 0 0 0 0 0 0 127 0" result="hardAlpha"/>
<feMorphology radius="5.33333" operator="erode" in="SourceAlpha" result="effect1_dropShadow_35_3195"/>
<feOffset dy="1.33333"/>
<feGaussianBlur stdDeviation="1.33333"/>
<feComposite in2="hardAlpha" operator="out"/>
<feColorMatrix type="matrix" values="0 0 0 0 0.0201736 0 0 0 0 0.0310764 0 0 0 0 0.0964931 0 0 0 0.12 0"/>
<feBlend mode="normal" in2="BackgroundImageFix" result="effect1_dropShadow_35_3195"/>
<feBlend mode="normal" in="SourceGraphic" in2="effect1_dropShadow_35_3195" result="shape"/>
<feColorMatrix in="SourceAlpha" type="matrix" values="0 0 0 0 0 0 0 0 0 0 0 0 0 0 0 0 0 0 127 0" result="hardAlpha"/>
<feOffset dy="2"/>
<feGaussianBlur stdDeviation="3.66667"/>
<feComposite in2="hardAlpha" operator="arithmetic" k2="-1" k3="1"/>
<feColorMatrix type="matrix" values="0 0 0 0 0.191667 0 0 0 0 0.708366 0 0 0 0 1 0 0 0 1 0"/>
<feBlend mode="normal" in2="shape" result="effect2_innerShadow_35_3195"/>
</filter>
<linearGradient id="paint0_linear_35_3195" x1="0.499999" y1="40.3696" x2="40.3863" y2="0.369789" gradientUnits="userSpaceOnUse">
<stop stop-color="#6B40EA"/>
<stop offset="1" stop-color="#00A3FF"/>
</linearGradient>
<linearGradient id="paint1_linear_35_3195" x1="0.499999" y1="40.3696" x2="40.3863" y2="0.369789" gradientUnits="userSpaceOnUse">
<stop stop-color="#00A3FF"/>
<stop offset="1" stop-color="#6B40EA"/>
</linearGradient>
<radialGradient id="paint2_radial_35_3195" cx="0" cy="0" r="1" gradientUnits="userSpaceOnUse" gradientTransform="translate(18.1126 21.5485) rotate(-54.3651) scale(35.6678 35.2789)">
<stop stop-color="#00A3FF"/>
<stop offset="1" stop-color="#6B40EA"/>
</radialGradient>
</defs>
</svg>
