<svg width="12" height="12" viewBox="0 0 12 12" fill="none" xmlns="http://www.w3.org/2000/svg">
  <g clip-path="url(#a)">
    <path d="M3 10c.27778 0 .514-.09733.70867-.292C3.90333 9.51333 4.00044 9.27733 4 9c0-.27778-.09733-.514-.292-.70867C3.51333 8.09667 3.27733 7.99956 3 8c-.27778 0-.514.09733-.70867.292C2.09667 8.48667 1.99956 8.72267 2 9c0 .27778.09733.514.292.70867.19467.19466.43067.29173.708.29133Zm0-6c.27778 0 .514-.09733.70867-.292C3.90333 3.51333 4.00044 3.27733 4 3c0-.27778-.09733-.514-.292-.70867C3.51333 2.09667 3.27733 1.99956 3 2c-.27778 0-.514.09733-.70867.292C2.09667 2.48667 1.99956 2.72267 2 3c0 .27778.09733.514.292.70867.19467.19466.43067.29177.708.29133Zm3 3c.27778 0 .514-.09733.70867-.292C6.90333 6.51333 7.00044 6.27733 7 6c0-.27778-.09733-.514-.292-.70867C6.51333 5.09667 6.27733 4.99956 6 5c-.27778 0-.514.09733-.70867.292C5.09667 5.48667 4.99956 5.72267 5 6c0 .27778.09733.514.292.70867.19467.19466.43067.29177.708.29133Zm3 3c.27778 0 .514-.09733.70867-.292.19466-.19467.29173-.43067.29133-.708 0-.27778-.09733-.514-.292-.70867C9.51333 8.09667 9.27733 7.99956 9 8c-.27778 0-.514.09733-.70867.292C8.09667 8.48667 7.99956 8.72267 8 9c0 .27778.09733.514.292.70867.19467.19466.43067.29173.708.29133Zm0-6c.27778 0 .514-.09733.70867-.292.19466-.19467.29173-.43067.29133-.708 0-.27778-.09733-.514-.292-.70867C9.51333 2.09667 9.27733 1.99956 9 2c-.27778 0-.514.09733-.70867.292C8.09667 2.48667 7.99956 2.72267 8 3c0 .27778.09733.514.292.70867.19467.19466.43067.29177.708.29133Zm-7.66667 8c-.366662 0-.680662-.1307-.941996-.392-.261333-.2613-.39177731-.5751-.39133287-.9413V1.33333c0-.366662.13066687-.680662.39199987-.941996.261333-.261333.575111-.39177731.941329-.39133287h9.33337c.3666 0 .6806.13066687.942.39199987.2613.261333.3917.575111.3913.941329v9.33337c0 .3666-.1307.6806-.392.942-.2613.2613-.5751.3917-.9413.3913H1.33333Z" fill="#9EA8DD"/>
  </g>
  <defs>
    <clipPath id="a">
      <path fill="#fff" d="M0 0h12v12H0z"/>
    </clipPath>
  </defs>
</svg>
