<svg width="12" height="12" viewBox="0 0 12 12" fill="none" xmlns="http://www.w3.org/2000/svg">
<g clip-path="url(#clip0_508_436)">
<path d="M5.72727 0.55814H0.545455V6.69767H5.72727V0.55814ZM11.4545 8.93023H0.545455V11.4419H11.4545V8.93023ZM11.4545 0.55814H7.90909V2.7907H11.4545V0.55814ZM11.4545 4.46512H7.90909V6.69767H11.4545V4.46512Z" fill="#9EA8DD"/>
<path fill-rule="evenodd" clip-rule="evenodd" d="M0 0.55814C0 0.249888 0.244208 0 0.545455 0H5.72727C6.02852 0 6.27273 0.249888 6.27273 0.55814V6.69767C6.27273 7.00593 6.02852 7.25581 5.72727 7.25581H0.545455C0.244208 7.25581 0 7.00593 0 6.69767V0.55814ZM1.09091 1.11628V6.13953H5.18182V1.11628H1.09091ZM7.36364 0.55814C7.36364 0.249888 7.60784 0 7.90909 0H11.4545C11.7558 0 12 0.249888 12 0.55814V2.7907C12 3.09895 11.7558 3.34884 11.4545 3.34884H7.90909C7.60784 3.34884 7.36364 3.09895 7.36364 2.7907V0.55814ZM8.45455 1.11628V2.23256H10.9091V1.11628H8.45455ZM7.36364 4.46512C7.36364 4.15686 7.60784 3.90698 7.90909 3.90698H11.4545C11.7558 3.90698 12 4.15686 12 4.46512V6.69767C12 7.00593 11.7558 7.25581 11.4545 7.25581H7.90909C7.60784 7.25581 7.36364 7.00593 7.36364 6.69767V4.46512ZM8.45455 5.02326V6.13953H10.9091V5.02326H8.45455ZM0 8.93023C0 8.62198 0.244208 8.37209 0.545455 8.37209H11.4545C11.7558 8.37209 12 8.62198 12 8.93023V11.4419C12 11.7501 11.7558 12 11.4545 12H0.545455C0.244208 12 0 11.7501 0 11.4419V8.93023ZM1.09091 9.48837V10.8837H10.9091V9.48837H1.09091Z" fill="#9EA8DD"/>
</g>
<defs>
<clipPath id="clip0_508_436">
<rect width="12" height="12" fill="white"/>
</clipPath>
</defs>
</svg>
