<svg width="12" height="12" viewBox="0 0 12 12" fill="none" xmlns="http://www.w3.org/2000/svg">
<g clip-path="url(#clip0_508_223)">
<path d="M10.6667 0H1.33333C0.979711 0 0.640573 0.140476 0.390524 0.390524C0.140476 0.640573 0 0.979711 0 1.33333V10.6667C0 11.0203 0.140476 11.3594 0.390524 11.6095C0.640573 11.8595 0.979711 12 1.33333 12H10.6667C11.0203 12 11.3594 11.8595 11.6095 11.6095C11.8595 11.3594 12 11.0203 12 10.6667V1.33333C12 0.979711 11.8595 0.640573 11.6095 0.390524C11.3594 0.140476 11.0203 0 10.6667 0ZM2 2H5.33333V5.33333H2V2ZM5 10.6667C4.55797 10.6667 4.13405 10.4911 3.82149 10.1785C3.50893 9.86595 3.33333 9.44203 3.33333 9C3.33333 8.55797 3.50893 8.13405 3.82149 7.82149C4.13405 7.50893 4.55797 7.33333 5 7.33333C5.44203 7.33333 5.86595 7.50893 6.17851 7.82149C6.49107 8.13405 6.66667 8.55797 6.66667 9C6.66667 9.44203 6.49107 9.86595 6.17851 10.1785C5.86595 10.4911 5.44203 10.6667 5 10.6667ZM7 6.66667L9 3.33333L11 6.66667H7Z" fill="#9EA8DD"/>
</g>
<defs>
<clipPath id="clip0_508_223">
<rect width="12" height="12" fill="white"/>
</clipPath>
</defs>
</svg>
