<svg width="12" height="12" viewBox="0 0 12 12" fill="none" xmlns="http://www.w3.org/2000/svg">
  <g clip-path="url(#a)">
    <path d="M7.5582 0c-.70174.000629-1.39338.167154-2.01845.485978-.62508.318824-1.16586.780912-1.5782 1.348522-.41234.56762-.68455 1.22467-.79439 1.91752-.10985.69284-.05422 1.40184.16234 2.06909L.130046 9.01889c-.0412745.0413-.0740033.09033-.0963169.14429-.0223136.05395-.03377489.11177-.03372896.17015v2.22227c0 .1178.04684166.2309.13021986.3142.083379.0834.196465.1302.31438.1302h2.223c.11792 0 .231-.0468.31438-.1302.08338-.0833.13022-.1964.13022-.3142v-.8889h.8892c.11792 0 .231-.0469.31438-.1302.08338-.0834.13022-.1964.13022-.3143v-.88887h.8892c.0584.00005.11624-.01141.17022-.03371.05397-.02231.10302-.05503.14434-.09629l.53129-.53166c.61106.19832 1.25786.26191 1.89586.18637.638-.07554 1.25205-.2884 1.79986-.62393.54783-.33552 1.01633-.78575 1.37343-1.31967.357-.53392.5941-1.13886.6948-1.77315.1007-.63429.0628-1.28287-.1113-1.90108-.1741-.61821-.4801-1.19136-.897-1.68-.417-.48863-.9349-.881127-1.51811-1.150471C8.83536.140395 8.20066.00060706 7.5582 0Zm1.1115 4.22222c-.17586 0-.34778-.05213-.49401-.1498-.14623-.09768-.2602-.2365-.3275-.39892-.0673-.16243-.08491-.34115-.0506-.51358.03431-.17243.119-.33081.24335-.45513.12436-.12431.2828-.20897.45529-.24327.17249-.03429.35127-.01669.51375.05059s.30136.18121.39907.32738c.0977.14618.14985.31804.14985.49384 0 .23575-.09368.46184-.26044.62854-.16676.1667-.39293.26035-.62876.26035Z" fill="#9EA8DD"/>
  </g>
  <defs>
    <clipPath id="a">
      <path fill="#fff" d="M0 0h12v12H0z"/>
    </clipPath>
  </defs>
</svg>
