<svg width="12" height="12" viewBox="0 0 12 12" fill="none" xmlns="http://www.w3.org/2000/svg">
<g clip-path="url(#clip0_508_220)">
<path d="M3 10C3.27778 10 3.514 9.90267 3.70867 9.708C3.90333 9.51333 4.00044 9.27733 4 9C4 8.72222 3.90267 8.486 3.708 8.29133C3.51333 8.09667 3.27733 7.99956 3 8C2.72222 8 2.486 8.09733 2.29133 8.292C2.09667 8.48667 1.99956 8.72267 2 9C2 9.27778 2.09733 9.514 2.292 9.70867C2.48667 9.90333 2.72267 10.0004 3 10ZM3 4C3.27778 4 3.514 3.90267 3.70867 3.708C3.90333 3.51333 4.00044 3.27733 4 3C4 2.72222 3.90267 2.486 3.708 2.29133C3.51333 2.09667 3.27733 1.99956 3 2C2.72222 2 2.486 2.09733 2.29133 2.292C2.09667 2.48667 1.99956 2.72267 2 3C2 3.27778 2.09733 3.514 2.292 3.70867C2.48667 3.90333 2.72267 4.00044 3 4ZM6 7C6.27778 7 6.514 6.90267 6.70867 6.708C6.90333 6.51333 7.00044 6.27733 7 6C7 5.72222 6.90267 5.486 6.708 5.29133C6.51333 5.09667 6.27733 4.99956 6 5C5.72222 5 5.486 5.09733 5.29133 5.292C5.09667 5.48667 4.99956 5.72267 5 6C5 6.27778 5.09733 6.514 5.292 6.70867C5.48667 6.90333 5.72267 7.00044 6 7ZM9 10C9.27778 10 9.514 9.90267 9.70867 9.708C9.90333 9.51333 10.0004 9.27733 10 9C10 8.72222 9.90267 8.486 9.708 8.29133C9.51333 8.09667 9.27733 7.99956 9 8C8.72222 8 8.486 8.09733 8.29133 8.292C8.09667 8.48667 7.99956 8.72267 8 9C8 9.27778 8.09733 9.514 8.292 9.70867C8.48667 9.90333 8.72267 10.0004 9 10ZM9 4C9.27778 4 9.514 3.90267 9.70867 3.708C9.90333 3.51333 10.0004 3.27733 10 3C10 2.72222 9.90267 2.486 9.708 2.29133C9.51333 2.09667 9.27733 1.99956 9 2C8.72222 2 8.486 2.09733 8.29133 2.292C8.09667 2.48667 7.99956 2.72267 8 3C8 3.27778 8.09733 3.514 8.292 3.70867C8.48667 3.90333 8.72267 4.00044 9 4ZM1.33333 12C0.966668 12 0.652668 11.8693 0.391334 11.608C0.130001 11.3467 -0.000443312 11.0329 1.13186e-06 10.6667V1.33333C1.13186e-06 0.966668 0.130668 0.652668 0.392001 0.391334C0.653334 0.130001 0.967112 -0.000443312 1.33333 1.13186e-06H10.6667C11.0333 1.13186e-06 11.3473 0.130668 11.6087 0.392001C11.87 0.653334 12.0004 0.967112 12 1.33333V10.6667C12 11.0333 11.8693 11.3473 11.608 11.6087C11.3467 11.87 11.0329 12.0004 10.6667 12H1.33333Z" fill="#9EA8DD"/>
</g>
<defs>
<clipPath id="clip0_508_220">
<rect width="12" height="12" fill="white"/>
</clipPath>
</defs>
</svg>
