<svg width="12" height="12" viewBox="0 0 12 12" fill="none" xmlns="http://www.w3.org/2000/svg">
<path d="M12 10.6923C12 10.8147 11.9514 10.9321 11.8648 11.0187C11.7783 11.1052 11.6609 11.1538 11.5385 11.1538H0.461538C0.339131 11.1538 0.221737 11.1052 0.135181 11.0187C0.0486262 10.9321 0 10.8147 0 10.6923C0 10.5699 0.0486262 10.4525 0.135181 10.3659C0.221737 10.2794 0.339131 10.2308 0.461538 10.2308H11.5385C11.6609 10.2308 11.7783 10.2794 11.8648 10.3659C11.9514 10.4525 12 10.5699 12 10.6923ZM12 1.92308V8.38461C12 8.62943 11.9027 8.86422 11.7296 9.03733C11.5565 9.21044 11.3217 9.30769 11.0769 9.30769H0.923077C0.678262 9.30769 0.443473 9.21044 0.270363 9.03733C0.0972524 8.86422 0 8.62943 0 8.38461V1.92308C0 1.67826 0.0972524 1.44347 0.270363 1.27036C0.443473 1.09725 0.678262 1 0.923077 1H11.0769C11.3217 1 11.5565 1.09725 11.7296 1.27036C11.9027 1.44347 12 1.67826 12 1.92308ZM8.07692 5.15385C8.0769 5.07617 8.05727 4.99975 8.01985 4.93168C7.98244 4.86361 7.92845 4.80608 7.86288 4.76442L5.32442 3.14904C5.25465 3.10471 5.17425 3.07993 5.09163 3.0773C5.00901 3.07467 4.92719 3.09427 4.85474 3.13406C4.78228 3.17386 4.72185 3.23238 4.67974 3.30352C4.63764 3.37466 4.61541 3.4558 4.61538 3.53846V6.76923C4.61541 6.85189 4.63764 6.93303 4.67974 7.00417C4.72185 7.07531 4.78228 7.13383 4.85474 7.17363C4.92719 7.21342 5.00901 7.23303 5.09163 7.23039C5.17425 7.22776 5.25465 7.20298 5.32442 7.15865L7.86288 5.54327C7.92845 5.50161 7.98244 5.44409 8.01985 5.37601C8.05727 5.30794 8.0769 5.23152 8.07692 5.15385Z" fill="#9EA8DD"/>
</svg>
