<svg width="12" height="12" viewBox="0 0 12 12" fill="none" xmlns="http://www.w3.org/2000/svg">
<g clip-path="url(#clip0_508_87)">
<path d="M2.2 12C1.87 12 1.5874 11.8824 1.3522 11.6472C1.117 11.412 0.999601 11.1296 1 10.8V1.2C1 0.870001 1.1176 0.587401 1.3528 0.352201C1.588 0.117001 1.8704 -0.000398981 2.2 1.01868e-06H9.4C9.73 1.01868e-06 10.0126 0.117601 10.2478 0.352801C10.483 0.588001 10.6004 0.870401 10.6 1.2V10.8C10.6 11.13 10.4824 11.4126 10.2472 11.6478C10.012 11.883 9.7296 12.0004 9.4 12H2.2ZM5.35 8.7L4.66 7.8C4.6 7.72 4.52 7.68 4.42 7.68C4.32 7.68 4.24 7.72 4.18 7.8L3.175 9.12C3.095 9.22 3.0824 9.325 3.1372 9.435C3.192 9.545 3.2846 9.6 3.415 9.6H8.185C8.315 9.6 8.4074 9.545 8.4622 9.435C8.517 9.325 8.5046 9.22 8.425 9.12L6.97 7.215C6.91 7.135 6.83 7.095 6.73 7.095C6.63 7.095 6.55 7.135 6.49 7.215L5.35 8.7Z" fill="#9EA8DD"/>
</g>
<defs>
<clipPath id="clip0_508_87">
<rect width="12" height="12" fill="white"/>
</clipPath>
</defs>
</svg>
