<svg width="8" height="12" viewBox="0 0 8 12" fill="none" xmlns="http://www.w3.org/2000/svg">
<g id="fa-solid:mobile" clip-path="url(#clip0_508_128)">
<path id="Vector" d="M6.8 0H1.2C0.5375 0 0 0.503906 0 1.125V10.875C0 11.4961 0.5375 12 1.2 12H6.8C7.4625 12 8 11.4961 8 10.875V1.125C8 0.503906 7.4625 0 6.8 0ZM4 11.25C3.5575 11.25 3.2 10.9148 3.2 10.5C3.2 10.0852 3.5575 9.75 4 9.75C4.4425 9.75 4.8 10.0852 4.8 10.5C4.8 10.9148 4.4425 11.25 4 11.25Z" fill="#9EA8DD"/>
</g>
<defs>
<clipPath id="clip0_508_128">
<rect width="8" height="12" fill="white"/>
</clipPath>
</defs>
</svg>
