<svg width="32" height="33" viewBox="0 0 32 33" fill="none" xmlns="http://www.w3.org/2000/svg">
<path d="M16.0129 3.03638C19.2381 3.03638 21.8521 5.70304 21.8911 8.99638H22.1642C25.7535 8.99638 28.6666 11.9964 28.6666 15.6764V23.0364C28.6666 26.7164 25.7535 29.703 22.1642 29.703H9.83565C6.24633 29.703 3.33325 26.7164 3.33325 23.0364V15.6764C3.33325 11.9964 6.24633 8.99638 9.83565 8.99638H10.1087C10.1348 7.39638 10.746 5.90304 11.8514 4.78304C12.9698 3.64971 14.4003 3.07638 16.0129 3.03638ZM20.9417 10.583C20.4085 10.583 19.9664 11.0364 19.9664 11.583V13.1297C19.9664 13.6764 20.4085 14.1297 20.9417 14.1297C21.4879 14.1297 21.9171 13.6764 21.9171 13.1297V11.583C21.9171 11.0364 21.4879 10.583 20.9417 10.583ZM10.9411 10.583C10.4079 10.583 9.9657 11.0364 9.9657 11.583V13.1297C9.9657 13.6764 10.4079 14.1297 10.9411 14.1297C11.4873 14.1297 11.9164 13.6764 11.9164 13.1297V11.583C11.9164 11.0364 11.4873 10.583 10.9411 10.583ZM16.0129 5.03638C15.0116 5.03638 13.9712 5.44971 13.2169 6.20971C12.4886 6.95638 12.0855 7.94304 12.0595 8.99638H19.9404C19.9014 6.80971 18.1587 5.03638 16.0129 5.03638Z" fill="#EBEBEC"/>
</svg>
