<svg width="33" height="33" viewBox="0 0 33 33" fill="none" xmlns="http://www.w3.org/2000/svg">
<path fill-rule="evenodd" clip-rule="evenodd" d="M26.8108 18.2122C23.2641 17.3189 21.7575 12.9456 25.9575 11.8523C26.9175 13.8789 27.2241 15.9856 26.8108 18.2122ZM21.1708 21.0522C20.3708 22.3456 19.2241 23.4122 19.0775 25.0389C18.8641 25.8522 18.6508 26.8122 17.5841 26.7856C15.8241 26.5322 16.8641 24.1322 15.8241 23.0789C15.0108 22.1989 14.7575 21.1456 14.8908 19.9589C14.8508 18.3722 13.3574 17.9722 12.1841 17.3056C9.95744 16.2389 8.5841 14.2522 7.3041 12.2389C6.85077 10.4523 9.49077 8.73226 10.6908 7.69226C13.1441 5.29226 13.2241 8.81226 14.7308 7.39892C15.0375 4.91893 18.6108 7.51892 17.5041 8.97226C15.8241 9.82559 17.7308 10.4923 16.7041 11.3589C14.8241 11.5323 14.7308 12.5856 15.7308 13.9989C16.0775 15.3189 14.6641 14.5322 14.1841 14.1056C13.4908 13.9722 10.9841 14.5456 11.8908 15.5589C12.6241 16.3989 13.8241 16.0656 14.6108 16.7189C14.9308 17.0522 15.1441 17.5456 15.5175 17.8122C17.6508 18.3989 21.9708 17.1456 21.1708 21.0522ZM29.3575 15.2122C28.9575 10.4923 25.9441 6.38559 21.6375 4.51892C18.6775 3.23892 15.4241 3.06559 11.8774 4.38559C10.4108 4.93226 9.03744 5.73226 7.87744 6.77226C5.19744 9.15892 3.7441 12.2923 3.59744 16.0522C3.51744 18.3056 4.05077 20.5722 5.15744 22.5322C7.1041 25.9456 9.95744 28.0789 13.5974 28.9322C14.2641 29.0922 14.9575 29.1456 15.6375 29.2389C15.6908 29.2522 15.7308 29.2522 15.7708 29.2656H17.2375C17.3975 29.2522 17.5575 29.2256 17.7175 29.2122C19.6775 28.9856 21.6108 28.4256 23.2641 27.3589C26.3041 25.4256 28.2508 22.7322 29.0775 19.2789C29.3975 17.9456 29.4775 16.5856 29.3575 15.2122Z" fill="#EBEBEC"/>
</svg>
