<svg width="32" height="33" viewBox="0 0 32 33" fill="none" xmlns="http://www.w3.org/2000/svg">
<rect width="32" height="33" fill="#1E1E1E"/>
<g id="375w" clip-path="url(#clip0_0_1)">
<rect width="375" height="7005.37" transform="translate(-16 -3103)" fill="url(#paint0_linear_0_1)"/>
<g id="Frame 5230">
<g id="Frame 5229">
<g id="Frame 5220">
<g id="Frame 5226">
<g id="Frame 5225">
<g id="Share">
<path id="Vector" d="M21.6792 11.1624C22.4325 11.8303 23.4229 12.2363 24.5066 12.2363C26.8599 12.2363 28.7733 10.3217 28.7733 7.96967C28.7733 5.61767 26.8599 3.703 24.5066 3.703C22.1533 3.703 20.24 5.61767 20.24 7.96967C20.24 8.27471 20.2722 8.57239 20.3333 8.85948L12.9344 13.1754C12.1813 12.5083 11.1914 12.1027 10.1082 12.1027C7.75489 12.1027 5.84155 14.0174 5.84155 16.3694C5.84155 18.7214 7.75489 20.6347 10.1082 20.6347C11.1919 20.6347 12.1824 20.229 12.9356 19.5615L20.3346 23.8742C20.2726 24.1631 20.24 24.4627 20.24 24.7698C20.24 27.1218 22.1533 29.0365 24.5066 29.0365C26.8599 29.0365 28.7733 27.1218 28.7733 24.7698C28.7733 22.4178 26.8599 20.5031 24.5066 20.5031C23.4248 20.5031 22.4358 20.9078 21.683 21.5737L14.2817 17.2587C14.3428 16.9718 14.3749 16.6742 14.3749 16.3694C14.3749 16.0637 14.3426 15.7654 14.2812 15.4778L21.6792 11.1624Z" fill="#EBEBEC"/>
</g>
<path d="M0 -13.6304H163.5V-17.6304H0V-13.6304ZM163.5 172.37H0V176.37H163.5V172.37Z" fill="#242775" fill-opacity="0.4" mask="url(#path-1-inside-1_0_1)"/>
</g>
</g>
</g>
</g>
</g>
</g>
<defs>
<linearGradient id="paint0_linear_0_1" x1="187.5" y1="0" x2="187.5" y2="7005.37" gradientUnits="userSpaceOnUse">
<stop stop-color="#101532"/>
<stop offset="0.25" stop-color="#101747"/>
<stop offset="0.5" stop-color="#101532"/>
<stop offset="0.75" stop-color="#101747"/>
<stop offset="1" stop-color="#101532"/>
</linearGradient>
<clipPath id="clip0_0_1">
<rect width="375" height="7005.37" fill="white" transform="translate(-16 -3103)"/>
</clipPath>
</defs>
</svg>
