<svg width="24" height="16" viewBox="0 0 24 16" fill="none" xmlns="http://www.w3.org/2000/svg">
<path fill-rule="evenodd" clip-rule="evenodd" d="M0 1.35211C0 0.605361 0.605361 0 1.35211 0H22.6479C23.3946 0 24 0.605361 24 1.35211C24 2.09886 23.3946 2.70423 22.6479 2.70423H1.35211C0.605361 2.70423 0 2.09886 0 1.35211ZM0 7.94366C0 7.19691 0.605361 6.59155 1.35211 6.59155H22.6479C23.3946 6.59155 24 7.19691 24 7.94366C24 8.69041 23.3946 9.29577 22.6479 9.29577H1.35211C0.605361 9.29577 0 8.69041 0 7.94366ZM0 14.5352C0 13.7885 0.605361 13.1831 1.35211 13.1831H22.6479C23.3946 13.1831 24 13.7885 24 14.5352C24 15.282 23.3946 15.8873 22.6479 15.8873H1.35211C0.605361 15.8873 0 15.282 0 14.5352Z" fill="#9EA8DD"/>
</svg>
