<svg width="24" height="24" viewBox="0 0 24 24" fill="none" xmlns="http://www.w3.org/2000/svg">
<path fill-rule="evenodd" clip-rule="evenodd" d="M0 5.35211C0 4.60536 0.605361 4 1.35211 4H22.6479C23.3946 4 24 4.60536 24 5.35211C24 6.09886 23.3946 6.70423 22.6479 6.70423H1.35211C0.605361 6.70423 0 6.09886 0 5.35211ZM0 11.9437C0 11.1969 0.605361 10.5915 1.35211 10.5915H22.6479C23.3946 10.5915 24 11.1969 24 11.9437C24 12.6904 23.3946 13.2958 22.6479 13.2958H1.35211C0.605361 13.2958 0 12.6904 0 11.9437ZM0 18.5352C0 17.7885 0.605361 17.1831 1.35211 17.1831H22.6479C23.3946 17.1831 24 17.7885 24 18.5352C24 19.282 23.3946 19.8873 22.6479 19.8873H1.35211C0.605361 19.8873 0 19.282 0 18.5352Z" fill="#9EA8DD"/>
</svg>
