<svg width="16" height="16" viewBox="0 0 16 16" fill="none" xmlns="http://www.w3.org/2000/svg">
  <path fill-rule="evenodd" clip-rule="evenodd" d="M1.6122 1.61244c.37193-.37193.97494-.37193 1.34687 0l5.04085 5.04085 5.04088-5.04085c.3719-.37193.9749-.37193 1.3468 0 .372.37193.372.97494 0 1.34687L9.34679 8.00016 14.3876 13.041c.372.3719.372.975 0 1.3469-.3719.3719-.9749.3719-1.3468 0L7.99992 9.34703 2.95907 14.3879c-.37193.3719-.97494.3719-1.34687 0s-.37193-.975 0-1.3469l5.04085-5.04084L1.6122 2.95931c-.37193-.37193-.37193-.97494 0-1.34687Z" fill="#9EA8DD"/>
</svg>
