<svg width="24" height="24" viewBox="0 0 24 24" fill="none" xmlns="http://www.w3.org/2000/svg">
<path fill-rule="evenodd" clip-rule="evenodd" d="M2.41842 2.41842C2.97631 1.86053 3.88083 1.86053 4.43872 2.41842L12 9.9797L19.5613 2.41842C20.1192 1.86053 21.0237 1.86053 21.5816 2.41842C22.1395 2.97631 22.1395 3.88083 21.5816 4.43872L14.0203 12L21.5816 19.5613C22.1395 20.1192 22.1395 21.0237 21.5816 21.5816C21.0237 22.1395 20.1192 22.1395 19.5613 21.5816L12 14.0203L4.43872 21.5816C3.88083 22.1395 2.97631 22.1395 2.41842 21.5816C1.86053 21.0237 1.86053 20.1192 2.41842 19.5613L9.9797 12L2.41842 4.43872C1.86053 3.88083 1.86053 2.97631 2.41842 2.41842Z" fill="#9EA8DD"/>
</svg>
