<svg width="300" height="201" viewBox="0 0 300 201" fill="none" xmlns="http://www.w3.org/2000/svg">
<path fill-rule="evenodd" clip-rule="evenodd" d="M27.5 272.87L27.5 300.37H28.5L28.5 272.87H88.5V300.37H89.5V272.87H149.5V300.37H150.5V272.87H210.5V300.37H211.5V272.87H271.5V300.37H272.5V272.87H300V271.87H272.5V211.87H300V210.87H272.5V150.87H300V149.87H272.5V89.8696H300V88.8696H272.5V28.8696L300 28.8696V27.8696L272.5 27.8696V0.369629H271.5V27.8696L211.5 27.8696V0.369629H210.5V27.8696L150.5 27.8696V0.369629H149.5V27.8696L89.5 27.8696V0.369629H88.5V27.8696L28.5 27.8696L28.5 0.369629H27.5L27.5 27.8696L0 27.8696V28.8696L27.5 28.8696L27.5 88.8696H0V89.8696H27.5L27.5 149.87H0V150.87H27.5L27.5 210.87H0V211.87H27.5L27.5 271.87H0V272.87H27.5ZM28.5 271.87H88.5L88.5 211.87L28.5 211.87L28.5 271.87ZM89.5 271.87H149.5L149.5 211.87H89.5L89.5 271.87ZM150.5 271.87H210.5V211.87H150.5L150.5 271.87ZM211.5 271.87H271.5V211.87L211.5 211.87V271.87ZM271.5 150.87V210.87L211.5 210.87V150.87L271.5 150.87ZM271.5 89.8696V149.87L211.5 149.87V89.8696L271.5 89.8696ZM271.5 28.8696V88.8696L211.5 88.8696V28.8696L271.5 28.8696ZM28.5 210.87L88.5 210.87V150.87L28.5 150.87L28.5 210.87ZM89.5 210.87H149.5V150.87H89.5V210.87ZM150.5 210.87H210.5V150.87H150.5V210.87ZM210.5 89.8696V149.87H150.5V89.8696H210.5ZM210.5 28.8696V88.8696H150.5V28.8696L210.5 28.8696ZM28.5 149.87L88.5 149.87L88.5 89.8696L28.5 89.8696L28.5 149.87ZM89.5 149.87H149.5V89.8696L89.5 89.8696L89.5 149.87ZM149.5 28.8696V88.8696L89.5 88.8696V28.8696L149.5 28.8696ZM28.5 88.8696L88.5 88.8696V28.8696L28.5 28.8696L28.5 88.8696Z" fill="url(#paint0_radial_35_3125)" fill-opacity="0.08"/>
<defs>
<radialGradient id="paint0_radial_35_3125" cx="0" cy="0" r="1" gradientUnits="userSpaceOnUse" gradientTransform="translate(300 0.369629) rotate(90) scale(300)">
<stop stop-color="white"/>
<stop offset="1" stop-color="white" stop-opacity="0"/>
</radialGradient>
</defs>
</svg>
