<svg width="24" height="24" viewBox="0 0 24 24" fill="none" xmlns="http://www.w3.org/2000/svg">
<path fill-rule="evenodd" clip-rule="evenodd" d="M16.9499 18.3637L5.63615 7.05003C5.24583 6.65971 5.24512 6.02685 5.63615 5.63582C6.02718 5.24479 6.66005 5.24549 7.05037 5.63582L18.3641 16.9495C18.7544 17.3398 18.7551 17.9727 18.3641 18.3637C17.973 18.7548 17.3402 18.7541 16.9499 18.3637Z" fill="white"/>
<path fill-rule="evenodd" clip-rule="evenodd" d="M18.3637 7.05014L7.05003 18.3638C6.65971 18.7542 6.02685 18.7549 5.63582 18.3638C5.24479 17.9728 5.24549 17.34 5.63582 16.9496L16.9495 5.63592C17.3398 5.2456 17.9727 5.24489 18.3637 5.63592C18.7548 6.02695 18.7541 6.65981 18.3637 7.05014Z" fill="white"/>
</svg>
