<svg width="125" height="49" viewBox="0 0 125 49" fill="none" xmlns="http://www.w3.org/2000/svg">
<path fill-rule="evenodd" clip-rule="evenodd" d="M39.719 1.23543C41.9729 0.870352 45.2374 0.536749 47.3459 0.456037C47.9172 0.4342 48.4537 0.428633 48.5381 0.443735C48.6224 0.458838 48.8529 0.474472 49.0503 0.478436C49.3554 0.484653 49.4435 0.523863 49.6382 0.740154C50.2564 1.42715 50.4775 1.69029 50.4766 1.73821C50.4761 1.7671 50.5435 1.87183 50.6264 1.97098C50.8245 2.20814 50.8134 2.37678 50.582 2.64294C50.4058 2.84548 50.3264 2.86845 49.5192 2.95062C49.0394 2.9994 48.4044 3.0498 48.1081 3.06262C48.0905 3.06338 48.0729 3.06424 48.0555 3.06519C47.6831 3.08565 47.3006 3.19553 46.9291 3.22813C46.593 3.25761 46.3734 3.27687 46.2109 3.50224C46.036 3.74488 46.0166 4.06243 45.985 4.36018C45.9532 4.65954 45.9118 5.04112 45.8578 5.52746C45.8374 5.7114 45.8187 5.8839 45.8009 6.04792C45.6069 7.83401 45.5221 8.61506 44.5635 12.2151C43.0588 17.8653 42.1908 19.8432 40.4943 21.4872C39.644 22.3114 38.2507 23.0249 37.0439 23.2546C35.9311 23.4663 33.9547 23.3081 33.1867 22.9458C32.2973 22.5264 31.5341 21.7567 31.1749 20.9172C30.7411 19.9032 30.7604 17.858 31.2111 17.0504C31.6095 16.337 32.0221 15.9783 32.8458 15.6297C33.6353 15.2956 35.1603 15.1516 35.3057 15.3973C35.3581 15.4857 35.2103 15.8452 34.9773 16.1963C33.7898 17.9848 33.4087 19.6044 33.9004 20.774C34.576 22.3814 36.478 22.0463 37.996 20.0524C39.2202 18.4448 39.9176 16.7362 41.0082 12.6733C41.9435 9.18865 42.3251 6.5546 42.4803 4.93543L42.4795 4.37779C42.4792 4.14394 42.2844 3.95732 42.0529 3.9846C41.8346 4.01033 41.6174 4.04552 41.4 4.08173C41.0182 4.14531 40.5671 4.21231 40.3976 4.23056C40.2281 4.24889 40.0372 4.28457 39.9733 4.30982C39.9094 4.33506 39.6142 4.39814 39.3172 4.44993C38.5305 4.58717 38.1095 4.66602 37.8805 4.71899C37.4342 4.82237 36.7448 4.15148 36.2756 3.1569C35.9098 2.38166 35.9276 2.12305 36.3607 1.9205C36.5305 1.84107 36.8089 1.75242 36.9793 1.72355C37.1497 1.6946 37.4454 1.63616 37.6364 1.59355C37.8275 1.55086 38.2788 1.46837 38.6394 1.41005C38.9999 1.3518 39.4857 1.27323 39.719 1.23543ZM58.4928 4.30874C58.6899 3.46052 58.9159 2.80836 59.0474 2.7093C59.5291 2.34641 60.9611 2.65225 61.4744 3.22755C61.823 3.6184 61.8743 4.27647 61.6318 5.24865C61.4723 5.88759 61.6149 6.14177 62.14 6.15526C62.6873 6.16927 63.5513 6.63507 63.9546 7.13327C64.2266 7.46911 64.3141 7.72835 64.3063 8.17451C64.2948 8.83765 64.1583 8.94251 63.5465 8.75744C62.9053 8.5635 60.9426 8.56876 60.7808 8.76479C60.6383 8.93705 59.2877 14.0945 58.9058 15.924C58.3372 18.6482 58.8749 19.8219 60.373 19.1261C61.0081 18.831 61.4864 18.321 62.2381 17.1365C62.7664 16.3042 63.1172 16.243 63.1741 16.9733C63.2623 18.1037 61.5504 20.3346 60.0453 21.0506C59.497 21.3114 59.1593 21.3689 58.2669 21.3537C57.3089 21.3374 57.0963 21.2873 56.6357 20.9698C56.1025 20.6023 55.9554 20.3835 55.5887 19.4124C55.4911 19.1541 55.1683 19.0701 54.9579 19.2484L54.6683 19.4938C52.3348 21.4713 49.3263 21.8306 47.1512 20.3917C46.0265 19.6478 45.433 18.4427 45.3566 16.748C45.2341 14.0285 46.8764 11.1729 49.1797 10.1003C50.2312 9.61077 52.0705 9.5082 53.0098 9.88698C54.2132 10.3722 55.1051 11.8591 54.8726 12.9931C54.4566 15.0224 51.821 16.9286 49.4869 16.8881C48.7626 16.8755 48.7318 16.8896 48.7258 17.2353C48.7078 18.2699 49.8291 19.0851 51.3054 19.1107C52.4798 19.131 53.2643 18.8594 54.2531 18.0898C55.2508 17.3136 55.4709 16.8955 55.8012 15.1489C55.9432 14.3982 56.3411 12.6813 56.6853 11.3334C57.0297 9.98574 57.2828 8.83462 57.2478 8.77554C57.2128 8.71646 56.9268 8.66329 56.6123 8.65743C55.7462 8.64131 55.0467 8.38432 54.5321 7.89322C54.0066 7.3918 53.7674 6.58532 53.9835 6.04363C54.1091 5.72892 54.1655 5.71142 54.7623 5.80147C56.4828 6.06137 57.8631 6.1149 58.0119 5.92767C58.0935 5.82488 58.3101 5.09641 58.4928 4.30874ZM49.3767 15.2653C50.9562 15.1146 52.871 13.2539 52.5024 12.2278C52.3957 11.9311 52.288 11.87 51.8593 11.8629C50.9232 11.8477 49.9668 12.677 49.2538 14.1221C48.7984 15.0454 48.8277 15.3177 49.3767 15.2653Z" fill="white"/>
<path fill-rule="evenodd" clip-rule="evenodd" d="M65.1466 0.863002C64.1863 1.19096 63.5785 1.56518 63.0387 2.16078C61.8539 3.46821 61.93 4.9407 63.2295 5.85263C64.1887 6.52569 66.2207 6.67433 68.884 6.26607C69.8013 6.12539 70.5787 6.0669 70.643 6.13375C70.7074 6.2006 70.1812 8.50917 69.4521 11.3579C67.9732 17.1373 67.1507 20.5405 67.0152 21.4407C66.8982 22.2193 67.2103 22.9015 67.8639 23.2957C68.2247 23.5133 68.5853 23.5838 69.4283 23.6015C70.0448 23.6144 70.5659 23.1459 70.6205 22.5295L70.6405 22.3031C70.7836 20.6866 71.1904 18.5874 72.0382 15.092C73.1225 10.621 74.5534 5.2623 74.7011 5.11917C74.9847 4.84434 77.9333 4.48418 79.7965 4.49678C81.6195 4.50922 81.6516 4.51471 82.5349 4.96995C83.0264 5.22322 83.4898 5.43164 83.5649 5.43295C83.9504 5.43966 83.9087 3.67965 83.5033 2.82999C83.2053 2.20555 82.9161 1.94224 82.0922 1.545C81.4935 1.25631 81.2127 1.21773 79.51 1.19027C77.2868 1.15442 76.8769 1.21151 71.5062 2.30292C69.2838 2.7546 67.1273 3.14635 66.714 3.17339C65.2154 3.27177 64.7844 2.53382 65.7779 1.57103C66.724 0.654116 66.4986 0.401229 65.1466 0.863002ZM79.7595 10.454C79.5331 10.5238 78.9397 10.6235 78.4408 10.6755C77.942 10.7276 77.2446 10.9091 76.891 11.0787C74.9986 11.9861 73.6158 14.7887 73.7418 17.4618C73.8269 19.2682 74.6928 20.6415 76.2101 21.376C76.7014 21.6138 77.0995 21.6836 78.0638 21.701C79.1667 21.7207 79.3879 21.6794 80.2346 21.2949C80.7531 21.0595 81.2332 20.903 81.3015 20.9471C81.5976 21.1378 83.4327 20.7392 84.2511 20.3063C85.1314 19.8407 85.2617 19.8394 85.2538 20.2961C85.2406 21.0611 86.562 21.9903 87.5511 21.9114C87.9977 21.8758 88.0214 21.8423 88.4764 20.6068C89.9885 16.5011 93.1725 11.8496 93.7749 12.8665C93.8192 12.9413 93.6393 13.7855 93.3752 14.7425C92.9511 16.2787 92.8913 16.6918 92.8639 18.2727C92.8337 20.0235 92.8419 20.078 93.2309 20.7335C94.0378 22.0928 95.6958 22.4809 97.3352 21.6944C98.3197 21.2221 99.5441 20.031 100.069 19.0351C100.842 17.5679 100.37 16.5057 99.5484 17.8649C98.9506 18.8543 98.4127 19.449 97.8307 19.7639C97.1362 20.1398 96.787 20.1197 96.3629 19.6792C96.0248 19.3281 96.0179 19.2818 96.1182 18.0659C96.1768 17.356 96.4129 16.1426 96.6635 15.2629C97.3629 12.809 97.2685 11.6894 96.302 10.9721C95.9241 10.6916 95.6981 10.6426 94.7022 10.6253C93.8405 10.6103 93.4083 10.669 93.0209 10.8539C92.3494 11.174 91.2239 12.1553 90.84 12.7551C90.6752 13.0126 90.4875 13.2222 90.423 13.2211C90.3583 13.22 90.3463 12.8039 90.3961 12.2963C90.4844 11.398 90.4756 11.3625 90.0656 10.9596C89.6996 10.5999 89.5215 10.5366 88.7072 10.4761C87.9001 10.4163 87.7516 10.4415 87.6351 10.6586C87.5608 10.7973 87.1869 12.1685 86.8041 13.7059C86.4213 15.2432 85.9781 16.7145 85.8192 16.9753C84.9846 18.3451 83.9818 19.1344 83.0958 19.1189C82.6129 19.1105 82.5846 18.9608 82.9563 18.3795C83.357 17.753 83.9311 16.03 84.0505 15.0958C84.2443 13.5803 83.8096 11.9443 83.0017 11.1477C82.2507 10.4073 80.8701 10.112 79.7595 10.454ZM81.618 12.7014C81.8538 13.0316 81.8931 13.2797 81.8682 14.2806C81.843 15.2868 81.7673 15.6405 81.3718 16.5972C80.8061 17.9652 80.5983 18.0002 80.1324 16.8059C79.8787 16.1562 79.8134 15.733 79.8254 14.8168C79.843 13.4807 79.9339 13.0931 80.3498 12.581C80.7291 12.1141 81.2329 12.162 81.618 12.7014ZM77.3933 16.1167C77.522 16.8383 78.196 18.4677 78.6155 19.0713C78.8505 19.4097 78.5715 19.6506 78.0939 19.5215C77.248 19.2927 76.6916 18.2575 76.7142 16.9537C76.7262 16.2552 76.9704 15.3148 77.1391 15.3178C77.2007 15.3188 77.3152 15.6784 77.3933 16.1167Z" fill="url(#paint0_linear_35_1219)"/>
<path fill-rule="evenodd" clip-rule="evenodd" d="M15.4091 16.484C16.9197 16.9235 18.2656 17.5277 19.4467 18.2968C20.6553 19.0659 21.6716 19.9448 22.4956 20.9336C23.3196 21.9224 23.9513 22.9799 24.3908 24.106C24.8303 25.2323 25.0363 26.3859 25.0088 27.5669C25.0088 28.3634 24.8715 29.2424 24.5968 30.2037C24.3496 31.1652 24.0337 32.0029 23.6492 32.717C23.1273 33.7333 22.3994 34.6946 21.4655 35.601C20.5591 36.5074 19.5154 37.2491 18.3343 37.8259C17.1532 38.3754 15.876 38.6774 14.5026 38.7323C13.1568 38.7873 11.7834 38.4714 10.3826 37.7847C10.1354 38.8835 9.91562 39.9408 9.72337 40.9573C9.53109 41.9735 9.36628 42.921 9.22895 43.7999C9.09162 44.6514 8.99548 45.4069 8.94054 46.066C8.91308 46.7527 8.92681 47.2883 8.98175 47.6729C9.00921 47.7553 8.99548 47.8515 8.94054 47.9613C8.88562 47.9888 8.8444 48.0024 8.81694 48.0024C8.78948 48.0299 8.74829 48.0574 8.69334 48.0848C7.04532 48.2498 5.86424 48.0299 5.15008 47.4258C4.43593 46.8214 4.13381 46.0385 4.24368 45.0772C4.35355 44.0335 4.57328 42.7426 4.90289 41.2044C5.25995 39.6387 5.63075 38.032 6.0153 36.384C6.16137 35.7996 6.30571 35.2205 6.44835 34.6466C6.70799 33.6017 6.96193 32.574 7.21011 31.5635C7.62212 29.9704 7.95173 28.6382 8.19892 27.5669C7.53972 27.8691 6.77064 28.1026 5.8917 28.2674C5.04022 28.4322 4.06514 28.4458 2.96646 28.3085C1.56564 27.2648 0.672938 26.1798 0.288412 25.0537C-0.0961375 23.9276 -0.0961375 22.8563 0.288412 21.84C0.672938 20.7963 1.37336 19.8486 2.38963 18.9971C3.43339 18.1182 4.64194 17.4178 6.0153 16.8959C7.41612 16.3741 8.92681 16.0582 10.5474 15.9484C12.1679 15.8385 13.7885 16.0169 15.4091 16.484ZM20.4767 28.1026C20.5866 27.0038 20.5317 25.9601 20.3119 24.9713C20.0922 23.9551 19.7214 23.0487 19.1995 22.2521C18.7051 21.4281 18.0596 20.7414 17.2631 20.192C16.4665 19.6427 15.5464 19.2856 14.5026 19.1208C13.4314 18.956 12.3053 18.9971 11.1242 19.2445C9.97056 19.4642 8.87188 19.8761 7.82813 20.4804C6.81186 21.0847 5.8917 21.8675 5.06768 22.8288C4.27114 23.7903 3.69432 24.9164 3.33725 26.2073C4.02392 26.1798 4.72434 25.9876 5.4385 25.6306C6.15262 25.2459 6.81183 24.7791 7.41612 24.2297C8.04786 23.6528 8.58347 23.0348 9.02294 22.3756C9.46242 21.6891 9.75083 21.016 9.88816 20.3569C9.9431 20.137 10.053 20.0547 10.2178 20.1096C11.0143 20.137 11.6461 20.2194 12.113 20.3569C12.6074 20.4942 12.9782 20.6726 13.2254 20.8925C13.6374 21.2495 13.8709 21.7165 13.9258 22.2932C13.9258 22.458 13.9121 22.6915 13.8846 22.9938C13.8572 23.2958 13.816 23.6117 13.761 23.9413C13.7061 24.2435 13.6374 24.5456 13.555 24.8477C13.5317 24.9757 13.5085 25.0912 13.4852 25.1946C13.4536 25.3352 13.4219 25.4532 13.3902 25.5482C13.1705 26.5919 12.8821 27.6769 12.525 28.803C12.1954 29.9291 12.0443 31.0141 12.0718 32.0578C12.0993 32.9917 12.2778 33.7333 12.6074 34.2827C12.937 34.8045 13.349 35.1478 13.8434 35.3126C14.3378 35.4501 14.8872 35.4363 15.4914 35.2715C16.1232 35.0793 16.7275 34.7359 17.3043 34.2414C17.9086 33.7471 18.4579 33.1153 18.9523 32.3462C19.4742 31.5771 19.8862 30.6707 20.1883 29.627C20.2982 29.16 20.3943 28.6519 20.4767 28.1026ZM65.8475 28.4142C65.4426 28.3291 64.9845 28.2757 64.4731 28.2544L64.6648 27.3594C64.7288 27.0398 64.8034 26.7308 64.8886 26.4325C64.9951 25.921 64.9845 25.5055 64.8566 25.1859C64.7288 24.8662 64.5157 24.6213 64.2174 24.4508C63.9403 24.2803 63.5994 24.1844 63.1945 24.1631C62.7896 24.1204 62.3741 24.1204 61.9479 24.1631C61.7988 24.1631 61.7242 24.2376 61.7242 24.3867C61.5537 25.0687 61.3939 25.74 61.2447 26.4005C61.1169 27.0398 60.9677 27.7004 60.7972 28.3822C60.0301 28.4249 59.2736 28.4569 58.5278 28.4782C57.8033 28.4782 57.1641 28.4249 56.61 28.3184C56.5248 28.3184 56.4609 28.3397 56.4182 28.3822C56.3756 28.4035 56.333 28.4569 56.2904 28.542C56.2052 29.1175 56.2478 29.5861 56.4182 29.9484C56.5887 30.2894 56.8551 30.5451 57.2173 30.7156C57.5796 30.8861 58.0164 30.9926 58.5278 31.0352C59.0393 31.0566 59.5827 31.0459 60.158 31.0032C59.9875 31.7917 59.8064 32.5801 59.6146 33.3686C58.9355 36.0851 58.4689 39.7942 55.9204 41.4928C55.1514 42.0148 54.4921 42.1383 53.9428 41.8637C53.4209 41.5616 53.1325 40.9298 53.0776 39.9685C53.0776 39.5564 53.105 39.0757 53.16 38.5265C53.2424 37.9771 53.3385 37.414 53.4484 36.8372L53.8604 35.0243C54.0252 34.3926 54.1763 33.802 54.3136 33.2526C54.396 32.978 54.4784 32.6621 54.5608 32.3051C54.6432 31.9205 54.7119 31.6184 54.7668 31.3987C54.9041 30.7395 54.8904 30.2175 54.7256 29.8331C54.5883 29.421 54.3411 29.1189 53.984 28.9267C53.6269 28.707 53.1875 28.5833 52.6656 28.5559C52.1712 28.5009 51.6493 28.5009 51.1 28.5559C50.9901 28.5833 50.9214 28.6382 50.894 28.7206C50.8116 28.9403 50.6605 29.1602 50.4408 29.3799C50.221 29.5721 49.9738 29.7643 49.6991 29.9567C49.4245 30.1215 49.136 30.2588 48.8339 30.3687C48.5592 30.4785 48.312 30.5334 48.0923 30.5334C48.2571 29.7918 48.4082 29.1189 48.5455 28.5146C48.6828 27.9104 48.6828 27.4023 48.5455 26.9902C48.4356 26.5783 48.1198 26.2898 47.5979 26.1251C47.076 25.9327 46.2383 25.9052 45.0847 26.0425C44.8649 26.0702 44.7413 26.1251 44.7138 26.2075C44.7138 26.231 44.7127 26.2533 44.7105 26.2744L44.7069 26.3023C44.7027 26.3286 44.6966 26.3529 44.6886 26.3754C44.684 26.3886 44.6786 26.4013 44.6727 26.4133C44.5628 26.9078 44.4117 27.5396 44.2195 28.3087C44.0546 29.0501 43.9036 29.6958 43.7662 30.245C43.5465 31.234 43.6564 31.9479 44.0958 32.3875C44.5353 32.8269 45.0709 33.0468 45.7027 33.0468C45.3024 35.8985 44.2848 39.6388 41.7395 41.3692C40.943 41.9186 40.27 42.0423 39.7206 41.74C39.1713 41.4379 38.8829 40.8061 38.8554 39.8448C38.828 39.3229 38.8829 38.6913 39.0203 37.9496C39.1576 37.208 39.3087 36.4527 39.4735 35.6836C39.6657 34.9145 39.858 34.159 40.0503 33.4174C40.27 32.676 40.4348 32.0303 40.5447 31.4811C40.682 30.8219 40.6683 30.2863 40.5035 29.8742C40.3387 29.4623 40.064 29.1602 39.6795 28.9678C39.3224 28.7481 38.8829 28.6108 38.361 28.5559C37.8392 28.5009 37.3036 28.5009 36.7542 28.5559C36.5894 28.6108 36.4933 28.707 36.4658 28.8443C36.4109 29.1464 36.3422 29.4484 36.2598 29.7507C36.1774 30.0528 36.095 30.3687 36.0126 30.6982C35.5731 29.984 35.0513 29.4623 34.447 29.1327C33.8702 28.7755 33.2384 28.5695 32.5518 28.5146C30.9587 28.4047 29.5441 28.7344 28.3081 29.5033C27.0721 30.245 26.0832 31.2476 25.3416 32.511C24.6 33.7471 24.1331 35.1342 23.9408 36.6724C23.776 38.1831 23.9545 39.6526 24.4764 41.0807C24.861 42.1796 25.4652 43.0721 26.2892 43.7589C27.1133 44.4181 28.1295 44.7476 29.3381 44.7476C30.5192 44.7476 31.5355 44.5141 32.3869 44.0473C33.2659 43.5528 34.0212 42.8799 34.653 42.0284C34.8727 42.7975 35.2298 43.4293 35.7242 43.9236C36.2461 44.3906 36.974 44.6791 37.9078 44.7889C38.6495 44.8713 39.3636 44.7889 40.0503 44.5416C40.7644 44.2944 41.4236 43.9511 42.0279 43.5117C43.3945 42.5176 44.4416 41.0824 45.2907 39.6387C45.5653 39.1719 45.8537 38.6225 46.1559 37.9907C46.458 37.3316 46.7464 36.6036 47.0211 35.8071C47.2958 34.9831 47.5155 34.1041 47.6803 33.1702C48.0099 33.1153 48.3944 33.0055 48.8339 32.8407C49.3009 32.6485 49.6991 32.4835 50.0287 32.3462L49.9051 32.7994C49.5755 34.1729 49.2734 35.5599 48.9987 36.9608C48.7515 38.3341 48.6828 39.5838 48.7927 40.7101C48.9026 41.8637 49.2047 42.8114 49.6991 43.5528C50.1935 44.267 51.0313 44.6791 52.2124 44.7889C52.9265 44.8713 53.6269 44.8026 54.3136 44.5829C55.0003 44.3357 55.632 44.006 56.2088 43.5941C56.7857 43.1545 57.3075 42.6464 57.7745 42.0697C57.853 41.9682 57.9292 41.866 58.003 41.7637C58.0931 41.6388 58.1797 41.5134 58.2628 41.3873C58.3159 42.2105 58.5127 43.0628 58.9753 43.7567C59.3802 44.3108 60.0621 44.6412 61.021 44.7476C61.5964 44.8115 62.1504 44.7583 62.6831 44.5878C63.2371 44.396 63.7485 44.1297 64.2174 43.7887C64.6862 43.4264 65.1017 43.0109 65.4639 42.5421C65.5622 42.422 65.6556 42.3011 65.7441 42.1796C65.8309 42.0604 65.9131 41.9405 65.9905 41.8198C65.912 42.2396 65.948 42.6249 66.0985 42.9759C66.2633 43.3331 66.4967 43.649 66.7989 43.9236C67.101 44.1982 67.4581 44.4181 67.8701 44.5829C68.2821 44.7202 68.6941 44.7887 69.1061 44.7887C69.2434 44.7887 69.4083 44.7751 69.6005 44.7476C69.8203 44.7476 69.9576 44.6514 70.0125 44.4592C70.3147 43.3331 70.7129 42.1657 71.2074 40.9571C71.7292 39.7486 72.2923 38.5812 72.8966 37.4551C73.5009 36.329 74.1051 35.3126 74.7094 34.4062C75.3411 33.4998 75.8905 32.7856 76.3574 32.2638C76.8518 31.7419 77.2364 31.4673 77.511 31.4398C77.8132 31.4124 77.9505 31.7283 77.923 32.3875C77.7033 33.1015 77.511 33.7882 77.3463 34.4475C77.2089 35.1067 77.0853 35.6834 76.9754 36.1779C76.7832 36.947 76.6458 37.7023 76.5634 38.4439C76.5085 39.1855 76.5222 39.9134 76.6046 40.6275C76.7145 41.7811 77.0441 42.7288 77.5935 43.4704C78.1703 44.2121 79.0492 44.6514 80.2303 44.7887C80.9719 44.8713 81.686 44.7887 82.3727 44.5416C83.0594 44.2944 83.6912 43.9511 84.268 43.5115C84.7171 43.1849 85.1282 42.8204 85.5014 42.418C85.9762 43.0103 86.5774 43.4985 87.3051 43.8823C88.2664 44.4043 89.269 44.6927 90.3127 44.7476C91.3565 44.83 92.3728 44.7338 93.3616 44.4592C98.3985 42.9205 101.462 38.1501 102.34 33.1702C102.67 33.1153 103.055 33.0055 103.494 32.8407C103.961 32.6485 104.359 32.4835 104.689 32.3462L104.565 32.7994C104.236 34.1729 103.933 35.5599 103.659 36.9608C103.412 38.3341 103.343 39.5838 103.453 40.7101C103.563 41.8637 103.865 42.8114 104.359 43.5528C104.854 44.267 105.691 44.6791 106.872 44.7889C107.587 44.8713 108.287 44.8026 108.974 44.5829C109.66 44.3357 110.292 44.006 110.869 43.5941C111.446 43.1545 111.968 42.6464 112.435 42.0697C112.561 41.9055 112.682 41.7404 112.797 41.5742C112.861 41.6025 112.913 41.6697 112.98 41.7669C114.213 43.5672 115.178 44.2881 116.964 44.7419C119.877 45.4822 122.939 44.2998 123.776 42.111C124.22 40.9505 124.045 38.4728 123.313 35.5514C122.518 32.3806 122.433 31.4673 122.819 30.2875C123.017 29.6835 123.069 29.257 122.959 29.1471C122.557 28.7453 119.776 28.4628 119.061 28.7514C118.934 28.8028 117.519 31.0362 115.916 33.7145C114.846 35.5035 112.091 40.4868 110.581 41.4928C109.811 42.0148 109.152 42.1383 108.603 41.8637C108.081 41.5616 107.793 40.9298 107.738 39.9685C107.738 39.5564 107.765 39.0757 107.82 38.5265C107.869 38.2005 107.923 37.8696 107.981 37.5339C108.021 37.304 108.064 37.0717 108.108 36.8372L108.521 35.0243C108.593 34.7464 108.663 34.4765 108.73 34.2146L108.826 33.8404C108.877 33.6395 108.926 33.4437 108.974 33.2526C109.056 32.978 109.139 32.6621 109.221 32.3051C109.303 31.9205 109.372 31.6184 109.427 31.3987C109.564 30.7395 109.551 30.2175 109.386 29.8331C109.248 29.421 109.001 29.1189 108.644 28.9267C108.287 28.707 107.848 28.5833 107.326 28.5559C106.831 28.5009 106.309 28.5009 105.76 28.5559C105.65 28.5833 105.582 28.6382 105.554 28.7206C105.472 28.9403 105.321 29.1602 105.101 29.3799C104.881 29.5721 104.634 29.7643 104.359 29.9567C104.085 30.1215 103.796 30.2588 103.494 30.3687C103.219 30.4785 102.972 30.5334 102.752 30.5334C102.917 29.7918 103.068 29.1189 103.206 28.5146C103.343 27.9104 103.343 27.4023 103.206 26.9902C103.096 26.5783 102.78 26.2898 102.258 26.1251C101.736 25.9327 100.898 25.9052 99.7448 26.0425C99.6631 26.0528 99.5947 26.0668 99.5396 26.0846C99.4464 26.1148 99.3912 26.1557 99.374 26.2075C99.374 26.2517 99.37 26.292 99.3621 26.3284C99.3552 26.3596 99.3455 26.3878 99.3328 26.4133C99.2229 26.9078 99.0718 27.5396 98.8795 28.3087C98.7147 29.0501 98.5637 29.6958 98.4263 30.245C98.2066 31.234 98.3165 31.9479 98.756 32.3875C99.1954 32.8269 99.731 33.0468 100.363 33.0468C100.021 35.4781 99.4773 37.5892 97.77 39.3916C97.2756 39.9134 96.7126 40.394 96.0808 40.8336C95.3941 41.3004 94.6251 41.6027 93.7736 41.74C92.9496 41.8773 92.1668 41.8498 91.4251 41.6576C90.711 41.4654 90.093 41.122 89.5711 40.6275C89.0767 40.1058 88.8295 39.4052 88.8295 38.5263C89.6535 38.6911 90.505 38.6774 91.3839 38.4852C92.2629 38.2928 93.0869 37.9771 93.856 37.5375C94.6525 37.0707 95.3529 36.5213 95.9572 35.8895C96.589 35.2577 97.0422 34.5848 97.3168 33.8706C97.5915 33.129 97.6602 32.3875 97.5228 31.6459C97.413 30.8768 97.0147 30.1626 96.328 29.5033C95.7787 28.9541 95.1057 28.5969 94.3092 28.4322C93.5126 28.24 92.6749 28.1987 91.7959 28.3085C90.5599 28.4735 89.4475 28.8992 88.4587 29.5857C87.4973 30.2724 86.6733 31.1103 85.9866 32.0991C85.3274 33.0604 84.8468 34.1316 84.5446 35.3126C84.2425 36.4663 84.1189 37.5924 84.1738 38.6911C84.2318 39.4641 84.3917 40.1963 84.6535 40.8875C84.4553 41.0871 84.2443 41.2613 84.0208 41.4105C83.2242 41.9322 82.5513 42.0559 82.0019 41.7811C81.4526 41.479 81.1642 40.8472 81.1367 39.8859C81.1367 39.5289 81.1504 39.1443 81.1779 38.7323C81.2328 38.3202 81.3153 37.8809 81.4251 37.4138C81.5624 36.8372 81.686 36.2877 81.7959 35.7658C81.9333 35.2166 82.0843 34.6535 82.2491 34.0767C82.4414 33.4998 82.565 32.9231 82.6199 32.3462C82.7023 31.7419 82.6749 31.1927 82.5375 30.6982C82.3727 30.0664 82.0569 29.5857 81.5899 29.2562C81.123 28.899 80.5874 28.6793 79.9831 28.5969C79.3788 28.4871 78.7608 28.4871 78.1291 28.5969C77.5248 28.7068 76.9892 28.8854 76.5222 29.1325C75.5609 29.6819 74.7643 30.3687 74.1326 31.1927C73.5009 32.0167 72.9515 32.9367 72.4846 33.953C72.5945 33.5411 72.6906 33.129 72.773 32.717C72.8828 32.2775 72.979 31.8517 73.0614 31.4398C73.1987 30.7806 73.185 30.245 73.0202 29.8331C72.8554 29.421 72.5944 29.1189 72.2374 28.9265C71.8803 28.7068 71.4408 28.5833 70.9189 28.5559C70.4245 28.5007 69.9027 28.5007 69.3533 28.5559C69.1885 28.5833 69.0924 28.6793 69.0649 28.8441C68.598 30.9866 68.0898 33.1153 67.5405 35.2302C67.0052 37.3997 66.2415 39.7706 64.6968 41.4553C64.4837 41.7111 64.2493 41.9241 63.9936 42.0946C63.3757 42.5207 62.8429 42.6168 62.3954 42.3823C61.9692 42.148 61.7455 41.6471 61.7242 40.88C61.7242 40.4966 61.7562 40.0702 61.8201 39.6014C62.0133 38.1847 62.4054 36.8076 62.7151 35.4143C62.9068 34.6045 63.0986 33.8054 63.2904 33.0169L63.8658 30.6518C64.505 30.5878 65.1017 30.5664 65.6557 30.5878C66.2311 30.5878 66.7318 30.6729 67.158 30.8434C67.2219 30.8861 67.2965 30.8861 67.3818 30.8434C67.467 30.8009 67.5096 30.7369 67.5096 30.6518C67.5948 30.2041 67.5842 29.8313 67.4777 29.533C67.3711 29.2133 67.1793 28.9684 66.9023 28.7979C66.6253 28.606 66.2737 28.4782 65.8475 28.4142ZM89.8183 34.2003C90.2303 33.4312 90.7247 32.772 91.3015 32.2226C91.741 31.8381 92.1668 31.5771 92.5788 31.4398C92.9908 31.2751 93.3478 31.2338 93.65 31.3162C93.9521 31.3711 94.1581 31.536 94.268 31.8106C94.4053 32.0853 94.4053 32.4561 94.268 32.9231C94.1306 33.3625 93.8835 33.7882 93.5264 34.2003C93.1968 34.6122 92.7985 34.9831 92.3316 35.3126C91.8646 35.6423 91.3427 35.9169 90.7659 36.1366C90.1891 36.329 89.5986 36.4389 88.9943 36.4663C89.1591 35.7247 89.4338 34.9694 89.8183 34.2003ZM34.4882 37.9907C34.4332 38.4028 34.392 38.8147 34.3646 39.2268C34.0624 39.941 33.6367 40.5177 33.0874 40.9573C32.5655 41.3692 32.0299 41.644 31.4805 41.7813C30.9312 41.8911 30.3956 41.8362 29.8737 41.6165C29.3793 41.3966 29.0085 40.9847 28.7613 40.3804C28.5415 39.8861 28.4317 39.2954 28.4317 38.6089C28.4317 37.9222 28.5003 37.2216 28.6377 36.5076C28.8025 35.766 29.036 35.0518 29.3381 34.3651C29.6402 33.6509 29.9836 33.0329 30.3681 32.511C30.7527 31.9618 31.1784 31.5497 31.6453 31.2751C32.1123 30.973 32.5929 30.8631 33.0874 30.9455C33.5268 31.0279 33.829 31.2476 33.9938 31.6046C34.186 31.9343 34.2822 32.3326 34.2822 32.7994C34.3096 33.239 34.2547 33.7058 34.1174 34.2003C33.98 34.6946 33.8015 35.1204 33.5818 35.4775C33.2522 35.9993 33.3758 36.3427 33.9526 36.5076L34.6942 36.6311C34.6118 37.0981 34.5431 37.5513 34.4882 37.9907ZM119.225 36.1761C119.528 37.4747 119.746 38.9544 119.751 39.7367C119.757 40.8899 119.696 41.1481 119.309 41.5977C118.906 42.065 118.738 42.1199 117.709 42.1199C116.68 42.1199 116.512 42.065 116.11 41.5977C115.534 40.9294 115.506 39.8535 116.046 39.1676C116.485 38.6103 117.06 38.5415 117.676 38.9726C118.241 39.3679 118.64 39.0394 118.64 38.18C118.64 37.2953 118.204 36.5398 117.532 36.2619C117.219 36.1325 116.964 35.9517 116.964 35.8596C116.964 35.5805 118.349 33.8585 118.534 33.9077C118.629 33.9334 118.94 34.9538 119.225 36.1761Z" fill="#D9D9D9"/>
<path fill-rule="evenodd" clip-rule="evenodd" d="M15.4091 16.484C16.9197 16.9235 18.2656 17.5277 19.4467 18.2968C20.6553 19.0659 21.6716 19.9448 22.4956 20.9336C23.3196 21.9224 23.9513 22.9799 24.3908 24.106C24.8303 25.2323 25.0363 26.3859 25.0088 27.5669C25.0088 28.3634 24.8715 29.2424 24.5968 30.2037C24.3496 31.1652 24.0337 32.0029 23.6492 32.717C23.1273 33.7333 22.3994 34.6946 21.4655 35.601C20.5591 36.5074 19.5154 37.2491 18.3343 37.8259C17.1532 38.3754 15.876 38.6774 14.5026 38.7323C13.1568 38.7873 11.7834 38.4714 10.3826 37.7847C10.1354 38.8835 9.91562 39.9408 9.72337 40.9573C9.53109 41.9735 9.36628 42.921 9.22895 43.7999C9.09162 44.6514 8.99548 45.4069 8.94054 46.066C8.91308 46.7527 8.92681 47.2883 8.98175 47.6729C9.00921 47.7553 8.99548 47.8515 8.94054 47.9613C8.88562 47.9888 8.8444 48.0024 8.81694 48.0024C8.78948 48.0299 8.74829 48.0574 8.69334 48.0848C7.04532 48.2498 5.86424 48.0299 5.15008 47.4258C4.43593 46.8214 4.13381 46.0385 4.24368 45.0772C4.35355 44.0335 4.57328 42.7426 4.90289 41.2044C5.25995 39.6387 5.63075 38.032 6.0153 36.384C6.16137 35.7996 6.30571 35.2205 6.44835 34.6466C6.70799 33.6017 6.96193 32.574 7.21011 31.5635C7.62212 29.9704 7.95173 28.6382 8.19892 27.5669C7.53972 27.8691 6.77064 28.1026 5.8917 28.2674C5.04022 28.4322 4.06514 28.4458 2.96646 28.3085C1.56564 27.2648 0.672938 26.1798 0.288412 25.0537C-0.0961375 23.9276 -0.0961375 22.8563 0.288412 21.84C0.672938 20.7963 1.37336 19.8486 2.38963 18.9971C3.43339 18.1182 4.64194 17.4178 6.0153 16.8959C7.41612 16.3741 8.92681 16.0582 10.5474 15.9484C12.1679 15.8385 13.7885 16.0169 15.4091 16.484ZM20.4767 28.1026C20.5866 27.0038 20.5317 25.9601 20.3119 24.9713C20.0922 23.9551 19.7214 23.0487 19.1995 22.2521C18.7051 21.4281 18.0596 20.7414 17.2631 20.192C16.4665 19.6427 15.5464 19.2856 14.5026 19.1208C13.4314 18.956 12.3053 18.9971 11.1242 19.2445C9.97056 19.4642 8.87188 19.8761 7.82813 20.4804C6.81186 21.0847 5.8917 21.8675 5.06768 22.8288C4.27114 23.7903 3.69432 24.9164 3.33725 26.2073C4.02392 26.1798 4.72434 25.9876 5.4385 25.6306C6.15262 25.2459 6.81183 24.7791 7.41612 24.2297C8.04786 23.6528 8.58347 23.0348 9.02294 22.3756C9.46242 21.6891 9.75083 21.016 9.88816 20.3569C9.9431 20.137 10.053 20.0547 10.2178 20.1096C11.0143 20.137 11.6461 20.2194 12.113 20.3569C12.6074 20.4942 12.9782 20.6726 13.2254 20.8925C13.6374 21.2495 13.8709 21.7165 13.9258 22.2932C13.9258 22.458 13.9121 22.6915 13.8846 22.9938C13.8572 23.2958 13.816 23.6117 13.761 23.9413C13.7061 24.2435 13.6374 24.5456 13.555 24.8477C13.5317 24.9757 13.5085 25.0912 13.4852 25.1946C13.4536 25.3352 13.4219 25.4532 13.3902 25.5482C13.1705 26.5919 12.8821 27.6769 12.525 28.803C12.1954 29.9291 12.0443 31.0141 12.0718 32.0578C12.0993 32.9917 12.2778 33.7333 12.6074 34.2827C12.937 34.8045 13.349 35.1478 13.8434 35.3126C14.3378 35.4501 14.8872 35.4363 15.4914 35.2715C16.1232 35.0793 16.7275 34.7359 17.3043 34.2414C17.9086 33.7471 18.4579 33.1153 18.9523 32.3462C19.4742 31.5771 19.8862 30.6707 20.1883 29.627C20.2982 29.16 20.3943 28.6519 20.4767 28.1026ZM65.8475 28.4142C65.4426 28.3291 64.9845 28.2757 64.4731 28.2544L64.6648 27.3594C64.7288 27.0398 64.8034 26.7308 64.8886 26.4325C64.9951 25.921 64.9845 25.5055 64.8566 25.1859C64.7288 24.8662 64.5157 24.6213 64.2174 24.4508C63.9403 24.2803 63.5994 24.1844 63.1945 24.1631C62.7896 24.1204 62.3741 24.1204 61.9479 24.1631C61.7988 24.1631 61.7242 24.2376 61.7242 24.3867C61.5537 25.0687 61.3939 25.74 61.2447 26.4005C61.1169 27.0398 60.9677 27.7004 60.7972 28.3822C60.0301 28.4249 59.2736 28.4569 58.5278 28.4782C57.8033 28.4782 57.1641 28.4249 56.61 28.3184C56.5248 28.3184 56.4609 28.3397 56.4182 28.3822C56.3756 28.4035 56.333 28.4569 56.2904 28.542C56.2052 29.1175 56.2478 29.5861 56.4182 29.9484C56.5887 30.2894 56.8551 30.5451 57.2173 30.7156C57.5796 30.8861 58.0164 30.9926 58.5278 31.0352C59.0393 31.0566 59.5827 31.0459 60.158 31.0032C59.9875 31.7917 59.8064 32.5801 59.6146 33.3686C58.9355 36.0851 58.4689 39.7942 55.9204 41.4928C55.1514 42.0148 54.4921 42.1383 53.9428 41.8637C53.4209 41.5616 53.1325 40.9298 53.0776 39.9685C53.0776 39.5564 53.105 39.0757 53.16 38.5265C53.2424 37.9771 53.3385 37.414 53.4484 36.8372L53.8604 35.0243C54.0252 34.3926 54.1763 33.802 54.3136 33.2526C54.396 32.978 54.4784 32.6621 54.5608 32.3051C54.6432 31.9205 54.7119 31.6184 54.7668 31.3987C54.9041 30.7395 54.8904 30.2175 54.7256 29.8331C54.5883 29.421 54.3411 29.1189 53.984 28.9267C53.6269 28.707 53.1875 28.5833 52.6656 28.5559C52.1712 28.5009 51.6493 28.5009 51.1 28.5559C50.9901 28.5833 50.9214 28.6382 50.894 28.7206C50.8116 28.9403 50.6605 29.1602 50.4408 29.3799C50.221 29.5721 49.9738 29.7643 49.6991 29.9567C49.4245 30.1215 49.136 30.2588 48.8339 30.3687C48.5592 30.4785 48.312 30.5334 48.0923 30.5334C48.2571 29.7918 48.4082 29.1189 48.5455 28.5146C48.6828 27.9104 48.6828 27.4023 48.5455 26.9902C48.4356 26.5783 48.1198 26.2898 47.5979 26.1251C47.076 25.9327 46.2383 25.9052 45.0847 26.0425C44.8649 26.0702 44.7413 26.1251 44.7138 26.2075C44.7138 26.231 44.7127 26.2533 44.7105 26.2744L44.7069 26.3023C44.7027 26.3286 44.6966 26.3529 44.6886 26.3754C44.684 26.3886 44.6786 26.4013 44.6727 26.4133C44.5628 26.9078 44.4117 27.5396 44.2195 28.3087C44.0546 29.0501 43.9036 29.6958 43.7662 30.245C43.5465 31.234 43.6564 31.9479 44.0958 32.3875C44.5353 32.8269 45.0709 33.0468 45.7027 33.0468C45.3024 35.8985 44.2848 39.6388 41.7395 41.3692C40.943 41.9186 40.27 42.0423 39.7206 41.74C39.1713 41.4379 38.8829 40.8061 38.8554 39.8448C38.828 39.3229 38.8829 38.6913 39.0203 37.9496C39.1576 37.208 39.3087 36.4527 39.4735 35.6836C39.6657 34.9145 39.858 34.159 40.0503 33.4174C40.27 32.676 40.4348 32.0303 40.5447 31.4811C40.682 30.8219 40.6683 30.2863 40.5035 29.8742C40.3387 29.4623 40.064 29.1602 39.6795 28.9678C39.3224 28.7481 38.8829 28.6108 38.361 28.5559C37.8392 28.5009 37.3036 28.5009 36.7542 28.5559C36.5894 28.6108 36.4933 28.707 36.4658 28.8443C36.4109 29.1464 36.3422 29.4484 36.2598 29.7507C36.1774 30.0528 36.095 30.3687 36.0126 30.6982C35.5731 29.984 35.0513 29.4623 34.447 29.1327C33.8702 28.7755 33.2384 28.5695 32.5518 28.5146C30.9587 28.4047 29.5441 28.7344 28.3081 29.5033C27.0721 30.245 26.0832 31.2476 25.3416 32.511C24.6 33.7471 24.1331 35.1342 23.9408 36.6724C23.776 38.1831 23.9545 39.6526 24.4764 41.0807C24.861 42.1796 25.4652 43.0721 26.2892 43.7589C27.1133 44.4181 28.1295 44.7476 29.3381 44.7476C30.5192 44.7476 31.5355 44.5141 32.3869 44.0473C33.2659 43.5528 34.0212 42.8799 34.653 42.0284C34.8727 42.7975 35.2298 43.4293 35.7242 43.9236C36.2461 44.3906 36.974 44.6791 37.9078 44.7889C38.6495 44.8713 39.3636 44.7889 40.0503 44.5416C40.7644 44.2944 41.4236 43.9511 42.0279 43.5117C43.3945 42.5176 44.4416 41.0824 45.2907 39.6387C45.5653 39.1719 45.8537 38.6225 46.1559 37.9907C46.458 37.3316 46.7464 36.6036 47.0211 35.8071C47.2958 34.9831 47.5155 34.1041 47.6803 33.1702C48.0099 33.1153 48.3944 33.0055 48.8339 32.8407C49.3009 32.6485 49.6991 32.4835 50.0287 32.3462L49.9051 32.7994C49.5755 34.1729 49.2734 35.5599 48.9987 36.9608C48.7515 38.3341 48.6828 39.5838 48.7927 40.7101C48.9026 41.8637 49.2047 42.8114 49.6991 43.5528C50.1935 44.267 51.0313 44.6791 52.2124 44.7889C52.9265 44.8713 53.6269 44.8026 54.3136 44.5829C55.0003 44.3357 55.632 44.006 56.2088 43.5941C56.7857 43.1545 57.3075 42.6464 57.7745 42.0697C57.853 41.9682 57.9292 41.866 58.003 41.7637C58.0931 41.6388 58.1797 41.5134 58.2628 41.3873C58.3159 42.2105 58.5127 43.0628 58.9753 43.7567C59.3802 44.3108 60.0621 44.6412 61.021 44.7476C61.5964 44.8115 62.1504 44.7583 62.6831 44.5878C63.2371 44.396 63.7485 44.1297 64.2174 43.7887C64.6862 43.4264 65.1017 43.0109 65.4639 42.5421C65.5622 42.422 65.6556 42.3011 65.7441 42.1796C65.8309 42.0604 65.9131 41.9405 65.9905 41.8198C65.912 42.2396 65.948 42.6249 66.0985 42.9759C66.2633 43.3331 66.4967 43.649 66.7989 43.9236C67.101 44.1982 67.4581 44.4181 67.8701 44.5829C68.2821 44.7202 68.6941 44.7887 69.1061 44.7887C69.2434 44.7887 69.4083 44.7751 69.6005 44.7476C69.8203 44.7476 69.9576 44.6514 70.0125 44.4592C70.3147 43.3331 70.7129 42.1657 71.2074 40.9571C71.7292 39.7486 72.2923 38.5812 72.8966 37.4551C73.5009 36.329 74.1051 35.3126 74.7094 34.4062C75.3411 33.4998 75.8905 32.7856 76.3574 32.2638C76.8518 31.7419 77.2364 31.4673 77.511 31.4398C77.8132 31.4124 77.9505 31.7283 77.923 32.3875C77.7033 33.1015 77.511 33.7882 77.3463 34.4475C77.2089 35.1067 77.0853 35.6834 76.9754 36.1779C76.7832 36.947 76.6458 37.7023 76.5634 38.4439C76.5085 39.1855 76.5222 39.9134 76.6046 40.6275C76.7145 41.7811 77.0441 42.7288 77.5935 43.4704C78.1703 44.2121 79.0492 44.6514 80.2303 44.7887C80.9719 44.8713 81.686 44.7887 82.3727 44.5416C83.0594 44.2944 83.6912 43.9511 84.268 43.5115C84.7171 43.1849 85.1282 42.8204 85.5014 42.418C85.9762 43.0103 86.5774 43.4985 87.3051 43.8823C88.2664 44.4043 89.269 44.6927 90.3127 44.7476C91.3565 44.83 92.3728 44.7338 93.3616 44.4592C98.3985 42.9205 101.462 38.1501 102.34 33.1702C102.67 33.1153 103.055 33.0055 103.494 32.8407C103.961 32.6485 104.359 32.4835 104.689 32.3462L104.565 32.7994C104.236 34.1729 103.933 35.5599 103.659 36.9608C103.412 38.3341 103.343 39.5838 103.453 40.7101C103.563 41.8637 103.865 42.8114 104.359 43.5528C104.854 44.267 105.691 44.6791 106.872 44.7889C107.587 44.8713 108.287 44.8026 108.974 44.5829C109.66 44.3357 110.292 44.006 110.869 43.5941C111.446 43.1545 111.968 42.6464 112.435 42.0697C112.561 41.9055 112.682 41.7404 112.797 41.5742C112.861 41.6025 112.913 41.6697 112.98 41.7669C114.213 43.5672 115.178 44.2881 116.964 44.7419C119.877 45.4822 122.939 44.2998 123.776 42.111C124.22 40.9505 124.045 38.4728 123.313 35.5514C122.518 32.3806 122.433 31.4673 122.819 30.2875C123.017 29.6835 123.069 29.257 122.959 29.1471C122.557 28.7453 119.776 28.4628 119.061 28.7514C118.934 28.8028 117.519 31.0362 115.916 33.7145C114.846 35.5035 112.091 40.4868 110.581 41.4928C109.811 42.0148 109.152 42.1383 108.603 41.8637C108.081 41.5616 107.793 40.9298 107.738 39.9685C107.738 39.5564 107.765 39.0757 107.82 38.5265C107.869 38.2005 107.923 37.8696 107.981 37.5339C108.021 37.304 108.064 37.0717 108.108 36.8372L108.521 35.0243C108.593 34.7464 108.663 34.4765 108.73 34.2146L108.826 33.8404C108.877 33.6395 108.926 33.4437 108.974 33.2526C109.056 32.978 109.139 32.6621 109.221 32.3051C109.303 31.9205 109.372 31.6184 109.427 31.3987C109.564 30.7395 109.551 30.2175 109.386 29.8331C109.248 29.421 109.001 29.1189 108.644 28.9267C108.287 28.707 107.848 28.5833 107.326 28.5559C106.831 28.5009 106.309 28.5009 105.76 28.5559C105.65 28.5833 105.582 28.6382 105.554 28.7206C105.472 28.9403 105.321 29.1602 105.101 29.3799C104.881 29.5721 104.634 29.7643 104.359 29.9567C104.085 30.1215 103.796 30.2588 103.494 30.3687C103.219 30.4785 102.972 30.5334 102.752 30.5334C102.917 29.7918 103.068 29.1189 103.206 28.5146C103.343 27.9104 103.343 27.4023 103.206 26.9902C103.096 26.5783 102.78 26.2898 102.258 26.1251C101.736 25.9327 100.898 25.9052 99.7448 26.0425C99.6631 26.0528 99.5947 26.0668 99.5396 26.0846C99.4464 26.1148 99.3912 26.1557 99.374 26.2075C99.374 26.2517 99.37 26.292 99.3621 26.3284C99.3552 26.3596 99.3455 26.3878 99.3328 26.4133C99.2229 26.9078 99.0718 27.5396 98.8795 28.3087C98.7147 29.0501 98.5637 29.6958 98.4263 30.245C98.2066 31.234 98.3165 31.9479 98.756 32.3875C99.1954 32.8269 99.731 33.0468 100.363 33.0468C100.021 35.4781 99.4773 37.5892 97.77 39.3916C97.2756 39.9134 96.7126 40.394 96.0808 40.8336C95.3941 41.3004 94.6251 41.6027 93.7736 41.74C92.9496 41.8773 92.1668 41.8498 91.4251 41.6576C90.711 41.4654 90.093 41.122 89.5711 40.6275C89.0767 40.1058 88.8295 39.4052 88.8295 38.5263C89.6535 38.6911 90.505 38.6774 91.3839 38.4852C92.2629 38.2928 93.0869 37.9771 93.856 37.5375C94.6525 37.0707 95.3529 36.5213 95.9572 35.8895C96.589 35.2577 97.0422 34.5848 97.3168 33.8706C97.5915 33.129 97.6602 32.3875 97.5228 31.6459C97.413 30.8768 97.0147 30.1626 96.328 29.5033C95.7787 28.9541 95.1057 28.5969 94.3092 28.4322C93.5126 28.24 92.6749 28.1987 91.7959 28.3085C90.5599 28.4735 89.4475 28.8992 88.4587 29.5857C87.4973 30.2724 86.6733 31.1103 85.9866 32.0991C85.3274 33.0604 84.8468 34.1316 84.5446 35.3126C84.2425 36.4663 84.1189 37.5924 84.1738 38.6911C84.2318 39.4641 84.3917 40.1963 84.6535 40.8875C84.4553 41.0871 84.2443 41.2613 84.0208 41.4105C83.2242 41.9322 82.5513 42.0559 82.0019 41.7811C81.4526 41.479 81.1642 40.8472 81.1367 39.8859C81.1367 39.5289 81.1504 39.1443 81.1779 38.7323C81.2328 38.3202 81.3153 37.8809 81.4251 37.4138C81.5624 36.8372 81.686 36.2877 81.7959 35.7658C81.9333 35.2166 82.0843 34.6535 82.2491 34.0767C82.4414 33.4998 82.565 32.9231 82.6199 32.3462C82.7023 31.7419 82.6749 31.1927 82.5375 30.6982C82.3727 30.0664 82.0569 29.5857 81.5899 29.2562C81.123 28.899 80.5874 28.6793 79.9831 28.5969C79.3788 28.4871 78.7608 28.4871 78.1291 28.5969C77.5248 28.7068 76.9892 28.8854 76.5222 29.1325C75.5609 29.6819 74.7643 30.3687 74.1326 31.1927C73.5009 32.0167 72.9515 32.9367 72.4846 33.953C72.5945 33.5411 72.6906 33.129 72.773 32.717C72.8828 32.2775 72.979 31.8517 73.0614 31.4398C73.1987 30.7806 73.185 30.245 73.0202 29.8331C72.8554 29.421 72.5944 29.1189 72.2374 28.9265C71.8803 28.7068 71.4408 28.5833 70.9189 28.5559C70.4245 28.5007 69.9027 28.5007 69.3533 28.5559C69.1885 28.5833 69.0924 28.6793 69.0649 28.8441C68.598 30.9866 68.0898 33.1153 67.5405 35.2302C67.0052 37.3997 66.2415 39.7706 64.6968 41.4553C64.4837 41.7111 64.2493 41.9241 63.9936 42.0946C63.3757 42.5207 62.8429 42.6168 62.3954 42.3823C61.9692 42.148 61.7455 41.6471 61.7242 40.88C61.7242 40.4966 61.7562 40.0702 61.8201 39.6014C62.0133 38.1847 62.4054 36.8076 62.7151 35.4143C62.9068 34.6045 63.0986 33.8054 63.2904 33.0169L63.8658 30.6518C64.505 30.5878 65.1017 30.5664 65.6557 30.5878C66.2311 30.5878 66.7318 30.6729 67.158 30.8434C67.2219 30.8861 67.2965 30.8861 67.3818 30.8434C67.467 30.8009 67.5096 30.7369 67.5096 30.6518C67.5948 30.2041 67.5842 29.8313 67.4777 29.533C67.3711 29.2133 67.1793 28.9684 66.9023 28.7979C66.6253 28.606 66.2737 28.4782 65.8475 28.4142ZM89.8183 34.2003C90.2303 33.4312 90.7247 32.772 91.3015 32.2226C91.741 31.8381 92.1668 31.5771 92.5788 31.4398C92.9908 31.2751 93.3478 31.2338 93.65 31.3162C93.9521 31.3711 94.1581 31.536 94.268 31.8106C94.4053 32.0853 94.4053 32.4561 94.268 32.9231C94.1306 33.3625 93.8835 33.7882 93.5264 34.2003C93.1968 34.6122 92.7985 34.9831 92.3316 35.3126C91.8646 35.6423 91.3427 35.9169 90.7659 36.1366C90.1891 36.329 89.5986 36.4389 88.9943 36.4663C89.1591 35.7247 89.4338 34.9694 89.8183 34.2003ZM34.4882 37.9907C34.4332 38.4028 34.392 38.8147 34.3646 39.2268C34.0624 39.941 33.6367 40.5177 33.0874 40.9573C32.5655 41.3692 32.0299 41.644 31.4805 41.7813C30.9312 41.8911 30.3956 41.8362 29.8737 41.6165C29.3793 41.3966 29.0085 40.9847 28.7613 40.3804C28.5415 39.8861 28.4317 39.2954 28.4317 38.6089C28.4317 37.9222 28.5003 37.2216 28.6377 36.5076C28.8025 35.766 29.036 35.0518 29.3381 34.3651C29.6402 33.6509 29.9836 33.0329 30.3681 32.511C30.7527 31.9618 31.1784 31.5497 31.6453 31.2751C32.1123 30.973 32.5929 30.8631 33.0874 30.9455C33.5268 31.0279 33.829 31.2476 33.9938 31.6046C34.186 31.9343 34.2822 32.3326 34.2822 32.7994C34.3096 33.239 34.2547 33.7058 34.1174 34.2003C33.98 34.6946 33.8015 35.1204 33.5818 35.4775C33.2522 35.9993 33.3758 36.3427 33.9526 36.5076L34.6942 36.6311C34.6118 37.0981 34.5431 37.5513 34.4882 37.9907ZM119.225 36.1761C119.528 37.4747 119.746 38.9544 119.751 39.7367C119.757 40.8899 119.696 41.1481 119.309 41.5977C118.906 42.065 118.738 42.1199 117.709 42.1199C116.68 42.1199 116.512 42.065 116.11 41.5977C115.534 40.9294 115.506 39.8535 116.046 39.1676C116.485 38.6103 117.06 38.5415 117.676 38.9726C118.241 39.3679 118.64 39.0394 118.64 38.18C118.64 37.2953 118.204 36.5398 117.532 36.2619C117.219 36.1325 116.964 35.9517 116.964 35.8596C116.964 35.5805 118.349 33.8585 118.534 33.9077C118.629 33.9334 118.94 34.9538 119.225 36.1761Z" fill="url(#paint1_linear_35_1219)"/>
<defs>
<linearGradient id="paint0_linear_35_1219" x1="62.2596" y1="0.570313" x2="100.746" y2="1.23517" gradientUnits="userSpaceOnUse">
<stop stop-color="#6B40EA"/>
<stop offset="1" stop-color="#00A3FF"/>
</linearGradient>
<linearGradient id="paint1_linear_35_1219" x1="0" y1="15.917" x2="124.213" y2="48.2852" gradientUnits="userSpaceOnUse">
<stop stop-color="#6B40EA"/>
<stop offset="1" stop-color="#00A3FF"/>
</linearGradient>
</defs>
</svg>
