<svg width="24" height="25" viewBox="0 0 24 25" fill="none" xmlns="http://www.w3.org/2000/svg">
<path fill-rule="evenodd" clip-rule="evenodd" d="M17.798 16.126C17.655 16.253 17.478 16.315 17.3 16.315C17.094 16.315 16.888 16.23 16.739 16.064L13.942 12.917L13.769 13.056C13.225 13.463 12.607 13.666 11.993 13.666C11.384 13.666 10.778 13.467 10.249 13.069L10.108 12.957L7.252 16.072C7.105 16.233 6.902 16.315 6.699 16.315C6.518 16.315 6.336 16.25 6.193 16.118C5.887 15.839 5.866 15.364 6.147 15.059L8.934 12.018L6.23 9.85602C5.907 9.59702 5.855 9.12602 6.113 8.80202C6.374 8.47902 6.845 8.42802 7.168 8.68402L11.168 11.884C11.68 12.269 12.316 12.269 12.85 11.87L16.831 8.68402C17.155 8.42802 17.626 8.47902 17.886 8.80202C18.145 9.12602 18.092 9.59702 17.769 9.85602L15.115 11.979L17.86 15.067C18.136 15.377 18.108 15.851 17.798 16.126ZM16.4 3.77002H7.6C4.645 3.77002 2.5 6.08402 2.5 9.27002V15.47C2.5 18.605 4.692 20.97 7.6 20.97H16.4C19.355 20.97 21.5 18.656 21.5 15.47V9.27002C21.5 6.13502 19.307 3.77002 16.4 3.77002Z" fill="#EBEBEC"/>
</svg>
