<svg width="16" height="16" fill="none" xmlns="http://www.w3.org/2000/svg">
  <path fill-rule="evenodd" clip-rule="evenodd" d="M1.532 3.19 8 7.719l6.468-4.527a.732.732 0 0 0-.65-.403H2.182a.732.732 0 0 0-.65.403Zm13.014 1.722-6.129 4.29a.727.727 0 0 1-.834 0l-6.128-4.29v7.33c0 .399.328.728.727.728h11.636a.732.732 0 0 0 .728-.728v-7.33ZM0 3.515c0-1.202.98-2.182 2.182-2.182h11.636c1.202 0 2.182.98 2.182 2.182v8.727c0 1.202-.98 2.182-2.182 2.182H2.182A2.186 2.186 0 0 1 0 12.242V3.515Z" fill="#9EA8DD"/>
</svg>
