<svg width="1512" height="980" viewBox="0 0 1512 980" fill="none" xmlns="http://www.w3.org/2000/svg">
<path fill-rule="evenodd" clip-rule="evenodd" d="M563.399 1.28042C551.631 3.20635 551.036 3.43724 546.362 7.90205C542.29 11.7933 535.737 14.1123 528.759 14.1315C524.32 14.1444 519.071 16.5092 515.867 19.9405C513.986 21.9553 513.787 22.8211 514.319 26.683C514.903 30.927 514.791 31.2367 511.664 34.0037C509.032 36.3337 508.4 37.5477 508.4 40.2836C508.4 44.0347 508.736 43.9834 500.42 41.5049C496.981 40.4806 496.363 40.5392 494.691 42.051C493.661 42.9837 492.817 44.4277 492.817 45.2615C492.817 46.0944 492.249 47.553 491.555 48.5022C490.331 50.1744 490.126 50.1524 484.795 47.761C481.771 46.4041 478.023 45.2945 476.466 45.2945C471.57 45.2945 463.628 48.9264 458.262 53.6203C455.432 56.096 452.778 58.1218 452.365 58.1218C450.867 58.1218 448.818 63.6265 448.818 67.6534C448.818 73.5869 447.321 76.0818 441.939 79.1173C434.543 83.2898 425.357 94.5173 424.371 100.591C423.872 103.665 424.161 104.217 428.215 107.938C432.577 111.94 432.597 111.985 432.05 116.602C431.187 123.88 429.365 126.472 422.898 129.621C419.76 131.149 413.894 134.646 409.86 137.391C398.129 145.376 397.633 150.016 407.574 158.763C413.428 163.913 414.165 165.878 411.235 168.528C408.941 170.603 408.893 173.585 411.11 176.421C412.048 177.623 413.917 180.941 415.263 183.795C418.571 190.812 420.225 191.323 431.929 188.945C440.497 187.205 441.238 187.187 445.744 188.607C451.79 190.512 459.285 197.075 460.778 201.772C461.373 203.645 463.02 207.033 464.436 209.3C468.489 215.792 473.678 237.934 473.452 247.782C473.216 258.095 473.632 259.095 479.105 261.368C481.618 262.412 483.919 263.908 484.221 264.693C484.56 265.576 483.532 267.49 481.52 269.714C473.726 278.337 476.266 287.906 485.995 286.573C489.368 286.111 489.952 286.29 490.479 287.951C491.191 290.193 489.68 293.372 486.841 295.604C485.731 296.477 483.888 299.363 482.746 302.016C479.793 308.876 480.641 319.932 484.973 331.06C486.663 335.398 488.909 341.834 489.966 345.361C491.022 348.889 494.262 356.104 497.164 361.395C502.442 371.016 502.442 371.016 509.775 374.823C521.31 380.811 521.413 380.849 523.685 379.814C526.588 378.492 528.575 374.111 530.018 365.85C530.705 361.912 532.502 356.247 534.011 353.26C535.518 350.274 537.202 345.007 537.751 341.556C538.3 338.106 539.353 334.36 540.088 333.233C541.552 330.992 546.062 328.521 552.251 326.569C557.635 324.872 564.392 318.242 567.912 311.2C571.224 304.575 573.782 302.678 582.285 300.544C592.45 297.991 597.836 295.054 603.78 288.824C607.229 285.21 609.69 281.689 610.375 279.392C610.976 277.377 612.821 274.442 614.475 272.871C618.13 269.398 618.349 266.282 615.527 257.931C613.766 252.716 613.688 251.674 614.734 247.312C615.373 244.652 615.627 241.41 615.3 240.107C614.828 238.226 615.352 237.023 617.846 234.263C619.719 232.191 621.263 229.317 621.67 227.145C622.046 225.141 623.216 222.333 624.271 220.903C625.715 218.947 626.226 216.794 626.336 212.198C626.417 208.841 626.766 204.586 627.114 202.744C628.086 197.584 625.376 189.483 621.541 186.09C616.35 181.496 617.467 178.277 624.728 176.898C630.732 175.757 632.051 172.123 628.154 167.453C626.965 166.029 624.492 161.732 622.659 157.905C619.411 151.129 619.351 150.805 620.323 145.536C620.878 142.536 622.673 137.879 624.353 135.085C626.648 131.267 627.52 128.566 627.95 123.932C628.623 116.695 631.872 109.066 635.9 105.269C637.481 103.779 639.571 100.73 640.544 98.4947C641.516 96.2591 643.841 92.6922 645.709 90.5684C657.285 77.4076 660.053 73.0454 659.222 69.2668C658.544 66.181 654.784 62.3163 651.109 60.9291C646.01 59.0032 643.345 59.6959 638.523 64.2047C633.978 68.4541 633.978 68.4541 628.289 67.9392C621.726 67.3437 620.232 66.0014 620.232 60.6955C620.232 56.9646 617.761 53.5406 615.069 53.5406C614.246 53.5406 612.171 54.4064 610.457 55.4656C606.887 57.671 604.576 57.3448 600.621 54.0775C596.984 51.0741 597.967 49.3516 604.376 47.5045C611.04 45.584 614.587 43.1157 616.19 39.2812C617.803 35.4212 616.494 31.3522 612.906 29.0744C608.327 26.1672 598.21 15.8586 596.34 12.1955C594.56 8.70834 591.307 6.14563 584.024 2.49444C578.626 -0.211205 574.132 -0.475996 563.399 1.28042ZM400.694 20.1768C398.353 21.0528 395.371 21.3762 392.444 21.0711C388.787 20.6909 386.933 21.0473 383.278 22.8367C380.757 24.0708 377.739 25.0934 376.571 25.1089C373.716 25.1474 371.806 26.2616 366.702 30.8656C364.14 33.1773 361.498 36.7506 360.197 39.6661C358.29 43.9385 357.742 44.4983 355.975 43.9834C349.832 42.1912 348.15 42.2975 345.991 44.6156C344.82 45.8745 343.12 47.9855 342.214 49.3058C341.309 50.627 339.828 51.7081 338.924 51.7081C336.23 51.7081 326.164 57.1497 324.17 59.683C321.676 62.8523 321.836 64.5913 324.987 68.554C326.779 70.807 327.868 73.4797 328.305 76.6966C329.301 84.0109 332.723 90.0452 336.807 91.6853C338.671 92.4338 341.917 93.9319 344.022 95.0158C347.508 96.8107 348.246 96.8831 352.323 95.8395C359.217 94.073 362.134 96.1336 358.014 99.8608C356.637 101.107 354.588 101.6 350.451 101.68C347.331 101.741 343.332 102.104 341.564 102.488C338.529 103.146 338.003 102.866 332.057 97.42C327.23 92.9991 325.003 90.0764 322.5 84.8795C317.464 74.4216 314.161 73.2946 308.647 80.1535C304.501 85.3101 301.635 94.4651 300.866 105.01C300.26 113.331 300.361 114.152 302.519 118.408C303.953 121.237 306.041 123.664 308.069 124.86C311.184 126.696 311.32 126.996 311.32 131.957C311.32 136.259 311.863 138.029 314.527 142.413C318.596 149.107 321.611 150.585 327.707 148.873C335.93 146.563 335.999 146.569 339.342 149.806C343.173 153.518 343.269 154.791 339.853 156.557C337.026 158.018 336.102 160.188 336.083 165.411C336.072 168.235 335.291 169.45 330.638 173.886C323.891 180.319 321.256 180.609 312.756 175.858C309.601 174.094 305.948 172.651 304.639 172.651C302.054 172.651 299.404 175.584 299.404 178.444C299.404 181.06 305.016 186.107 309.168 187.225C315.005 188.796 317.533 192.851 316.408 198.843C315.722 202.496 314.086 202.836 310.555 200.06C308.514 198.456 307.364 198.245 303.369 198.744C297.682 199.455 297.19 198.874 296.21 190.278C295.431 183.46 293.713 181.031 289.149 180.301C286.546 179.884 284.967 180.259 282.275 181.931C280.167 183.24 276.778 184.285 273.738 184.561C269.189 184.975 268.671 185.244 268.429 187.311C268.079 190.3 271.912 195.471 276.291 197.92C278.163 198.967 280.934 201.504 282.446 203.557C286.022 208.412 288.355 208.995 293.638 206.357C297.728 204.316 297.856 204.307 298.847 206.017C299.405 206.981 300.932 209.006 302.24 210.52C305.168 213.908 309.405 214.223 312.533 211.286C315.239 208.744 316.404 208.788 319.696 211.556C321.171 212.796 323.912 214.294 325.786 214.883C330.125 216.247 361.215 216.823 365.099 215.611C370.437 213.946 373.179 206.486 370.515 200.874C367.439 194.394 358.654 192.545 349.098 196.367C340.128 199.955 332.54 198.301 329.991 192.203C328.775 189.294 328.793 188.736 330.169 186.638C331.679 184.334 331.798 184.314 340.317 184.912C345.584 185.282 351.158 185.11 354.649 184.47C359.494 183.58 360.9 183.647 363.911 184.908C369.33 187.178 372.206 186.831 374.946 183.575C377.712 180.291 377.921 177.638 375.769 173.128C374.227 169.898 374.237 169.844 377.373 163.89C379.176 160.468 382.17 156.542 384.362 154.729C390.093 149.986 392.248 143.555 391.44 133.603C390.821 125.974 390.821 125.974 393.924 123.075C395.631 121.48 399.284 118.682 402.043 116.856C406.146 114.141 407.368 112.706 408.754 108.965C409.686 106.449 414.029 99.673 418.404 93.9071C431.4 76.7791 431.402 76.7763 431.402 71.3366C431.402 66.5026 431.402 66.5026 438.047 61.1151C448.499 52.6427 451.705 44.4864 446.481 39.6642C445.194 38.4777 442.907 35.7547 441.395 33.6134C438.469 29.4675 434.661 26.9771 431.218 26.9588C430.059 26.9524 427.387 25.9629 425.28 24.7589C419.435 21.4174 411.55 18.7191 407.763 18.764C405.892 18.786 402.711 19.4219 400.694 20.1768ZM948.459 72.4471C947.414 73.7747 946.559 75.8271 946.559 77.0072C946.559 78.3586 945.626 79.7302 944.038 80.7134C938.59 84.0851 937.697 87.9388 941.641 91.0393C944.474 93.2676 949.846 93.5141 952.463 91.535C953.442 90.7956 955.195 90.19 956.359 90.19C958.066 90.19 958.475 90.6866 958.475 92.7554C958.475 96.2289 960.014 97.5198 964.156 97.5198C966.846 97.5198 968.443 96.7914 971.188 94.313C973.141 92.5493 975.102 91.1035 975.544 91.1007C975.988 91.098 977.831 90.6847 979.642 90.1817C983.53 89.1024 985.63 85.64 984.113 82.8079C982.869 80.4834 981.585 80.5622 977.698 83.2028C975.333 84.8089 972.821 85.4906 968.09 85.8104C964.566 86.0486 961.065 86.4994 960.309 86.8109C959.387 87.1921 958.126 86.2099 956.488 83.8377C954.486 80.9406 954.133 79.6148 954.545 76.5482C955.383 70.3031 951.961 67.9969 948.459 72.4471ZM1106.83 80.5155C1104.49 82.1189 1103.01 84.1282 1101.94 87.1875C1101.09 89.5944 1099.75 93.0074 1098.96 94.7711C1098.16 96.5349 1097.33 101.518 1097.1 105.846C1096.69 113.545 1096.73 113.756 1099.18 115.683C1100.56 116.766 1103.6 120.427 1105.94 123.817C1111.3 131.607 1118.39 136.05 1126.51 136.712C1131.83 137.146 1131.83 137.146 1131.59 143.223C1131.45 146.565 1131.66 149.812 1132.04 150.439C1133.03 152.039 1136.71 151.857 1143.94 149.853C1151.82 147.669 1154.64 145.168 1154.64 140.355C1154.64 137.263 1153.94 136.05 1149.46 131.353C1143.69 125.306 1141.52 124.697 1137.06 127.868C1133.1 130.693 1132.12 129.201 1132.44 120.772C1132.72 113.283 1132.57 113.016 1124.03 106.02C1121.62 104.045 1121.55 103.734 1121.82 95.8715C1122.08 88.2027 1121.95 87.5137 1119.32 83.2486C1116.94 79.4059 1116.06 78.6986 1113.36 78.4787C1111.16 78.3 1109.15 78.9276 1106.83 80.5155ZM915.851 88.4079C913.835 89.3617 911.229 90.1524 910.062 90.1662C907.139 90.1991 904.393 91.8053 904.393 93.482C904.393 95.1871 908.785 103.217 910.226 104.149C912.542 105.645 914.669 104.601 919.817 99.4384C926.192 93.0468 926.907 91.5689 925.018 88.6864C923.326 86.1054 920.877 86.0303 915.851 88.4079ZM949.84 99.4577C946.631 101.982 946.924 105.191 950.399 105.593C954.796 106.099 958.985 99.531 955.192 98.076C952.997 97.234 952.51 97.3595 949.84 99.4577ZM790.702 101.745C789.428 102.543 787.49 104.559 786.396 106.226C785.156 108.118 783.1 109.684 780.923 110.393C779.005 111.018 776.228 112.536 774.749 113.767C772.606 115.553 771.401 115.9 768.791 115.476C757.98 113.726 758.016 113.725 756.003 115.737C753.839 117.901 753.503 121.701 755.129 125.635C755.714 127.053 756.466 131.132 756.799 134.698C757.482 142.019 759.132 144.929 764.243 147.835C767.336 149.593 767.586 150.076 768.139 155.362C768.463 158.468 768.729 162.54 768.729 164.411C768.729 169.456 774.28 177.13 777.982 177.203C780.912 177.262 782.669 173.559 788.408 155.243C790.25 149.362 791.26 147.913 793.515 147.913C795.277 147.913 797.486 152.877 798.498 159.11C799.497 165.263 806.281 167.52 809.911 162.907C810.956 161.579 811.811 159.788 811.811 158.926C811.811 157.169 806.209 148.173 802.087 143.31C800.602 141.558 798.833 138.476 798.156 136.46C797.479 134.444 795.324 130.695 793.368 128.129C790.282 124.081 788.482 118.766 790.499 119.662C790.878 119.83 793.981 121.369 797.396 123.082C800.813 124.795 805.573 126.385 807.979 126.617C811.749 126.979 812.766 126.689 815.344 124.52C818.81 121.606 823.707 113.526 823.72 110.7C823.744 104.954 816.076 101.01 805.526 101.342C801.672 101.463 797.282 101.277 795.77 100.928C793.913 100.499 792.268 100.764 790.702 101.745ZM264.178 126.446C262.262 128.361 262.367 130.343 264.575 133.962C265.631 135.694 266.41 138.599 266.418 140.834C266.437 145.876 266.844 146.399 272.821 149.075C275.594 150.315 278.863 152.417 280.085 153.745C284.017 158.017 288.16 156.258 289.79 149.622C290.969 144.824 285.346 136.772 275.74 129.503C269.531 124.805 266.597 124.029 264.178 126.446ZM235.601 141.054C233.595 143.059 233.374 143.872 233.895 147.34C234.467 151.155 234.357 151.406 231.29 153.301C227.353 155.734 226.87 156.878 228.322 160.33C229.702 163.611 231.252 164.976 234.533 165.799C236.564 166.309 237.56 165.889 239.913 163.539C242.695 160.758 242.776 160.456 242.18 155.191C241.704 150.978 241.887 149.265 242.983 147.701C244.992 144.835 244.747 141.843 242.367 140.177C239.561 138.213 238.277 138.378 235.601 141.054ZM292.581 140.787C289.681 144.926 290.724 147.282 299.969 157.47C304.362 162.313 306.044 163.581 307.75 163.339C310.578 162.938 311.066 160.202 308.759 157.681C307.532 156.339 306.812 153.953 306.526 150.281C306.151 145.469 305.73 144.52 302.767 141.806C298.741 138.118 294.732 137.718 292.581 140.787ZM1145.01 161.508C1141.33 163.752 1137.55 169.385 1135.83 175.182C1134.67 179.071 1133.5 180.672 1129.32 184.076C1126.52 186.359 1123.54 188.288 1122.7 188.362C1121.86 188.436 1118.06 188.539 1114.25 188.591C1107.85 188.678 1106.95 188.942 1102.34 192.072C1099.59 193.934 1095.49 196.167 1093.22 197.034C1087.3 199.295 1079.78 204.437 1076.93 208.172C1074.96 210.761 1074.41 212.606 1074.12 217.624C1073.88 221.908 1073.3 224.286 1072.26 225.227C1071.42 225.984 1067.37 227.02 1063.2 227.543C1059.05 228.063 1054.43 229.121 1052.93 229.896C1049.57 231.631 1048.05 236.497 1048.91 242.758C1049.51 247.155 1049.51 247.155 1045.17 246.56C1040.56 245.928 1038.64 246.566 1034.29 250.18C1032.87 251.365 1030.43 252.338 1028.79 252.38C1027.17 252.42 1024.23 252.537 1022.26 252.637C1018.67 252.822 1018.67 252.822 1017.57 247.956C1016.48 243.192 1013.26 238.671 1009.49 236.626C1008.14 235.896 1007.22 236.242 1005.05 238.308C1001.64 241.55 1000.25 244.177 998.569 250.557C997.844 253.315 995.93 257.632 994.315 260.151C991.382 264.733 991.382 264.733 991.983 273.895C992.405 280.341 993.099 283.956 994.321 286.087C998.296 293.02 995.54 293.488 985.933 287.511C978.133 282.659 972.798 280.767 966.92 280.767C962.822 280.767 962.822 280.767 963.419 285.263C964.127 290.601 962.676 292.678 958.239 292.678C956.669 292.678 952.337 293.533 948.611 294.577C942.691 296.238 941.29 296.336 937.477 295.36C933.686 294.388 932.535 294.464 928.695 295.93C923.139 298.051 914.567 304.308 911.233 308.676C909.13 311.432 908.193 311.965 905.852 311.737C902.785 311.438 902.706 311.081 904.009 303.431C904.724 299.236 903.353 297.259 899.73 297.259C896.103 297.259 895.227 299.449 895.227 308.509C895.227 317.563 894.12 319.249 888.177 319.249C884.482 319.249 884.482 319.249 883.987 313.791C883.383 307.141 881.674 304.558 873.557 298.025C863.897 290.251 862.02 289.036 857.644 287.728C855.375 287.051 850.632 284.994 847.102 283.157C841.791 280.394 840.291 279.085 838.394 275.555C834.614 268.522 832.536 267.523 822.224 267.786C812.217 268.042 809.612 268.901 802.595 274.251C799.85 276.345 795.479 278.685 792.883 279.451C789.216 280.532 786.915 282.114 782.579 286.532C779.51 289.66 776.018 293.075 774.822 294.121C773.24 295.504 772.472 297.418 772.007 301.139C771.589 304.483 770.29 308.044 768.258 311.418C766.547 314.258 763.561 320.175 761.621 324.566C756.554 336.045 751.803 342.477 741.861 351.317C736.434 356.142 732.327 360.635 731.064 363.126C729.086 367.028 729.06 367.451 730.18 377.328C731.471 388.717 732.711 392.53 735.837 394.718C738.971 396.912 741.904 396.559 746.843 393.39C753.116 389.367 754.313 390.052 757.278 399.361C759.935 407.701 759.991 411.142 757.48 411.621C756.304 411.845 755.344 410.773 753.999 407.737C752.595 404.563 751.646 403.542 750.099 403.542C744.532 403.542 742.011 409.265 744.059 417.253C746.069 425.091 744.688 426.926 733.096 431.809C731.274 432.577 728.864 435.001 726.753 438.19C721.086 446.749 715.563 448.254 715.563 441.24C715.563 438.681 714.69 436.367 712.525 433.193C710.855 430.743 707.245 424.835 704.505 420.064C700.037 412.285 699.544 410.9 699.735 406.656C699.919 402.579 699.558 401.43 697.138 398.386C693.696 394.059 692.849 393.496 689.749 393.477C688.14 393.468 686.503 394.423 684.937 396.283C682.314 399.398 681.898 403.671 683.53 410.745C684.649 415.595 683.811 416.908 679.073 417.729C675.385 418.369 673.36 419.792 669.502 424.457C667.223 427.213 666.981 428.197 666.981 434.733C666.981 440.997 667.223 442.089 668.795 442.93C670.974 444.096 674.615 443.351 678.68 440.908C682.454 438.641 683.175 437.259 684.332 430.079C685.447 423.161 686.923 421.193 689.834 422.749C693.433 424.675 693.834 427.809 691.155 433.093C689.077 437.193 688.834 438.541 689.328 443.264C690.167 451.283 690.529 451.519 701.109 450.936C706.034 450.665 710.291 450.813 710.57 451.265C711.679 453.059 708.917 455.496 701.261 459.481C690.532 465.063 690.249 465.637 695.544 471.096C703.449 479.246 705.05 486.574 700.022 491.6C697.315 494.305 697.315 494.305 686.502 493.711C676.427 493.156 675.525 493.246 673.289 495.028C671.063 496.803 670.842 497.649 670.219 506.818C668.897 526.285 669.101 526.985 677.464 531.703C684.991 535.949 684.509 538.512 674.336 548.326C668.529 553.928 668.052 554.699 666.688 560.696C665.139 567.508 665.487 567.07 653.539 577.298C650.456 579.936 647.395 584.125 643.489 591.041C640.4 596.514 637.572 601.966 637.206 603.157C636.83 604.383 637.238 608.639 638.146 612.963C639.649 620.125 639.655 620.995 638.238 626.831C635.212 639.297 636.504 644.448 644.841 653.168C647.756 656.218 651.144 660.511 652.369 662.707C654.728 666.935 666.582 676.275 672.982 678.948C676.011 680.213 676.973 680.204 682.887 678.856C687.368 677.835 691.322 677.544 695.397 677.933C700.547 678.427 702.467 678.125 709.548 675.71C720.707 671.903 724.316 672.006 729.93 676.294C733.139 678.745 735.74 679.882 739.396 680.435C747.834 681.708 750.389 686.919 747.562 697.094C746.034 702.598 747.213 706.141 752.85 712.967C758.923 720.324 761.676 726.088 763.628 735.531C765.635 745.243 765.442 748.261 762.427 754.257C759.743 759.596 757.729 767.123 757.729 771.813C757.729 773.245 760.157 779.307 763.125 785.283C767.649 794.391 768.763 797.63 770.014 805.311C770.953 811.07 772.405 816.175 773.924 819.054C781.764 833.913 784.117 839.15 784.627 842.871C785.936 852.416 789.938 855.333 799.3 853.563C802.4 852.978 808.125 852.127 812.021 851.672C821.081 850.617 825.683 848.345 832.095 841.76C838.902 834.771 847.317 822.232 848.097 817.917C848.993 812.957 850.001 811.322 855.118 806.533C859.686 802.259 859.686 802.259 859.031 793.108C858.375 783.957 858.375 783.957 862.364 780.066C864.557 777.926 869.118 774.396 872.5 772.221C875.925 770.018 879.274 767.055 880.062 765.532C882.376 761.059 881.92 748.937 879.146 741.174C877.884 737.647 876.596 731.588 876.283 727.71C875.767 721.328 875.939 720.198 878.099 715.799C881.128 709.629 893.225 696.562 901.77 690.23C909.625 684.408 914.775 677.687 921.057 665.056C928.237 650.617 926.406 647.684 911.872 650.342C901.757 652.192 897.613 652.237 896.18 650.511C893.656 647.472 895.457 645.974 906.237 642.151C919.135 637.575 926.748 634.162 930.59 631.233C932.194 630.01 935.896 627.954 938.817 626.663C941.737 625.371 945.872 622.886 948.004 621.139C952.079 617.802 959.609 607.906 960.687 604.472C961.58 601.627 959.246 597.622 955.097 594.877C951.786 592.687 948.479 588.229 949.446 587.262C949.692 587.017 953.37 587.428 957.622 588.175C961.872 588.924 970.585 589.536 976.984 589.537C988.618 589.538 988.619 589.538 993.865 594.126C996.749 596.65 1000.46 600.719 1002.11 603.169C1005.12 607.631 1006.69 608.779 1009.78 608.779C1013.47 608.779 1015.32 611.734 1017.11 620.508C1018.07 625.196 1020.35 632.617 1022.19 637C1033.11 663.048 1033.62 663.751 1040.47 662.028C1046.3 660.56 1046.47 660.633 1046.47 664.567C1046.47 666.692 1047.17 668.991 1048.2 670.261C1049.72 672.141 1050.21 672.263 1052.32 671.298C1057.03 669.157 1054.6 661.928 1048.68 660.444C1046 659.771 1046.03 660.885 1048.31 646.344C1048.91 642.565 1049.57 638.182 1049.79 636.606C1050.11 634.264 1052.63 631.579 1063.53 621.946C1070.87 615.46 1078.01 609.225 1079.4 608.091C1082.21 605.793 1091.04 603.674 1094.31 604.512C1097.22 605.258 1105.18 616.311 1107.27 622.508C1109.49 629.091 1110.21 629.852 1114.21 629.852C1118.93 629.852 1121.26 631.857 1123 637.412C1125.91 646.722 1127.3 650.009 1128.31 650.009C1128.87 650.009 1130.84 648.966 1132.68 647.689C1137.05 644.66 1138.96 645.378 1147.29 653.201C1151.17 656.849 1154.44 659.172 1155.68 659.172C1158.6 659.172 1169.16 652.032 1170.73 649C1172.42 645.728 1172.43 638.939 1170.75 634.917C1170.03 633.2 1167.84 630.018 1165.87 627.845C1158.09 619.261 1157.18 615.087 1162.07 610.52C1167.22 605.715 1173.81 607.467 1172.53 613.3C1172.19 614.82 1172.19 616.506 1172.53 617.047C1173.54 618.678 1175.72 616.175 1175.72 613.39C1175.72 612.018 1176.46 610.229 1177.36 609.415C1179.42 607.548 1187.13 604.157 1195.43 601.465C1205.18 598.303 1213.58 591.534 1217.63 583.582C1218.91 581.062 1220.78 577.836 1221.78 576.412C1226.05 570.366 1225.43 559.158 1220.22 548.224C1216.58 540.584 1216.62 539.916 1221.14 533.71C1222.4 531.981 1223.29 530.125 1223.11 529.587C1222.94 529.049 1220.88 527.99 1218.54 527.234C1216.2 526.478 1213.55 525.127 1212.65 524.232C1211.18 522.758 1211.16 522.377 1212.4 520.193C1213.15 518.866 1215.37 516.947 1217.34 515.929C1220.74 514.172 1221.06 514.156 1223.6 515.617C1225.08 516.463 1228.01 517.162 1230.11 517.169C1232.21 517.177 1234.4 517.486 1234.97 517.856C1237.5 519.482 1243.03 530.659 1243.68 535.454C1244.72 543.056 1249.01 545.037 1254.48 540.438C1258.33 537.204 1258.32 532.357 1254.45 524.098C1251.6 518.009 1251.6 518.009 1254.22 514.232C1255.67 512.153 1258.2 508.43 1259.85 505.957C1263.08 501.13 1267.05 498.833 1272.17 498.827C1273.82 498.825 1276.5 498.019 1278.11 497.036C1284.78 492.97 1303.21 466.438 1305.47 457.647C1306.58 453.344 1308.64 451.508 1308.64 454.82C1308.64 457.534 1311.18 462.181 1312.66 462.181C1313.34 462.181 1314.98 461.326 1316.3 460.282C1318.95 458.202 1319.53 453.823 1317.81 448.803C1317.31 447.343 1316.52 443.336 1316.04 439.9C1315.1 433.139 1313.96 431.029 1311.26 431.029C1310.3 431.029 1307.2 429.792 1304.36 428.28C1301.03 426.499 1297.88 425.532 1295.42 425.532C1290.55 425.532 1287.55 423.468 1287.55 420.11C1287.55 417.505 1290.71 413.26 1304 397.965C1313.15 387.43 1312.77 387.623 1326.02 386.897C1332.34 386.551 1339.19 385.986 1341.25 385.643C1344.13 385.162 1345.85 385.462 1348.77 386.951C1353.26 389.237 1357.86 389.433 1360.68 387.459C1361.8 386.675 1363.77 383.801 1365.06 381.071C1366.35 378.341 1369.57 373.828 1372.2 371.042C1377.92 364.997 1380.32 364.59 1385.18 368.849C1388.17 371.478 1388.84 371.676 1393 371.183C1395.5 370.887 1397.55 370.858 1397.55 371.12C1397.55 372.733 1381.99 391.891 1377.35 395.998C1374.72 398.324 1371.79 402.186 1370.12 405.536C1367.75 410.265 1367.3 412.226 1367.3 417.81C1367.3 424.648 1369.26 436.932 1371.04 441.271C1371.6 442.62 1372.69 443.97 1373.47 444.27C1375.44 445.024 1378.89 442.566 1380.65 439.157C1382.61 435.38 1388.09 427.583 1391.2 424.157C1392.57 422.646 1394.85 418.729 1396.27 415.453C1398.51 410.27 1398.85 408.308 1398.89 400.335C1398.92 392.622 1399.25 390.56 1401 387.298C1402.14 385.166 1404.2 382.844 1405.58 382.137C1410.49 379.626 1421.22 377.124 1424.95 377.625C1430.4 378.354 1432.42 377.522 1439.42 371.663C1447.33 365.036 1456.31 360.004 1461.67 359.187C1463.91 358.845 1466.29 358.122 1466.94 357.578C1468.52 356.269 1468.45 352.442 1466.76 347.652C1464.57 341.453 1464.94 340.244 1470.81 334.435C1475.96 329.34 1476.42 329.094 1479.73 329.63C1481.65 329.941 1484.26 331.039 1485.53 332.069C1493.02 338.138 1495.17 339.406 1497.97 339.406C1500.51 339.406 1501.35 338.774 1503.75 335.054C1505.3 332.659 1507.82 329.532 1509.35 328.104C1512.9 324.791 1512.88 322.002 1509.3 317.919C1506.67 314.929 1505.11 314.219 1497.32 312.472C1495.92 312.159 1493.71 310.331 1492.14 308.199C1488.35 303.055 1468.02 286.918 1460.91 283.416C1455.32 280.664 1446.25 278.853 1436.81 278.605C1432.66 278.497 1429.63 280.989 1429.63 284.52C1429.63 288.296 1428 288.644 1424.74 285.561C1421.84 282.82 1421.84 282.82 1406.49 282.854C1389.06 282.892 1388.08 282.55 1386.98 276.03C1385.56 267.591 1377.36 263.17 1366.78 265.125C1357.21 266.893 1355.4 266.551 1350.19 261.994C1347.6 259.733 1344.41 256.039 1343.09 253.787C1340.54 249.45 1337.17 247.798 1330.83 247.788C1329.18 247.785 1325.87 246.794 1323.49 245.584C1310.39 238.95 1302.2 241.071 1299.05 251.919C1298.18 254.893 1296.86 257.293 1295.78 257.874C1294.72 258.441 1288.9 258.794 1281.83 258.718C1269.71 258.59 1269.71 258.59 1267.28 261.503C1265.39 263.757 1264.25 264.349 1262.22 264.116C1258.06 263.641 1256.15 258.677 1255.96 247.885C1255.73 235.359 1254.49 233.622 1243.45 230.389C1235.29 228.004 1233.81 228.417 1230.25 234.061C1226.4 240.155 1219.86 240.102 1212.71 233.921C1207.17 229.131 1205.45 228.542 1196.97 228.538C1191.28 228.534 1189.06 228.094 1185.42 226.247C1182.94 224.989 1179.95 223.96 1178.77 223.96C1175.58 223.96 1176.12 221.494 1180.15 217.669C1182.08 215.839 1185.07 212.081 1186.79 209.322C1189.65 204.753 1189.93 203.678 1189.93 197.338C1189.93 191.194 1189.61 189.853 1187.18 185.953C1182.97 179.188 1180.51 177.778 1172.24 177.389C1165.81 177.086 1164.91 176.801 1162.09 174.167C1160.38 172.577 1158.03 169.135 1156.85 166.517C1153.79 159.72 1150.34 158.26 1145.01 161.508ZM210.031 165.256C205.113 166.442 203.387 167.934 196.806 176.685C189.443 186.478 188.745 189.196 193.027 191.41C195.803 192.846 200.939 193.249 203.573 192.239C204.39 191.926 205.661 190.501 206.4 189.074C207.351 187.235 208.692 186.298 210.992 185.868C212.779 185.532 214.466 185.483 214.74 185.758C215.294 186.31 213.288 192.762 212.135 194.137C211.734 194.616 211.406 196.542 211.406 198.418C211.406 203.153 214.867 207.117 219.718 207.937C223.827 208.631 224.56 209.245 226.808 213.882C229.019 218.441 232.15 218.581 238.887 214.425C241.795 212.631 246.391 210.722 249.102 210.182C255.576 208.892 260.808 206.613 261.877 204.615C263.032 202.458 262.966 197.976 261.739 195.285C261.19 194.08 258.917 192.208 256.69 191.127C253.652 189.651 252.141 188.135 250.647 185.062C246.812 177.172 243.03 179.103 243.03 188.953C243.03 194.923 242.96 195.107 240.596 195.38C238.704 195.599 237.597 194.922 235.625 192.338C232.301 187.982 225.599 183.431 221.527 182.764C218.281 182.233 218.281 182.233 218.281 175.074C218.281 168.654 218.057 167.732 216.116 166.159C214.927 165.194 213.689 164.447 213.366 164.498C213.045 164.551 211.543 164.891 210.031 165.256ZM991.933 174.663C990.925 175.235 988.102 177.485 985.659 179.664C981.462 183.406 979.799 184.157 970.796 186.372C962.138 188.502 947.932 201.853 945.129 210.495C944.28 213.114 942.418 217.524 940.992 220.295C939.566 223.067 937.601 227.602 936.626 230.374C934.236 237.167 930.278 246.777 928.644 249.756C926.118 254.36 926.905 257.424 932.122 263.286C935.099 266.631 938.413 269.293 940.811 270.266C944.424 271.732 944.847 271.735 946.999 270.326C949.873 268.443 949.875 267.398 947.017 260.61C945.752 257.605 944.726 253.372 944.726 251.16C944.726 246.086 947.441 238.15 951.468 231.455C953.189 228.593 955.485 224.485 956.571 222.327C959.121 217.254 967.936 205.793 971.419 203.022C972.909 201.837 977.928 198.81 982.572 196.295C992.896 190.706 996.602 187.964 998.882 184.227C1001.21 180.417 1001.1 178.52 998.391 175.817C995.908 173.334 994.667 173.112 991.933 174.663ZM1291.76 192.349C1285.55 199.041 1289.48 212.049 1297.7 212.049C1302.64 212.049 1313.53 209.248 1317.96 206.837C1325.5 202.733 1324.86 197.924 1316.25 193.982C1313.46 192.707 1309.27 191.546 1306.93 191.401C1304.59 191.257 1300.75 190.846 1298.38 190.487C1294.47 189.892 1293.89 190.055 1291.76 192.349ZM1331.04 202.377C1329.39 203.603 1329.36 203.886 1330.66 206.271C1332.73 210.055 1338.06 212.691 1341.34 211.545C1343.12 210.923 1344.01 209.916 1344.2 208.319C1344.52 205.612 1342.53 203.601 1338.06 202.101C1334.03 200.747 1333.19 200.781 1331.04 202.377ZM185.052 217.536C182.289 219.221 182.073 219.708 182.073 224.246C182.073 226.938 180.812 233.626 179.272 239.111C177.578 245.14 176.695 250.002 177.039 251.41C177.907 254.965 186.575 263.359 189.375 263.355C192.348 263.35 197.12 260.447 199.087 257.447C201.379 253.949 204.26 254.416 206.654 258.673C207.755 260.632 208.656 263.126 208.656 264.216C208.656 266.519 210.718 270.81 212.561 272.338C213.485 273.105 213.818 275.616 213.767 281.434C213.697 289.471 213.697 289.471 211.16 289.296C209.765 289.2 205.262 287.409 201.154 285.317C193.683 281.513 193.683 281.513 185.816 282.086C177.664 282.681 177.788 282.712 171.169 278.359C168.326 276.488 167.976 276.464 162.535 277.765C159.417 278.511 154.803 279.949 152.282 280.962C149.761 281.974 145.176 283.515 142.092 284.384C139.009 285.254 135.232 286.857 133.7 287.947C129.993 290.585 128.176 290.45 123.222 287.171C120.931 285.654 116.803 283.638 114.048 282.691C111.293 281.743 107.791 280.323 106.266 279.534C104.741 278.746 99.9585 277.662 95.6401 277.126C91.3218 276.589 86.0144 275.525 83.8465 274.76C81.6786 273.996 77.2668 272.996 74.0429 272.54C70.8191 272.084 66.0672 270.674 63.4822 269.408C60.8982 268.142 55.8703 266.213 52.3101 265.122C45.8358 263.137 45.8358 263.137 39.477 266.165C32.7598 269.363 21.9726 276.42 20.0715 278.86C19.4509 279.656 18.0466 282.116 16.9512 284.326C15.843 286.561 13.7457 289.001 12.2259 289.824C2.48466 295.096 2.56074 297.424 12.8364 308.613C17.185 313.348 20.7425 317.854 20.7425 318.626C20.7425 319.775 19.5206 320.002 14.0354 319.869C7.97722 319.722 7.00282 319.954 3.95955 322.268C-0.511873 325.667 -1.0637 328.259 1.63675 333.183C4.66628 338.704 8.62346 340.581 15.8118 339.906C20.5207 339.463 21.7737 339.667 23.6034 341.169C25.6576 342.856 25.7043 343.108 24.4091 345.534C23.53 347.181 20.968 349.107 17.3069 350.872C7.23565 355.73 4.07321 363.39 7.91856 373.608C9.73811 378.443 10.3321 379.119 14.1894 380.748C16.5332 381.738 20.1027 384.322 22.1202 386.493C25.1681 389.769 26.5669 390.553 30.3701 391.106C36.7866 392.042 39.0755 393.715 39.0755 397.47C39.0755 400.449 35.7361 406.139 32.3537 408.922C31.5131 409.614 30.8256 410.748 30.8256 411.442C30.8256 413.794 34.0486 412.721 39.5521 408.538C47.4005 402.573 51.4952 400.618 55.4313 400.96C58.7835 401.252 58.7835 401.252 58.7963 394.319C58.8128 385.69 60.7203 381.931 64.5932 382.891C70.6623 384.396 71.9851 384.396 74.933 382.888C76.638 382.016 79.5813 379.916 81.4733 378.221C83.3653 376.526 85.5441 375.139 86.316 375.139C87.0878 375.139 89.7726 376.18 92.2833 377.451C94.7941 378.722 100.223 380.403 104.349 381.185C108.475 381.968 113.11 383.248 114.65 384.029C118.906 386.19 129.695 395.234 132.399 398.907C133.72 400.7 136.332 403.879 138.205 405.971C140.077 408.062 142.456 411.431 143.49 413.457C144.53 415.494 147.117 418.312 149.284 419.765C151.503 421.254 154.096 424.1 155.269 426.337C156.409 428.508 158.729 431.998 160.426 434.092C164.352 438.938 166.163 442.523 166.992 447.095C167.992 452.608 169.634 455.179 175.168 459.905C181.592 465.391 182.489 468.298 182.09 482.338C181.559 501.077 181.934 512.925 183.168 516.342C184.56 520.192 191.387 532.832 195.364 538.923C197.156 541.668 200.029 544.279 203.614 546.422C208.257 549.198 209.697 550.735 212.854 556.284C214.91 559.899 218.107 564.533 219.958 566.58C221.808 568.627 223.325 570.816 223.328 571.445C223.348 575.978 225.52 579.671 230.202 583.128C232.929 585.142 235.384 586.789 235.657 586.789C235.932 586.789 236.155 585.14 236.155 583.124C236.155 580.357 236.519 579.459 237.64 579.459C239.353 579.459 255.816 596.398 258.753 601.182C259.839 602.95 261.001 606.225 261.336 608.459C262.465 615.982 269.45 621.138 288.599 628.58C294.999 631.068 297.879 631.685 303.096 631.685C309.968 631.685 311.654 632.259 316.82 636.363C318.585 637.765 323.282 639.966 327.258 641.256C336.499 644.253 339.446 646.167 343.399 651.735C346.751 656.459 351.708 659.97 359.192 662.917C364.571 665.036 366.863 665.131 367.581 663.26C368.134 661.821 367.725 661.564 363.382 660.615C362.018 660.318 359.749 658.56 358.34 656.711C355.948 653.573 355.778 652.769 355.778 644.579C355.778 639.319 355.327 635.021 354.651 633.842C353.259 631.414 348.983 629.852 343.725 629.852C340.959 629.852 339.175 629.29 337.903 628.02C335.63 625.747 335.629 625.006 337.891 617.793C340.233 610.326 340.199 608.289 337.699 606.54C333.512 603.607 328.697 605.606 323.914 612.26C321.338 615.846 319.873 616.959 316.48 617.908C308.263 620.208 302.855 617.327 298.397 608.275C295.232 601.851 295.246 602.196 297.398 583.837C298.244 576.616 300.04 574.214 307.224 570.701C311.504 568.608 312.607 568.452 319.239 569.005C325.24 569.505 327.097 569.327 329.649 568.009C335.161 565.159 337.521 564.891 344.507 566.318C352.461 567.943 354.969 569.391 356.639 573.319C357.323 574.933 358.621 578.033 359.52 580.209C361.397 584.752 365.58 587.626 367.725 585.848C370.126 583.856 370.113 581.26 367.658 572.922C363.838 559.946 364.71 557.852 378.56 546.716C385.438 541.185 387.402 537.806 387.402 531.503C387.402 528.22 388.229 526.211 391.845 520.708C396.702 513.321 398.128 511.848 404.529 507.618C407.865 505.414 409.134 503.847 410.255 500.548C412.102 495.106 413.362 493.679 418.71 490.971C423.825 488.38 426.525 488.19 429.421 490.218C432.275 492.216 436.198 491.347 442.719 487.269C449.209 483.211 449.522 480.728 443.776 478.853C441.76 478.195 438.975 476.572 437.589 475.245C435.333 473.086 435.068 472.192 435.068 466.733C435.068 461.796 434.719 460.317 433.235 458.974C430.211 456.239 431.007 455.466 436.213 456.082C441.59 456.719 452.611 454.152 457.634 451.094C463.876 447.294 465.529 449.5 462.156 457.124C459.39 463.376 459.103 468.159 461.422 469.364C463.505 470.447 474.148 472.26 478.423 472.26C480.817 472.26 482.029 471.744 482.736 470.424C484.273 467.553 482.312 461.772 478.949 459.256C477.395 458.093 474.886 455.918 473.374 454.422C470.867 451.942 470.678 451.335 471.23 447.55C473.296 433.386 473.383 433.86 467.476 427.028C464.525 423.613 460.809 420.015 459.219 419.032C454.542 416.141 449.911 410.372 448.851 406.114C447.713 401.544 440.892 386.862 438.439 383.704C435.857 380.379 433.614 381.021 429.936 386.138C426.2 391.336 423.318 392.551 419.95 390.345C416.607 388.156 415.186 385.362 414.576 379.777C414.06 375.059 413.675 374.443 407.362 368.227C403.695 364.616 399.829 361.208 398.773 360.655C397.717 360.103 393.122 359.369 388.563 359.025C380.366 358.407 380.256 358.426 378.728 360.757C377.354 362.853 377.298 364.082 378.224 371.829C378.964 378.028 378.985 381.548 378.297 384.025C376.793 389.438 377.121 392.288 379.694 396.174C384.969 404.14 384.27 410.077 377.197 417.412C372.545 422.236 372.545 422.236 373.187 430.785C373.865 439.83 373.232 442.024 369.94 442.024C367.385 442.024 364.636 437.789 362.56 430.654C359.337 419.572 359.191 419.336 354.538 417.698C346.614 414.909 341.349 412.292 336.736 408.853C334.209 406.968 330.241 404.752 327.918 403.927C325.595 403.102 322.539 402.001 321.126 401.48C319.624 400.924 317.843 399.132 316.838 397.162C315.893 395.31 313.597 391.974 311.737 389.748C308.498 385.874 308.375 385.477 308.837 380.383C309.473 373.386 314.302 363.388 320.356 356.543C322.938 353.622 325.483 350.426 326.01 349.442C327.114 347.379 335.763 342.176 338.109 342.163C338.979 342.158 340.317 343.367 341.083 344.847C343.955 350.399 348.494 351.74 353.694 348.572C355.344 347.566 358.255 346.741 360.161 346.739C366.756 346.733 365.724 343.304 356.116 333.319C352.653 329.719 349.82 326.199 349.82 325.496C349.82 324.794 352.451 322.49 355.665 320.377C362.315 316.007 365.148 311.573 363.9 307.489C363.49 306.146 363.14 301.336 363.122 296.801C363.104 292.265 362.743 287.431 362.319 286.058C361.661 283.923 361.862 283.44 363.705 282.725C367.049 281.426 375.616 280.056 377.427 280.529C381.087 281.486 390.649 298.175 387.536 298.175C385.589 298.175 381.903 302.823 381.903 305.278C381.903 310.993 386.866 311.773 391.446 306.777C394.99 302.909 397.554 303.081 399.303 307.301C400.478 310.136 399.972 312.823 397.583 316.433C396.773 317.656 395.286 320.945 394.277 323.742C392.351 329.088 392.645 328.877 383.98 331.131C379.651 332.257 377.78 334.717 378.642 338.15C379.444 341.344 382.795 342.339 388.396 341.047C394.542 339.629 397.357 341.171 403.47 349.306C407.012 354.022 409.401 356.143 413.803 358.48C422.238 362.958 423.958 362.729 430.013 356.33C433.999 352.116 435.068 350.359 435.068 348.02C435.068 344.037 432.189 337.637 429.134 334.825C426.038 331.976 423.775 327.748 424.431 326.038C425.353 323.639 428.533 324.705 431.512 328.411C436.21 334.254 439.949 333.241 445.051 324.746C448.414 319.149 447.738 316.595 441.256 310.391C438.105 307.375 434.289 304.144 432.777 303.211C431.264 302.277 428.48 300.06 426.589 298.284C423.166 295.067 423.152 295.024 423.152 287.632C423.152 280.98 422.87 279.765 420.438 275.931C418.944 273.577 415.747 270.234 413.334 268.499C410.919 266.766 407.973 264.034 406.788 262.43C405.591 260.812 402.684 258.705 400.257 257.697C396.535 256.151 395.133 254.761 390.875 248.395C388.121 244.279 385.135 238.917 384.238 236.481C381.761 229.75 379.135 228.549 366.884 228.545C361.397 228.543 355.349 229.008 353.445 229.579C350.397 230.491 349.655 230.381 347.239 228.662C338.775 222.637 330.121 231.404 327.623 248.533C326.635 255.308 326.694 255.863 328.9 260.68C330.171 263.456 331.488 267.199 331.825 268.999C332.539 272.798 334.21 274.508 339.244 276.588C341.243 277.412 343.574 278.718 344.424 279.488C347.879 282.612 347.278 292.777 343.292 298.627C340.07 303.356 336.987 302.616 336.987 297.113C336.987 294.805 332.187 289.929 329.915 289.929C328.972 289.929 326.474 288.169 324.361 286.017C321.31 282.91 320.324 281.072 319.567 277.084C318.461 271.257 315.986 264.352 312.629 257.731C309.583 251.72 310.075 249.903 316.49 243.492C321.571 238.413 325.012 232.56 325.05 228.93C325.093 224.903 316.745 220.479 311.342 221.665C306.784 222.666 303.011 228.327 301.723 236.1C301.411 237.991 300.843 239.536 300.463 239.536C298.826 239.536 297.571 237.091 297.571 233.899C297.571 226.041 293.309 222.746 286.61 225.425C282.523 227.061 280.154 230.662 280.154 235.242C280.154 236.439 279.34 238.156 278.345 239.057C275.852 241.312 275.266 243.665 276.582 246.144C278.328 249.435 287.417 259.162 289.454 259.919C290.621 260.352 292.949 259.888 295.834 258.648C298.332 257.574 300.585 256.902 300.839 257.157C301.093 257.411 300.884 259.426 300.375 261.634C299.866 263.842 299.439 269.27 299.426 273.694C299.408 280.552 299.168 281.811 297.8 282.22C294.142 283.314 291.578 285.077 290.277 287.393C289.032 289.61 289.055 290.279 290.513 294.212C292.075 298.424 292.072 298.653 290.402 300.889C286.762 305.763 273.737 304.987 267.865 299.549C264.875 296.779 265.134 295.248 268.771 294.19C274.481 292.531 275.863 291.347 277.487 286.722C280.22 278.938 279.891 277.586 273.85 271.761C270.034 268.082 268.281 265.629 267.844 263.358C267.506 261.595 266.341 256.329 265.256 251.657C263.557 244.336 263.437 242.595 264.386 239.046C265.894 233.412 265.779 231.836 263.721 229.975C261.177 227.675 259.164 228.68 252.767 235.44C247.233 241.288 247.091 241.369 242.281 241.369C234.101 241.369 228.022 239.024 223.322 234.057C221.053 231.659 217.947 227.891 216.419 225.684C213.959 222.131 213.011 221.524 208.169 220.402C205.16 219.704 200.765 218.365 198.403 217.424C192.887 215.228 188.784 215.262 185.052 217.536ZM1305.58 226.404C1304.51 227.478 1304.92 230.818 1306.4 232.918C1308.83 236.391 1315.05 235.202 1315.05 231.266C1315.05 227.862 1307.83 224.154 1305.58 226.404ZM1470.17 260.204C1465.32 263.601 1469.12 268.965 1475.01 267.023C1478.79 265.775 1479.94 263.015 1477.7 260.544C1475.76 258.408 1472.92 258.279 1470.17 260.204ZM307.622 289.869C309.681 293.714 307.834 299.091 304.454 299.091C303.088 299.091 302.921 298.546 303.399 295.656C303.711 293.766 303.972 291.292 303.977 290.158C303.99 287.612 306.315 287.428 307.622 289.869ZM249.025 297.845C249.594 298.414 249.922 299.856 249.754 301.048C249.46 303.117 249.016 303.245 239.822 303.896C234.528 304.272 229.275 304.368 228.148 304.111C225.836 303.585 224.419 299.706 225.892 297.934C227.138 296.436 247.536 296.357 249.025 297.845ZM628.513 323.124C622.256 324.614 620.204 324.773 617.907 323.942C613.364 322.301 611.141 322.661 609.971 325.228C609.122 327.091 609.215 328.172 610.448 330.757C611.292 332.525 611.985 334.472 611.991 335.085C611.995 335.698 612.98 338.304 614.179 340.877C615.919 344.613 617.177 345.952 620.418 347.52C627.148 350.776 631.502 350.213 639.978 344.987C651.849 337.667 653.568 331.633 646.073 323.601C643.2 320.522 639.825 320.431 628.513 323.124ZM866.512 322.892C868.944 323.384 872.483 324.021 874.373 324.308C877.374 324.762 877.808 325.144 877.796 327.307C877.771 332.127 875.863 334.294 871.042 334.984C868.104 335.404 866.164 336.256 865.284 337.512C862.338 341.715 858.035 338.413 856.669 330.9C855.027 321.865 856.304 320.827 866.512 322.892ZM812.317 330.647C813.654 332.684 813.656 333.151 812.341 335.919C811.548 337.589 808.622 341.565 805.839 344.756C798.137 353.583 797.725 354.713 798.468 365.004C799.177 374.833 800.058 376.757 805.496 380.353C808.883 382.593 809.16 383.07 808.572 385.621C808.216 387.163 807.872 390.881 807.806 393.882C807.689 399.21 807.62 399.354 804.857 399.92C803.3 400.24 801.505 400.824 800.867 401.218C799.113 402.301 797.145 407.656 797.145 411.347C797.145 418.328 793.269 421.654 785.113 421.672C783.285 421.676 779.142 422.572 775.908 423.664C770.026 425.651 770.026 425.651 765.482 423.866C762.433 422.669 760.937 421.552 760.937 420.47C760.937 418.797 761.312 418.531 767.322 415.943C771.732 414.045 777.56 409.546 778.934 406.98C779.488 405.945 780.268 402.463 780.667 399.241C781.225 394.747 782.161 392.27 784.687 388.605C786.497 385.977 787.979 382.945 787.979 381.867C787.979 380.788 786.733 377.539 785.211 374.647C782.996 370.438 782.563 368.728 783.042 366.079C784.204 359.666 786.403 355.818 791.619 351.067C797.672 345.555 798.586 344.073 799.998 337.494C800.583 334.765 801.952 331.769 803.169 330.552C806.079 327.644 810.379 327.688 812.317 330.647ZM826.019 380.178C826.019 381.516 825.308 382.092 823.387 382.311C819.747 382.727 818.112 380.937 820.513 379.166C823.011 377.323 826.019 377.877 826.019 380.178ZM344.047 466.936C346.524 469.263 346.958 474.504 344.744 475.353C342.923 476.051 330.083 471.746 330.203 470.477C330.254 469.945 330.357 469.092 330.433 468.581C330.509 468.07 331.91 466.817 333.549 465.797C337.092 463.591 340.928 464.007 344.047 466.936ZM928.938 476.435C930.059 477.219 930.976 478.225 930.976 478.67C930.976 479.114 929.326 481.384 927.309 483.713C925.293 486.042 923.643 488.895 923.643 490.054C923.643 492.391 926.809 497.456 931.597 502.78C934.508 506.016 934.692 506.577 934.112 510.447C933.741 512.922 933.958 516.593 934.645 519.459C935.284 522.117 935.555 525.291 935.249 526.512C933.989 531.53 926.307 532.104 920.93 527.583C918.186 525.275 918.165 525.187 918.382 516.853C918.595 508.685 918.517 508.33 915.585 504.109C911.977 498.915 909.893 493.366 909.893 488.953C909.893 486.35 910.639 485.01 913.722 482.079C917.205 478.767 923.606 475.079 925.959 475.029C926.478 475.018 927.818 475.651 928.938 476.435ZM866.629 482.175C866.905 486.891 866.933 486.93 874.65 493.372C881.124 498.778 882.393 500.277 882.393 502.517C882.393 504.558 881.748 505.53 879.689 506.595C875.717 508.648 871.495 508.322 862.227 505.244C857.675 503.732 853.234 502.504 852.359 502.515C851.485 502.526 847.882 503.555 844.352 504.802C833.444 508.656 828.311 507.381 828.311 500.819C828.311 496.454 834.167 484.853 838.121 481.383C842 477.978 844.005 478.371 848.32 483.379C850.401 485.795 852.126 486.919 853.747 486.919C856.378 486.919 859.477 484.59 859.477 482.613C859.477 480.847 863.865 476.624 865.232 477.074C865.87 477.284 866.471 479.481 866.629 482.175ZM364.309 485.227C364.506 486.927 363.962 488.099 362.502 489.121C361.352 489.926 360.1 490.584 359.721 490.584C358.239 490.584 356.1 486.043 356.697 484.165C357.197 482.59 357.924 482.288 360.668 482.517C363.536 482.755 364.069 483.153 364.309 485.227ZM771.078 489.787C772.559 491.365 776.665 494.815 780.203 497.454C788.236 503.446 788.58 503.872 789.801 509.32C790.351 511.772 792.332 516.225 794.203 519.216C801.193 530.389 803.463 531.913 807.343 528.035C808.993 526.386 809.207 525.391 808.747 521.507C807.923 514.555 810.979 510.69 815.84 512.537C817.633 513.219 818.497 514.614 819.671 518.722C821.766 526.06 824.585 530.818 827.843 532.519C830.757 534.04 842.184 535.588 852.116 535.807C857.625 535.929 858.106 536.107 858.891 538.324C859.994 541.436 856.656 552.722 853.577 556.293C851.533 558.662 850.935 558.83 845.185 558.647C841.779 558.538 837.179 558.856 834.961 559.352C830.288 560.399 819.606 558.245 809.878 554.294C800.628 550.537 796.957 551.236 792.995 557.509C791.068 560.561 790.217 561.134 787.621 561.134C783.738 561.134 778.571 559.001 774.314 555.642C772.503 554.211 768.044 552.169 764.406 551.103C756.305 548.729 754.989 547.133 754.95 539.628C754.897 529.572 753.156 528.867 732.335 530.472C719.134 531.489 715.703 532.07 710.826 534.114C701.355 538.083 697.569 539.077 694.772 538.329C690.597 537.213 691.463 534.655 696.686 532.673C702.246 530.563 705.701 527.345 707.755 522.357C708.622 520.252 709.882 517.233 710.554 515.648C711.226 514.064 713.685 511.178 716.019 509.234C718.353 507.292 721.125 504.259 722.178 502.495C724.923 497.901 726.383 496.999 731.092 496.989C733.628 496.983 737.24 496.064 740.282 494.649C746.278 491.859 748.666 492.235 751.516 496.422C753.589 499.467 762.968 507.993 764.244 507.993C764.61 507.993 767.678 510.26 771.061 513.032C774.444 515.804 777.799 518.071 778.517 518.071C780.449 518.071 782.744 512.032 781.613 509.921C781.115 508.99 778.144 506.009 775.012 503.3C769.124 498.204 764.146 491.457 764.146 488.572C764.146 485.886 768.059 486.571 771.078 489.787ZM1309.35 488.523C1305.57 492.863 1303.65 499.215 1305.56 501.12C1308.11 503.672 1316.4 502.303 1320.24 498.693C1324.1 495.067 1322.8 491.724 1316.24 488.405C1312.5 486.51 1311.09 486.534 1309.35 488.523ZM1302.77 510.971C1302.05 512.104 1300.97 514.85 1300.39 517.073C1298.85 522.885 1297.42 524.661 1289.55 530.532C1282.75 535.601 1279.02 537.487 1273.46 538.676C1269.54 539.511 1260.05 548.892 1260.05 551.928C1260.05 556.695 1264.29 558.165 1266.83 554.282C1268.7 551.429 1272.24 549.585 1279.03 547.92C1285.93 546.228 1299.04 541.467 1301.83 539.644C1303.26 538.704 1304.51 536.423 1305.47 532.955C1306.28 530.06 1307.75 525.273 1308.74 522.316C1310.22 517.888 1310.36 516.394 1309.51 513.835C1308.64 511.182 1306.37 508.909 1304.59 508.909C1304.32 508.909 1303.5 509.837 1302.77 510.971ZM924.459 573.033C928.88 578.273 934.125 581.615 940.372 583.173C942.981 583.823 944.726 584.773 944.726 585.544C944.726 587.426 936.565 592.286 933.406 592.286C930.391 592.286 926.407 588.545 919.392 579.129C914.288 572.278 914.009 568.464 918.61 568.464C919.878 568.464 922.012 570.131 924.459 573.033ZM859.219 581.521C863.378 586.046 871.742 599.424 873.371 604.156C874.32 606.917 876.06 610.221 877.236 611.497C883.259 618.036 889.025 628.862 888.634 632.898C888.013 639.306 879.809 635.567 875.397 626.863C874.084 624.274 871.999 620.627 870.763 618.761C869.526 616.894 867.897 612.956 867.141 610.011C866.385 607.065 864.814 603.193 863.649 601.406C860.347 596.34 854.628 582.389 855.22 580.846C855.955 578.931 857.001 579.107 859.219 581.521ZM370.39 602.748C371.369 603.545 372.564 604.197 373.045 604.197C373.527 604.197 375.934 606.08 378.395 608.381C383.193 612.866 386.944 613.657 386.944 610.182C386.944 608.058 381.431 604.67 375.944 603.422C373.928 602.964 371.453 602.299 370.444 601.943C368.637 601.309 368.636 601.32 370.39 602.748ZM402.298 613.966C401.668 614.221 401.152 615.616 401.152 617.069C401.152 621.191 405.695 622.837 410.734 620.542C413.564 619.254 413.884 615.693 411.296 614.308C409.478 613.336 404.345 613.141 402.298 613.966ZM1219.27 622.513C1218.36 623.522 1217.44 626.283 1217.21 628.698C1216.89 632.21 1217.23 633.683 1218.99 636.266C1222.22 641.019 1223.6 640.423 1225.36 633.517C1227.32 625.801 1227.36 623.88 1225.61 622.129C1223.66 620.175 1221.26 620.32 1219.27 622.513ZM398.349 649.001C394.267 650.316 391.65 651.984 387.192 656.112C384.807 658.319 381.638 660.37 380.146 660.668C376.491 661.399 376.234 662.593 378.302 669.234C381.459 679.374 380.684 682.855 373.341 691.518C367.741 698.123 366.653 700.692 365.888 709.106C364.681 722.363 364.693 722.439 368.75 727.903C370.802 730.667 375.811 739.319 379.882 747.131C387.424 761.602 389.627 764.461 396.111 768.186C410.74 776.592 411.652 778.965 409.342 802.632C408.803 808.137 407.566 816.623 406.592 821.489C405.616 826.355 404.819 833.241 404.819 836.791C404.819 844.978 403.549 850.853 399.545 861.201C396.354 869.447 396.354 869.447 396.164 888.688C395.979 907.473 395.916 908.048 393.53 912.968C391.72 916.702 391.085 919.433 391.078 923.512C391.073 926.538 390.66 930.44 390.16 932.184C388.891 936.606 390.45 945.327 394.482 956.349C397.834 965.513 398.418 966.313 406.93 973.418C412.851 978.36 414.411 979.096 419.12 979.166C423.552 979.233 426.818 977.116 426.818 974.175C426.818 973.224 425.197 970.298 423.216 967.674C418.596 961.557 417.652 958.962 417.652 952.388C417.652 947.324 417.979 946.537 423.61 938.06C426.887 933.127 429.568 928.488 429.568 927.753C429.568 927.017 428.492 924.58 427.177 922.336C424.461 917.703 424.736 916.319 429.445 910.959C432.656 907.303 435.985 899.448 435.985 895.526C435.985 894.033 436.707 892.21 437.589 891.476C439.683 889.733 444.385 884.98 448.28 880.671C450.047 878.715 452.239 877.235 453.369 877.235C454.46 877.235 457.386 876.361 459.87 875.293C465.611 872.825 468.068 869.083 468.068 862.808C468.068 857.521 468.861 856.616 474.287 855.721C479.402 854.878 482.85 851.873 487.305 844.378C489.298 841.025 493.014 835.815 495.563 832.802C501.149 826.2 503.817 820.965 503.817 816.61C503.817 809.753 511.714 802.734 523.317 799.281C531.781 796.762 533.484 795.556 536.827 789.716C541.041 782.354 543.268 775.064 544.197 765.586C545.135 756.022 545.902 754.377 554.01 744.548C560.329 736.887 561.899 733.309 561.295 727.947C560.774 723.336 558.645 721.014 550.929 716.642C548.461 715.243 545.204 713.311 543.691 712.346C542.179 711.382 537.205 709.995 532.638 709.263C526.959 708.352 522.325 706.923 517.972 704.738C514.472 702.98 509.924 701.261 507.865 700.918C501.257 699.814 498.812 697.613 495.986 690.221C491.565 678.655 485.368 673.76 473.513 672.467C467.669 671.829 466.821 671.337 454.778 661.6C449.887 657.646 444.761 654.088 443.389 653.694C442.016 653.301 438.036 653.183 434.544 653.432C429.345 653.804 426.948 653.463 421.319 651.553C413.984 649.065 402.214 647.757 398.349 649.001ZM1126.6 659.644C1126.15 661.419 1126.52 662.741 1127.96 664.52C1130.96 668.224 1132.54 672.251 1133.21 677.887C1133.95 684.225 1132.98 684.449 1125.29 679.704C1115.65 673.752 1113.13 677.558 1120.53 686.904C1123.02 690.045 1127.97 696.978 1131.53 702.312C1140.66 715.983 1149.21 723.268 1156.14 723.302C1157.73 723.311 1158.31 720.999 1158.31 714.568C1158.31 708.969 1158.17 708.62 1155.05 706.168C1149.29 701.635 1148.16 698.849 1147.95 688.77C1147.73 678.04 1146.3 674.906 1139.59 670.385C1136.94 668.6 1134 665.491 1132.29 662.66C1128.93 657.091 1127.43 656.3 1126.6 659.644ZM1232.09 661.928C1230.58 664.841 1231.08 666.83 1234.19 670.395C1237.26 673.92 1244.47 670.549 1244.47 665.585C1244.47 664.713 1243.61 662.913 1242.57 661.586C1241.1 659.715 1239.87 659.172 1237.09 659.172C1234.05 659.172 1233.31 659.578 1232.09 661.928ZM1198.02 674.479C1184.84 684.594 1181.65 686.866 1178.17 688.613C1172.46 691.476 1170.22 693.884 1170.24 697.126C1170.27 700.634 1174.49 708.41 1177.55 710.585C1180.5 712.677 1195.33 715.228 1198.2 714.136C1199.56 713.621 1201.88 710.438 1204.68 705.265C1208.75 697.724 1209.05 696.714 1209.21 689.865C1209.31 685.834 1209.71 680.973 1210.1 679.064C1210.7 676.125 1210.48 675.245 1208.69 673.337C1205.77 670.231 1203.19 670.507 1198.02 674.479ZM1268.07 701.392C1265.62 702.821 1266.15 706.15 1269.45 709.922C1271.55 712.331 1275.26 714.614 1282.05 717.692C1291.68 722.052 1291.68 722.052 1293.62 727.032C1295.35 731.458 1296.12 732.29 1300.5 734.503C1308.12 738.353 1310.66 738.57 1315.43 735.775C1321.31 732.326 1324.7 732.621 1330.06 737.051C1334.37 740.608 1338.16 741.713 1339.37 739.762C1339.69 739.238 1338.22 735.299 1336.09 731.011C1330.05 718.811 1323.32 714.039 1303.19 707.661C1293.16 704.48 1292.33 704.488 1284.03 707.86C1281.02 709.079 1280.89 709.033 1278.07 705.771C1275.35 702.631 1272.11 700.367 1270.43 700.43C1270.01 700.445 1268.96 700.878 1268.07 701.392ZM1215.2 703.733C1212.83 706.746 1212.7 712.284 1214.94 715.045C1217.12 717.742 1223.09 718.103 1225.51 715.684C1226.92 714.278 1227.12 713.189 1226.61 709.703C1225.72 703.562 1224.01 701.318 1220.22 701.318C1217.95 701.318 1216.59 701.969 1215.2 703.733ZM1158.33 724.911C1158.46 727.778 1163.39 730.638 1168.22 730.638C1170.2 730.638 1173.31 731.256 1175.12 732.012C1179.69 733.922 1186.6 733.842 1187.36 731.869C1187.74 730.888 1187.17 729.723 1185.74 728.57C1183.92 727.098 1182.5 726.856 1177.57 727.178C1173.12 727.469 1170.66 727.146 1167.93 725.916C1164.24 724.255 1158.28 723.63 1158.33 724.911ZM1263.7 749.595C1262.45 750.446 1261.04 751.785 1260.57 752.572C1260.1 753.359 1258.57 755.149 1257.18 756.551C1254.76 758.97 1254.34 759.069 1248.78 758.501C1242.93 757.902 1242.93 757.902 1234.08 765.99C1229.21 770.438 1225.22 774.391 1225.22 774.774C1225.22 775.157 1223.94 776.925 1222.38 778.704C1220.1 781.305 1217.89 782.455 1211.13 784.566C1196.99 788.985 1190.97 793.145 1189.55 799.482C1188.56 803.916 1190.01 816.664 1192.22 822.884C1195.81 833.032 1197.59 841.747 1197.08 846.702C1196.64 850.92 1196.84 851.704 1198.94 853.803C1202.01 856.865 1207.46 856.942 1213.76 854.014C1216.28 852.842 1220.97 851.612 1224.17 851.278C1227.37 850.945 1230.93 850.155 1232.07 849.523C1233.21 848.891 1235.92 847.405 1238.08 846.221C1241.92 844.117 1257.72 839.702 1261.49 839.681C1266.96 839.65 1273 842.576 1277.69 847.521C1281.32 851.35 1283.27 852.67 1285.92 853.094C1288.67 853.533 1290.54 854.876 1294.89 859.52C1297.91 862.75 1300.39 865.918 1300.39 866.56C1300.39 868.329 1305 872.377 1308.84 873.98C1311.15 874.947 1315.2 875.403 1321.46 875.403C1329.98 875.403 1331.12 875.182 1336.38 872.53C1343.18 869.099 1343.76 868.415 1346.3 860.743C1347.38 857.468 1350.32 850.957 1352.83 846.275C1358.81 835.095 1360.41 826.889 1358.61 816.577C1357.93 812.695 1356.82 808.723 1356.14 807.75C1352.27 802.22 1340.35 788.047 1335.22 782.863C1330.22 777.815 1328.84 775.696 1326.66 769.717C1325.23 765.796 1322.95 761.275 1321.59 759.67C1320.23 758.064 1317.99 754.998 1316.61 752.857C1314.02 748.831 1311.56 747.915 1309.62 750.254C1309.03 750.965 1308.03 755.065 1307.41 759.365C1305.65 771.384 1302.96 773.201 1294.29 768.23C1287.94 764.587 1285.43 761.315 1286.13 757.575C1286.99 753.005 1285.41 750.132 1281.41 749.023C1275.88 747.487 1266.33 747.795 1263.7 749.595ZM910.502 758.455C907.898 761.157 904.042 764.243 901.933 765.315C896.454 768.098 895.228 770.291 895.215 777.341C895.208 780.748 894.406 785.861 893.353 789.222C890.939 796.918 892.018 803.533 896.272 807.111C902.817 812.616 908.957 808.397 912.892 795.69C921.753 767.071 923.16 759.543 920.382 755.581C918.146 752.389 915.646 753.117 910.502 758.455ZM1449.28 869.056C1447.09 871.472 1446.39 882.067 1448.18 885.481C1450.76 890.39 1455.84 888.088 1460.24 880.015C1463.57 873.89 1463.03 871.641 1457.61 869.095C1452.48 866.683 1451.43 866.678 1449.28 869.056ZM1324.14 889.226C1321.97 891.398 1322.27 894.485 1325.04 898.309C1328.13 902.56 1333.68 901.844 1335.74 896.932C1337.49 892.735 1337.4 891.324 1335.22 889.146C1332.69 886.617 1326.71 886.661 1324.14 889.226ZM1434.02 893.579C1431.9 896.521 1427.54 900.925 1424.34 903.365C1415.66 909.969 1413.54 915.574 1418.3 919.315C1423.12 923.104 1429.29 920.873 1432.75 914.093C1433.97 911.71 1436.96 907.282 1439.4 904.252C1444.41 898.043 1447.55 891.778 1446.74 889.654C1446.35 888.656 1444.95 888.23 1442.03 888.23C1438.02 888.23 1437.75 888.412 1434.02 893.579Z" fill="url(#paint0_radial_22_3499)"/>
<defs>
<radialGradient id="paint0_radial_22_3499" cx="0" cy="0" r="1" gradientUnits="userSpaceOnUse" gradientTransform="translate(756 513.299) rotate(90) scale(586.369 905.608)">
<stop stop-color="#172053"/>
<stop offset="1" stop-color="#101741" stop-opacity="0"/>
</radialGradient>
</defs>
</svg>
