<svg width="17" height="16" fill="none" xmlns="http://www.w3.org/2000/svg">
  <g clip-path="url(#a)">
    <path fill-rule="evenodd" clip-rule="evenodd" d="M14.84 1.43a1.2 1.2 0 0 1 1.64 1.3l-1.8 10.94a1.57 1.57 0 0 1-2.3 1.14 46.55 46.55 0 0 1-3.1-1.83c-.54-.35-2.2-1.49-2-2.3.18-.68 2.96-3.28 4.56-4.82.62-.6.34-.95-.4-.4a110.86 110.86 0 0 1-5.75 4.08c-.86.52-1.3.61-1.84.52a12.2 12.2 0 0 1-2.62-.72c-1-.4-.95-1.78 0-2.18l13.61-5.73Z" fill="#9EA8DD"/>
  </g>
  <defs>
    <clipPath id="a">
      <path fill="#fff" transform="translate(.5)" d="M0 0h16v16H0z"/>
    </clipPath>
  </defs>
</svg>
