<svg width="24" height="25" viewBox="0 0 24 25" fill="none" xmlns="http://www.w3.org/2000/svg">
<path fill-rule="evenodd" clip-rule="evenodd" d="M12.5553 17.6496L10.2513 19.7906C9.96929 20.0536 9.51029 19.8376 9.53629 19.4526C9.60829 18.3646 9.72029 16.7116 9.79529 15.7926C9.80729 15.6476 9.92929 15.4856 10.0453 15.3806C12.7363 12.9406 15.4333 10.5066 18.1293 8.07064C18.2293 7.98064 18.3473 7.75864 18.2853 7.64163C18.2153 7.50963 17.8923 7.54963 17.7583 7.63364C14.3343 9.78963 10.9103 11.9446 7.49129 14.1076C7.28129 14.2396 7.02429 14.2716 6.78829 14.1956C5.37829 13.7426 3.96029 13.3136 2.54729 12.8676C2.22229 12.7646 1.83629 12.6626 1.79929 12.2596C1.76029 11.8386 2.12129 11.6386 2.44729 11.5076C3.76129 10.9776 5.08429 10.4706 6.40529 9.96064C11.1573 8.12964 15.9093 6.29963 20.6613 4.46963C20.8203 4.40863 21.0323 4.37063 21.1983 4.33763C21.6963 4.23763 22.1443 4.48764 22.1933 4.99164C22.2303 5.36064 22.1653 5.77164 22.0883 6.13664C21.0983 10.8456 20.0953 15.5526 19.0933 20.2606C18.8233 21.5326 18.1693 21.7736 17.1163 20.9966C15.7593 19.9946 12.5553 17.6496 12.5553 17.6496Z" fill="#EBEBEC"/>
</svg>
