<svg width="120" height="120" viewBox="0 0 120 120" fill="none" xmlns="http://www.w3.org/2000/svg">
<g clip-path="url(#clip0_22_3604)">
<g clip-path="url(#clip1_22_3604)">
<path d="M150 80.0005H-30V120H150V80.0005Z" fill="#3F9C35"/>
<path d="M150 39.9995H-30V79.9991H150V39.9995Z" fill="#ED2939"/>
<path d="M150 0H-30V39.9996H150V0Z" fill="#00B9E4"/>
<path d="M70.0536 71.4011C66.2412 76.5035 58.6512 79.7327 50.9064 77.3915C43.1712 75.0527 37.9992 67.9475 38.0712 59.9891C38.1492 51.3263 44.1564 44.4635 51.7872 42.5987C59.568 40.6979 66.7164 44.2235 70.0524 48.8423C66.6312 46.0295 62.7288 44.7503 58.3284 45.2819C53.9256 45.8135 50.4204 47.9459 47.856 51.5591C43.8612 57.1871 44.3112 64.8383 48.9576 70.0607C51.69 73.1315 55.1604 74.7971 59.2548 75.0455C63.3216 75.2927 66.9048 73.9763 70.0536 71.4011Z" fill="#EBEBEC"/>
<path d="M69.1992 53.0748C70.8348 53.8464 72.4692 54.6192 74.1816 55.4268C74.8104 53.6784 75.4332 51.9468 76.056 50.214C76.1016 50.2116 76.1472 50.2092 76.1928 50.2068C76.8132 51.9336 77.4336 53.6616 78.0684 55.4268C79.7592 54.6288 81.414 53.8476 83.0676 53.0676C83.106 53.0976 83.1444 53.1288 83.184 53.1588C82.4064 54.8016 81.63 56.4456 80.8164 58.1664C82.572 58.7988 84.2964 59.4204 86.0208 60.0408C86.022 60.0912 86.022 60.1404 86.0232 60.1908C84.3108 60.804 82.5996 61.4172 80.8152 62.0568C81.6216 63.7584 82.4016 65.4084 83.1828 67.0572C83.1552 67.0944 83.1276 67.1316 83.1012 67.1688C81.4404 66.3864 79.7796 65.604 78.0708 64.7988C77.4396 66.5604 76.8216 68.2824 76.2048 70.0044C76.1592 70.014 76.1124 70.0224 76.0668 70.032C75.4464 68.3088 74.8272 66.5856 74.184 64.7976C72.4968 65.5944 70.8468 66.3732 69.198 67.152C69.1572 67.122 69.1164 67.0932 69.0744 67.0632C69.8496 65.4228 70.626 63.7824 71.4408 62.0568C69.6852 61.4268 67.9704 60.8112 66.2544 60.1968C66.246 60.1452 66.2364 60.0948 66.228 60.0432C67.9488 59.4228 69.6684 58.8012 71.4396 58.1628C70.6356 56.4672 69.8616 54.8328 69.0864 53.1972C69.1236 53.1588 69.1608 53.1168 69.1992 53.0748Z" fill="#EBEBEC"/>
</g>
</g>
<defs>
<clipPath id="clip0_22_3604">
<rect width="120" height="120" rx="60" fill="white"/>
</clipPath>
<clipPath id="clip1_22_3604">
<rect width="180" height="120" fill="white" transform="translate(-30)"/>
</clipPath>
</defs>
</svg>
