<svg width="120" height="120" viewBox="0 0 120 120" fill="none" xmlns="http://www.w3.org/2000/svg">
<rect width="120" height="120" rx="60" fill="#00C6F4"/>
<path fill-rule="evenodd" clip-rule="evenodd" d="M60.2528 23.69C60.7011 25.1062 61.539 28.649 61.5381 29.1252C61.5365 30.02 61.0608 30.486 60.1487 30.486C59.3718 30.486 59.0214 30.2556 58.8328 29.6207C58.7255 29.2594 58.7186 29.0836 58.7961 28.6797C58.8268 28.5193 58.8852 28.21 58.9258 27.9926C59 27.5955 59.0319 27.466 59.3451 26.2898C59.4387 25.9386 59.6125 25.2818 59.7314 24.8303C59.8503 24.3787 59.961 23.9682 59.9774 23.918C59.9937 23.8679 60.0235 23.7515 60.0437 23.6596C60.0926 23.4361 60.1763 23.4483 60.2528 23.69ZM55.8266 25.5144C56.7935 27.4572 57.3242 28.6889 57.4645 29.3153C57.6639 30.206 57.0302 30.9117 56.0309 30.9117C55.4364 30.9117 55.0569 30.6559 54.8245 30.0985C54.6921 29.7808 54.6873 27.2234 54.817 26.0769C54.8662 25.6421 54.907 25.0241 54.9076 24.7036C54.9087 24.1429 54.9295 24.0397 55.0412 24.0397C55.0695 24.0397 55.4229 24.7033 55.8266 25.5144ZM65.4145 25.2304C65.4563 25.8632 65.5183 26.8189 65.5522 27.3541C65.6979 29.6519 65.5617 30.3825 64.9173 30.7602C64.3154 31.113 63.2086 30.8282 62.9058 30.2426C62.8487 30.1321 62.8147 29.8968 62.8147 29.6121C62.8147 29.2046 62.8482 29.0744 63.1402 28.3466C63.5858 27.2362 65.1769 24.0264 65.2669 24.0562C65.3147 24.072 65.3638 24.4626 65.4145 25.2304ZM50.5525 26.0161C53.1345 29.3967 53.5416 30.002 53.6068 30.5568C53.6621 31.0282 53.599 31.3012 53.3757 31.5555C52.8706 32.1308 51.83 32.2819 51.372 31.8465C50.8668 31.3663 50.6903 30.6731 50.2825 27.5669C50.2452 27.2826 50.1625 26.7309 50.0987 26.3408C49.9704 25.5555 49.9572 25.3576 50.0354 25.3877C50.0643 25.3989 50.297 25.6817 50.5525 26.0161ZM70.2683 25.6969C70.2461 25.8056 70.2032 26.0998 70.1732 26.3506C70.0865 27.0735 70.0026 27.6739 69.901 28.2967C69.8492 28.6144 69.7779 29.066 69.7424 29.3001C69.5697 30.4413 69.5792 30.3954 69.3447 31.2158C69.1301 31.9666 68.2624 32.3072 67.467 31.9528C66.4601 31.5043 66.3819 30.6716 67.2265 29.3913C67.5592 28.8869 69.0202 26.9274 69.5638 26.2564C69.7549 26.0205 69.9596 25.7537 70.0188 25.6634C70.1753 25.4245 70.3199 25.4439 70.2683 25.6969ZM45.7076 28.0078C45.7343 28.0496 45.9204 28.218 46.1211 28.3819C46.3218 28.5459 46.5271 28.724 46.5772 28.7777C46.6274 28.8313 46.86 29.0356 47.0941 29.2316C47.6622 29.7072 48.8293 30.7843 49.2898 31.2579C49.7798 31.7619 49.9883 32.0717 50.0491 32.3863C50.1423 32.8695 50.0171 33.2441 49.6513 33.5768C49.0188 34.1518 48.1316 34.1589 47.6553 33.5929C47.3968 33.2856 46.965 32.3285 46.5556 31.1549C46.5031 31.0044 46.3477 30.5666 46.2102 30.1819C46.0727 29.7973 45.8788 29.2226 45.7792 28.9048C45.6797 28.5871 45.5721 28.2642 45.5404 28.1874C45.5086 28.1106 45.4826 28.0216 45.4826 27.9897C45.4826 27.9053 45.6507 27.9188 45.7076 28.0078ZM74.7951 27.9865C74.7951 28.165 73.5189 31.798 73.1588 32.6449C72.7255 33.6634 72.3504 34.0132 71.6912 34.0132C71.1718 34.0132 70.5498 33.6491 70.3201 33.2105C70.1795 32.9422 70.2099 32.3532 70.3816 32.0195C70.5884 31.6176 72.2722 29.9784 73.67 28.818C73.9042 28.6237 74.1231 28.4338 74.1565 28.3959C74.19 28.358 74.3209 28.2382 74.4475 28.1294C74.6777 27.9318 74.7951 27.8835 74.7951 27.9865ZM42.6015 31.7542C44.5032 32.8148 46.2067 33.8957 46.5589 34.2652C47.0897 34.8221 47.069 35.5624 46.5066 36.1359C46.1639 36.4853 45.9809 36.5669 45.5401 36.5672C45.2046 36.5674 45.0987 36.5398 44.8711 36.3931C44.5992 36.2179 44.3765 35.9977 44.1864 35.716C43.6589 34.9348 43.3595 34.4597 42.9027 33.6787C42.6091 33.177 42.2349 32.5442 42.0709 32.2725C41.907 32.0008 41.7723 31.7545 41.7716 31.7251C41.7708 31.6958 41.7167 31.6035 41.6513 31.5198C41.5259 31.3595 41.4935 31.2158 41.5828 31.2158C41.6121 31.2158 42.0705 31.458 42.6015 31.7542ZM78.748 31.2806C78.748 31.3162 78.6112 31.577 78.444 31.8602C78.2767 32.1433 78.1399 32.3841 78.1399 32.3954C78.1399 32.4475 76.9447 34.4413 76.5274 35.0853C75.7746 36.2472 75.3957 36.5686 74.7823 36.5661C74.4334 36.5646 74.0061 36.4031 73.7704 36.1836C73.3244 35.7681 73.2057 35.0324 73.5078 34.5561C73.7205 34.2206 73.8807 34.0846 74.68 33.5603C75.0277 33.3324 75.3861 33.0947 75.4768 33.0322C75.5674 32.9697 75.6577 32.9186 75.6774 32.9186C75.697 32.9186 75.8629 32.8228 76.0459 32.7057C76.2289 32.5886 76.3878 32.4929 76.3989 32.4929C76.4173 32.4929 78.2899 31.4143 78.5048 31.2799C78.6296 31.202 78.748 31.2023 78.748 31.2806ZM62.2065 32.9842C62.9115 33.0699 63.9498 33.2734 64.5783 33.4491C65.1795 33.6171 66.2493 33.9645 66.3115 34.0118C66.3449 34.0373 66.4818 34.0927 66.6156 34.135C67.0196 34.2624 68.6431 35.1041 69.2914 35.5221C70.0823 36.0321 71.0045 36.7341 71.4956 37.1998C71.7108 37.4039 71.9096 37.5793 71.9375 37.5896C72.0343 37.6253 73.3158 39.0941 73.735 39.65C75.1217 41.4885 76.1559 43.7079 76.6489 45.9024C76.871 46.8915 76.9141 47.1586 77.0165 48.183C77.201 50.0302 77.0723 51.8505 76.6189 53.8083C76.499 54.3258 76.0773 55.6731 75.9527 55.9368C75.9211 56.0037 75.8224 56.2363 75.7333 56.4537C75.5133 56.9912 75.0663 57.8748 74.8174 58.2641C74.7048 58.4404 74.6127 58.5942 74.6127 58.6058C74.6127 58.6174 74.4682 58.8426 74.2915 59.1063C73.1791 60.7667 71.8702 62.1606 70.3861 63.2648C69.9503 63.5891 69.088 64.1772 69.0483 64.1772C69.0327 64.1772 68.8759 64.2686 68.6996 64.3802C68.288 64.641 67.1305 65.2218 66.7372 65.3647C66.57 65.4255 66.4058 65.4939 66.3723 65.5167C66.3389 65.5395 65.9284 65.6815 65.4601 65.8323C63.5942 66.4331 62.087 66.6707 60.143 66.6706C57.6485 66.6705 55.8414 66.3082 53.4188 65.3227C51.2318 64.433 48.9858 62.7924 47.3131 60.8628C45.8852 59.2156 45.1261 57.9344 44.142 55.5111C44.0484 55.2806 43.784 54.4154 43.6681 53.9603C43.5563 53.5216 43.5238 53.3614 43.3283 52.2879C43.1585 51.3554 43.0859 49.7862 43.1655 48.7725C43.3197 46.8121 43.6447 45.3376 44.2897 43.6722C45.1405 41.4754 46.413 39.5326 48.1172 37.8286C50.0755 35.8704 52.239 34.5385 54.8176 33.7037C55.7105 33.4147 56.875 33.1408 57.5295 33.0659C57.6769 33.049 57.8522 33.0185 57.9191 32.9982C58.3547 32.8656 61.1561 32.8564 62.2065 32.9842ZM39.7964 35.6579C41.4815 36.2108 41.9528 36.3819 42.9076 36.7876C43.7763 37.1568 44.1353 37.4185 44.2939 37.7981C44.6337 38.6113 43.8882 39.7298 43.0065 39.7298C42.5108 39.7298 42.1414 39.472 41.0735 38.3811C40.1184 37.4054 39.5875 36.8249 38.9169 36.0234C38.7317 35.802 38.5049 35.54 38.4129 35.441C38.3209 35.3421 38.2457 35.2385 38.2457 35.2108C38.2457 35.1488 38.2362 35.146 39.7964 35.6579ZM82.032 35.2025C82.032 35.2681 80.5939 36.9537 80.1186 37.4453C80.0195 37.5478 79.6865 37.9072 79.3787 38.2439C78.0774 39.6676 77.425 39.9791 76.68 39.5321C75.7401 38.9681 75.6421 37.7463 76.4936 37.2087C76.7921 37.0203 77.8079 36.585 78.5656 36.3208C80.241 35.7366 81.889 35.1794 81.956 35.1744C81.9978 35.1713 82.032 35.1839 82.032 35.2025ZM36.9306 39.8166C37.2358 39.8644 37.7318 39.9341 38.0328 39.9716C39.057 40.099 39.6719 40.1974 40.8911 40.4291C42.1071 40.6602 42.6207 41.2246 42.4155 42.1043C42.2036 43.0125 41.5215 43.431 40.6478 43.189C40.3164 43.0971 39.3424 42.4652 38.2153 41.6108C38.0815 41.5093 37.7644 41.2704 37.5107 41.0798C36.4671 40.2958 35.9118 39.8527 35.8841 39.7817C35.8536 39.7039 36.3071 39.719 36.9306 39.8166ZM84.4038 39.7823C84.4038 39.825 83.6076 40.4613 82.7571 41.0981C82.6678 41.165 82.4339 41.3426 82.2373 41.4928C82.0408 41.6431 81.7979 41.8231 81.6975 41.8928C81.5972 41.9626 81.3919 42.1073 81.2414 42.2145C80.6228 42.6548 80.2173 42.9084 79.8505 43.0844C79.5161 43.2448 79.411 43.2669 79.0823 43.246C78.3178 43.1973 77.8845 42.6754 77.8725 41.7885C77.8666 41.3549 77.879 41.3075 78.0546 41.0891C78.2998 40.7843 78.7803 40.5454 79.3866 40.4268C80.6906 40.1718 80.8456 40.1468 82.2144 39.9713C82.4988 39.9348 82.9503 39.8686 83.2179 39.824C83.7883 39.729 84.4038 39.7074 84.4038 39.7823ZM40.6067 44.5614C41.0705 44.8184 41.1893 45.013 41.217 45.561C41.2442 46.1004 41.1612 46.4107 40.9145 46.6917C40.6497 46.9933 40.4188 47.0884 39.9543 47.0874C39.3173 47.086 38.7859 46.8725 35.7067 45.3811C34.9625 45.0206 34.3535 44.7014 34.3535 44.6717C34.3535 44.5516 37.3277 44.3641 39.0667 44.3747C40.2829 44.3821 40.2829 44.3821 40.6067 44.5614ZM83.1571 44.4105C84.6622 44.4946 85.9241 44.612 85.9241 44.668C85.9241 44.7444 82.8548 46.2483 81.88 46.6495C81.0227 47.0023 80.7215 47.0883 80.3427 47.0883C79.7206 47.0883 79.4199 46.8988 79.1794 46.3552C78.9251 45.7801 78.9575 45.3034 79.2797 44.8837C79.4343 44.6824 79.8226 44.454 80.1164 44.3916C80.34 44.3441 82.1728 44.3554 83.1571 44.4105ZM40.1684 48.5426C40.5132 48.6992 40.7307 49.0048 40.7999 49.4297C40.9764 50.5145 40.5028 51.101 39.4487 51.1029C39.2051 51.1033 38.8006 51.0587 38.5497 51.0037C37.753 50.8293 34.5865 50.0269 34.0039 49.8519C33.7126 49.7644 33.8298 49.7072 34.8705 49.4294C35.0711 49.3758 35.4953 49.2627 35.8131 49.178C36.1308 49.0932 36.6209 48.9706 36.902 48.9053C37.1832 48.84 37.4334 48.7741 37.4581 48.7588C37.4828 48.7436 37.7847 48.6756 38.1291 48.6076C38.4735 48.5398 38.7683 48.4712 38.7842 48.4552C38.8002 48.4393 39.0618 48.4268 39.3657 48.4276C39.7731 48.4285 39.9837 48.4587 40.1684 48.5426ZM81.5642 48.4826C82.4414 48.6766 83.3209 48.8784 83.5828 48.9459C84.3129 49.1338 85.6147 49.481 85.8937 49.5622C86.061 49.6109 86.2731 49.6656 86.365 49.6839C86.6156 49.7337 86.5685 49.7935 86.213 49.8768C85.8938 49.9516 85.6479 50.016 85.1335 50.1594C84.983 50.2014 84.7504 50.2643 84.6166 50.2994C84.4828 50.3344 84.1681 50.4171 83.9172 50.4832C83.6664 50.5493 83.1464 50.6759 82.7618 50.7647C82.3771 50.8533 81.9054 50.9655 81.7136 51.014C81.1622 51.1532 80.4171 51.128 80.0859 50.9588C79.164 50.488 79.2255 48.8305 80.1772 48.4993C80.4089 48.4187 81.2304 48.4088 81.5642 48.4826ZM40.5641 52.5491C40.8331 52.6897 40.9184 52.7766 41.0565 53.0509C41.2777 53.4902 41.2984 54.2235 41.0986 54.5466C40.9399 54.8035 40.5682 55.0211 40.122 55.1184C39.6688 55.2171 37.8361 55.1666 35.3114 54.9859C34.7846 54.9481 34.3535 54.8934 34.3535 54.8641C34.3535 54.7673 37.7994 53.1053 38.945 52.6496C39.7452 52.3313 40.1044 52.309 40.5641 52.5491ZM81.0286 52.5331C81.1958 52.5895 81.4421 52.6845 81.5759 52.7443C81.7097 52.8041 81.997 52.9273 82.2144 53.0181C82.9082 53.3079 85.9241 54.8066 85.9241 54.8617C85.9241 54.8908 85.4794 54.946 84.9359 54.9845C81.5983 55.2202 80.5096 55.2397 79.9816 55.0733C79.5414 54.9345 79.2102 54.6419 79.0883 54.2842C78.9635 53.918 78.966 53.8115 79.1111 53.3419C79.3692 52.5064 80.0702 52.2107 81.0286 52.5331ZM24.2531 53.3267C24.6273 53.6416 25.6045 55.3673 26.2304 56.8186C26.3242 57.036 26.5771 57.6244 26.7924 58.1261C27.0078 58.6278 27.2745 59.2436 27.3851 59.4944C27.4958 59.7453 27.6327 60.0737 27.6894 60.2242C27.8057 60.5327 27.9492 60.7498 28.002 60.6971C28.0214 60.6777 28.0087 60.3923 27.9737 60.0629C27.8393 58.7955 27.7847 57.8421 27.7852 56.77C27.7856 55.5539 27.8317 55.3471 28.1269 55.2348C28.3169 55.1626 28.6796 55.1588 28.7227 55.2285C28.7551 55.2809 28.8137 55.6692 28.9396 56.6666C29.239 59.0378 30.1559 62.2482 31.2059 64.6029C31.4228 65.0891 32.2737 66.8102 32.514 67.2483C32.9383 68.0224 33.9914 69.7132 34.155 69.8832C34.1977 69.9276 34.2612 70.0172 34.2959 70.0822C34.3615 70.2047 35.0642 71.1622 35.2585 71.3937C35.3193 71.4661 35.4613 71.644 35.5742 71.789C36.1397 72.5154 36.9183 73.3735 37.9103 74.3636C39.5263 75.9765 40.8055 77.0267 42.6851 78.2837C43.1113 78.5687 43.3046 78.6895 43.8236 78.9956C44.6461 79.4804 45.2562 79.8065 46.1934 80.2621C46.9756 80.6424 48.1126 81.1444 48.1917 81.1444C48.2134 81.1444 48.3175 81.1816 48.4229 81.227C48.8249 81.4005 48.9843 81.4594 49.6709 81.6885C50.2834 81.8927 50.7735 82.0419 51.6856 82.3016C51.969 82.3822 52.9615 82.61 53.1148 82.6295C53.1817 82.638 53.3732 82.6747 53.5405 82.7111C53.7077 82.7474 54.0087 82.8053 54.2094 82.8396C54.4101 82.874 54.7385 82.9302 54.9392 82.9647C55.1399 82.999 55.4683 83.0422 55.669 83.0605C55.8697 83.0789 56.0964 83.1075 56.1728 83.1242C56.3556 83.1642 59.0304 83.3315 59.5061 83.3327C59.9506 83.3339 60.0978 83.4484 60.0671 83.7689C60.0487 83.9607 60.0344 83.9722 59.8147 83.9722C59.6256 83.9722 59.5572 84.0065 59.4508 84.1547C58.9894 84.7976 57.6051 85.9513 57.3 85.9472C57.2391 85.9464 57.1085 85.8366 57.0098 85.7031C56.7556 85.3596 56.3259 85.0132 55.8095 84.7356C55.237 84.4279 54.9551 84.3369 53.8445 84.1017C53.094 83.9426 52.8623 83.908 51.1383 83.6966C50.854 83.6618 50.0467 83.6192 49.3443 83.602C48.6419 83.5847 47.9851 83.5581 47.8847 83.5429C47.7082 83.5161 47.4236 83.2982 46.5772 82.5422C46.3598 82.3481 46.0556 82.0841 45.9011 81.9556C45.7466 81.8272 45.4456 81.5691 45.2321 81.382C44.2697 80.5388 43.1093 79.6907 41.9541 78.9864C41.1171 78.4761 40.7054 78.3372 39.9727 78.3179C39.1688 78.2967 38.9475 78.1917 38.2536 77.5023C37.4795 76.7333 36.8961 75.9266 35.8838 74.2256C34.7697 72.3535 34.0732 71.445 32.6507 70.0087C31.6989 69.0477 30.9089 68.3568 30.259 67.9173C29.9045 67.6775 29.9045 67.6775 29.7964 67.8208C29.6921 67.959 29.6722 67.9621 29.2276 67.9074C28.4804 67.8155 28.4206 67.8916 28.5996 68.7078C28.7264 69.2858 28.8504 69.5108 29.2979 69.9755C29.7353 70.4295 29.8273 70.5979 29.7679 70.8346C29.7205 71.0238 29.4531 71.11 28.9138 71.11C28.3755 71.11 28.2986 71.1698 28.4523 71.4686C28.741 72.0298 29.252 72.525 30.1338 73.0982C30.3307 73.2262 30.6492 73.4478 30.8415 73.5907C31.162 73.8288 31.1912 73.8701 31.1912 74.0853C31.1912 74.3649 31.1386 74.394 30.6323 74.394C30.2658 74.394 30.2658 74.394 30.3076 74.5612C30.3985 74.9257 30.8348 75.1992 32.3156 75.8203C32.9052 76.0676 33.4545 76.3137 33.5361 76.3672C33.7218 76.4888 33.727 76.6754 33.5477 76.7884C33.4135 76.8731 33.3357 76.8995 33.0004 76.9741C32.9084 76.9946 32.8332 77.0499 32.8332 77.0971C32.8332 77.1443 33.1137 77.3572 33.4565 77.5701C34.0506 77.939 34.0799 77.967 34.0799 78.1656C34.0799 78.3676 34.0667 78.3791 33.6542 78.5374C32.8924 78.8295 33.0334 78.9963 34.6059 79.6629C35.1193 79.8805 35.5772 80.0953 35.6233 80.1402C35.7694 80.2824 35.6589 80.505 35.3798 80.6309C35.0236 80.7915 34.9461 80.88 35.0278 81.0327C35.1497 81.2605 35.562 81.383 36.4086 81.443C36.8445 81.474 37.2569 81.5291 37.325 81.5655C37.4672 81.6417 37.6375 81.8657 37.6375 81.9768C37.6375 82.1047 37.2695 82.4799 36.8935 82.7352C36.6742 82.8841 36.543 83.0144 36.5545 83.0717C36.5792 83.1947 37.5738 83.7075 39.3403 84.5081C40.6641 85.1081 42.5683 85.7697 43.871 86.0822C44.7522 86.2936 46.3167 86.4349 47.7783 86.4351C48.9508 86.4352 49.0098 86.4408 49.0098 86.5516C49.0098 86.6966 48.5393 86.994 48.1584 87.0899C47.3195 87.3011 47.1727 87.3158 45.9083 87.3153C44.6442 87.3147 43.9246 87.254 43.0196 87.0714C42.0787 86.8816 41.3681 86.726 41.1952 86.6721C41.0948 86.6407 40.6433 86.5078 40.1917 86.3766C39.4028 86.1474 38.9187 85.9879 38.3977 85.7854C38.2639 85.7334 38.0997 85.67 38.0328 85.6444C37.6618 85.5028 37.0208 85.2412 36.7557 85.1233C36.5885 85.0489 36.2738 84.9142 36.0563 84.8239C35.8389 84.7337 35.0754 84.3702 34.3597 84.0161C33.0851 83.3856 32.5899 83.0539 32.5899 82.8303C32.5899 82.6974 32.8773 82.5077 33.1557 82.4569C33.353 82.4209 33.5086 82.2838 33.4337 82.212C33.4211 82.2 33.192 82.1589 32.9244 82.1207C32.3822 82.0431 31.488 81.9035 30.8871 81.8025C30.1684 81.6817 29.9342 81.4851 30.0167 81.0719C30.0609 80.8511 30.2841 80.7301 30.8546 80.6176C31.5192 80.4865 31.5561 80.4763 31.5561 80.4232C31.5561 80.3388 31.2517 80.2272 30.5222 80.0444C29.6625 79.829 29.2465 79.6727 28.902 79.4356C28.6786 79.2819 28.637 79.2214 28.637 79.0503C28.637 78.9068 28.6772 78.8211 28.7744 78.7573C28.9816 78.6216 29.4967 78.5295 30.0539 78.5284C30.3282 78.5279 30.5919 78.5027 30.64 78.4722C30.8554 78.3359 30.4144 78.1272 29.61 77.985C28.3083 77.7548 27.9227 77.6551 27.4368 77.4228C26.6361 77.04 26.4684 76.4422 27.089 76.1829C27.3548 76.0718 27.6528 76.0742 28.2737 76.1919C28.8562 76.3024 29.2451 76.266 29.2451 76.1008C29.2451 75.9256 29.0578 75.8059 28.3273 75.5142C27.5036 75.1852 26.9272 74.8759 26.1436 74.3425C24.7672 73.4057 23.5168 72.2231 23.1712 71.5316C22.9525 71.0938 22.9338 70.8781 23.0971 70.6763C23.1962 70.5539 23.2642 70.5342 23.5684 70.5399C24.0457 70.5487 24.3889 70.6717 25.6075 71.271C26.1755 71.5504 26.6653 71.779 26.696 71.779C26.8479 71.779 26.7001 71.5904 26.2769 71.2446C24.969 70.1756 22.9434 68.2833 22.109 67.3511C20.7465 65.8286 20.1854 64.6958 20.5923 64.2889C20.7157 64.1655 20.7437 64.1617 20.9866 64.2338C21.5694 64.4072 22.0274 64.7699 24.8665 67.3064C25.6219 67.9813 26.6254 68.75 26.7129 68.7208C26.9102 68.6551 26.8751 68.591 25.6877 66.853C23.602 63.7999 22.6731 62.2849 21.8094 60.5283C20.8739 58.6255 20.6529 57.9156 20.6453 56.7882C20.6389 55.8499 20.6924 55.6905 20.9952 55.7467C21.3273 55.8084 21.7392 56.3441 22.7152 57.9838C24.2143 60.5021 24.345 60.7224 24.45 60.9061C24.8437 61.595 25.7447 62.98 26.1613 63.5368C26.627 64.1593 26.9317 64.4432 27.0294 64.3455C27.0875 64.2874 26.8492 63.5874 26.0094 61.3493C25.0792 58.8701 24.373 56.8801 24.1967 56.2409C24.169 56.1405 24.0755 55.8025 23.989 55.4898C23.662 54.3075 23.5682 53.5584 23.7132 53.2874C23.8009 53.1235 24.0315 53.1403 24.2531 53.3267ZM96.2382 53.2771C96.5008 53.4525 96.5074 54.0244 96.2581 55.0119C96.0922 55.6692 95.7979 56.6292 95.6579 56.9707C95.6305 57.0375 95.5341 57.2975 95.4438 57.5484C95.3535 57.7992 95.2566 58.0592 95.2286 58.1261C95.2006 58.193 94.9389 58.8498 94.6471 59.5857C94.1063 60.9496 93.5958 62.1909 93.2842 62.9001C93.1886 63.1175 92.9286 63.7332 92.7064 64.2684C92.4842 64.8035 92.2767 65.2961 92.2452 65.363C92.2138 65.4299 92.1354 65.6403 92.071 65.8307C91.9686 66.133 91.9651 66.186 92.043 66.2507C92.1159 66.3112 92.1713 66.2869 92.3467 66.1175C92.8947 65.5881 93.8779 64.1596 95.7122 61.2277C96.4237 60.0904 97.067 59.0642 97.1418 58.9471C97.2167 58.8301 97.3741 58.5838 97.4915 58.3998C98.3886 56.9947 98.8809 56.3065 99.0752 56.1859C99.4515 55.9524 99.6651 56.9495 99.4547 57.9577C99.2014 59.1721 98.4039 60.8934 97.283 62.6454C97.2256 62.7352 97.1334 62.8889 97.0783 62.9868C97.0232 63.0847 96.8902 63.29 96.7829 63.4429C96.6755 63.5959 96.437 63.94 96.2528 64.2076C95.7494 64.939 95.3755 65.4496 94.0484 67.217C92.865 68.793 92.6618 69.1069 92.8788 69.0236C92.9999 68.9771 93.7253 68.4932 93.7692 68.4297C93.7859 68.4054 93.9674 68.2528 94.1724 68.0906C94.3775 67.9284 94.8657 67.5083 95.2572 67.1571C95.6488 66.8059 96.0968 66.4136 96.2527 66.2854C96.4086 66.1572 96.6121 65.9854 96.7049 65.9036C97.0399 65.6081 97.8073 65.0867 98.1357 64.9313C98.5061 64.7561 98.8038 64.7605 99.0068 64.9442C99.1508 65.0745 99.1612 65.5679 99.0278 65.9458C98.874 66.3819 98.3089 67.1988 97.6642 67.9172C97.2248 68.4068 95.113 70.5055 93.8452 71.7125C93.2013 72.3256 92.6745 72.865 92.6745 72.9112C92.6745 73.054 93.0214 73.0075 93.4156 72.812C93.6187 72.7112 94.1476 72.4226 94.5907 72.1706C95.5253 71.6393 96.1407 71.3676 96.5313 71.3141C96.9119 71.2619 96.9923 71.3418 96.9923 71.7718C96.9923 72.0778 96.9625 72.1592 96.7157 72.5271C96.2638 73.2008 95.6589 73.7656 94.2616 74.8183C93.4473 75.4318 92.8438 75.8149 92.1861 76.1359C91.7712 76.3384 91.5807 76.464 91.5803 76.5354C91.5799 76.6296 91.646 76.6366 92.264 76.6077C93.077 76.5697 93.2413 76.6243 93.272 76.9428C93.3337 77.5854 92.935 77.8764 91.1898 78.4627C90.2441 78.7804 89.9987 78.9012 89.9987 79.0489C89.9987 79.1677 90.1707 79.2319 90.7285 79.3216C90.9793 79.3619 91.2188 79.4224 91.2606 79.4561C91.4816 79.634 91.2114 80.0787 90.7358 80.3197C90.4204 80.4794 89.6104 80.669 88.277 80.8953C87.9354 80.9532 87.7917 81.0576 87.9315 81.146C87.9814 81.1775 88.0795 81.2037 88.1495 81.2043C88.3382 81.2056 88.9706 81.4348 89.094 81.5465C89.1529 81.5998 89.2189 81.7239 89.2404 81.8221C89.2971 82.0803 89.1466 82.2711 88.7999 82.3802C88.5282 82.4657 88.2753 82.5014 86.7755 82.6659C85.5423 82.8013 85.3838 82.9504 86.1981 83.2094C86.8139 83.4053 86.9473 83.4828 86.9949 83.6724C87.0689 83.9672 86.6418 84.2306 85.5288 84.5765C85.2278 84.67 84.8857 84.7833 84.7686 84.8281C84.6516 84.873 84.3505 84.9661 84.0997 85.0352C83.8488 85.1042 83.5341 85.1908 83.4003 85.2276C83.2665 85.2645 83.0339 85.3303 82.8834 85.374C82.7329 85.4177 82.3361 85.5113 82.0016 85.5822C81.6671 85.6531 81.2156 85.7489 80.9982 85.7951C80.6224 85.8749 80.2821 85.9365 79.493 86.0676C79.3007 86.0995 78.897 86.1668 78.596 86.2171C77.7837 86.3528 77.6398 86.3742 77.1225 86.4355C76.8626 86.4664 76.3079 86.5325 75.8898 86.5824C74.6818 86.7267 73.8918 86.7606 73.4904 86.6852C73.0322 86.5992 72.9695 86.5394 73.1435 86.3543C73.2806 86.2083 74.1204 85.9775 75.0384 85.8334C75.9124 85.6962 76.5987 85.5748 76.7716 85.5268C76.8719 85.499 77.1182 85.4427 77.3189 85.4018C77.5196 85.3609 77.7659 85.3019 77.8662 85.2708C77.9666 85.2397 78.2539 85.1723 78.5048 85.1211C79.1637 84.9867 79.4373 84.8838 79.9274 84.5863C80.7696 84.0751 81.5583 83.7346 82.1941 83.6079C82.4218 83.5625 82.4878 83.4351 82.3821 83.2444C82.0559 82.6553 82.025 82.5795 82.0577 82.4491C82.1181 82.2084 82.2613 82.1174 82.5797 82.1174C82.937 82.1174 83.1374 82.0471 83.3548 81.8455C83.5305 81.6826 83.5591 81.4428 83.464 80.9312C83.3949 80.5594 83.483 80.5078 84.6695 80.226C85.1307 80.1164 85.62 79.9131 85.62 79.8309C85.62 79.8175 85.5448 79.6707 85.4528 79.5047C85.2856 79.2028 85.2856 79.2028 85.468 79.0226C85.5684 78.9235 86.0079 78.6635 86.4448 78.4449C86.8816 78.2262 87.2918 77.9891 87.3562 77.9179C87.4731 77.7888 87.4728 77.7878 87.2147 77.5659C87.0725 77.4436 86.9565 77.2998 86.9571 77.2465C86.9585 77.0963 87.1061 76.9953 88.0222 76.5183C88.4905 76.2744 88.9757 76.0114 89.1005 75.9338C89.2252 75.8562 89.3427 75.7927 89.3615 75.7927C89.4194 75.7927 90.022 75.3303 90.1482 75.1891C90.3302 74.9853 90.2094 74.8455 89.8686 74.8661C89.7227 74.875 89.5144 74.8669 89.4057 74.8481C89.2363 74.819 89.2081 74.7891 89.2081 74.6388C89.2081 74.444 89.301 74.3389 90.1435 73.5803C90.7024 73.077 91.215 72.3954 91.215 72.1555C91.215 72.0158 91.2085 72.0144 90.7424 72.0551C90.3738 72.0872 90.2182 72.0748 90.0355 71.9984C89.8012 71.9005 89.8012 71.9005 89.828 71.5812C89.8462 71.3635 89.9718 71.0012 90.2232 70.441C90.9566 68.8067 90.9524 68.4866 90.2013 68.7979C89.8684 68.9359 89.8684 68.9359 89.62 68.685C89.4833 68.547 89.3527 68.4342 89.3295 68.4342C89.233 68.4342 88.2045 69.1205 87.7953 69.458C86.4971 70.5285 85.3072 71.9782 84.053 74.0173C83.7096 74.5757 83.2772 75.2788 83.0921 75.5799C82.7565 76.1254 81.9816 77.1334 81.5565 77.5771C81.108 78.0453 80.8847 78.1549 79.2954 78.6872C78.9442 78.8048 78.5747 78.9364 78.4744 78.9797C78.374 79.023 78.1961 79.0927 78.0791 79.1345C77.3219 79.4051 76.2272 79.9686 75.3728 80.5273C75.109 80.6999 74.4795 81.1537 74.4302 81.2069C74.4135 81.2249 74.263 81.3468 74.0957 81.4775C73.9285 81.6083 73.3655 82.1342 72.8447 82.6461C72.324 83.1581 71.8724 83.5778 71.8413 83.5789C71.8102 83.5799 71.4974 83.6201 71.1462 83.6682C70.795 83.7162 70.3077 83.7564 70.0633 83.7574C69.8189 83.7585 69.4358 83.7855 69.2119 83.8173C68.9881 83.8492 68.5586 83.9062 68.2575 83.9442C67.9565 83.9821 67.505 84.0517 67.2541 84.0989C67.0033 84.146 66.4149 84.2548 65.9466 84.3406C65.4783 84.4265 65.0131 84.5192 64.9128 84.5468C64.8124 84.5743 64.5661 84.631 64.3654 84.6727C64.1647 84.7145 63.7679 84.8142 63.4836 84.8944C63.1993 84.9746 62.8572 85.0704 62.7234 85.1073C62.1026 85.2787 61.5036 85.51 60.7591 85.866C60.3143 86.0787 59.9363 86.2528 59.9192 86.2528C59.8649 86.2528 57.1457 87.6254 56.7426 87.8562C56.5304 87.9777 56.3407 88.0772 56.3211 88.0772C56.3016 88.0772 56.1195 88.1828 55.9165 88.312C55.7134 88.4411 55.4037 88.6373 55.2281 88.7479C55.0524 88.8586 54.9088 88.97 54.9088 88.9956C54.9088 89.1115 55.1718 89.1079 55.4393 88.9884C55.8757 88.7936 56.9765 88.7521 56.9765 88.9305C56.9765 88.9604 56.8066 89.2118 56.5989 89.4889C56.3912 89.7661 56.1175 90.1322 55.9907 90.3025C55.7331 90.6487 55.7116 90.751 55.8671 90.8918C55.9623 90.9779 56.4965 90.9919 60.7475 91.0191C63.3728 91.0359 65.5258 91.0513 65.5318 91.0534C65.5936 91.0746 65.7338 91.2664 65.7338 91.3299C65.7338 91.4477 65.181 91.8362 64.8557 91.9471C64.5682 92.045 64.5123 92.1135 64.6701 92.174C64.8464 92.2417 65.6679 92.0254 66.5852 91.6699C67.0604 91.4857 67.1173 91.4601 67.5582 91.2316C67.9535 91.0267 67.9535 91.0267 68.8488 91.0395C69.7441 91.0524 69.7441 91.0524 69.8101 90.8071C69.8659 90.6 69.9349 90.5247 70.2527 90.3243C70.7422 90.0156 70.8835 89.799 70.9635 89.2346C71.0549 88.5902 71.111 88.544 71.7541 88.5833C72.0386 88.6006 72.4081 88.6426 72.5754 88.6764C72.9991 88.7621 76.6749 89.0526 77.1364 89.0368C77.3363 89.03 80.4004 89.1687 81.5454 89.2364C82.8307 89.3124 82.8834 89.3347 82.8834 89.8008C82.8834 91.3063 81.5466 92.1295 79.1281 92.1133C78.685 92.1104 78.3207 92.1247 78.3186 92.1451C78.3165 92.1655 78.305 92.3677 78.293 92.5944C78.262 93.1758 78.0726 93.4851 77.6078 93.7131C77.2795 93.8743 77.2134 93.8844 76.5283 93.8775C76.0109 93.8723 75.6491 93.833 75.285 93.7424C75.0025 93.6722 74.7679 93.6207 74.7636 93.6282C74.5332 94.0238 74.2178 94.3765 73.9297 94.5608C73.6128 94.7636 73.0983 94.7608 72.6304 94.5539C72.4413 94.4703 72.266 94.4019 72.2408 94.4019C72.2157 94.4019 72.0811 94.5092 71.9419 94.6404C71.295 95.2497 70.6514 95.4831 69.8387 95.4032C68.9794 95.3188 68.9482 95.3239 68.6179 95.6016C68.2058 95.9483 67.8153 96.1043 67.3555 96.1063C67.0411 96.1076 66.9109 96.0719 66.5504 95.8856L66.1202 95.6633L65.8206 95.8933C65.3042 96.2898 64.7893 96.5 64.335 96.5C63.9974 96.5 63.9079 96.4756 63.7213 96.3329C63.6012 96.241 63.4513 96.07 63.3882 95.9528C63.3251 95.8357 63.252 95.7398 63.2256 95.7398C63.1993 95.7398 63.0208 95.8288 62.829 95.9375C62.4896 96.1298 62.4614 96.135 61.7808 96.1307C61.2588 96.1275 60.9632 96.0931 60.6149 95.9949C60.1816 95.8728 60.1301 95.8699 59.8891 95.955C58.8027 96.3382 58.0129 96.2991 57.5911 95.841C57.4455 95.683 57.4455 95.683 57.2728 95.8283C56.6512 96.3513 55.1846 96.367 54.8257 95.8545C54.6905 95.6617 54.7007 95.2657 54.8469 95.026C54.9129 94.9176 55.1204 94.7124 55.308 94.5699C55.7006 94.2715 56.4318 93.6754 56.7124 93.425C56.8181 93.3307 57.1054 93.0979 57.351 92.9076L57.7975 92.5615L58.7705 92.6151C60.1343 92.6902 61.4926 92.6784 62.4194 92.5833C62.8542 92.5387 63.34 92.4891 63.4988 92.4731C63.6577 92.4572 63.7877 92.422 63.7877 92.395C63.7877 92.2821 62.2346 92.2626 57.1808 92.3122C51.8377 92.3646 51.8377 92.3646 51.564 92.525C51.1719 92.755 50.9081 92.787 50.5879 92.6437C50.2439 92.4897 50.1631 92.5376 49.9315 93.0324C49.717 93.4908 49.5687 93.5442 49.2972 93.2608C49.0676 93.0212 48.949 92.6312 48.949 92.1163C48.949 91.6705 48.949 91.6705 49.4 91.0749C50.3604 89.8069 51.4356 88.9932 53.1452 88.2406C53.2622 88.189 53.7548 88.0107 54.2398 87.8444C55.5077 87.4096 55.4839 87.4191 56.2163 87.0542C56.936 86.6956 56.9474 86.6887 58.7705 85.4924C60.4549 84.387 60.5203 84.3477 61.2363 84.0108C61.9309 83.684 62.9188 83.393 63.7269 83.2773C64.4672 83.1712 65.2847 83.0152 66.0378 82.8362C67.2938 82.5377 69.3527 81.8778 70.0912 81.5369C70.1966 81.4883 70.2984 81.4484 70.3174 81.4484C70.3365 81.4484 70.497 81.3822 70.6742 81.3011C70.8513 81.2201 71.146 81.0947 71.3289 81.0226C71.5119 80.9505 72.0451 80.6976 72.5138 80.4605C72.9825 80.2235 73.4481 79.989 73.5484 79.9395C75.0703 79.1892 78.0322 77.1669 79.7734 75.6891C82.6684 73.2322 85.2465 70.2087 87.0488 67.1571C87.5052 66.3844 88.4226 64.5808 88.7573 63.7983C89.6233 61.7737 90.2079 59.758 90.5698 57.5484C90.6999 56.7542 90.7893 55.99 90.7903 55.6631C90.7907 55.5126 90.8112 55.3595 90.8358 55.3228C90.9114 55.2101 91.2073 55.1699 91.4601 55.2379C91.7807 55.3243 91.8614 55.4982 91.9112 56.2105C91.9484 56.7424 91.873 59.4157 91.7827 60.7644C91.7327 61.5121 91.8159 61.4859 92.1536 60.6477C92.2947 60.2977 92.4546 59.9156 92.509 59.7985C92.5635 59.6815 92.7159 59.3394 92.8476 59.0383C93.1508 58.3457 93.6678 57.2021 93.8923 56.7274C93.9873 56.5267 94.2593 55.9383 94.497 55.4199C95.1982 53.8902 95.6537 53.2295 96.0061 53.2315C96.097 53.232 96.2015 53.2525 96.2382 53.2771ZM79.6829 56.3705C79.979 56.461 80.7738 56.9514 81.5759 57.5388C81.81 57.7102 82.0563 57.8903 82.1232 57.939C82.2977 58.0661 82.7474 58.4047 82.9774 58.5822C83.0858 58.6659 83.4327 58.9311 83.7483 59.1716C84.5982 59.8194 84.5993 59.8221 83.9765 59.7727C83.4244 59.729 82.876 59.6602 82.0016 59.5251C81.7006 59.4786 81.2217 59.4076 80.9373 59.3674C80.4911 59.3043 79.9511 59.203 79.0429 59.0123C78.7745 58.9559 78.3418 58.7387 78.1566 58.5675C77.9361 58.3634 77.8134 57.9615 77.8574 57.5871C77.9354 56.923 78.2303 56.5072 78.748 56.3311C79.0936 56.2135 79.1815 56.2172 79.6829 56.3705ZM41.7135 56.4081C42.0438 56.5752 42.2767 56.9066 42.4085 57.3964C42.4968 57.7248 42.4974 57.7918 42.415 58.067C42.2088 58.7562 41.6451 59.0147 39.7052 59.3098C36.9417 59.73 35.8739 59.8557 35.8739 59.7608C35.8739 59.707 36.1328 59.4847 36.5552 59.176C36.6804 59.0844 36.8315 58.9697 36.8909 58.921C37.9181 58.0801 39.7171 56.8078 40.3017 56.5088C40.869 56.2187 41.281 56.1893 41.7135 56.4081ZM43.5172 59.9255C44.1679 60.2406 44.5523 61.1116 44.3034 61.7074C44.1407 62.0969 43.7723 62.3681 42.9126 62.7315C42.4697 62.9186 41.9432 63.1283 41.7425 63.1974C41.5418 63.2665 41.145 63.4069 40.8607 63.5095C40.5764 63.6121 40.0427 63.7925 39.6748 63.9105C39.3069 64.0285 38.845 64.1789 38.6486 64.2448C38.0956 64.4303 38.0872 64.4506 39.0058 63.3844C39.3069 63.035 39.5969 62.7078 39.6504 62.6573C39.7039 62.6069 40.0351 62.2372 40.3864 61.8358C41.3344 60.7529 42.0668 60.0775 42.4549 59.9284C42.8708 59.7685 43.1911 59.7677 43.5172 59.9255ZM77.8852 59.9611C78.1418 60.0818 78.4104 60.3056 78.9251 60.8277C79.7619 61.6766 80.8568 62.881 81.503 63.6635C81.764 63.9794 82.0034 64.238 82.0352 64.238C82.0669 64.238 82.0928 64.2684 82.0928 64.3057C82.0928 64.3468 82.027 64.3608 81.9256 64.3415C81.7705 64.3119 78.9672 63.3597 78.6264 63.2209C78.5428 63.1868 78.2828 63.0892 78.0487 63.0039C77.3306 62.7425 76.746 62.486 76.5412 62.3426C75.7885 61.8154 75.6899 61.0377 76.2839 60.3128C76.7078 59.7955 77.2702 59.672 77.8852 59.9611ZM45.9207 62.9946C46.5117 63.1959 46.9421 63.7584 46.9421 64.3292C46.9421 64.9111 46.5942 65.3412 45.6142 65.9712C44.9779 66.3801 42.7584 67.7044 42.7092 67.7044C42.698 67.7044 42.4572 67.8412 42.174 68.0085C41.6652 68.309 41.5296 68.362 41.5296 68.2604C41.5296 68.1644 43.0577 65.5327 43.6357 64.6333C44.3855 63.4664 44.6941 63.135 45.1728 62.9825C45.4797 62.8846 45.604 62.8867 45.9207 62.9946ZM75.3543 63.0806C75.4983 63.155 75.6678 63.2611 75.731 63.3165C75.8606 63.4299 77.2885 65.5853 77.2885 65.6675C77.2885 65.6854 77.3547 65.8022 77.4356 65.9268C77.5165 66.0516 77.6465 66.2655 77.7245 66.4022C77.8024 66.5389 78.0816 67.0259 78.345 67.4844C78.7983 68.2737 78.8834 68.5079 78.642 68.3017C78.5832 68.2514 78.2732 68.0721 77.9529 67.9031C77.2886 67.5525 75.1298 66.2661 74.3915 65.7809C73.8573 65.4298 73.5514 65.1234 73.4192 64.8069C73.3 64.5218 73.3153 64.0903 73.4541 63.8182C73.602 63.5284 74.1109 63.0644 74.3799 62.9741C74.6625 62.8792 75.0461 62.9211 75.3543 63.0806ZM49.0459 65.5832C49.4703 65.742 49.8428 66.0684 49.9976 66.417C50.2333 66.9479 50.0078 67.5297 49.274 68.2845C48.6126 68.9647 47.2546 70.1837 45.8965 71.316C45.7004 71.4796 45.525 71.5983 45.5066 71.58C45.4749 71.5483 45.6615 70.9209 45.9178 70.1978C45.983 70.0138 46.114 69.6307 46.2089 69.3464C46.3037 69.0621 46.4689 68.5968 46.5758 68.3125C47.402 66.1153 47.5785 65.817 48.1945 65.5764C48.576 65.4275 48.6307 65.4279 49.0459 65.5832ZM72.0651 65.5478C72.5607 65.7227 72.8198 66.0603 73.2078 67.0366C73.3471 67.3872 73.4853 67.7287 73.5149 67.7956C73.5446 67.8625 73.5961 67.9993 73.6297 68.0997C73.6631 68.2 73.7903 68.5558 73.9124 68.8903C74.0344 69.2248 74.2695 69.9089 74.4348 70.4106C74.6001 70.9123 74.7625 71.3703 74.7956 71.4284C74.8722 71.5625 74.8727 71.6573 74.7969 71.6573C74.7645 71.6573 74.5935 71.5231 74.4168 71.3591C74.2402 71.1951 73.9683 70.9556 73.8124 70.827C73.1097 70.2469 72.2604 69.4747 71.4066 68.6398C70.3669 67.6231 70.2375 67.4218 70.2354 66.8165C70.2342 66.5015 70.261 66.4084 70.4123 66.1994C70.6428 65.8812 70.9552 65.6455 71.2814 65.5437C71.6264 65.4359 71.7497 65.4366 72.0651 65.5478ZM52.8411 67.5927C53.1756 67.7372 53.4365 67.9741 53.548 68.2346C53.7157 68.6266 53.6085 69.2966 53.3062 69.7451C52.7078 70.6329 52.4883 70.9428 51.93 71.6882C51.5795 72.1562 51.277 72.5528 51.2579 72.5695C51.2387 72.5863 51.1424 72.7094 51.0439 72.8431C50.9453 72.9768 50.7073 73.2822 50.515 73.5218C50.3227 73.7614 50.1653 73.9872 50.1653 74.0236C50.1653 74.0601 50.1212 74.0899 50.0674 74.0899C49.9916 74.0899 49.9761 74.0454 49.9986 73.8923C50.0146 73.7836 50.072 73.3936 50.1262 73.0257C50.1804 72.6577 50.2543 72.1241 50.2905 71.8398C50.3267 71.5555 50.3807 71.1723 50.4106 70.9884C50.4405 70.8044 50.5094 70.3802 50.5637 70.0457C50.709 69.1519 50.8941 68.3728 51.0201 68.1243C51.1583 67.8524 51.5122 67.5356 51.7323 67.4871C51.8237 67.467 51.9259 67.4411 51.9593 67.4295C52.0828 67.3869 52.5756 67.4782 52.8411 67.5927ZM68.802 67.5891C69.189 67.8175 69.4392 68.3955 69.6281 69.4984C69.8791 70.9631 70.0309 71.9469 70.1115 72.6304C70.1489 72.9481 70.1936 73.2902 70.2107 73.3905C70.287 73.8372 70.3032 74.0897 70.2554 74.0875C70.1553 74.0827 68.0308 71.3003 67.2622 70.1674C66.7634 69.4321 66.6289 69.0908 66.6579 68.6341C66.6775 68.3246 66.7154 68.2146 66.867 68.0259C67.3218 67.4602 68.2343 67.2542 68.802 67.5891ZM56.7091 68.7412C57.1016 68.9091 57.3753 69.1851 57.4643 69.5032C57.641 70.1342 57.3481 70.919 55.6561 74.3484C55.3467 74.9755 55.0669 75.4886 55.0343 75.4886C54.9545 75.4886 54.9335 75.3153 54.8206 73.725C54.6922 71.9173 54.6919 69.8341 54.8198 69.4586C55.0843 68.6823 55.8719 68.3833 56.7091 68.7412ZM64.6812 68.6764C65.2534 68.8775 65.4131 69.0967 65.5514 69.8706C65.6296 70.3086 65.6207 70.7888 65.4901 73.1473C65.3886 74.9805 65.345 75.4464 65.2725 75.4703C65.151 75.5103 63.4296 71.9844 63.0006 70.817C62.8007 70.2731 62.7469 69.5915 62.8831 69.3272C63.056 68.9915 63.4795 68.7133 63.9701 68.6132C64.298 68.5463 64.3155 68.5479 64.6812 68.6764ZM60.831 69.1285C61.4355 69.3874 61.6619 70.1085 61.4469 71.091C61.3971 71.3189 61.3245 71.6558 61.2857 71.8398C61.2104 72.1964 60.8461 73.6744 60.746 74.0291C60.713 74.1462 60.5888 74.5977 60.47 75.0325C60.1845 76.078 60.1982 76.036 60.1444 76.036C60.0968 76.036 60.0388 75.867 59.8678 75.2302C59.8162 75.0379 59.731 74.7231 59.6785 74.5308C59.3621 73.3722 58.9163 71.5265 58.829 71.014C58.7168 70.3551 58.7386 70.0108 58.9149 69.6655C59.0669 69.3677 59.21 69.2439 59.5695 69.099C59.8998 68.966 60.4832 68.9796 60.831 69.1285ZM52.6514 90.0931C52.5302 90.1262 52.344 90.2432 52.2375 90.3531C52.0814 90.5142 52.0517 90.5845 52.0846 90.7154C52.1394 90.9338 52.3146 91.0156 52.6573 90.9827C53.0302 90.9469 53.3942 90.7643 53.5092 90.5554C53.5916 90.4059 53.5914 90.3705 53.5081 90.2209C53.4299 90.0806 53.3712 90.052 53.1432 90.0434C52.9938 90.0377 52.7724 90.0601 52.6514 90.0931Z" fill="#FFC700"/>
</svg>
