<svg width="120" height="120" viewBox="0 0 120 120" fill="none" xmlns="http://www.w3.org/2000/svg">
<g clip-path="url(#clip0_22_3608)">
<g clip-path="url(#clip1_22_3608)">
<path d="M-60 0H180V120H-60V0Z" fill="#1EB53A"/>
<path d="M-60 0H180V60H-60V0Z" fill="#0099B5"/>
<path d="M-60 38.3999H180V81.5999H-60V38.3999Z" fill="#CE1126"/>
<path d="M-60 40.8H180V79.2001H-60V40.8Z" fill="#EBEBEC"/>
<path d="M5.28 27.8401L4.39003 30.5791L5.75955 31.0241" fill="#EBEBEC"/>
<path d="M5.28 27.8401L6.16997 30.5791L4.80045 31.0241" fill="#EBEBEC"/>
<path d="M8.01904 29.8301H5.13904V31.2701" fill="#EBEBEC"/>
<path d="M8.01904 29.8301L5.68907 31.5229L4.84266 30.3579" fill="#EBEBEC"/>
<path d="M2.54096 29.8301L4.87093 31.5229L5.71734 30.3579" fill="#EBEBEC"/>
<path d="M2.54096 29.8301H5.42096V31.2701" fill="#EBEBEC"/>
<path d="M6.97282 33.05L6.08286 30.311L4.71333 30.756" fill="#EBEBEC"/>
<path d="M6.97282 33.05L4.64286 31.3572L5.48927 30.1922" fill="#EBEBEC"/>
<path d="M3.58718 33.05L5.91715 31.3572L5.07074 30.1922" fill="#EBEBEC"/>
<path d="M3.58718 33.05L4.47715 30.311L5.84667 30.756" fill="#EBEBEC"/>
<path d="M5.28 16.3201L4.39003 19.0591L5.75955 19.5041" fill="#EBEBEC"/>
<path d="M5.28 16.3201L6.16997 19.0591L4.80045 19.5041" fill="#EBEBEC"/>
<path d="M8.01904 18.3101H5.13904V19.7501" fill="#EBEBEC"/>
<path d="M8.01904 18.3101L5.68907 20.0029L4.84266 18.8379" fill="#EBEBEC"/>
<path d="M2.54096 18.3101L4.87093 20.0029L5.71734 18.8379" fill="#EBEBEC"/>
<path d="M2.54096 18.3101H5.42096V19.7501" fill="#EBEBEC"/>
<path d="M6.97282 21.53L6.08286 18.791L4.71333 19.236" fill="#EBEBEC"/>
<path d="M6.97282 21.53L4.64286 19.8372L5.48927 18.6722" fill="#EBEBEC"/>
<path d="M3.58718 21.53L5.91715 19.8372L5.07074 18.6722" fill="#EBEBEC"/>
<path d="M3.58718 21.53L4.47715 18.791L5.84667 19.236" fill="#EBEBEC"/>
<path d="M5.28 4.80005L4.39003 7.53909L5.75955 7.98408" fill="#EBEBEC"/>
<path d="M5.28 4.80005L6.16997 7.53909L4.80045 7.98408" fill="#EBEBEC"/>
<path d="M8.01904 6.79004H5.13904V8.23004" fill="#EBEBEC"/>
<path d="M8.01904 6.79004L5.68907 8.48286L4.84266 7.31788" fill="#EBEBEC"/>
<path d="M2.54096 6.79004L4.87093 8.48286L5.71734 7.31788" fill="#EBEBEC"/>
<path d="M2.54096 6.79004H5.42096V8.23004" fill="#EBEBEC"/>
<path d="M6.97282 10.01L6.08286 7.27097L4.71333 7.71595" fill="#EBEBEC"/>
<path d="M6.97282 10.01L4.64286 8.31719L5.48927 7.1522" fill="#EBEBEC"/>
<path d="M3.58718 10.01L5.91715 8.31719L5.07074 7.1522" fill="#EBEBEC"/>
<path d="M3.58718 10.01L4.47715 7.27097L5.84667 7.71595" fill="#EBEBEC"/>
<path d="M16.8 27.8401L15.91 30.5791L17.2796 31.0241" fill="#EBEBEC"/>
<path d="M16.8 27.8401L17.69 30.5791L16.3205 31.0241" fill="#EBEBEC"/>
<path d="M19.539 29.8301H16.659V31.2701" fill="#EBEBEC"/>
<path d="M19.539 29.8301L17.2091 31.5229L16.3627 30.3579" fill="#EBEBEC"/>
<path d="M14.061 29.8301L16.3909 31.5229L17.2373 30.3579" fill="#EBEBEC"/>
<path d="M14.061 29.8301H16.941V31.2701" fill="#EBEBEC"/>
<path d="M18.4928 33.05L17.6029 30.311L16.2333 30.756" fill="#EBEBEC"/>
<path d="M18.4928 33.05L16.1629 31.3572L17.0093 30.1922" fill="#EBEBEC"/>
<path d="M15.1072 33.05L17.4372 31.3572L16.5907 30.1922" fill="#EBEBEC"/>
<path d="M15.1072 33.05L15.9972 30.311L17.3667 30.756" fill="#EBEBEC"/>
<path d="M16.8 16.3201L15.91 19.0591L17.2796 19.5041" fill="#EBEBEC"/>
<path d="M16.8 16.3201L17.69 19.0591L16.3205 19.5041" fill="#EBEBEC"/>
<path d="M19.539 18.3101H16.659V19.7501" fill="#EBEBEC"/>
<path d="M19.539 18.3101L17.2091 20.0029L16.3627 18.8379" fill="#EBEBEC"/>
<path d="M14.061 18.3101L16.3909 20.0029L17.2373 18.8379" fill="#EBEBEC"/>
<path d="M14.061 18.3101H16.941V19.7501" fill="#EBEBEC"/>
<path d="M18.4928 21.53L17.6029 18.791L16.2333 19.236" fill="#EBEBEC"/>
<path d="M18.4928 21.53L16.1629 19.8372L17.0093 18.6722" fill="#EBEBEC"/>
<path d="M15.1072 21.53L17.4372 19.8372L16.5907 18.6722" fill="#EBEBEC"/>
<path d="M15.1072 21.53L15.9972 18.791L17.3667 19.236" fill="#EBEBEC"/>
<path d="M16.8 4.80005L15.91 7.53909L17.2796 7.98408" fill="#EBEBEC"/>
<path d="M16.8 4.80005L17.69 7.53909L16.3205 7.98408" fill="#EBEBEC"/>
<path d="M19.539 6.79004H16.659V8.23004" fill="#EBEBEC"/>
<path d="M19.539 6.79004L17.2091 8.48286L16.3627 7.31788" fill="#EBEBEC"/>
<path d="M14.061 6.79004L16.3909 8.48286L17.2373 7.31788" fill="#EBEBEC"/>
<path d="M14.061 6.79004H16.941V8.23004" fill="#EBEBEC"/>
<path d="M18.4928 10.01L17.6029 7.27097L16.2333 7.71595" fill="#EBEBEC"/>
<path d="M18.4928 10.01L16.1629 8.31719L17.0093 7.1522" fill="#EBEBEC"/>
<path d="M15.1072 10.01L17.4372 8.31719L16.5907 7.1522" fill="#EBEBEC"/>
<path d="M15.1072 10.01L15.9972 7.27097L17.3667 7.71595" fill="#EBEBEC"/>
<path d="M28.32 27.8401L27.43 30.5791L28.7996 31.0241" fill="#EBEBEC"/>
<path d="M28.32 27.8401L29.21 30.5791L27.8404 31.0241" fill="#EBEBEC"/>
<path d="M31.059 29.8301H28.179V31.2701" fill="#EBEBEC"/>
<path d="M31.059 29.8301L28.7291 31.5229L27.8827 30.3579" fill="#EBEBEC"/>
<path d="M25.581 29.8301L27.9109 31.5229L28.7573 30.3579" fill="#EBEBEC"/>
<path d="M25.581 29.8301H28.461V31.2701" fill="#EBEBEC"/>
<path d="M30.0128 33.05L29.1229 30.311L27.7533 30.756" fill="#EBEBEC"/>
<path d="M30.0128 33.05L27.6829 31.3572L28.5293 30.1922" fill="#EBEBEC"/>
<path d="M26.6272 33.05L28.9572 31.3572L28.1107 30.1922" fill="#EBEBEC"/>
<path d="M26.6272 33.05L27.5172 30.311L28.8867 30.756" fill="#EBEBEC"/>
<path d="M28.32 16.3201L27.43 19.0591L28.7996 19.5041" fill="#EBEBEC"/>
<path d="M28.32 16.3201L29.21 19.0591L27.8404 19.5041" fill="#EBEBEC"/>
<path d="M31.059 18.3101H28.179V19.7501" fill="#EBEBEC"/>
<path d="M31.059 18.3101L28.7291 20.0029L27.8827 18.8379" fill="#EBEBEC"/>
<path d="M25.581 18.3101L27.9109 20.0029L28.7573 18.8379" fill="#EBEBEC"/>
<path d="M25.581 18.3101H28.461V19.7501" fill="#EBEBEC"/>
<path d="M30.0128 21.53L29.1229 18.791L27.7533 19.236" fill="#EBEBEC"/>
<path d="M30.0128 21.53L27.6829 19.8372L28.5293 18.6722" fill="#EBEBEC"/>
<path d="M26.6272 21.53L28.9572 19.8372L28.1107 18.6722" fill="#EBEBEC"/>
<path d="M26.6272 21.53L27.5172 18.791L28.8867 19.236" fill="#EBEBEC"/>
<path d="M28.32 4.80005L27.43 7.53909L28.7996 7.98408" fill="#EBEBEC"/>
<path d="M28.32 4.80005L29.21 7.53909L27.8404 7.98408" fill="#EBEBEC"/>
<path d="M31.059 6.79004H28.179V8.23004" fill="#EBEBEC"/>
<path d="M31.059 6.79004L28.7291 8.48286L27.8827 7.31788" fill="#EBEBEC"/>
<path d="M25.581 6.79004L27.9109 8.48286L28.7573 7.31788" fill="#EBEBEC"/>
<path d="M25.581 6.79004H28.461V8.23004" fill="#EBEBEC"/>
<path d="M30.0128 10.01L29.1229 7.27097L27.7533 7.71595" fill="#EBEBEC"/>
<path d="M30.0128 10.01L27.6829 8.31719L28.5293 7.1522" fill="#EBEBEC"/>
<path d="M26.6272 10.01L28.9572 8.31719L28.1107 7.1522" fill="#EBEBEC"/>
<path d="M26.6272 10.01L27.5172 7.27097L28.8867 7.71595" fill="#EBEBEC"/>
</g>
</g>
<defs>
<clipPath id="clip0_22_3608">
<rect width="120" height="120" rx="60" fill="white"/>
</clipPath>
<clipPath id="clip1_22_3608">
<rect width="240" height="120" fill="white" transform="translate(-60)"/>
</clipPath>
</defs>
</svg>
