<svg width="375" height="358" viewBox="0 0 375 358" fill="none" xmlns="http://www.w3.org/2000/svg">
<path fill-rule="evenodd" clip-rule="evenodd" d="M117.94 0.775295C113.66 1.4776 113.443 1.56179 111.743 3.18992C110.261 4.6089 107.878 5.45453 105.34 5.46155C103.725 5.46623 101.816 6.32857 100.65 7.57982C99.9659 8.31453 99.8936 8.63027 100.087 10.0386C100.299 11.5862 100.259 11.6991 99.1213 12.7081C98.1637 13.5578 97.934 14.0005 97.934 14.9981C97.934 16.366 98.056 16.3473 95.0311 15.4435C93.78 15.0699 93.5553 15.0913 92.9471 15.6426C92.5723 15.9827 92.2655 16.5093 92.2655 16.8133C92.2655 17.117 92.0588 17.649 91.8064 17.9951C91.3613 18.6048 91.2865 18.5968 89.3473 17.7248C88.2473 17.23 86.8842 16.8254 86.3177 16.8254C84.5368 16.8254 81.6479 18.1498 79.6959 19.8614C78.6663 20.7642 77.701 21.5029 77.5509 21.5029C77.0058 21.5029 76.2605 23.5103 76.2605 24.9787C76.2605 27.1424 75.716 28.0522 73.7584 29.1591C71.0679 30.6807 67.7265 34.7749 67.3677 36.9897C67.1864 38.1106 67.2914 38.3118 68.7662 39.6689C70.3527 41.1283 70.36 41.1447 70.1609 42.8283C69.8472 45.4822 69.1843 46.4274 66.8319 47.5757C65.6906 48.133 63.5565 49.408 62.0894 50.409C57.8221 53.3208 57.6417 55.0127 61.2578 58.2025C63.3872 60.0805 63.6553 60.7972 62.5896 61.7634C61.755 62.5202 61.7377 63.6074 62.5439 64.6418C62.8853 65.0802 63.5652 66.29 64.0547 67.3307C65.2581 69.8894 65.8596 70.0758 70.1169 69.2088C73.2336 68.5743 73.5033 68.5676 75.1425 69.0855C77.3415 69.7801 80.068 72.1734 80.6112 73.886C80.8276 74.569 81.4265 75.8045 81.9416 76.6314C83.4161 78.9986 85.3034 87.0728 85.2213 90.6641C85.1353 94.4246 85.2867 94.7894 87.2776 95.6183C88.1916 95.9989 89.0289 96.5445 89.1385 96.8308C89.2619 97.1529 88.8878 97.8505 88.1562 98.6618C85.321 101.806 86.245 105.296 89.7838 104.809C91.0108 104.641 91.2232 104.706 91.4149 105.312C91.674 106.13 91.1242 107.289 90.0915 108.103C89.6877 108.421 89.0175 109.473 88.6021 110.441C87.5281 112.942 87.8365 116.974 89.4123 121.032C90.0268 122.614 90.8438 124.961 91.2282 126.247C91.6127 127.533 92.791 130.165 93.8467 132.094C95.7666 135.602 95.7666 135.602 98.4341 136.99C102.63 139.174 102.667 139.188 103.494 138.811C104.55 138.329 105.273 136.731 105.797 133.718C106.048 132.282 106.701 130.217 107.25 129.127C107.798 128.039 108.411 126.118 108.611 124.859C108.81 123.601 109.193 122.235 109.461 121.824C109.993 121.007 111.634 120.106 113.885 119.394C115.844 118.775 118.301 116.358 119.582 113.79C120.786 111.374 121.717 110.682 124.81 109.904C128.508 108.973 130.467 107.902 132.629 105.63C133.884 104.312 134.779 103.029 135.028 102.191C135.247 101.456 135.918 100.386 136.519 99.8128C137.849 98.5465 137.928 97.4102 136.902 94.3651C136.261 92.4633 136.233 92.0831 136.614 90.4927C136.846 89.5228 136.938 88.3404 136.819 87.8653C136.648 87.1793 136.838 86.7406 137.746 85.7343C138.427 84.9785 138.988 83.9308 139.136 83.1386C139.273 82.4079 139.699 81.3838 140.083 80.8623C140.608 80.149 140.794 79.3641 140.834 77.6882C140.863 76.464 140.99 74.9124 141.117 74.2405C141.471 72.3588 140.485 69.4049 139.09 68.1677C137.202 66.4925 137.608 65.3184 140.249 64.8156C142.433 64.3996 142.913 63.0745 141.495 61.3715C141.063 60.852 140.163 59.2853 139.496 57.8897C138.315 55.4187 138.293 55.3007 138.647 53.3792C138.848 52.2853 139.501 50.5871 140.112 49.5683C140.947 48.1758 141.265 47.1908 141.421 45.5012C141.666 42.862 142.848 40.0802 144.313 38.6957C144.888 38.1521 145.648 37.0405 146.002 36.2252C146.356 35.41 147.201 34.1093 147.881 33.3348C152.092 28.5357 153.099 26.945 152.796 25.5671C152.55 24.4418 151.182 23.0325 149.845 22.5267C147.99 21.8244 147.021 22.0769 145.267 23.7211C143.614 25.2707 143.614 25.2707 141.544 25.0829C139.157 24.8658 138.613 24.3763 138.613 22.4415C138.613 21.081 137.715 19.8324 136.735 19.8324C136.436 19.8324 135.681 20.1481 135.058 20.5343C133.759 21.3386 132.919 21.2196 131.48 20.0282C130.157 18.9329 130.514 18.3048 132.846 17.6312C135.27 16.9309 136.56 16.0309 137.143 14.6326C137.73 13.225 137.254 11.7412 135.949 10.9106C134.283 9.85045 130.603 6.09135 129.923 4.75557C129.275 3.48394 128.092 2.54943 125.443 1.21799C123.479 0.23136 121.844 0.134802 117.94 0.775295ZM58.7551 7.66602C57.9035 7.98543 56.8188 8.10337 55.7541 7.99211C54.4237 7.85346 53.7495 7.98343 52.4197 8.63595C51.5028 9.086 50.4051 9.45887 49.9803 9.46455C48.9417 9.47858 48.2468 9.88486 46.3902 11.5638C45.4582 12.4067 44.4973 13.7098 44.0241 14.7729C43.3302 16.3309 43.1312 16.535 42.4883 16.3473C40.2536 15.6937 39.6418 15.7325 38.8565 16.5778C38.4307 17.0369 37.8122 17.8067 37.4827 18.2881C37.1533 18.7699 36.6148 19.1642 36.2857 19.1642C35.3061 19.1642 31.6442 21.1484 30.919 22.0723C30.0117 23.228 30.0701 23.8621 31.2161 25.3071C31.868 26.1287 32.2641 27.1033 32.4232 28.2764C32.7853 30.9436 34.0303 33.1441 35.5158 33.7421C36.1937 34.0151 37.3747 34.5614 38.1403 34.9566C39.4083 35.6111 39.6768 35.6375 41.1599 35.257C43.6677 34.6128 44.7287 35.3642 43.2299 36.7234C42.729 37.1778 41.9838 37.3576 40.479 37.3866C39.344 37.409 37.8892 37.5413 37.2463 37.6813C36.142 37.9212 35.9509 37.8193 33.7879 35.8333C32.032 34.2212 31.2221 33.1554 30.3115 31.2603C28.4796 27.4468 27.2782 27.0358 25.2723 29.537C23.7641 31.4174 22.7218 34.7558 22.442 38.6011C22.2216 41.6355 22.2583 41.9349 23.0432 43.4868C23.5647 44.5182 24.3243 45.4033 25.0622 45.8397C26.1952 46.5092 26.2449 46.6185 26.2449 48.4274C26.2449 49.9963 26.4423 50.6418 27.4113 52.2402C28.8914 54.6816 29.9881 55.2205 32.2054 54.5961C35.1967 53.7538 35.222 53.7558 36.4378 54.9362C37.8315 56.29 37.8665 56.7541 36.6238 57.3979C35.5955 57.9308 35.2594 58.722 35.2524 60.6268C35.2484 61.6565 34.9643 62.0996 33.2718 63.7173C30.8173 66.0631 29.859 66.169 26.7671 64.4363C25.6194 63.7932 24.2906 63.2669 23.8145 63.2669C22.8742 63.2669 21.9102 64.3364 21.9102 65.3795C21.9102 66.3334 23.9515 68.1737 25.462 68.5813C27.5853 69.1543 28.5046 70.6331 28.0955 72.8182C27.8461 74.1503 27.2509 74.2743 25.9665 73.2619C25.2239 72.6769 24.8058 72.6 23.3527 72.7818C21.2837 73.0411 21.105 72.8292 20.7482 69.6946C20.4651 67.2085 19.8399 66.3227 18.18 66.0564C17.2331 65.9044 16.6586 66.0411 15.6793 66.6508C14.9127 67.1283 13.68 67.5092 12.574 67.6101C10.9191 67.7611 10.7307 67.859 10.6427 68.6127C10.5156 69.7026 11.9098 71.5883 13.5026 72.4814C14.1838 72.8633 15.1915 73.7885 15.7416 74.5372C17.0424 76.3073 17.891 76.5202 19.8129 75.5583C21.3007 74.8139 21.347 74.8105 21.7075 75.434C21.9105 75.7854 22.466 76.5242 22.9419 77.0761C24.0069 78.3117 25.548 78.4266 26.686 77.3554C27.6703 76.4286 28.0941 76.4447 29.2915 77.454C29.828 77.9061 30.825 78.4523 31.5069 78.6672C33.085 79.1647 44.3942 79.3745 45.807 78.9328C47.7489 78.3254 48.7463 75.605 47.7773 73.5586C46.6583 71.1957 43.463 70.5215 39.9869 71.9151C36.7238 73.2235 33.9636 72.6204 33.0364 70.3966C32.5942 69.3358 32.6006 69.1326 33.101 68.3675C33.6505 67.5272 33.6936 67.5199 36.7925 67.738C38.7085 67.873 40.7361 67.8102 42.0058 67.5767C43.7684 67.2522 44.2799 67.2766 45.3749 67.7364C47.3462 68.5643 48.3925 68.4377 49.3891 67.2506C50.3951 66.0528 50.4711 65.0855 49.6886 63.441C49.1277 62.2629 49.131 62.2432 50.2721 60.0722C50.9279 58.8243 52.017 57.3926 52.8142 56.7314C54.8988 55.002 55.6828 52.6569 55.389 49.0278C55.1636 46.2456 55.1636 46.2456 56.2926 45.1885C56.9135 44.6071 58.2422 43.5867 59.2459 42.9209C60.7383 41.9309 61.1828 41.4073 61.687 40.0431C62.0261 39.126 63.6059 36.6549 65.1974 34.5523C69.9245 28.3065 69.9252 28.3055 69.9252 26.3218C69.9252 24.5591 69.9252 24.5591 72.3426 22.5945C76.1445 19.5049 77.3109 16.5307 75.4103 14.7723C74.9424 14.3396 74.1102 13.3466 73.5603 12.5658C72.496 11.0539 71.1109 10.1458 69.8585 10.1391C69.4367 10.1368 68.4648 9.77594 67.6985 9.33692C65.5722 8.11841 62.704 7.13445 61.3265 7.15082C60.646 7.15884 59.4886 7.39071 58.7551 7.66602ZM258.008 26.7268C257.628 27.2109 257.317 27.9593 257.317 28.3897C257.317 28.8825 256.978 29.3826 256.4 29.7411C254.418 30.9707 254.093 32.3759 255.528 33.5066C256.559 34.3191 258.513 34.409 259.465 33.6873C259.821 33.4177 260.458 33.1969 260.882 33.1969C261.503 33.1969 261.652 33.3779 261.652 34.1324C261.652 35.399 262.212 35.8698 263.718 35.8698C264.697 35.8698 265.278 35.6041 266.276 34.7004C266.986 34.0572 267.7 33.53 267.861 33.529C268.022 33.528 268.693 33.3773 269.351 33.1938C270.766 32.8003 271.53 31.5377 270.978 30.5049C270.525 29.6573 270.058 29.686 268.644 30.6489C267.784 31.2346 266.87 31.4832 265.149 31.5998C263.867 31.6867 262.594 31.8511 262.319 31.9647C261.984 32.1036 261.525 31.7455 260.929 30.8805C260.201 29.824 260.072 29.3405 260.222 28.2223C260.527 25.945 259.282 25.104 258.008 26.7268ZM315.616 29.669C314.764 30.2537 314.228 30.9864 313.836 32.102C313.528 32.9797 313.04 34.2243 312.752 34.8674C312.464 35.5106 312.16 37.3278 312.077 38.9058C311.928 41.7134 311.944 41.7906 312.836 42.4932C313.337 42.8881 314.442 44.2229 315.291 45.4591C317.243 48.3001 319.822 49.9202 322.775 50.1614C324.712 50.3198 324.712 50.3198 324.622 52.5359C324.572 53.7544 324.647 54.9385 324.788 55.1671C325.148 55.7504 326.486 55.6843 329.117 54.9536C331.983 54.157 333.007 53.2449 333.007 51.4898C333.007 50.3625 332.753 49.9202 331.123 48.2072C329.024 46.0024 328.235 45.7802 326.614 46.9365C325.171 47.9666 324.817 47.4223 324.932 44.3489C325.034 41.6178 324.979 41.5206 321.872 38.9693C320.995 38.2493 320.97 38.1357 321.069 35.2687C321.165 32.4722 321.115 32.2209 320.158 30.6656C319.296 29.2644 318.975 29.0064 317.991 28.9262C317.192 28.8611 316.46 29.09 315.616 29.669ZM246.147 32.547C245.413 32.8948 244.466 33.1832 244.041 33.1882C242.978 33.2002 241.979 33.7859 241.979 34.3973C241.979 35.0191 243.576 37.9473 244.101 38.2871C244.943 38.8327 245.717 38.4518 247.589 36.5694C249.908 34.2386 250.169 33.6997 249.481 32.6486C248.866 31.7074 247.975 31.68 246.147 32.547ZM258.511 36.5764C257.343 37.4969 257.45 38.6673 258.714 38.8136C260.313 38.9984 261.837 36.6031 260.457 36.0726C259.659 35.7655 259.482 35.8113 258.511 36.5764ZM200.623 37.4103C200.16 37.7014 199.455 38.4367 199.057 39.0445C198.606 39.7344 197.858 40.3054 197.066 40.564C196.368 40.7919 195.358 41.3455 194.82 41.7946C194.041 42.4457 193.602 42.572 192.653 42.4177C188.72 41.7795 188.733 41.7792 188.001 42.5129C187.214 43.3017 187.092 44.6876 187.683 46.122C187.896 46.6392 188.169 48.1267 188.291 49.427C188.539 52.0966 189.139 53.158 190.998 54.2175C192.123 54.8587 192.214 55.0348 192.415 56.9622C192.534 58.0949 192.63 59.58 192.63 60.2623C192.63 62.1019 194.65 64.9001 195.996 64.9268C197.062 64.9482 197.701 63.598 199.788 56.9188C200.459 54.7745 200.826 54.2459 201.646 54.2459C202.287 54.2459 203.091 56.0561 203.459 58.3291C203.822 60.573 206.29 61.3959 207.611 59.7137C207.991 59.2295 208.302 58.5763 208.302 58.2619C208.302 57.6214 206.264 54.3408 204.764 52.5673C204.224 51.9285 203.581 50.8046 203.335 50.0695C203.088 49.3345 202.304 47.9673 201.593 47.0318C200.47 45.5553 199.815 43.6171 200.549 43.9442C200.687 44.0054 201.816 44.5667 203.058 45.1911C204.301 45.8159 206.032 46.3956 206.908 46.4802C208.279 46.6121 208.649 46.5065 209.587 45.7157C210.848 44.6529 212.629 41.7064 212.633 40.676C212.642 38.5807 209.853 37.1424 206.015 37.2637C204.614 37.3078 203.017 37.2399 202.467 37.1126C201.791 36.9563 201.193 37.0528 200.623 37.4103ZM9.09654 46.418C8.39966 47.1163 8.43766 47.839 9.24091 49.1587C9.62503 49.7902 9.90847 50.8497 9.91147 51.6646C9.91814 53.5032 10.0662 53.694 12.2405 54.6696C13.2492 55.122 14.4382 55.8884 14.8827 56.3725C16.3131 57.9305 17.8199 57.289 18.4131 54.8694C18.8419 53.1196 16.7966 50.1834 13.3022 47.5326C11.0438 45.8196 9.97649 45.5366 9.09654 46.418ZM-1.29871 51.7448C-2.02827 52.4758 -2.10863 52.7725 -1.91923 54.0371C-1.71117 55.4283 -1.75117 55.5199 -2.86686 56.2108C-4.29897 57.0979 -4.47469 57.5152 -3.94653 58.7741C-3.44437 59.9703 -2.88052 60.4681 -1.68716 60.7685C-0.948257 60.9542 -0.585815 60.8012 0.269783 59.9442C1.28177 58.9302 1.31145 58.8199 1.09471 56.9001C0.921326 55.3639 0.988007 54.7391 1.3868 54.1687C2.11736 53.1236 2.02834 52.0324 1.16273 51.425C0.142082 50.7087 -0.325073 50.7691 -1.29871 51.7448ZM19.4284 51.6475C18.3734 53.1567 18.7529 54.016 22.1156 57.731C23.7138 59.4972 24.3256 59.9596 24.9462 59.8714C25.9748 59.725 26.1522 58.7274 25.3133 57.8079C24.8668 57.3187 24.605 56.4487 24.5007 55.1096C24.3643 53.3548 24.2113 53.0087 23.1336 52.0191C21.6691 50.6743 20.2107 50.5283 19.4284 51.6475ZM329.506 59.2035C328.168 60.0217 326.791 62.0758 326.165 64.1898C325.744 65.6081 325.318 66.1918 323.798 67.433C322.778 68.2656 321.694 68.9689 321.39 68.996C321.086 69.023 319.703 69.0604 318.317 69.0795C315.988 69.1112 315.659 69.2075 313.982 70.3488C312.984 71.028 311.492 71.8423 310.667 72.1583C308.513 72.9829 305.778 74.858 304.741 76.2198C304.022 77.164 303.823 77.8369 303.72 79.6665C303.632 81.2288 303.419 82.0962 303.041 82.4393C302.737 82.7153 301.262 83.0928 299.745 83.2836C298.236 83.4734 296.555 83.8593 296.01 84.1416C294.789 84.7744 294.236 86.5489 294.548 88.8319C294.767 90.4353 294.767 90.4353 293.187 90.2184C291.509 89.9879 290.812 90.2204 289.231 91.5385C288.712 91.9705 287.827 92.3253 287.23 92.3407C286.641 92.3554 285.572 92.3978 284.854 92.4346C283.549 92.5017 283.549 92.5017 283.147 90.7276C282.753 88.9902 281.58 87.3417 280.207 86.596C279.716 86.3297 279.385 86.456 278.593 87.2094C277.352 88.3915 276.847 89.3494 276.236 91.6758C275.972 92.6815 275.276 94.2558 274.689 95.1746C273.622 96.8452 273.622 96.8452 273.84 100.186C273.994 102.537 274.246 103.855 274.691 104.632C276.137 107.16 275.134 107.331 271.64 105.152C268.802 103.382 266.862 102.692 264.723 102.692C263.233 102.692 263.233 102.692 263.45 104.332C263.708 106.278 263.18 107.036 261.566 107.036C260.995 107.036 259.419 107.347 258.064 107.728C255.91 108.334 255.401 108.37 254.013 108.014C252.635 107.659 252.216 107.687 250.819 108.221C248.798 108.995 245.68 111.276 244.467 112.87C243.702 113.875 243.361 114.069 242.51 113.986C241.394 113.877 241.365 113.747 241.839 110.957C242.099 109.427 241.601 108.706 240.283 108.706C238.963 108.706 238.645 109.505 238.645 112.809C238.645 116.11 238.242 116.725 236.08 116.725C234.736 116.725 234.736 116.725 234.556 114.735C234.337 112.31 233.715 111.368 230.762 108.985C227.248 106.151 226.565 105.708 224.974 105.231C224.148 104.984 222.423 104.234 221.139 103.564C219.207 102.556 218.661 102.079 217.971 100.792C216.596 98.2271 215.84 97.8629 212.089 97.9588C208.449 98.052 207.502 98.3651 204.949 100.316C203.951 101.08 202.361 101.933 201.416 102.212C200.083 102.607 199.246 103.183 197.668 104.794C196.552 105.935 195.282 107.181 194.847 107.562C194.271 108.066 193.992 108.764 193.823 110.121C193.671 111.341 193.198 112.639 192.459 113.87C191.837 114.905 190.75 117.063 190.045 118.664C188.202 122.85 186.473 125.195 182.857 128.419C180.883 130.178 179.389 131.817 178.929 132.725C178.21 134.148 178.2 134.302 178.608 137.904C179.077 142.057 179.528 143.447 180.665 144.245C181.806 145.046 182.873 144.917 184.669 143.761C186.951 142.294 187.386 142.544 188.465 145.939C189.432 148.98 189.452 150.235 188.538 150.409C188.11 150.491 187.761 150.1 187.272 148.993C186.761 147.835 186.416 147.463 185.853 147.463C183.828 147.463 182.911 149.55 183.656 152.463C184.388 155.321 183.885 155.99 179.669 157.771C179.006 158.051 178.129 158.935 177.361 160.098C175.3 163.219 173.291 163.768 173.291 161.21C173.291 160.277 172.973 159.433 172.186 158.276C171.578 157.382 170.265 155.228 169.268 153.488C167.643 150.651 167.464 150.146 167.533 148.598C167.6 147.112 167.469 146.693 166.588 145.583C165.337 144.005 165.028 143.8 163.901 143.793C163.315 143.79 162.72 144.138 162.15 144.816C161.196 145.952 161.045 147.51 161.639 150.09C162.046 151.858 161.741 152.337 160.017 152.637C158.676 152.87 157.939 153.389 156.536 155.09C155.707 156.095 155.619 156.454 155.619 158.837C155.619 161.121 155.707 161.52 156.279 161.826C157.071 162.251 158.396 161.98 159.874 161.089C161.247 160.262 161.509 159.758 161.93 157.14C162.336 154.617 162.873 153.9 163.932 154.467C165.241 155.169 165.387 156.312 164.412 158.239C163.656 159.734 163.568 160.226 163.748 161.948C164.053 164.872 164.184 164.958 168.033 164.746C169.824 164.647 171.373 164.701 171.475 164.866C171.878 165.52 170.873 166.409 168.088 167.862C164.186 169.897 164.083 170.107 166.009 172.097C168.884 175.069 169.467 177.741 167.638 179.574C166.653 180.561 166.653 180.561 162.72 180.344C159.055 180.142 158.727 180.174 157.913 180.824C157.103 181.471 157.023 181.78 156.797 185.124C156.316 192.222 156.39 192.478 159.432 194.198C162.17 195.746 161.995 196.681 158.294 200.26C156.182 202.303 156.008 202.584 155.512 204.77C154.949 207.255 155.075 207.095 150.729 210.824C149.608 211.787 148.494 213.314 147.073 215.836C145.95 217.832 144.921 219.82 144.788 220.254C144.651 220.701 144.8 222.253 145.13 223.83C145.677 226.442 145.679 226.759 145.163 228.887C144.063 233.433 144.533 235.312 147.565 238.491C148.625 239.604 149.858 241.169 150.304 241.97C151.162 243.511 155.474 246.917 157.802 247.892C158.903 248.353 159.253 248.35 161.405 247.858C163.035 247.486 164.473 247.38 165.955 247.522C167.828 247.702 168.527 247.592 171.103 246.711C175.162 245.323 176.475 245.361 178.517 246.924C179.684 247.818 180.63 248.233 181.96 248.434C185.03 248.899 185.959 250.799 184.931 254.509C184.375 256.516 184.804 257.808 186.854 260.297C189.063 262.98 190.065 265.082 190.775 268.525C191.505 272.067 191.435 273.167 190.338 275.354C189.362 277.301 188.629 280.046 188.629 281.756C188.629 282.278 189.512 284.489 190.592 286.668C192.237 289.989 192.643 291.17 193.098 293.971C193.439 296.072 193.967 297.933 194.52 298.983C197.372 304.401 198.228 306.311 198.413 307.668C198.889 311.149 200.345 312.212 203.751 311.567C204.878 311.353 206.961 311.043 208.378 310.877C211.674 310.492 213.348 309.664 215.68 307.263C218.156 304.714 221.217 300.142 221.501 298.568C221.827 296.759 222.193 296.163 224.055 294.417C225.717 292.858 225.717 292.858 225.478 289.521C225.24 286.184 225.24 286.184 226.691 284.766C227.488 283.985 229.148 282.698 230.378 281.905C231.623 281.102 232.842 280.021 233.129 279.465C233.97 277.834 233.804 273.414 232.795 270.583C232.336 269.297 231.868 267.088 231.754 265.673C231.566 263.346 231.629 262.934 232.414 261.33C233.516 259.08 237.916 254.315 241.025 252.006C243.882 249.883 245.755 247.432 248.041 242.826C250.652 237.561 249.986 236.491 244.699 237.461C241.02 238.135 239.513 238.152 238.991 237.522C238.073 236.414 238.728 235.868 242.65 234.474C247.341 232.805 250.111 231.56 251.508 230.492C252.092 230.047 253.439 229.297 254.501 228.826C255.563 228.355 257.067 227.449 257.843 226.811C259.325 225.595 262.064 221.986 262.456 220.734C262.781 219.696 261.932 218.236 260.423 217.235C259.219 216.436 258.016 214.811 258.367 214.458C258.457 214.369 259.795 214.518 261.341 214.791C262.887 215.064 266.057 215.287 268.385 215.288C272.617 215.288 272.617 215.288 274.525 216.961C275.574 217.881 276.924 219.365 277.524 220.259C278.618 221.886 279.189 222.304 280.315 222.304C281.657 222.304 282.329 223.382 282.98 226.582C283.329 228.291 284.16 230.997 284.829 232.596C288.8 242.094 288.987 242.35 291.477 241.722C293.599 241.187 293.662 241.213 293.662 242.648C293.662 243.423 293.915 244.261 294.29 244.724C294.843 245.41 295.02 245.454 295.79 245.102C297.501 244.322 296.619 241.686 294.466 241.144C293.491 240.899 293.501 241.305 294.331 236.003C294.547 234.625 294.788 233.027 294.867 232.452C294.984 231.598 295.899 230.619 299.865 227.106C302.535 224.741 305.132 222.467 305.637 222.054C306.66 221.215 309.871 220.443 311.062 220.748C312.121 221.02 315.018 225.051 315.777 227.311C316.584 229.711 316.846 229.989 318.303 229.989C320.018 229.989 320.865 230.72 321.498 232.746C322.559 236.14 323.063 237.339 323.431 237.339C323.635 237.339 324.35 236.959 325.02 236.493C326.611 235.389 327.303 235.65 330.334 238.503C331.747 239.833 332.935 240.68 333.388 240.68C334.449 240.68 338.289 238.077 338.86 236.971C339.476 235.778 339.48 233.303 338.868 231.836C338.607 231.21 337.808 230.049 337.092 229.257C334.264 226.127 333.931 224.605 335.71 222.939C337.582 221.187 339.981 221.826 339.514 223.953C339.393 224.507 339.393 225.122 339.514 225.319C339.881 225.914 340.676 225.002 340.676 223.986C340.676 223.485 340.944 222.833 341.271 222.536C342.023 221.856 344.826 220.619 347.845 219.637C351.392 218.484 354.448 216.016 355.92 213.116C356.386 212.197 357.066 211.021 357.432 210.501C358.984 208.297 358.758 204.21 356.863 200.222C355.539 197.437 355.554 197.193 357.198 194.93C357.656 194.299 357.979 193.623 357.915 193.426C357.852 193.23 357.103 192.844 356.251 192.568C355.399 192.293 354.436 191.8 354.111 191.474C353.576 190.936 353.567 190.797 354.017 190.001C354.29 189.517 355.1 188.817 355.816 188.446C357.053 187.805 357.168 187.799 358.094 188.332C358.631 188.641 359.695 188.895 360.46 188.898C361.224 188.901 362.021 189.014 362.23 189.149C363.148 189.742 365.16 193.817 365.398 195.566C365.775 198.338 367.337 199.06 369.326 197.383C370.725 196.204 370.722 194.437 369.315 191.425C368.278 189.204 368.278 189.204 369.232 187.827C369.757 187.069 370.678 185.711 371.28 184.81C372.455 183.049 373.898 182.212 375.76 182.209C376.362 182.209 377.335 181.915 377.921 181.556C380.348 180.074 387.053 170.399 387.875 167.193C388.278 165.624 389.025 164.954 389.025 166.162C389.025 167.152 389.949 168.846 390.489 168.846C390.735 168.846 391.331 168.535 391.814 168.154C392.777 167.395 392.986 165.799 392.363 163.968C392.182 163.435 391.891 161.974 391.718 160.721C391.377 158.256 390.963 157.487 389.978 157.487C389.63 157.487 388.502 157.035 387.471 156.484C386.257 155.835 385.111 155.482 384.217 155.482C382.445 155.482 381.356 154.729 381.356 153.505C381.356 152.555 382.503 151.007 387.337 145.429C390.667 141.588 390.528 141.658 395.348 141.393C397.647 141.267 400.14 141.061 400.888 140.936C401.935 140.761 402.563 140.87 403.625 141.413C405.256 142.247 406.929 142.318 407.955 141.598C408.362 141.312 409.08 140.264 409.55 139.269C410.02 138.273 411.189 136.628 412.147 135.612C414.228 133.407 415.102 133.259 416.867 134.812C417.957 135.771 418.198 135.843 419.713 135.663C420.623 135.555 421.368 135.545 421.368 135.64C421.368 136.228 415.71 143.215 414.02 144.712C413.063 145.56 411.998 146.969 411.388 148.19C410.528 149.915 410.365 150.63 410.365 152.666C410.365 155.16 411.078 159.639 411.726 161.221C411.928 161.713 412.326 162.206 412.61 162.315C413.325 162.59 414.581 161.694 415.222 160.45C415.933 159.073 417.926 156.23 419.057 154.981C419.556 154.429 420.387 153.001 420.903 151.807C421.719 149.917 421.842 149.201 421.854 146.294C421.866 143.481 421.988 142.729 422.622 141.54C423.037 140.762 423.787 139.916 424.289 139.658C426.074 138.742 429.98 137.83 431.337 138.012C433.317 138.278 434.051 137.975 436.597 135.838C439.476 133.422 442.742 131.587 444.692 131.289C445.508 131.164 446.371 130.9 446.609 130.702C447.184 130.225 447.158 128.829 446.543 127.082C445.747 124.822 445.882 124.381 448.018 122.263C449.892 120.405 450.058 120.315 451.261 120.511C451.959 120.624 452.908 121.024 453.371 121.4C456.097 123.613 456.879 124.075 457.895 124.075C458.82 124.075 459.126 123.845 460.001 122.488C460.564 121.615 461.479 120.475 462.036 119.954C463.327 118.746 463.322 117.729 462.017 116.24C461.062 115.15 460.494 114.891 457.659 114.254C457.151 114.14 456.346 113.473 455.775 112.695C454.398 110.82 447.002 104.935 444.417 103.658C442.384 102.655 439.083 101.994 435.649 101.904C434.139 101.865 433.039 102.773 433.039 104.061C433.039 105.438 432.445 105.565 431.259 104.441C430.204 103.441 430.204 103.441 424.62 103.453C418.281 103.467 417.925 103.342 417.524 100.965C417.005 97.8876 414.025 96.2752 410.175 96.9882C406.695 97.633 406.037 97.5084 404.141 95.8465C403.2 95.0219 402.037 93.6751 401.557 92.8539C400.632 91.2722 399.405 90.6698 397.1 90.6661C396.498 90.6651 395.294 90.3036 394.427 89.8626C389.662 87.4433 386.684 88.2168 385.537 92.1726C385.222 93.2572 384.743 94.1322 384.348 94.344C383.962 94.5509 381.846 94.6795 379.275 94.6521C374.865 94.6053 374.865 94.6053 373.98 95.6674C373.295 96.4894 372.879 96.7052 372.141 96.6203C370.629 96.4473 369.933 94.6371 369.863 90.7015C369.782 86.1339 369.33 85.5004 365.312 84.3217C362.347 83.452 361.808 83.6023 360.511 85.6605C359.111 87.8826 356.73 87.8636 354.131 85.6093C352.117 83.8626 351.492 83.6481 348.407 83.6464C346.337 83.6451 345.529 83.4847 344.205 82.8112C343.302 82.3524 342.214 81.9772 341.787 81.9772C340.624 81.9772 340.82 81.0778 342.287 79.6832C342.989 79.0156 344.077 77.6454 344.704 76.6391C345.742 74.9732 345.845 74.5813 345.845 72.2693C345.845 70.0287 345.727 69.5399 344.844 68.1176C343.314 65.6508 342.419 65.1366 339.409 64.9946C337.069 64.884 336.742 64.7801 335.717 63.8196C335.097 63.2399 334.24 61.9846 333.812 61.0301C332.699 58.5516 331.444 58.019 329.506 59.2035ZM-10.5999 60.5703C-12.3888 61.0027 -13.0167 61.5469 -15.4104 64.738C-18.0889 68.309 -18.3427 69.3003 -16.7852 70.1076C-15.7752 70.6311 -13.907 70.7781 -12.949 70.4099C-12.6519 70.2957 -12.1894 69.7761 -11.9207 69.2556C-11.5746 68.585 -11.0868 68.2435 -10.2502 68.0865C-9.6003 67.9642 -8.98643 67.9462 -8.88674 68.0464C-8.68534 68.2479 -9.41524 70.6004 -9.83437 71.1019C-9.98042 71.2766 -10.0998 71.9789 -10.0998 72.6632C-10.0998 74.3899 -8.84073 75.8352 -7.07618 76.1343C-5.58138 76.3872 -5.31496 76.611 -4.49703 78.302C-3.69278 79.9645 -2.55376 80.0156 -0.103325 78.5001C0.954666 77.8459 2.62652 77.1496 3.6125 76.9528C5.96756 76.4824 7.87049 75.6515 8.25961 74.9228C8.67974 74.1363 8.65574 72.5018 8.20927 71.5205C8.00954 71.0812 7.18295 70.3986 6.37269 70.0043C5.26768 69.466 4.71784 68.9131 4.17467 67.7928C2.77956 64.9155 1.40381 65.6198 1.40381 69.2115C1.40381 71.3885 1.37846 71.4557 0.518532 71.5553C-0.170021 71.6351 -0.572479 71.3882 -1.2897 70.446C-2.49908 68.8573 -4.93684 67.1978 -6.41797 66.9549C-7.599 66.7611 -7.59901 66.7611 -7.59901 64.1503C-7.59901 61.8095 -7.68036 61.4731 -8.38625 60.8994C-8.81905 60.5476 -9.26919 60.2753 -9.38656 60.294C-9.50359 60.3131 -10.0498 60.4373 -10.5999 60.5703ZM273.822 64.0006C273.455 64.2091 272.428 65.0297 271.54 65.8242C270.013 67.1887 269.408 67.4627 266.134 68.2703C262.984 69.0471 257.817 73.9158 256.797 77.0671C256.488 78.022 255.811 79.6301 255.292 80.6408C254.773 81.6515 254.058 83.3053 253.704 84.316C252.835 86.7931 251.395 90.2976 250.8 91.3838C249.881 93.0627 250.168 94.18 252.065 96.3176C253.148 97.5375 254.354 98.5081 255.226 98.8629C256.54 99.3975 256.694 99.3988 257.477 98.885C258.523 98.1984 258.523 97.8171 257.484 95.3417C257.024 94.2461 256.65 92.7025 256.65 91.896C256.65 90.0457 257.638 87.1516 259.103 84.7102C259.729 83.6665 260.564 82.1687 260.959 81.3815C261.887 79.5318 265.093 75.3524 266.36 74.3421C266.902 73.9097 268.728 72.8062 270.417 71.889C274.173 69.851 275.521 68.851 276.35 67.4881C277.196 66.0989 277.155 65.4069 276.171 64.4213C275.268 63.5159 274.817 63.435 273.822 64.0006ZM382.886 70.45C380.629 72.8904 382.056 77.6338 385.047 77.6338C386.844 77.6338 390.803 76.6124 392.416 75.733C395.16 74.2365 394.927 72.4831 391.793 71.0454C390.78 70.5803 389.255 70.157 388.404 70.1042C387.553 70.0518 386.155 69.9017 385.296 69.7708C383.871 69.5539 383.66 69.6134 382.886 70.45ZM397.174 74.1069C396.574 74.5539 396.564 74.6568 397.037 75.5268C397.789 76.9067 399.729 77.868 400.921 77.45C401.568 77.2231 401.893 76.8559 401.961 76.2736C402.077 75.2863 401.356 74.5532 399.729 74.006C398.263 73.5125 397.955 73.5248 397.174 74.1069ZM-19.6861 79.6348C-20.6911 80.2489 -20.7698 80.4266 -20.7698 82.0815C-20.7698 83.0631 -21.2283 85.5021 -21.7888 87.5021C-22.405 89.7006 -22.7261 91.4737 -22.601 91.9869C-22.2853 93.2832 -19.1319 96.3444 -18.1136 96.3427C-17.0323 96.341 -15.2964 95.2826 -14.5808 94.1883C-13.7469 92.913 -12.6989 93.0831 -11.8283 94.6354C-11.4279 95.3497 -11.1001 96.2592 -11.1001 96.6568C-11.1001 97.4967 -10.3499 99.0614 -9.67966 99.6187C-9.34355 99.8983 -9.22218 100.814 -9.24085 102.935C-9.26619 105.866 -9.26619 105.866 -10.1891 105.802C-10.6966 105.767 -12.3345 105.114 -13.8289 104.351C-16.5465 102.964 -16.5465 102.964 -19.4084 103.173C-22.3736 103.39 -22.3286 103.401 -24.736 101.814C-25.7703 101.132 -25.8977 101.123 -27.8767 101.598C-29.011 101.87 -30.6895 102.394 -31.6065 102.763C-32.5235 103.133 -34.1913 103.694 -35.313 104.011C-36.4347 104.328 -37.8084 104.913 -38.3656 105.311C-39.714 106.272 -40.3752 106.223 -42.1771 105.028C-43.0104 104.474 -44.5122 103.739 -45.5142 103.394C-46.5165 103.048 -47.7902 102.53 -48.3451 102.243C-48.8999 101.955 -50.6394 101.56 -52.2103 101.364C-53.7811 101.169 -55.7117 100.781 -56.5003 100.502C-57.2889 100.223 -58.8937 99.8586 -60.0664 99.6922C-61.2391 99.5258 -62.9676 99.0119 -63.9079 98.5502C-64.8479 98.0884 -66.6768 97.3851 -67.9719 96.9872C-70.3269 96.2632 -70.3269 96.2632 -72.64 97.3674C-75.0834 98.5338 -79.0073 101.107 -79.6989 101.997C-79.9246 102.287 -80.4354 103.184 -80.8339 103.99C-81.237 104.805 -81.9999 105.695 -82.5527 105.995C-86.0962 107.917 -86.0685 108.766 -82.3307 112.846C-80.7489 114.573 -79.4548 116.216 -79.4548 116.498C-79.4548 116.917 -79.8993 116.999 -81.8945 116.951C-84.0982 116.898 -84.4527 116.982 -85.5597 117.826C-87.1862 119.065 -87.3869 120.011 -86.4046 121.806C-85.3026 123.819 -83.8632 124.504 -81.2483 124.258C-79.5355 124.096 -79.0797 124.171 -78.4141 124.718C-77.6669 125.334 -77.6499 125.425 -78.121 126.31C-78.4408 126.911 -79.3728 127.613 -80.7045 128.257C-84.368 130.028 -85.5183 132.821 -84.1196 136.547C-83.4577 138.311 -83.2416 138.557 -81.8385 139.151C-80.9859 139.512 -79.6875 140.454 -78.9536 141.246C-77.8449 142.441 -77.3361 142.726 -75.9527 142.928C-73.6186 143.269 -72.786 143.879 -72.786 145.249C-72.786 146.335 -74.0007 148.41 -75.2311 149.425C-75.5369 149.677 -75.787 150.091 -75.787 150.344C-75.787 151.202 -74.6146 150.81 -72.6126 149.285C-69.7578 147.11 -68.2683 146.397 -66.8365 146.522C-65.6171 146.628 -65.6171 146.628 -65.6125 144.1C-65.6065 140.953 -64.9126 139.582 -63.5038 139.933C-61.2961 140.481 -60.815 140.481 -59.7426 139.932C-59.1224 139.614 -58.0518 138.848 -57.3635 138.23C-56.6753 137.612 -55.8828 137.106 -55.602 137.106C-55.3212 137.106 -54.3446 137.485 -53.4313 137.949C-52.518 138.412 -50.5431 139.025 -49.0423 139.311C-47.5415 139.596 -45.8556 140.063 -45.2954 140.348C-43.7473 141.136 -39.8227 144.433 -38.8391 145.773C-38.3586 146.427 -37.4083 147.586 -36.7271 148.349C-36.0459 149.111 -35.1806 150.34 -34.8045 151.079C-34.4264 151.822 -33.4851 152.849 -32.6968 153.379C-31.8899 153.922 -30.9466 154.96 -30.5198 155.776C-30.1054 156.567 -29.2614 157.84 -28.6439 158.603C-27.2158 160.371 -26.5573 161.678 -26.2555 163.345C-25.8917 165.356 -25.2945 166.293 -23.2816 168.016C-20.9448 170.017 -20.6184 171.077 -20.7634 176.197C-20.9568 183.03 -20.8201 187.35 -20.3713 188.596C-19.8652 190 -17.3817 194.61 -15.9349 196.831C-15.2831 197.832 -14.2381 198.784 -12.934 199.566C-11.2451 200.578 -10.7213 201.138 -9.57295 203.162C-8.82505 204.48 -7.66203 206.17 -6.98881 206.916C-6.31593 207.663 -5.7641 208.461 -5.7631 208.69C-5.75576 210.343 -4.96552 211.69 -3.26265 212.95C-2.27068 213.685 -1.3774 214.286 -1.27803 214.286C-1.17834 214.286 -1.09698 213.684 -1.09698 212.949C-1.09698 211.94 -0.9646 211.613 -0.556808 211.613C0.0663834 211.613 6.05492 217.789 7.12326 219.534C7.51805 220.179 7.94085 221.373 8.06255 222.188C8.47335 224.931 11.0141 226.811 17.9797 229.525C20.3077 230.432 21.3554 230.657 23.2533 230.657C25.7531 230.657 26.3663 230.867 28.2455 232.363C28.8874 232.874 30.5959 233.677 32.0424 234.148C35.4038 235.24 36.4758 235.938 37.9135 237.969C39.1329 239.691 40.9361 240.971 43.6583 242.046C45.6149 242.819 46.4489 242.853 46.71 242.171C46.911 241.647 46.7623 241.553 45.1825 241.207C44.6863 241.098 43.8611 240.458 43.3486 239.783C42.4783 238.639 42.4166 238.346 42.4166 235.359C42.4166 233.441 42.2526 231.874 42.0068 231.444C41.5003 230.558 39.9448 229.989 38.0322 229.989C37.0259 229.989 36.3771 229.784 35.9146 229.321C35.0877 228.492 35.0873 228.222 35.9103 225.592C36.7622 222.869 36.7495 222.126 35.8402 221.488C34.3171 220.419 32.5659 221.147 30.826 223.574C29.8887 224.881 29.3559 225.287 28.1218 225.633C25.1325 226.472 23.1656 225.422 21.5438 222.12C20.3927 219.778 20.3977 219.904 21.1803 213.209C21.4881 210.576 22.1416 209.7 24.7548 208.419C26.3116 207.656 26.7127 207.599 29.1255 207.8C31.3081 207.983 31.9837 207.918 32.912 207.437C34.9169 206.398 35.7755 206.3 38.3167 206.821C41.2099 207.413 42.1222 207.941 42.7297 209.374C42.9788 209.962 43.4506 211.093 43.7777 211.886C44.4606 213.543 45.9821 214.591 46.7623 213.942C47.6359 213.216 47.6309 212.27 46.738 209.229C45.3485 204.497 45.6656 203.733 50.7035 199.673C53.2057 197.656 53.9202 196.424 53.9202 194.125C53.9202 192.928 54.221 192.195 55.5364 190.189C57.3029 187.495 57.8218 186.958 60.1502 185.415C61.3635 184.611 61.8253 184.04 62.2328 182.837C62.905 180.853 63.3632 180.332 65.3084 179.345C67.169 178.4 68.1513 178.331 69.2046 179.07C70.243 179.799 71.6698 179.482 74.0418 177.995C76.4029 176.515 76.5166 175.609 74.4266 174.926C73.6931 174.686 72.6801 174.094 72.1759 173.61C71.3553 172.823 71.259 172.497 71.259 170.506C71.259 168.706 71.1319 168.166 70.5921 167.677C69.4921 166.68 69.7818 166.398 71.6754 166.622C73.6314 166.854 77.6403 165.919 79.4675 164.803C81.7379 163.418 82.3394 164.222 81.1124 167.002C80.1061 169.282 80.0017 171.026 80.8453 171.466C81.6029 171.861 85.4744 172.522 87.0296 172.522C87.9005 172.522 88.3413 172.333 88.5984 171.852C89.1576 170.805 88.4443 168.697 87.2209 167.78C86.6554 167.356 85.7428 166.562 85.193 166.017C84.281 165.113 84.2124 164.891 84.4131 163.511C85.1647 158.346 85.1963 158.519 83.0476 156.027C81.974 154.782 80.6222 153.47 80.044 153.112C78.3425 152.058 76.658 149.954 76.2725 148.401C75.8584 146.734 73.3773 141.381 72.485 140.229C71.5461 139.016 70.7298 139.251 69.392 141.117C68.0329 143.012 66.9846 143.455 65.7596 142.651C64.5435 141.852 64.0267 140.834 63.8046 138.797C63.6169 137.077 63.4772 136.852 61.1808 134.585C59.8467 133.268 58.4406 132.026 58.0565 131.824C57.672 131.623 56.0009 131.355 54.3423 131.23C51.3607 131.004 51.3207 131.011 50.7649 131.861C50.2651 132.626 50.2447 133.074 50.5815 135.899C50.8506 138.159 50.8582 139.443 50.6082 140.346C50.061 142.32 50.1804 143.359 51.1163 144.776C53.0349 147.681 52.7809 149.846 50.2081 152.521C48.5159 154.28 48.5159 154.28 48.7493 157.398C48.996 160.696 48.7656 161.496 47.5682 161.496C46.6386 161.496 45.6386 159.952 44.8837 157.35C43.7113 153.308 43.658 153.223 41.9655 152.625C39.0832 151.608 37.168 150.654 35.4901 149.4C34.5708 148.712 33.1274 147.904 32.2824 147.604C31.4375 147.303 30.3258 146.901 29.8117 146.711C29.2652 146.509 28.6176 145.855 28.2519 145.137C27.9081 144.461 27.0728 143.245 26.3963 142.433C25.2182 141.02 25.1736 140.875 25.3416 139.018C25.5727 136.467 27.3296 132.821 29.5316 130.325C30.4709 129.259 31.3965 128.094 31.5882 127.735C31.99 126.983 35.136 125.085 35.9893 125.081C36.3057 125.079 36.7925 125.52 37.0713 126.06C38.1159 128.084 39.7671 128.573 41.6584 127.418C42.2589 127.051 43.3176 126.75 44.0108 126.75C46.4099 126.747 46.0344 125.497 42.5397 121.856C41.2799 120.543 40.2493 119.259 40.2493 119.003C40.2493 118.747 41.2062 117.907 42.3756 117.136C44.7944 115.543 45.825 113.926 45.3709 112.437C45.2218 111.947 45.0945 110.193 45.0881 108.539C45.0815 106.885 44.9501 105.122 44.796 104.622C44.5566 103.843 44.6296 103.667 45.3002 103.406C46.5166 102.933 49.6329 102.433 50.2914 102.606C51.6228 102.954 55.1012 109.04 53.9689 109.04C53.2607 109.04 51.9196 110.735 51.9196 111.63C51.9196 113.715 53.7251 113.999 55.391 112.177C56.6804 110.767 57.613 110.829 58.2492 112.368C58.6767 113.402 58.4926 114.382 57.6234 115.698C57.3289 116.144 56.7878 117.344 56.421 118.363C55.7201 120.313 55.8271 120.236 52.6752 121.058C51.1007 121.469 50.4201 122.366 50.7336 123.617C51.0253 124.782 52.2444 125.145 54.2817 124.674C56.5174 124.157 57.5414 124.719 59.7647 127.685C61.0535 129.405 61.9224 130.179 63.5235 131.031C66.5918 132.664 67.2177 132.58 69.42 130.247C70.8702 128.71 71.259 128.07 71.259 127.217C71.259 125.764 70.2116 123.43 69.1003 122.405C67.9743 121.366 67.151 119.824 67.3897 119.201C67.7249 118.326 68.8815 118.714 69.9652 120.066C71.6741 122.197 73.0345 121.827 74.8904 118.73C76.1135 116.688 75.8677 115.757 73.5097 113.495C72.3636 112.395 70.9755 111.217 70.4254 110.877C69.8752 110.536 68.8625 109.728 68.1747 109.08C66.9293 107.907 66.9243 107.891 66.9243 105.196C66.9243 102.77 66.8219 102.327 65.937 100.929C65.3938 100.07 64.2308 98.8512 63.3528 98.2187C62.4745 97.5866 61.4029 96.5906 60.9718 96.0056C60.5363 95.4155 59.479 94.6471 58.596 94.2795C57.2422 93.7159 56.7324 93.2091 55.1833 90.8876C54.1816 89.3865 53.0953 87.4313 52.7692 86.5429C51.8682 84.0885 50.9129 83.6504 46.4565 83.6491C44.4606 83.6484 42.2606 83.8178 41.568 84.026C40.4593 84.3588 40.1893 84.3187 39.3106 83.6919C36.2317 81.4948 33.0837 84.6915 32.1751 90.9378C31.8156 93.4085 31.837 93.611 32.6396 95.3674C33.102 96.3798 33.5809 97.7446 33.7036 98.4008C33.9633 99.7864 34.5712 100.41 36.4024 101.168C37.1293 101.469 37.9772 101.945 38.2867 102.226C39.5434 103.365 39.3246 107.072 37.8749 109.205C36.7028 110.93 35.5811 110.66 35.5811 108.653C35.5811 107.811 33.8353 106.033 33.0087 106.033C32.6659 106.033 31.757 105.391 30.9884 104.607C29.8787 103.474 29.5199 102.803 29.2445 101.349C28.8424 99.2244 27.9421 96.7065 26.721 94.2919C25.6127 92.1001 25.7918 91.4376 28.1252 89.0998C29.9737 87.2475 31.2251 85.1132 31.2391 83.7894C31.2548 82.321 28.2182 80.7076 26.2529 81.1403C24.5947 81.5051 23.2223 83.5696 22.7538 86.4042C22.6401 87.0935 22.4337 87.6571 22.2953 87.6571C21.6998 87.6571 21.2433 86.7654 21.2433 85.6013C21.2433 82.736 19.6932 81.5345 17.2564 82.5115C15.7696 83.1078 14.908 84.4209 14.908 86.0911C14.908 86.5278 14.6116 87.1539 14.2498 87.4824C13.3429 88.3046 13.1298 89.1626 13.6086 90.0667C14.2435 91.2669 17.5499 94.8138 18.2907 95.0898C18.7152 95.2478 19.5621 95.0788 20.6115 94.6264C21.5204 94.2348 22.3397 93.9899 22.432 94.0828C22.5244 94.1753 22.4487 94.91 22.2633 95.7152C22.0783 96.5204 21.9229 98.4997 21.9182 100.113C21.9115 102.614 21.8242 103.073 21.3267 103.222C19.9959 103.621 19.0633 104.264 18.5902 105.108C18.1374 105.917 18.1457 106.161 18.6762 107.595C19.2444 109.131 19.243 109.215 18.6355 110.03C17.3114 111.807 12.5736 111.524 10.4376 109.541C9.34995 108.531 9.44432 107.973 10.7674 107.587C12.8444 106.982 13.3469 106.55 13.9377 104.864C14.932 102.025 14.8123 101.532 12.6146 99.4082C11.2265 98.0667 10.589 97.172 10.43 96.344C10.3069 95.7009 9.88313 93.7807 9.48866 92.0771C8.87048 89.4075 8.82679 88.7724 9.17223 87.4784C9.72073 85.4239 9.67872 84.8492 8.93015 84.1707C8.00487 83.3317 7.27264 83.6982 4.94558 86.1633C2.93262 88.2959 2.88094 88.3253 1.13139 88.3253C-1.8442 88.3253 -4.05556 87.4703 -5.7651 85.6591C-6.59035 84.7848 -7.72038 83.4106 -8.27621 82.6057C-9.17083 81.3103 -9.51594 81.0888 -11.2772 80.6795C-12.3718 80.4253 -13.9703 79.9368 -14.8296 79.5937C-16.8362 78.7928 -18.3287 78.8055 -19.6861 79.6348ZM387.914 82.8683C387.522 83.2599 387.675 84.478 388.21 85.2438C389.095 86.5101 391.359 86.0768 391.359 84.6414C391.359 83.3999 388.732 82.0477 387.914 82.8683ZM447.784 95.1937C446.019 96.4326 447.403 98.3885 449.544 97.6805C450.919 97.2254 451.336 96.2187 450.522 95.3176C449.819 94.5388 448.784 94.4917 447.784 95.1937ZM24.8995 106.011C25.6484 107.413 24.9765 109.374 23.7471 109.374C23.2503 109.374 23.1896 109.176 23.3633 108.121C23.477 107.433 23.5717 106.53 23.5737 106.117C23.5784 105.188 24.424 105.121 24.8995 106.011ZM3.58449 108.92C3.79155 109.127 3.91092 109.653 3.84956 110.088C3.74287 110.842 3.58115 110.889 0.236771 111.126C-1.68883 111.263 -3.59975 111.299 -4.00954 111.205C-4.85081 111.013 -5.36597 109.599 -4.83014 108.952C-4.377 108.406 3.04298 108.377 3.58449 108.92ZM141.626 118.138C139.35 118.681 138.603 118.739 137.768 118.437C136.115 117.838 135.307 117.969 134.881 118.905C134.572 119.585 134.606 119.979 135.055 120.921C135.361 121.566 135.614 122.276 135.616 122.5C135.617 122.723 135.976 123.674 136.412 124.612C137.045 125.974 137.502 126.463 138.681 127.034C141.129 128.222 142.713 128.016 145.796 126.11C150.114 123.441 150.74 121.241 148.013 118.312C146.968 117.189 145.741 117.156 141.626 118.138ZM228.199 118.054C229.084 118.233 230.371 118.465 231.059 118.57C232.151 118.736 232.309 118.875 232.304 119.663C232.295 121.421 231.601 122.211 229.847 122.463C228.779 122.616 228.073 122.927 227.753 123.385C226.681 124.917 225.116 123.713 224.619 120.974C224.022 117.679 224.486 117.301 228.199 118.054ZM208.486 120.881C208.972 121.624 208.973 121.794 208.495 122.804C208.206 123.413 207.142 124.863 206.129 126.026C203.328 129.245 203.178 129.657 203.448 133.41C203.706 136.994 204.026 137.696 206.004 139.007C207.236 139.824 207.337 139.998 207.123 140.928C206.994 141.49 206.869 142.846 206.845 143.941C206.802 145.883 206.777 145.936 205.772 146.142C205.206 146.259 204.553 146.472 204.321 146.616C203.683 147.01 202.967 148.963 202.967 150.309C202.967 152.855 201.557 154.068 198.59 154.074C197.925 154.076 196.418 154.403 195.242 154.801C193.102 155.525 193.102 155.525 191.449 154.874C190.34 154.438 189.796 154.03 189.796 153.636C189.796 153.026 189.932 152.929 192.118 151.985C193.723 151.293 195.843 149.653 196.342 148.717C196.544 148.34 196.828 147.07 196.973 145.895C197.176 144.256 197.516 143.353 198.435 142.016C199.094 141.058 199.632 139.952 199.632 139.559C199.632 139.166 199.179 137.981 198.626 136.926C197.82 135.391 197.662 134.768 197.837 133.802C198.259 131.464 199.059 130.06 200.957 128.328C203.159 126.318 203.491 125.777 204.004 123.378C204.217 122.383 204.715 121.291 205.158 120.847C206.216 119.786 207.781 119.802 208.486 120.881ZM213.47 138.943C213.47 139.431 213.211 139.641 212.512 139.721C211.188 139.873 210.593 139.22 211.467 138.574C212.376 137.902 213.47 138.104 213.47 138.943ZM38.1493 170.58C39.0506 171.429 39.2083 173.34 38.403 173.65C37.7405 173.904 33.07 172.334 33.1137 171.871C33.132 171.678 33.1694 171.367 33.1971 171.18C33.2248 170.994 33.7346 170.537 34.3307 170.165C35.6195 169.361 37.0149 169.512 38.1493 170.58ZM250.907 174.044C251.315 174.33 251.649 174.697 251.649 174.859C251.649 175.021 251.048 175.849 250.315 176.698C249.581 177.547 248.981 178.588 248.981 179.01C248.981 179.863 250.133 181.71 251.875 183.651C252.933 184.831 253 185.036 252.789 186.447C252.654 187.349 252.733 188.688 252.983 189.733C253.216 190.703 253.315 191.86 253.203 192.305C252.745 194.135 249.95 194.344 247.995 192.696C246.996 191.854 246.989 191.822 247.068 188.783C247.145 185.804 247.117 185.675 246.05 184.136C244.738 182.242 243.98 180.218 243.98 178.609C243.98 177.66 244.251 177.171 245.372 176.102C246.639 174.894 248.968 173.55 249.824 173.531C250.012 173.527 250.5 173.758 250.907 174.044ZM228.242 176.137C228.342 177.857 228.353 177.871 231.16 180.221C233.515 182.192 233.976 182.738 233.976 183.555C233.976 184.299 233.742 184.654 232.993 185.042C231.548 185.791 230.012 185.672 226.641 184.55C224.985 183.998 223.369 183.55 223.051 183.554C222.733 183.558 221.423 183.934 220.139 184.388C216.171 185.794 214.304 185.329 214.304 182.936C214.304 181.344 216.434 177.114 217.872 175.848C219.283 174.607 220.012 174.75 221.582 176.576C222.339 177.457 222.966 177.867 223.556 177.867C224.513 177.867 225.641 177.018 225.641 176.297C225.641 175.653 227.237 174.113 227.734 174.277C227.966 174.354 228.185 175.155 228.242 176.137ZM45.5199 177.25C45.5916 177.87 45.3935 178.297 44.8624 178.67C44.4442 178.964 43.9888 179.204 43.8507 179.204C43.3119 179.204 42.5337 177.548 42.7507 176.863C42.9328 176.289 43.1972 176.178 44.1955 176.262C45.2385 176.349 45.4326 176.494 45.5199 177.25ZM193.485 178.913C194.023 179.488 195.517 180.746 196.804 181.709C199.726 183.894 199.851 184.049 200.295 186.036C200.495 186.93 201.216 188.554 201.896 189.644C204.439 193.719 205.265 194.275 206.676 192.861C207.276 192.259 207.354 191.896 207.187 190.48C206.887 187.945 207.999 186.536 209.767 187.209C210.419 187.458 210.734 187.966 211.161 189.464C211.923 192.14 212.948 193.875 214.133 194.495C215.193 195.05 219.35 195.615 222.963 195.695C224.967 195.739 225.142 195.804 225.427 196.612C225.829 197.747 224.614 201.863 223.494 203.165C222.751 204.029 222.533 204.09 220.442 204.023C219.203 203.984 217.529 204.099 216.723 204.281C215.023 204.662 211.137 203.877 207.599 202.436C204.234 201.066 202.898 201.321 201.457 203.608C200.756 204.721 200.447 204.93 199.502 204.93C198.09 204.93 196.21 204.153 194.662 202.927C194.003 202.406 192.381 201.661 191.058 201.272C188.111 200.407 187.632 199.825 187.618 197.088C187.599 193.421 186.965 193.164 179.392 193.749C174.59 194.12 173.342 194.332 171.568 195.077C168.123 196.524 166.745 196.887 165.728 196.614C164.209 196.207 164.524 195.275 166.424 194.552C168.447 193.782 169.703 192.609 170.451 190.79C170.766 190.022 171.224 188.921 171.469 188.343C171.713 187.766 172.608 186.713 173.457 186.005C174.305 185.296 175.314 184.19 175.697 183.547C176.696 181.872 177.227 181.543 178.94 181.539C179.862 181.537 181.176 181.202 182.282 180.686C184.464 179.669 185.332 179.806 186.369 181.332C187.123 182.443 190.535 185.552 190.999 185.552C191.132 185.552 192.248 186.379 193.478 187.39C194.709 188.4 195.93 189.227 196.191 189.227C196.894 189.227 197.728 187.025 197.317 186.255C197.136 185.915 196.055 184.829 194.916 183.841C192.774 181.982 190.963 179.522 190.963 178.47C190.963 177.49 192.386 177.74 193.485 178.913ZM389.286 178.452C387.909 180.035 387.212 182.351 387.905 183.046C388.834 183.976 391.848 183.477 393.246 182.161C394.65 180.839 394.178 179.619 391.792 178.409C390.431 177.718 389.917 177.727 389.286 178.452ZM386.892 186.638C386.628 187.051 386.237 188.052 386.024 188.863C385.466 190.983 384.946 191.63 382.081 193.771C379.609 195.619 378.253 196.307 376.228 196.741C374.803 197.045 371.353 200.466 371.353 201.573C371.353 203.312 372.892 203.848 373.818 202.432C374.498 201.391 375.784 200.719 378.255 200.112C380.765 199.495 385.535 197.759 386.548 197.094C387.07 196.751 387.522 195.919 387.875 194.654C388.169 193.599 388.704 191.853 389.064 190.775C389.603 189.16 389.652 188.615 389.345 187.682C389.026 186.715 388.2 185.886 387.554 185.886C387.454 185.886 387.157 186.224 386.892 186.638ZM249.278 209.269C250.886 211.18 252.794 212.399 255.066 212.967C256.016 213.204 256.65 213.551 256.65 213.831C256.65 214.518 253.682 216.29 252.533 216.29C251.436 216.29 249.987 214.926 247.435 211.492C245.578 208.994 245.477 207.603 247.151 207.603C247.612 207.603 248.388 208.211 249.278 209.269ZM225.547 212.364C227.059 214.015 230.102 218.893 230.694 220.619C231.04 221.625 231.673 222.83 232.101 223.296C234.291 225.68 236.389 229.628 236.246 231.099C236.02 233.436 233.036 232.073 231.431 228.899C230.954 227.955 230.195 226.625 229.746 225.944C229.296 225.264 228.703 223.827 228.428 222.754C228.153 221.679 227.582 220.268 227.158 219.616C225.957 217.768 223.877 212.681 224.092 212.118C224.359 211.42 224.74 211.484 225.547 212.364ZM47.7319 220.105C48.0881 220.396 48.5225 220.634 48.6976 220.634C48.873 220.634 49.7486 221.32 50.6438 222.159C52.3891 223.795 53.7535 224.083 53.7535 222.816C53.7535 222.042 51.7482 220.806 49.7522 220.351C49.0187 220.184 48.1184 219.941 47.7516 219.812C47.0941 219.58 47.0938 219.584 47.7319 220.105ZM59.3386 224.196C59.1095 224.289 58.9218 224.798 58.9218 225.327C58.9218 226.83 60.5743 227.431 62.4072 226.594C63.4365 226.124 63.5532 224.826 62.6116 224.321C61.9504 223.966 60.0831 223.895 59.3386 224.196ZM356.518 227.313C356.185 227.68 355.851 228.687 355.769 229.568C355.65 230.849 355.776 231.386 356.415 232.328C357.591 234.061 358.094 233.843 358.733 231.325C359.446 228.512 359.462 227.811 358.825 227.173C358.114 226.46 357.24 226.513 356.518 227.313ZM57.9021 236.972C56.4173 237.451 55.4654 238.059 53.8435 239.565C52.9762 240.37 51.8232 241.117 51.2807 241.226C49.951 241.493 49.8576 241.928 50.6098 244.35C51.7582 248.048 51.4764 249.317 48.8053 252.476C46.7683 254.885 46.3725 255.821 46.0941 258.89C45.6553 263.724 45.6596 263.752 47.1351 265.744C47.8817 266.752 49.7039 269.907 51.1847 272.755C53.9279 278.032 54.7295 279.075 57.0879 280.433C62.4095 283.499 62.7413 284.364 61.9007 292.994C61.705 295.002 61.2548 298.096 60.9004 299.871C60.5456 301.645 60.2555 304.156 60.2555 305.451C60.2555 308.436 59.7937 310.579 58.3372 314.352C57.1766 317.359 57.1766 317.359 57.1072 324.375C57.0399 331.225 57.0172 331.435 56.1492 333.229C55.4907 334.591 55.2596 335.587 55.2573 337.074C55.2553 338.178 55.1052 339.601 54.9232 340.236C54.4617 341.849 55.0289 345.029 56.4953 349.049C57.7147 352.39 57.9271 352.682 61.0234 355.273C63.1774 357.075 63.7446 357.343 65.4578 357.369C67.07 357.393 68.258 356.621 68.258 355.549C68.258 355.202 67.6682 354.135 66.9476 353.178C65.2671 350.948 64.9236 350.002 64.9236 347.604C64.9236 345.758 65.0427 345.471 67.091 342.379C68.283 340.581 69.2583 338.889 69.2583 338.621C69.2583 338.352 68.8669 337.464 68.3884 336.645C67.4004 334.956 67.5004 334.451 69.2133 332.497C70.3813 331.164 71.5924 328.299 71.5924 326.869C71.5924 326.324 71.8551 325.66 72.1759 325.392C72.9375 324.756 74.648 323.023 76.0648 321.452C76.7077 320.739 77.5049 320.199 77.916 320.199C78.3128 320.199 79.3772 319.88 80.2808 319.491C82.3691 318.591 83.2627 317.226 83.2627 314.938C83.2627 313.01 83.5515 312.68 85.5251 312.354C87.3857 312.046 88.6401 310.951 90.2606 308.217C90.9855 306.995 92.3372 305.095 93.2645 303.996C95.2961 301.589 96.2668 299.68 96.2668 298.092C96.2668 295.591 99.1394 293.032 103.36 291.772C106.439 290.854 107.059 290.414 108.275 288.284C109.807 285.6 110.617 282.942 110.955 279.485C111.296 275.998 111.576 275.398 114.525 271.814C116.823 269.02 117.394 267.715 117.175 265.76C116.985 264.079 116.211 263.232 113.404 261.638C112.506 261.127 111.321 260.423 110.771 260.071C110.221 259.719 108.412 259.214 106.751 258.947C104.685 258.615 102.999 258.093 101.416 257.296C100.143 256.656 98.4881 256.029 97.7392 255.904C95.3355 255.501 94.4462 254.698 93.4182 252.003C91.81 247.785 89.556 246 85.2437 245.529C83.1177 245.296 82.8092 245.117 78.4285 241.566C76.6493 240.124 74.7847 238.827 74.2856 238.683C73.7864 238.54 72.3386 238.497 71.0682 238.588C69.177 238.723 68.305 238.599 66.2574 237.902C63.5896 236.995 59.3079 236.518 57.9021 236.972ZM322.807 240.853C322.644 241.5 322.779 241.982 323.303 242.631C324.396 243.981 324.971 245.45 325.212 247.505C325.483 249.816 325.13 249.898 322.333 248.168C318.823 245.997 317.907 247.385 320.6 250.793C321.505 251.939 323.306 254.467 324.602 256.412C327.923 261.397 331.031 264.054 333.555 264.066C334.133 264.069 334.341 263.226 334.341 260.881C334.341 258.839 334.292 258.712 333.158 257.818C331.063 256.165 330.649 255.149 330.574 251.474C330.493 247.561 329.975 246.418 327.533 244.77C326.568 244.118 325.5 242.985 324.878 241.952C323.655 239.922 323.112 239.633 322.807 240.853ZM361.181 241.686C360.633 242.748 360.812 243.473 361.944 244.773C363.063 246.059 365.684 244.829 365.684 243.019C365.684 242.701 365.373 242.045 364.993 241.561C364.458 240.879 364.009 240.68 363.001 240.68C361.892 240.68 361.624 240.829 361.181 241.686ZM348.788 246.262C343.995 249.951 342.834 250.779 341.567 251.416C339.49 252.461 338.674 253.339 338.683 254.521C338.693 255.8 340.23 258.636 341.343 259.429C342.415 260.192 347.81 261.122 348.855 260.724C349.347 260.536 350.192 259.375 351.209 257.489C352.691 254.739 352.799 254.371 352.859 251.873C352.894 250.403 353.039 248.631 353.181 247.934C353.399 246.862 353.32 246.542 352.668 245.846C351.606 244.713 350.67 244.814 348.788 246.262ZM374.27 256.076C373.377 256.598 373.572 257.811 374.77 259.187C375.536 260.065 376.883 260.898 379.355 262.02C382.856 263.61 382.856 263.61 383.564 265.426C384.192 267.04 384.471 267.344 386.065 268.15C388.837 269.555 389.76 269.634 391.495 268.615C393.637 267.357 394.868 267.464 396.82 269.08C398.386 270.377 399.765 270.78 400.204 270.068C400.322 269.877 399.786 268.441 399.013 266.877C396.813 262.428 394.368 260.688 387.046 258.363C383.394 257.203 383.094 257.206 380.073 258.435C378.981 258.879 378.933 258.863 377.905 257.673C376.916 256.528 375.738 255.703 375.126 255.725C374.976 255.731 374.591 255.889 374.27 256.076ZM355.039 256.93C354.176 258.029 354.129 260.048 354.942 261.055C355.737 262.039 357.909 262.17 358.789 261.288C359.301 260.775 359.374 260.378 359.189 259.107C358.864 256.868 358.242 256.05 356.865 256.05C356.036 256.05 355.543 256.287 355.039 256.93ZM334.352 264.653C334.396 265.698 336.191 266.741 337.946 266.741C338.669 266.741 339.8 266.967 340.458 267.242C342.122 267.939 344.635 267.91 344.91 267.19C345.047 266.832 344.839 266.408 344.321 265.987C343.66 265.45 343.141 265.362 341.348 265.48C339.732 265.585 338.835 265.468 337.842 265.019C336.501 264.414 334.332 264.186 334.352 264.653ZM372.677 273.654C372.224 273.964 371.713 274.453 371.542 274.74C371.371 275.026 370.815 275.679 370.306 276.19C369.429 277.073 369.273 277.109 367.254 276.902C365.126 276.683 365.126 276.683 361.904 279.633C360.132 281.255 358.682 282.696 358.682 282.836C358.682 282.975 358.217 283.62 357.648 284.269C356.818 285.217 356.014 285.637 353.557 286.407C348.412 288.018 346.223 289.535 345.708 291.846C345.347 293.463 345.875 298.111 346.676 300.38C347.984 304.08 348.631 307.258 348.444 309.065C348.285 310.603 348.36 310.889 349.124 311.654C350.238 312.771 352.222 312.799 354.514 311.731C355.431 311.304 357.135 310.855 358.3 310.734C359.466 310.612 360.759 310.324 361.174 310.094C361.589 309.863 362.572 309.321 363.359 308.889C364.755 308.122 370.505 306.512 371.876 306.504C373.863 306.493 376.063 307.56 377.769 309.363C379.089 310.76 379.799 311.241 380.763 311.396C381.763 311.556 382.444 312.046 384.025 313.739C385.125 314.917 386.024 316.072 386.024 316.306C386.024 316.951 387.701 318.428 389.098 319.012C389.939 319.364 391.413 319.531 393.692 319.531C396.789 319.531 397.205 319.45 399.117 318.483C401.591 317.232 401.8 316.983 402.725 314.185C403.119 312.991 404.188 310.616 405.1 308.909C407.277 304.832 407.858 301.84 407.204 298.08C406.958 296.664 406.554 295.216 406.306 294.861C404.896 292.844 400.562 287.676 398.695 285.786C396.876 283.945 396.375 283.172 395.581 280.992C395.061 279.562 394.231 277.913 393.736 277.328C393.242 276.742 392.427 275.624 391.926 274.843C390.985 273.375 390.09 273.042 389.383 273.895C389.169 274.154 388.806 275.649 388.577 277.217C387.939 281.599 386.961 282.262 383.808 280.449C381.496 279.121 380.585 277.928 380.84 276.564C381.152 274.897 380.575 273.85 379.121 273.445C377.108 272.885 373.635 272.998 372.677 273.654ZM244.201 276.885C243.254 277.87 241.851 278.996 241.084 279.386C239.091 280.401 238.645 281.201 238.64 283.772C238.638 285.014 238.346 286.879 237.963 288.104C237.085 290.911 237.478 293.323 239.025 294.628C241.406 296.635 243.639 295.097 245.071 290.463C248.294 280.027 248.805 277.282 247.795 275.837C246.982 274.673 246.072 274.938 244.201 276.885ZM440.186 317.216C439.39 318.098 439.132 321.961 439.786 323.206C440.725 324.996 442.572 324.157 444.17 321.213C445.384 318.979 445.187 318.159 443.215 317.23C441.348 316.351 440.969 316.349 440.186 317.216ZM394.664 324.572C393.874 325.363 393.986 326.489 394.994 327.884C396.114 329.434 398.136 329.173 398.883 327.381C399.521 325.851 399.487 325.337 398.695 324.543C397.774 323.62 395.598 323.636 394.664 324.572ZM434.635 326.159C433.864 327.232 432.279 328.838 431.112 329.728C427.957 332.136 427.185 334.18 428.916 335.544C430.668 336.925 432.914 336.112 434.173 333.639C434.616 332.771 435.704 331.156 436.592 330.051C438.412 327.787 439.557 325.502 439.26 324.728C439.121 324.364 438.609 324.208 437.55 324.208C436.089 324.208 435.991 324.275 434.635 326.159Z" fill="url(#paint0_radial_35_2564)"/>
<defs>
<radialGradient id="paint0_radial_35_2564" cx="0" cy="0" r="1" gradientUnits="userSpaceOnUse" gradientTransform="translate(188 187.487) rotate(90) scale(213.824 329.421)">
<stop stop-color="#172053"/>
<stop offset="1" stop-color="#101741" stop-opacity="0"/>
</radialGradient>
</defs>
</svg>
