<svg width="32" height="32" viewBox="0 0 32 32" fill="none" xmlns="http://www.w3.org/2000/svg">
<g filter="url(#filter0_i_35_3052)">
<path d="M15.932 19.3863C20.5069 19.3863 24.4132 20.1116 24.4132 23.014C24.4132 25.9151 20.5319 26.6668 15.932 26.6668C11.357 26.6668 7.4507 25.9415 7.4507 23.0404C7.4507 20.138 11.332 19.3863 15.932 19.3863ZM23.2467 17.6387C24.9957 17.6062 26.876 17.8464 27.5709 18.0169C29.0429 18.3063 30.0112 18.8971 30.4123 19.7557C30.7514 20.4606 30.7514 21.2783 30.4123 21.982C29.7986 23.3137 27.8204 23.7412 27.0515 23.8517C26.8928 23.8757 26.765 23.7376 26.7817 23.5779C27.1745 19.8878 24.0502 18.1382 23.2419 17.7359C23.2073 17.7179 23.2001 17.6903 23.2037 17.6735C23.2061 17.6615 23.2204 17.6423 23.2467 17.6387ZM8.75405 17.6391C8.78032 17.6427 8.79345 17.662 8.79584 17.6728C8.79942 17.6908 8.79226 17.7172 8.75883 17.7364C7.94938 18.1387 4.82502 19.8883 5.21781 23.5771C5.23452 23.7381 5.10797 23.8749 4.94919 23.8521C4.18033 23.7417 2.20209 23.3142 1.58844 21.9825C1.24819 21.2776 1.24819 20.461 1.58844 19.7562C1.98958 18.8976 2.95662 18.3068 4.42866 18.0162C5.12469 17.8469 7.00384 17.6067 8.75405 17.6391ZM15.932 5.3335C19.0468 5.3335 21.5443 7.84319 21.5443 10.9773C21.5443 14.1102 19.0468 16.6223 15.932 16.6223C12.8172 16.6223 10.3196 14.1102 10.3196 10.9773C10.3196 7.84319 12.8172 5.3335 15.932 5.3335ZM23.5511 6.27469C26.5597 6.27469 28.9223 9.12181 28.1177 12.2931C27.5745 14.4282 25.6082 15.8463 23.4174 15.7887C23.1977 15.7827 22.9816 15.7623 22.7727 15.7263C22.6211 15.6998 22.5447 15.5281 22.6306 15.4008C23.4664 14.164 23.9427 12.6762 23.9427 11.0791C23.9427 9.4124 23.4222 7.85856 22.5184 6.5845C22.4898 6.54487 22.4683 6.48363 22.4969 6.438C22.5208 6.40078 22.565 6.38156 22.6068 6.37196C22.9112 6.30951 23.224 6.27469 23.5511 6.27469ZM8.44782 6.27457C8.77494 6.27457 9.08774 6.30939 9.39337 6.37184C9.43396 6.38144 9.47933 6.40186 9.50321 6.43788C9.53066 6.48351 9.51037 6.54475 9.48172 6.58438C8.57796 7.85844 8.05743 9.41228 8.05743 11.079C8.05743 12.6761 8.53378 14.1639 9.36949 15.4007C9.45545 15.528 9.37904 15.6997 9.22742 15.7261C9.0173 15.7634 8.8024 15.7826 8.58273 15.7886C6.39198 15.8462 4.42567 14.4281 3.88246 12.293C3.0766 9.12169 5.43927 6.27457 8.44782 6.27457Z" fill="url(#paint0_radial_35_3052)"/>
</g>
<defs>
<filter id="filter0_i_35_3052" x="1.33325" y="5.3335" width="29.3333" height="24.3335" filterUnits="userSpaceOnUse" color-interpolation-filters="sRGB">
<feFlood flood-opacity="0" result="BackgroundImageFix"/>
<feBlend mode="normal" in="SourceGraphic" in2="BackgroundImageFix" result="shape"/>
<feColorMatrix in="SourceAlpha" type="matrix" values="0 0 0 0 0 0 0 0 0 0 0 0 0 0 0 0 0 0 127 0" result="hardAlpha"/>
<feOffset dy="3"/>
<feGaussianBlur stdDeviation="5.5"/>
<feComposite in2="hardAlpha" operator="arithmetic" k2="-1" k3="1"/>
<feColorMatrix type="matrix" values="0 0 0 0 0.191667 0 0 0 0 0.708366 0 0 0 0 1 0 0 0 1 0"/>
<feBlend mode="normal" in2="shape" result="effect1_innerShadow_35_3052"/>
</filter>
<radialGradient id="paint0_radial_35_3052" cx="0" cy="0" r="1" gradientUnits="userSpaceOnUse" gradientTransform="translate(11.4999 18.0378) rotate(-34.3151) scale(38.1379 38.1379)">
<stop stop-color="#00A3FF"/>
<stop offset="1" stop-color="#6B40EA"/>
</radialGradient>
</defs>
</svg>
