<svg width="32" height="32" viewBox="0 0 32 32" fill="none" xmlns="http://www.w3.org/2000/svg">
<g filter="url(#filter0_i_35_3057)">
<path d="M15.9999 20.2317C21.7848 20.2317 26.6666 21.1718 26.6666 24.7985C26.6666 28.4265 21.7527 29.3332 15.9999 29.3332C10.2164 29.3332 5.33325 28.3932 5.33325 24.7665C5.33325 21.1384 10.2471 20.2317 15.9999 20.2317ZM15.9999 2.6665C19.9187 2.6665 23.0586 5.8052 23.0586 9.72124C23.0586 13.6373 19.9187 16.7773 15.9999 16.7773C12.0824 16.7773 8.94127 13.6373 8.94127 9.72124C8.94127 5.8052 12.0824 2.6665 15.9999 2.6665Z" fill="url(#paint0_radial_35_3057)"/>
</g>
<defs>
<filter id="filter0_i_35_3057" x="5.33325" y="2.6665" width="21.3333" height="29.6665" filterUnits="userSpaceOnUse" color-interpolation-filters="sRGB">
<feFlood flood-opacity="0" result="BackgroundImageFix"/>
<feBlend mode="normal" in="SourceGraphic" in2="BackgroundImageFix" result="shape"/>
<feColorMatrix in="SourceAlpha" type="matrix" values="0 0 0 0 0 0 0 0 0 0 0 0 0 0 0 0 0 0 127 0" result="hardAlpha"/>
<feOffset dy="3"/>
<feGaussianBlur stdDeviation="5.5"/>
<feComposite in2="hardAlpha" operator="arithmetic" k2="-1" k3="1"/>
<feColorMatrix type="matrix" values="0 0 0 0 0.191667 0 0 0 0 0.708366 0 0 0 0 1 0 0 0 1 0"/>
<feBlend mode="normal" in2="shape" result="effect1_innerShadow_35_3057"/>
</filter>
<radialGradient id="paint0_radial_35_3057" cx="0" cy="0" r="1" gradientUnits="userSpaceOnUse" gradientTransform="translate(12.4999 15.5374) rotate(-45.8886) scale(33.2393)">
<stop stop-color="#00A3FF"/>
<stop offset="1" stop-color="#6B40EA"/>
</radialGradient>
</defs>
</svg>
