<svg width="33" height="32" viewBox="0 0 33 32" fill="none" xmlns="http://www.w3.org/2000/svg">
<g filter="url(#filter0_i_35_3107)">
<path d="M13.6537 3.84798C15.2142 2.27598 17.7618 2.27598 19.3357 3.83598L20.3094 4.80798C20.6829 5.18132 21.1897 5.39598 21.7232 5.39598H23.0971C25.3112 5.39598 27.1119 7.19465 27.1119 9.40799V10.7827C27.1119 11.3147 27.3253 11.8213 27.6987 12.1947L28.6591 13.1547C29.4194 13.9013 29.8329 14.9147 29.8329 15.9813C29.8462 17.048 29.4327 18.0627 28.6858 18.8213L27.6987 19.808C27.3253 20.1813 27.1119 20.688 27.1119 21.2227V22.5947C27.1119 24.808 25.3112 26.6093 23.0971 26.6093H21.7232C21.1897 26.6093 20.6829 26.8213 20.3094 27.1947L19.3491 28.1547C18.5621 28.9427 17.5351 29.328 16.508 29.328C15.481 29.328 14.4539 28.9427 13.667 28.1693L12.6933 27.1947C12.3198 26.8213 11.813 26.6093 11.2795 26.6093H9.90563C7.6915 26.6093 5.89085 24.808 5.89085 22.5947V21.2227C5.89085 20.688 5.67744 20.1813 5.30397 19.7947L4.34362 18.848C2.78305 17.2893 2.76971 14.7413 4.33028 13.1693L5.30397 12.1947C5.67744 11.8213 5.89085 11.3147 5.89085 10.768V9.40799C5.89085 7.19465 7.6915 5.39598 9.90563 5.39598H11.2795C11.813 5.39598 12.3198 5.18132 12.6933 4.80798L13.6537 3.84798ZM19.9359 18.2613C19.2824 18.2613 18.7622 18.7827 18.7622 19.4213C18.7622 20.0747 19.2824 20.5947 19.9359 20.5947C20.5762 20.5947 21.0964 20.0747 21.0964 19.4213C21.0964 18.7827 20.5762 18.2613 19.9359 18.2613ZM20.7496 11.7413C20.2961 11.2893 19.5625 11.2893 19.109 11.7413L12.2532 18.5947C11.7997 19.048 11.7997 19.7947 12.2532 20.248C12.4666 20.4747 12.76 20.5947 13.0668 20.5947C13.3869 20.5947 13.6803 20.4747 13.8937 20.248L20.7496 13.396C21.2031 12.9427 21.2031 12.1947 20.7496 11.7413ZM13.0801 11.408C12.4399 11.408 11.9064 11.928 11.9064 12.568C11.9064 13.2227 12.4399 13.7413 13.0801 13.7413C13.7204 13.7413 14.2405 13.2227 14.2405 12.568C14.2405 11.928 13.7204 11.408 13.0801 11.408Z" fill="url(#paint0_radial_35_3107)"/>
</g>
<defs>
<filter id="filter0_i_35_3107" x="3.1665" y="2.66748" width="26.6667" height="29.6606" filterUnits="userSpaceOnUse" color-interpolation-filters="sRGB">
<feFlood flood-opacity="0" result="BackgroundImageFix"/>
<feBlend mode="normal" in="SourceGraphic" in2="BackgroundImageFix" result="shape"/>
<feColorMatrix in="SourceAlpha" type="matrix" values="0 0 0 0 0 0 0 0 0 0 0 0 0 0 0 0 0 0 127 0" result="hardAlpha"/>
<feOffset dy="3"/>
<feGaussianBlur stdDeviation="5.5"/>
<feComposite in2="hardAlpha" operator="arithmetic" k2="-1" k3="1"/>
<feColorMatrix type="matrix" values="0 0 0 0 0.191667 0 0 0 0 0.708366 0 0 0 0 1 0 0 0 1 0"/>
<feBlend mode="normal" in2="shape" result="effect1_innerShadow_35_3107"/>
</filter>
<radialGradient id="paint0_radial_35_3107" cx="0" cy="0" r="1" gradientUnits="userSpaceOnUse" gradientTransform="translate(12 18.0376) rotate(-18.435) scale(23.7171)">
<stop stop-color="#00A3FF"/>
<stop offset="1" stop-color="#6B40EA"/>
</radialGradient>
</defs>
</svg>
