<svg width="16" height="16" viewBox="0 0 16 16" fill="none" xmlns="http://www.w3.org/2000/svg">
<path d="M2.57143 2C1.88944 2 1.23539 2.27092 0.753154 2.75315C0.270918 3.23539 0 3.88944 0 4.57143V5.42857H16V4.57143C16 3.88944 15.7291 3.23539 15.2468 2.75315C14.7646 2.27092 14.1106 2 13.4286 2H2.57143ZM0 12V6.57143H16V12C16 12.682 15.7291 13.336 15.2468 13.8183C14.7646 14.3005 14.1106 14.5714 13.4286 14.5714H2.57143C1.88944 14.5714 1.23539 14.3005 0.753154 13.8183C0.270918 13.336 0 12.682 0 12ZM10.8571 10C10.7056 10 10.5602 10.0602 10.4531 10.1674C10.3459 10.2745 10.2857 10.4199 10.2857 10.5714C10.2857 10.723 10.3459 10.8683 10.4531 10.9755C10.5602 11.0827 10.7056 11.1429 10.8571 11.1429H12.5714C12.723 11.1429 12.8683 11.0827 12.9755 10.9755C13.0827 10.8683 13.1429 10.723 13.1429 10.5714C13.1429 10.4199 13.0827 10.2745 12.9755 10.1674C12.8683 10.0602 12.723 10 12.5714 10H10.8571Z" fill="#9EA8DD"/>
</svg>
