<svg width="16" height="16" viewBox="0 0 16 16" fill="none" xmlns="http://www.w3.org/2000/svg">
<g clip-path="url(#clip0_508_69)">
<path d="M8.00028 6.666C8.70743 6.666 9.38562 6.38508 9.88565 5.88505C10.3857 5.38502 10.6666 4.70683 10.6666 3.99968C10.6666 3.29253 10.3857 2.61435 9.88565 2.11432C9.38562 1.61429 8.70743 1.33337 8.00028 1.33337C7.29313 1.33337 6.61494 1.61429 6.11491 2.11432C5.61488 2.61435 5.33397 3.29253 5.33397 3.99968C5.33397 4.70683 5.61488 5.38502 6.11491 5.88505C6.61494 6.38508 7.29313 6.666 8.00028 6.666ZM4.4452 5.77723C4.4452 6.24866 4.25792 6.70078 3.92457 7.03414C3.59122 7.36749 3.13909 7.55477 2.66766 7.55477C2.19622 7.55477 1.7441 7.36749 1.41075 7.03414C1.07739 6.70078 0.890117 6.24866 0.890117 5.77723C0.890117 5.30579 1.07739 4.85367 1.41075 4.52031C1.7441 4.18696 2.19622 3.99968 2.66766 3.99968C3.13909 3.99968 3.59122 4.18696 3.92457 4.52031C4.25792 4.85367 4.4452 5.30579 4.4452 5.77723ZM0.436845 12.2884C0.285119 12.2021 0.171498 12.0618 0.118665 11.8955C-0.0379315 11.3883 -0.0395737 10.8459 0.113949 10.3378C0.267471 9.82966 0.56917 9.37891 0.98041 9.04328C1.39165 8.70764 1.89371 8.50239 2.42231 8.45381C2.9509 8.40524 3.48196 8.51554 3.94749 8.7706C2.99084 9.71071 2.39208 10.9551 2.25438 12.2892C2.23394 12.4866 2.24194 12.6821 2.2766 12.8705C1.62794 12.8144 0.999698 12.6156 0.436845 12.2884ZM13.724 12.8696C14.3726 12.8138 15.0008 12.6153 15.5637 12.2884C15.7151 12.202 15.8284 12.0617 15.881 11.8955C16.0379 11.3883 16.0397 10.8457 15.8863 10.3374C15.7329 9.82914 15.4312 9.37821 15.0199 9.04244C14.6086 8.70667 14.1064 8.50133 13.5777 8.45274C13.049 8.40415 12.5178 8.51452 12.0522 8.76971C13.0097 9.70979 13.6091 10.9545 13.7471 12.2892C13.7669 12.4831 13.7591 12.6788 13.724 12.8705V12.8696ZM15.1104 5.77723C15.1104 6.24866 14.9232 6.70078 14.5898 7.03414C14.2565 7.36749 13.8043 7.55477 13.3329 7.55477C12.8615 7.55477 12.4093 7.36749 12.076 7.03414C11.7426 6.70078 11.5554 6.24866 11.5554 5.77723C11.5554 5.30579 11.7426 4.85367 12.076 4.52031C12.4093 4.18696 12.8615 3.99968 13.3329 3.99968C13.8043 3.99968 14.2565 4.18696 14.5898 4.52031C14.9232 4.85367 15.1104 5.30579 15.1104 5.77723ZM3.82661 13.0563C3.73896 12.9778 3.67101 12.8797 3.62824 12.7701C3.58547 12.6605 3.56909 12.5423 3.58042 12.4252C3.69347 11.3316 4.20793 10.3187 5.02437 9.58227C5.84081 8.84588 6.90125 8.43829 8.00072 8.43829C9.1002 8.43829 10.1606 8.84588 10.9771 9.58227C11.7935 10.3187 12.308 11.3316 12.421 12.4252C12.4324 12.5424 12.4161 12.6605 12.3733 12.7701C12.3305 12.8798 12.2625 12.9778 12.1748 13.0563C11.0321 14.0934 9.54352 14.667 8.00028 14.6649C6.45732 14.6669 4.96912 14.0933 3.82661 13.0563Z" fill="#9EA8DD"/>
</g>
<defs>
<clipPath id="clip0_508_69">
<rect width="16" height="16" fill="white"/>
</clipPath>
</defs>
</svg>
