<svg width="16" height="16" viewBox="0 0 16 16" fill="none" xmlns="http://www.w3.org/2000/svg">
<g clip-path="url(#clip0_508_3)">
<path d="M0.842105 15.8246H15.1579C15.6211 15.8246 16 15.4456 16 14.9825V14.1404C16 13.6772 15.6211 13.2983 15.1579 13.2983H0.842105C0.378947 13.2983 0 13.6772 0 14.1404V14.9825C0 15.4456 0.378947 15.8246 0.842105 15.8246ZM15.1579 4.87721H0.842105C0.378947 4.87721 0 5.25616 0 5.71932V10.7719C0 11.2351 0.378947 11.6141 0.842105 11.6141H15.1579C15.6211 11.6141 16 11.2351 16 10.7719V5.71932C16 5.25616 15.6211 4.87721 15.1579 4.87721ZM0 1.50879V2.3509C0 2.81406 0.378947 3.193 0.842105 3.193H15.1579C15.6211 3.193 16 2.81406 16 2.3509V1.50879C16 1.04563 15.6211 0.666687 15.1579 0.666687H0.842105C0.378947 0.666687 0 1.04563 0 1.50879Z" fill="#9EA8DD"/>
</g>
<defs>
<clipPath id="clip0_508_3">
<rect width="16" height="16" fill="white"/>
</clipPath>
</defs>
</svg>
