<svg width="16" height="16" viewBox="0 0 16 16" fill="none" xmlns="http://www.w3.org/2000/svg">
  <g clip-path="url(#a)">
    <path d="M8 0c1.06087 0 2.0783.421427 2.8284 1.17157C11.5786 1.92172 12 2.93913 12 4s-.4214 2.07828-1.1716 2.82843C10.0783 7.57857 9.06087 8 8 8c-1.06087 0-2.07828-.42143-2.82843-1.17157C4.42143 6.07828 4 5.06087 4 4s.42143-2.07828 1.17157-2.82843C5.92172.421427 6.93913 0 8 0Zm0 10c4.42 0 8 1.79 8 4v2H0v-2c0-2.21 3.58-4 8-4Z" fill="#9EA8DD"/>
  </g>
  <defs>
    <clipPath id="a">
      <path fill="#fff" d="M0 0h16v16H0z"/>
    </clipPath>
  </defs>
</svg>
