<svg width="20" height="20" viewBox="0 0 20 20" fill="none" xmlns="http://www.w3.org/2000/svg">
  <g clip-path="url(#a)">
    <path d="M10.0003 8.33244c.884 0 1.7317-.35114 2.3568-.97618.625-.62504.9761-1.47277.9761-2.35671 0-.88394-.3511-1.73167-.9761-2.35671-.6251-.62504-1.4728-.97618-2.3568-.97618-.88389 0-1.73162.35114-2.35666.97618-.62504.62504-.97618 1.47277-.97618 2.35671 0 .88394.35114 1.73167.97618 2.35671s1.47277.97618 2.35666.97618ZM5.5565 7.22148c0 .58929-.2341 1.15444-.65079 1.57113-.41669.4167-.98185.65079-1.57114.65079s-1.15444-.23409-1.57114-.65079c-.41669-.41669-.65078-.98184-.65078-1.57113 0-.5893.23409-1.15445.65078-1.57114.4167-.41669.98185-.65079 1.57114-.65079s1.15445.2341 1.57114.65079.65079.98184.65079 1.57114ZM.546056 15.3604c-.189657-.1078-.331684-.2831-.397725-.4911-.1957454-.634-.1977981-1.3119-.005895-1.9471.191903-.6352.569026-1.1986 1.083074-1.6182.51405-.4195 1.14163-.6761 1.80237-.7368.66074-.0607 1.32457.0772 1.90648.396-1.19581 1.1751-1.94426 2.7306-2.11639 4.3983-.02555.2466-.01555.491.02778.7266-.81083-.0701-1.59613-.3186-2.299694-.7277Zm16.608844.7266c.8108-.0698 1.5961-.3179 2.2997-.7266.1893-.108.3309-.2833.3967-.4911.196-.634.1983-1.3122.0065-1.9476-.1917-.6353-.5688-1.199-1.083-1.6187-.5141-.4197-1.1418-.6764-1.8027-.7371-.6609-.0608-1.3249.0772-1.9069.3962 1.1969 1.1751 1.9462 2.731 2.1186 4.3994.0248.2423.0151.487-.0289.7266v-.0011Zm1.7332-8.86552c0 .58929-.2341 1.15444-.6508 1.57113-.4167.4167-.9819.65079-1.5712.65079-.5893 0-1.1544-.23409-1.5711-.65079-.4167-.41669-.6508-.98184-.6508-1.57113 0-.5893.2341-1.15445.6508-1.57114.4167-.41669.9818-.65079 1.5711-.65079.5893 0 1.1545.2341 1.5712.65079.4167.41669.6508.98184.6508 1.57114ZM4.78327 16.3203c-.10957-.0982-.19451-.2207-.24797-.3577-.05346-.137-.07393-.2847-.05977-.4311.14131-1.3671.78439-2.6332 1.80493-3.5537 1.02055-.9205 2.3461-1.43 3.72044-1.43 1.3743 0 2.6999.5095 3.7204 1.43 1.0206.9205 1.6637 2.1866 1.805 3.5537.0142.1464-.0062.2941-.0597.4311-.0534.1371-.1384.2596-.2481.3577-1.4284 1.2964-3.2891 2.0134-5.2182 2.0108-1.92864.0024-3.7889-.7146-5.21703-2.0108Z" fill="#9EA8DD"/>
  </g>
  <defs>
    <clipPath id="a">
      <path fill="#fff" d="M0 0h20v20H0z"/>
    </clipPath>
  </defs>
</svg>
