<svg width="16" height="16" viewBox="0 0 16 16" fill="none" xmlns="http://www.w3.org/2000/svg">
  <g clip-path="url(#a)">
    <path d="M.842105 15.8246H15.1579c.4632 0 .8421-.379.8421-.8421v-.8421c0-.4632-.3789-.8421-.8421-.8421H.842105C.378947 13.2983 0 13.6772 0 14.1404v.8421c0 .4631.378947.8421.842105.8421ZM15.1579 4.87721H.842105C.378947 4.87721 0 5.25616 0 5.71932v5.05258c0 .4632.378947.8422.842105.8422H15.1579c.4632 0 .8421-.379.8421-.8422V5.71932c0-.46316-.3789-.84211-.8421-.84211ZM0 1.50879v.84211c0 .46316.378947.8421.842105.8421H15.1579c.4632 0 .8421-.37894.8421-.8421v-.84211c0-.46316-.3789-.842103-.8421-.842103H.842105C.378947.666687 0 1.04563 0 1.50879Z" fill="#9EA8DD"/>
  </g>
  <defs>
    <clipPath id="a">
      <path fill="#fff" d="M0 0h16v16H0z"/>
    </clipPath>
  </defs>
</svg>
