<svg width="16" height="16" viewBox="0 0 16 16" fill="none" xmlns="http://www.w3.org/2000/svg">
  <g clip-path="url(#a)">
    <path d="M14.1395 9.41087c0-.14802-.0588-.28999-.1634-.39466-.1047-.10467-.2467-.16348-.3947-.16348h-2.2326c-.148 0-.29.05881-.3946.16348-.1047.10467-.1635.24664-.1635.39466v5.02323H9.67442V2.34111c0-.54177-.00149-.89303-.03572-1.15052-.03275-.241856-.08558-.317763-.128-.360182-.04242-.042419-.11833-.095256-.36019-.128C8.89228.668175 8.54177.666687 8 .666687s-.89302.001488-1.15051.035721c-.24186.032744-.31777.085581-.36019.128-.04242.042419-.09525.118326-.128.360182-.03423.25824-.03572.60875-.03572 1.15052V14.4341H5.2093V5.68994c0-.14803-.0588-.28999-.16347-.39466-.10467-.10467-.24664-.16348-.39467-.16348H2.4186c-.14802 0-.28999.05881-.39466.16348-.10467.10467-.16347.24663-.16347.39466v8.74416H.55814c-.148028 0-.289993.0588-.394665.1635C.0588038 14.7023 0 14.8442 0 14.9923c0 .148.0588038.29.163475.3946.104672.1047.246637.1635.394665.1635H15.4419c.148 0 .29-.0588.3946-.1635.1047-.1046.1635-.2466.1635-.3946 0-.1481-.0588-.29-.1635-.3947-.1046-.1047-.2466-.1635-.3946-.1635h-1.3024V9.41087Z" fill="#9EA8DD"/>
  </g>
  <defs>
    <clipPath id="a">
      <path fill="#fff" d="M0 0h16v16H0z"/>
    </clipPath>
  </defs>
</svg>
