<svg width="16" height="16" viewBox="0 0 16 16" fill="none" xmlns="http://www.w3.org/2000/svg">
  <g clip-path="url(#a)">
    <path fill-rule="evenodd" clip-rule="evenodd" d="M6.0734.960202c-.12582.113848-.25804.220418-.396.319198-.2384.16-.5064.2704-.788.3264-.1224.024-.2504.0344-.5056.0544-.6408.0512-.9616.0768-1.2288.1712-.30552.10787-.58301.28278-.81212.51188-.22911.22911-.40401.5066-.51188.81212-.0944.2672-.12.588-.1712 1.2288-.00873.16941-.02689.33821-.0544.5056-.056.2816-.1664.5496-.3264.788-.0696.104-.1528.2016-.3192.396-.4168.4896-.6256.7344-.748.9904-.2824.592-.2824 1.28 0 1.872.1224.256.3312.5008.748.9904.1664.1944.2496.292.3192.396.16.2384.2704.5064.3264.788.024.1224.0344.2504.0544.5056.0512.6408.0768.9616.1712 1.2288.10787.3055.28277.583.51188.8121.22911.2291.5066.404.81212.5119.2672.0944.588.12 1.2288.1712.2552.02.3832.0304.5056.0544.2816.056.5496.1672.788.3264.104.0696.2016.1528.396.3192.4896.4168.7344.6256.9904.748.592.2824 1.28.2824 1.872 0 .256-.1224.5008-.3312.9904-.748.1944-.1664.292-.2496.396-.3192.2384-.16.5064-.2704.788-.3264.1224-.024.2504-.0344.5056-.0544.6408-.0512.9616-.0768 1.2288-.1712.3055-.1079.583-.2828.8121-.5119.2291-.2291.404-.5066.5119-.8121.0944-.2672.12-.588.1712-1.2288.02-.2552.0304-.3832.0544-.5056.056-.2816.1672-.5496.3264-.788.0696-.104.1528-.2016.3192-.396.4168-.4896.6256-.7344.748-.9904.2824-.592.2824-1.28 0-1.872-.1224-.256-.3312-.5008-.748-.9904-.1138-.12582-.2204-.25803-.3192-.396-.1599-.23849-.2708-.50633-.3264-.788-.0275-.16739-.0457-.33619-.0544-.5056-.0512-.6408-.0768-.9616-.1712-1.2288-.1079-.30552-.2828-.58301-.5119-.81212-.2291-.2291-.5066-.40401-.8121-.51188-.2672-.0944-.588-.12-1.2288-.1712-.1694-.00872-.3382-.02689-.5056-.0544-.2817-.05561-.5495-.16655-.788-.3264-.1378-.09899-.27-.20555-.396-.319198-.4896-.4168-.7344-.6256-.9904-.748C8.64354.0725065 8.32372 0 7.9998 0c-.32393 0-.64375.0725065-.936.212202-.256.1224-.5008.3312-.9904.748ZM11.0646 4.9362c.1218.12209.1903.28752.1903.46 0 .17248-.0685.33792-.1903.46l-5.2088 5.2096c-.05935.065-.13125.1172-.21135.1536-.08011.0364-.16676.0562-.25473.0582-.08796.002-.17542-.0139-.25708-.0466-.08167-.0328-.15585-.0818-.21806-.144-.06222-.0622-.11118-.1364-.14394-.218-.03275-.0817-.04861-.1692-.04663-.2571.00198-.088.02177-.1746.05817-.2547.0364-.0802.08866-.152.15362-.2114l5.208-5.2088c.1221-.12184.2875-.19026.46-.19026.1725 0 .3379.06842.46.19026l.0008-.0008Zm-.0264 5.2344c0 .2302-.0915.451-.2542.6138-.1628.1628-.3836.2542-.6138.2542-.23021 0-.45099-.0914-.61377-.2542-.16278-.1628-.25423-.3836-.25423-.6138 0-.23021.09145-.45099.25423-.61377.16278-.16278.38356-.25423.61377-.25423.2302 0 .451.09145.6138.25423.1627.16278.2542.38356.2542.61377Zm-5.208-3.472c.11399 0 .22686-.02245.33217-.06607.10531-.04362.201-.10756.2816-.18816.0806-.0806.14454-.17629.18816-.2816.04362-.10531.06607-.21818.06607-.33217 0-.11399-.02245-.22686-.06607-.33217-.04362-.10531-.10756-.201-.18816-.2816-.0806-.0806-.17629-.14453-.2816-.18816-.10531-.04362-.21818-.06607-.33217-.06607-.23021 0-.45099.09145-.61377.25423-.16278.16278-.25423.38356-.25423.61377 0 .23021.09145.45099.25423.61377.16278.16278.38356.25423.61377.25423Z" fill="#9EA8DD"/>
  </g>
  <defs>
    <clipPath id="a">
      <path fill="#fff" d="M0 0h16v16H0z"/>
    </clipPath>
  </defs>
</svg>
