<svg width="16" height="16" viewBox="0 0 16 16" fill="none" xmlns="http://www.w3.org/2000/svg">
  <g clip-path="url(#a)">
    <path d="M1.6 14.1333c-.44 0-.816799-.1568-1.130399-.4704-.3136-.3136-.47013298-.6901-.46959964-1.1296V2.93331c0-.44.15679964-.8168.47039964-1.1304.3136-.3136.690129-.47013 1.129599-.4696h12.8c.44 0 .8168.1568 1.1304.4704.3136.3136.4701.69014.4696 1.1296v9.59999c0 .44-.1568.8168-.4704 1.1304-.3136.3136-.6901.4701-1.1296.4696H1.6Zm0-1.6H10V9.73331H1.6v2.79999Zm10 0h2.8V5.33331h-2.8v7.19999Zm-10-4.39999H10v-2.8H1.6v2.8Z" fill="#9EA8DD"/>
  </g>
  <defs>
    <clipPath id="a">
      <path fill="#fff" d="M0 0h16v16H0z"/>
    </clipPath>
  </defs>
</svg>
