<svg width="16" height="16" viewBox="0 0 16 16" fill="none" xmlns="http://www.w3.org/2000/svg">
<g clip-path="url(#clip0_508_94)">
<path d="M1.6 14.1333C1.16 14.1333 0.783201 13.9765 0.469601 13.6629C0.156001 13.3493 -0.000531975 12.9728 1.35823e-06 12.5333V2.93331C1.35823e-06 2.49331 0.156801 2.11651 0.470401 1.80291C0.784001 1.48931 1.16053 1.33278 1.6 1.33331H14.4C14.84 1.33331 15.2168 1.49011 15.5304 1.80371C15.844 2.11731 16.0005 2.49385 16 2.93331V12.5333C16 12.9733 15.8432 13.3501 15.5296 13.6637C15.216 13.9773 14.8395 14.1338 14.4 14.1333H1.6ZM1.6 12.5333H10V9.73331H1.6V12.5333ZM11.6 12.5333H14.4V5.33331H11.6V12.5333ZM1.6 8.13331H10V5.33331H1.6V8.13331Z" fill="#9EA8DD"/>
</g>
<defs>
<clipPath id="clip0_508_94">
<rect width="16" height="16" fill="white"/>
</clipPath>
</defs>
</svg>
