<svg width="16" height="16" viewBox="0 0 16 16" fill="none" xmlns="http://www.w3.org/2000/svg">
<g clip-path="url(#clip0_508_72)">
<path d="M14.1395 9.41087C14.1395 9.26285 14.0807 9.12088 13.9761 9.01621C13.8714 8.91154 13.7294 8.85273 13.5814 8.85273H11.3488C11.2008 8.85273 11.0588 8.91154 10.9542 9.01621C10.8495 9.12088 10.7907 9.26285 10.7907 9.41087V14.4341H9.67442V2.34111C9.67442 1.79934 9.67293 1.44808 9.6387 1.19059C9.60595 0.948734 9.55312 0.872827 9.5107 0.830408C9.46828 0.787989 9.39237 0.735152 9.15051 0.702408C8.89228 0.668175 8.54177 0.666687 8 0.666687C7.45823 0.666687 7.10698 0.668175 6.84949 0.702408C6.60763 0.735152 6.53172 0.787989 6.4893 0.830408C6.44688 0.872827 6.39405 0.948734 6.3613 1.19059C6.32707 1.44883 6.32558 1.79934 6.32558 2.34111V14.4341H5.2093V5.68994C5.2093 5.54191 5.1505 5.39995 5.04583 5.29528C4.94116 5.19061 4.79919 5.1318 4.65116 5.1318H2.4186C2.27058 5.1318 2.12861 5.19061 2.02394 5.29528C1.91927 5.39995 1.86047 5.54191 1.86047 5.68994V14.4341H0.55814C0.410112 14.4341 0.268147 14.4929 0.163475 14.5976C0.0588038 14.7023 0 14.8442 0 14.9923C0 15.1403 0.0588038 15.2823 0.163475 15.3869C0.268147 15.4916 0.410112 15.5504 0.55814 15.5504H15.4419C15.5899 15.5504 15.7319 15.4916 15.8365 15.3869C15.9412 15.2823 16 15.1403 16 14.9923C16 14.8442 15.9412 14.7023 15.8365 14.5976C15.7319 14.4929 15.5899 14.4341 15.4419 14.4341H14.1395V9.41087Z" fill="#9EA8DD"/>
</g>
<defs>
<clipPath id="clip0_508_72">
<rect width="16" height="16" fill="white"/>
</clipPath>
</defs>
</svg>
