<svg width="16" height="16" viewBox="0 0 16 16" fill="none" xmlns="http://www.w3.org/2000/svg">
<g clip-path="url(#clip0_508_109)">
<path fill-rule="evenodd" clip-rule="evenodd" d="M6.0734 0.960202C5.94758 1.07405 5.81536 1.18062 5.6774 1.2794C5.439 1.4394 5.171 1.5498 4.8894 1.6058C4.767 1.6298 4.639 1.6402 4.3838 1.6602C3.743 1.7114 3.4222 1.737 3.155 1.8314C2.84948 1.93927 2.57199 2.11418 2.34288 2.34328C2.11377 2.57239 1.93887 2.84988 1.831 3.1554C1.7366 3.4226 1.711 3.7434 1.6598 4.3842C1.65107 4.55361 1.63291 4.72241 1.6054 4.8898C1.5494 5.1714 1.439 5.4394 1.279 5.6778C1.2094 5.7818 1.1262 5.8794 0.9598 6.0738C0.543 6.5634 0.3342 6.8082 0.2118 7.0642C-0.0706 7.6562 -0.0706 8.3442 0.2118 8.9362C0.3342 9.1922 0.543 9.437 0.9598 9.9266C1.1262 10.121 1.2094 10.2186 1.279 10.3226C1.439 10.561 1.5494 10.829 1.6054 11.1106C1.6294 11.233 1.6398 11.361 1.6598 11.6162C1.711 12.257 1.7366 12.5778 1.831 12.845C1.93887 13.1505 2.11377 13.428 2.34288 13.6571C2.57199 13.8862 2.84948 14.0611 3.155 14.169C3.4222 14.2634 3.743 14.289 4.3838 14.3402C4.639 14.3602 4.767 14.3706 4.8894 14.3946C5.171 14.4506 5.439 14.5618 5.6774 14.721C5.7814 14.7906 5.879 14.8738 6.0734 15.0402C6.563 15.457 6.8078 15.6658 7.0638 15.7882C7.6558 16.0706 8.3438 16.0706 8.9358 15.7882C9.1918 15.6658 9.4366 15.457 9.9262 15.0402C10.1206 14.8738 10.2182 14.7906 10.3222 14.721C10.5606 14.561 10.8286 14.4506 11.1102 14.3946C11.2326 14.3706 11.3606 14.3602 11.6158 14.3402C12.2566 14.289 12.5774 14.2634 12.8446 14.169C13.1501 14.0611 13.4276 13.8862 13.6567 13.6571C13.8858 13.428 14.0607 13.1505 14.1686 12.845C14.263 12.5778 14.2886 12.257 14.3398 11.6162C14.3598 11.361 14.3702 11.233 14.3942 11.1106C14.4502 10.829 14.5614 10.561 14.7206 10.3226C14.7902 10.2186 14.8734 10.121 15.0398 9.9266C15.4566 9.437 15.6654 9.1922 15.7878 8.9362C16.0702 8.3442 16.0702 7.6562 15.7878 7.0642C15.6654 6.8082 15.4566 6.5634 15.0398 6.0738C14.926 5.94798 14.8194 5.81577 14.7206 5.6778C14.5607 5.43931 14.4498 5.17147 14.3942 4.8898C14.3667 4.72241 14.3485 4.55361 14.3398 4.3842C14.2886 3.7434 14.263 3.4226 14.1686 3.1554C14.0607 2.84988 13.8858 2.57239 13.6567 2.34328C13.4276 2.11418 13.1501 1.93927 12.8446 1.8314C12.5774 1.737 12.2566 1.7114 11.6158 1.6602C11.4464 1.65148 11.2776 1.63331 11.1102 1.6058C10.8285 1.55019 10.5607 1.43925 10.3222 1.2794C10.1844 1.18041 10.0522 1.07385 9.9262 0.960202C9.4366 0.543402 9.1918 0.334602 8.9358 0.212202C8.64354 0.0725065 8.32372 0 7.9998 0C7.67587 0 7.35605 0.0725065 7.0638 0.212202C6.8078 0.334602 6.563 0.543402 6.0734 0.960202ZM11.0646 4.9362C11.1864 5.05829 11.2549 5.22372 11.2549 5.3962C11.2549 5.56868 11.1864 5.73412 11.0646 5.8562L5.8558 11.0658C5.79645 11.1308 5.72455 11.183 5.64445 11.2194C5.56434 11.2558 5.47769 11.2756 5.38972 11.2776C5.30176 11.2796 5.2143 11.2637 5.13264 11.231C5.05097 11.1982 4.97679 11.1492 4.91458 11.087C4.85236 11.0248 4.8034 10.9506 4.77064 10.869C4.73789 10.7873 4.72203 10.6998 4.72401 10.6119C4.72599 10.5239 4.74578 10.4373 4.78218 10.3572C4.81858 10.277 4.87084 10.2052 4.9358 10.1458L10.1438 4.937C10.2659 4.81516 10.4313 4.74674 10.6038 4.74674C10.7763 4.74674 10.9417 4.81516 11.0638 4.937L11.0646 4.9362ZM11.0382 10.1706C11.0382 10.4008 10.9467 10.6216 10.784 10.7844C10.6212 10.9472 10.4004 11.0386 10.1702 11.0386C9.93999 11.0386 9.71921 10.9472 9.55643 10.7844C9.39365 10.6216 9.3022 10.4008 9.3022 10.1706C9.3022 9.94039 9.39365 9.71961 9.55643 9.55683C9.71921 9.39405 9.93999 9.3026 10.1702 9.3026C10.4004 9.3026 10.6212 9.39405 10.784 9.55683C10.9467 9.71961 11.0382 9.94039 11.0382 10.1706ZM5.8302 6.6986C5.94419 6.6986 6.05706 6.67615 6.16237 6.63253C6.26768 6.58891 6.36337 6.52497 6.44397 6.44437C6.52457 6.36377 6.58851 6.26808 6.63213 6.16277C6.67575 6.05746 6.6982 5.94459 6.6982 5.8306C6.6982 5.71661 6.67575 5.60374 6.63213 5.49843C6.58851 5.39312 6.52457 5.29743 6.44397 5.21683C6.36337 5.13623 6.26768 5.0723 6.16237 5.02867C6.05706 4.98505 5.94419 4.9626 5.8302 4.9626C5.59999 4.9626 5.37921 5.05405 5.21643 5.21683C5.05365 5.37961 4.9622 5.60039 4.9622 5.8306C4.9622 6.06081 5.05365 6.28159 5.21643 6.44437C5.37921 6.60715 5.59999 6.6986 5.8302 6.6986Z" fill="#9EA8DD"/>
</g>
<defs>
<clipPath id="clip0_508_109">
<rect width="16" height="16" fill="white"/>
</clipPath>
</defs>
</svg>
