<svg width="16" height="16" viewBox="0 0 16 16" fill="none" xmlns="http://www.w3.org/2000/svg">
<path fill-rule="evenodd" clip-rule="evenodd" d="M16 8C16 12.4183 12.4183 16 8 16C3.58171 16 0 12.4183 0 8C0 3.58171 3.58171 0 8 0C12.4183 0 16 3.58171 16 8ZM5.26817 4.46506H10.7322C11.736 4.46506 12.3727 5.55003 11.868 6.4246L8.49557 12.2688C8.27554 12.6504 7.72414 12.6504 7.50411 12.2688L4.13234 6.4246C3.627 5.54863 4.26365 4.46506 5.26817 4.46506ZM7.50068 10.5149V5.46337H5.26748C5.02271 5.46337 4.87834 5.72329 4.99523 5.92611L6.76705 9.09506L7.50068 10.5149ZM9.23194 9.09574L11.0031 5.92543C11.12 5.7226 10.9756 5.46269 10.7308 5.46269H8.49763V10.5162L9.23194 9.09574Z" fill="#9EA8DD"/>
</svg>
