<svg width="70" height="34" viewBox="0 0 70 34" fill="none" xmlns="http://www.w3.org/2000/svg">
<path fill-rule="evenodd" clip-rule="evenodd" d="M30.7596 0.834576C18.8848 1.61152 8.59704 5.22192 3.59229 10.3683C2.47061 11.5216 0.931098 13.757 1.12492 13.9508C1.17523 14.0011 1.54584 13.6009 1.94868 13.0614C5.69131 8.04819 15.2087 3.95035 26.1399 2.64573C41.7736 0.779755 58.2161 4.47372 65.3738 11.46C67.5792 13.6127 68.6814 15.6295 69.0294 18.1497L69.1869 19.289L69.354 18.2753C69.8427 15.3119 68.0453 11.7438 64.7098 9.05653C59.7303 5.04432 52.2752 2.35561 42.9764 1.21833C40.4379 0.907877 33.142 0.678531 30.7596 0.834576ZM64.4326 1.32078C61.8967 2.98965 63.1506 6.94602 66.2155 6.94602C69.1842 6.94602 70.3254 3.0381 67.8414 1.37868C66.9296 0.769489 65.312 0.741976 64.4326 1.32078ZM67.6361 1.79282C69.0245 2.72704 69.108 4.82811 67.8008 5.92803C67.3119 6.33949 66.9487 6.45632 66.1592 6.45632C65.2993 6.45632 65.0334 6.35387 64.4094 5.78204C62.0435 3.61383 64.9685 -0.00232053 67.6361 1.79282ZM64.7406 4.00949C64.7406 5.24533 64.8061 5.64776 64.9973 5.58493C65.1385 5.53873 65.2829 5.20755 65.3182 4.84926C65.4036 3.98464 65.7915 4.02181 66.5509 4.96773C67.2889 5.88696 67.6944 5.71018 67.0006 4.77165C66.6822 4.34088 66.6004 4.09121 66.7608 4.03762C67.2045 3.88978 67.4423 3.20483 67.2045 2.76051C67.0259 2.42686 66.7745 2.34986 65.8627 2.34986H64.7406V4.00949ZM66.6912 3.27381C66.6912 3.58693 66.5329 3.69965 66.0239 3.74873C65.4241 3.80663 65.3566 3.75858 65.3566 3.27381C65.3566 2.78905 65.4241 2.741 66.0239 2.7989C66.5329 2.84797 66.6912 2.9607 66.6912 3.27381ZM8.48206 10.7453C8.86109 10.8498 9.01057 11.0459 9.05327 11.4947C9.10871 12.0762 7.19674 21.033 6.92243 21.4767C6.84974 21.5946 6.5009 21.8165 6.14754 21.9705C5.56688 22.2231 5.79212 22.2502 8.48206 22.25C11.2771 22.2498 11.4235 22.2305 10.8763 21.934C10.4396 21.6973 10.3187 21.5063 10.394 21.1722C10.4495 20.9269 10.9316 18.6936 11.4654 16.2092C11.9995 13.7248 12.5608 11.4904 12.7132 11.2443C12.8655 10.9979 13.2464 10.7576 13.5593 10.7102C13.8724 10.663 12.7425 10.6197 11.0486 10.6141C9.35469 10.6084 8.19974 10.6675 8.48206 10.7453ZM55.8078 11.4354C55.2771 11.9672 54.7876 12.7291 54.5547 13.386C54.1995 14.3884 54.1256 14.4639 53.5023 14.4639C53.1335 14.4639 52.8319 14.5563 52.8319 14.6692C52.8319 14.7822 53.1152 14.8746 53.4616 14.8746C53.9665 14.8746 54.0698 14.9458 53.9817 15.2339C53.9211 15.4316 53.3097 17.7645 52.6228 20.4183C51.9358 23.0721 51.24 25.4481 51.0761 25.6982C50.9125 25.9483 50.7786 26.2064 50.7786 26.2718C50.7786 26.3371 51.4482 26.3634 52.2666 26.3304L53.7546 26.27L54.3125 23.802C54.6192 22.4446 55.1303 19.9038 55.4483 18.1556C56.0261 14.9772 56.0261 14.9772 56.7903 14.9136C57.7584 14.8327 57.7958 14.4639 56.8357 14.4639C56.3938 14.4639 56.1199 14.3652 56.1244 14.2073C56.1386 13.7055 56.6825 11.657 56.9184 11.2161C57.2124 10.6667 57.8816 10.5856 57.65 11.1274C57.126 12.3526 57.3989 13.232 58.3031 13.232C58.8735 13.232 59.2883 12.4177 59.0751 11.7163C58.8312 10.9137 58.3508 10.5628 57.4954 10.5628C56.8084 10.5628 56.5408 10.7012 55.8078 11.4354ZM60.1219 10.8194C60.073 10.9607 59.8664 11.8153 59.663 12.7187C59.2998 14.3311 59.2807 14.3625 58.629 14.4255C57.8514 14.5009 57.726 14.8746 58.4783 14.8746C59.132 14.8746 59.132 15.0897 58.4785 17.7873C57.7958 20.6053 57.8015 21.4919 58.506 22.0459C59.1848 22.5799 59.8338 22.5873 60.4574 22.0677C60.8641 21.7289 60.8842 21.6628 60.5828 21.657C60.066 21.6472 60.1165 20.9755 60.881 17.6978C61.5392 14.8746 61.5392 14.8746 62.216 14.8746C62.5882 14.8746 62.8927 14.7822 62.8927 14.6692C62.8927 14.5563 62.6137 14.4639 62.2728 14.4639C61.5823 14.4639 61.5881 14.6327 62.1954 12.1758C62.3531 11.5383 62.4821 10.9147 62.4821 10.7899C62.4821 10.4622 60.2356 10.4903 60.1219 10.8194ZM15.9764 14.6428C14.6606 15.4597 13.781 16.9522 13.5049 18.8348C13.2304 20.7074 14.1363 22.4715 15.3723 22.4715C15.8708 22.4715 17.1056 21.5582 17.1056 21.1895C17.1056 21.0692 16.9367 21.1236 16.7301 21.3104C16.2207 21.7714 15.8737 21.7379 15.8737 21.2277C15.8737 20.7281 17.0258 16.0047 17.3105 15.3365C17.4307 15.0548 17.6894 14.8721 17.9739 14.868C18.4281 14.8616 18.43 14.8536 18.0417 14.56C17.5009 14.151 16.7176 14.1822 15.9764 14.6428ZM23.3111 14.5783C22.7953 14.9395 22.6937 15.3341 23.1627 15.1542C23.6234 14.9772 23.5606 15.5675 22.752 19.0094C22.3568 20.692 22.0334 22.113 22.0334 22.1674C22.0334 22.2216 22.5802 22.2662 23.2483 22.2662C24.4632 22.2662 24.4632 22.2662 24.6784 21.2909C24.7966 20.7546 25.0648 19.7075 25.2742 18.9642C25.7448 17.2939 25.598 14.9707 24.9939 14.529C24.5016 14.1689 23.869 14.1874 23.3111 14.5783ZM26.839 14.6992C26.607 14.9608 26.5374 15.1715 26.6682 15.2177C26.7893 15.2604 26.8482 15.5704 26.7987 15.9065C26.5971 17.2816 27.9545 18.0708 28.5553 16.9278C28.86 16.3482 28.7678 15.0117 28.3916 14.5586C28.0309 14.1237 27.2903 14.1906 26.839 14.6992ZM31.5809 14.5321C30.7064 14.93 29.4907 16.3498 29.2345 17.2725C28.7388 19.0574 29.2653 21.0338 30.4695 21.91C31.1682 22.4183 32.4786 22.5797 33.4101 22.2724C36.4249 21.2774 37.4277 16.7605 35.0384 14.938C34.1865 14.2882 32.5414 14.0952 31.5809 14.5321ZM39.3657 14.5504C38.3712 14.9834 37.8433 15.8043 37.8433 16.9171C37.8433 17.9844 38.2186 18.4644 39.8363 19.4666C41.2872 20.3653 41.5249 21.5564 40.3505 22.043C39.6645 22.327 38.2441 21.9516 38.0876 21.4449C38.0353 21.2755 38.0634 21.203 38.1502 21.2837C38.4946 21.6042 39.0752 21.0178 39.0752 20.3495C39.0752 19.5789 38.7648 19.1849 38.1615 19.1894C37.4363 19.195 37.1439 19.5258 37.1663 20.315C37.2306 22.5873 41.0137 23.2686 42.5713 21.2885C42.8454 20.9402 42.9764 20.4581 42.9764 19.7986C42.9764 18.7564 42.9893 18.7726 40.6197 16.8563C39.2959 15.7858 39.945 14.2381 41.582 14.5608C42.0836 14.6598 42.1783 14.6389 41.9497 14.4795C41.5221 14.1814 40.1254 14.2198 39.3657 14.5504ZM46.9978 14.4621C46.6687 14.5664 46.0468 14.9961 45.6158 15.417C43.7734 17.2161 43.7921 20.5357 45.6521 21.8603C47.066 22.867 49.171 22.497 50.4355 21.0197C52.6364 18.4484 51.5293 14.5341 48.5451 14.3354C48.0232 14.3007 47.327 14.3576 46.9978 14.4621ZM18.9535 14.8809C18.9535 15.1105 18.815 15.3513 18.6456 15.4162C18.4289 15.4994 18.3376 15.8371 18.3376 16.5543C18.3376 17.1151 18.1051 18.2665 17.821 19.1131C17.5368 19.9596 17.3549 20.7341 17.4169 20.8343C17.5434 21.039 16.7831 24.1726 16.449 24.8229C16.1412 25.4222 15.4304 26.168 15.1707 26.1643C15.0491 26.1624 14.8111 26.0727 14.6418 25.9647C14.3804 25.798 14.4036 25.7191 14.7957 25.4428C15.4117 25.0089 15.4538 23.6176 14.8606 23.3C14.321 23.0113 14.1108 23.0318 13.7324 23.4101C13.3513 23.7913 13.3152 25.1031 13.673 25.5692C14.0751 26.0928 14.7604 26.3727 15.6415 26.3727C17.336 26.3727 18.5008 25.5181 19.142 23.8039C19.4962 22.8575 21.4174 15.1343 21.4174 14.6573C21.4174 14.551 20.8631 14.4639 20.1855 14.4639C19.0841 14.4639 18.9535 14.5081 18.9535 14.8809ZM33.9555 14.7879C34.1799 15.0585 34.1126 15.6061 33.5465 18.115C33.1736 19.7666 32.772 21.3301 32.6537 21.5895C32.4014 22.1432 31.5323 22.2352 31.3378 21.7285C31.2676 21.5457 31.5247 20 31.9088 18.2936C32.7051 14.7579 33.2112 13.8911 33.9555 14.7879ZM49.2133 14.9228C49.365 15.1633 49.2344 16.0644 48.7392 18.1936C48.3632 19.8101 47.9606 21.3416 47.8444 21.5968C47.5978 22.1379 46.7256 22.2333 46.5362 21.74C46.3336 21.2123 47.8493 15.0156 48.2538 14.7179C48.6685 14.4124 48.9262 14.4674 49.2133 14.9228ZM42.4811 14.9503C42.5452 15.1171 42.4173 15.2762 42.1668 15.3417C41.8387 15.4275 41.7444 15.618 41.7444 16.195C41.7444 16.8036 41.8397 16.9742 42.2711 17.1383C43.465 17.5922 44.05 16.3332 43.1667 15.2103C42.7156 14.6366 42.3002 14.4791 42.4811 14.9503ZM0.991258 16.4145C0.549402 19.0823 1.72159 21.9114 4.35692 24.5373C6.36005 26.5334 7.89628 27.6011 10.8433 29.0456C14.8099 30.9898 19.9859 32.5215 25.4403 33.3656C29.4897 33.9922 38.5401 34.1556 42.771 33.6785C51.5244 32.6917 58.3799 30.5157 63.5224 27.0923C65.7442 25.6132 68.0145 23.332 68.9189 21.6704C69.6205 20.3813 69.5327 20.0853 68.7842 21.2162C65.6941 25.8858 57.3436 29.9913 47.4935 31.6838C43.6408 32.3457 40.4626 32.5958 35.8927 32.5964C26.3234 32.5976 18.0953 30.9512 11.4592 27.7069C8.5954 26.307 6.92017 25.1964 5.1201 23.5053C2.79379 21.3197 1.70291 19.3362 1.32922 16.6124L1.16127 15.3879L0.991258 16.4145Z" fill="#EBEBEC"/>
</svg>
