<svg width="72" height="21" viewBox="0 0 72 21" fill="none" xmlns="http://www.w3.org/2000/svg">
<path fill-rule="evenodd" clip-rule="evenodd" d="M52.5068 4.52757C52.1379 4.77864 51.7031 4.91496 51.2569 4.91936C50.6566 4.91511 50.0817 4.67626 49.6551 4.25383C49.2285 3.8314 48.984 3.25889 48.9739 2.65862C48.9739 2.21245 49.106 1.77627 49.3534 1.40499C49.6008 1.03371 49.9526 0.743979 50.3644 0.572233C50.7762 0.400488 51.2296 0.3544 51.6675 0.439839C52.1055 0.525279 52.5083 0.73839 52.8253 1.05233C53.1424 1.36628 53.3594 1.76704 53.4492 2.2041C53.5389 2.64116 53.4973 3.09498 53.3296 3.50845C53.1619 3.92191 52.8756 4.2765 52.5068 4.52757ZM36.8754 10.6052C36.8754 11.7113 37.4789 12.6366 38.6251 12.6366C38.9653 12.6304 39.3009 12.5564 39.6119 12.4182C39.9228 12.2801 40.2029 12.0808 40.4355 11.8325V9.43879C40.2021 9.19294 39.9214 8.99674 39.6103 8.86191C39.2992 8.72709 38.9641 8.65645 38.6251 8.65417C37.4789 8.65417 36.8754 9.53892 36.8754 10.6052ZM43.7537 15.6743C43.7537 18.6106 42.1045 20.3404 38.5845 20.3404V20.3412C37.0994 20.3244 35.6439 19.9225 34.3606 19.1748V15.9568C35.5407 16.7928 36.9383 17.268 38.3835 17.3246C39.8114 17.3246 40.4351 16.7613 40.4351 15.6751V14.6691C39.7324 15.231 38.8625 15.5425 37.9628 15.5543C35.2478 15.5543 33.4576 13.484 33.4576 10.6064C33.4576 7.77018 35.2474 5.73888 37.9628 5.73888C38.8688 5.71272 39.7515 6.02858 40.4351 6.62364V6.06067H43.7537V15.6743ZM27.5378 16.0671C27.0783 16.2468 26.5874 16.3324 26.0942 16.3187C25.618 16.3346 25.1436 16.2522 24.7007 16.0766C24.2578 15.901 23.8559 15.636 23.5199 15.2981C23.184 14.9602 22.9213 14.5568 22.7483 14.1128C22.5752 13.6689 22.4955 13.1941 22.5142 12.7181V6.06067H25.8328V11.8937C25.8163 12.0775 25.8394 12.2628 25.9005 12.437C25.9615 12.6112 26.0592 12.7703 26.1868 12.9037C26.3145 13.037 26.4692 13.1416 26.6405 13.2102C26.8119 13.2789 26.9959 13.31 27.1804 13.3017C27.4911 13.2917 27.7947 13.2059 28.0647 13.0516C28.3346 12.8973 28.5627 12.6792 28.729 12.4165V6.06067H32.0475V15.9969H28.7691V15.2726C28.416 15.6172 27.9973 15.8874 27.5378 16.0671ZM11.8339 15.9969L11.8347 13.2814L16.4611 8.77612H11.9153V6.06067H20.906V8.71577L16.2799 13.221H21.0057V15.9969H11.8339ZM0.812256 15.9969L0.812658 1.91732H10.6269V5.03486H4.23092V7.38841H10.0035V10.506H4.23092V12.7789H10.6277V15.9969H0.812256ZM45.4636 15.9956H48.7822V6.06067H45.4636V15.9956ZM56.0662 7.93718H56.0106V5.10011H56.9173C57.1629 5.08878 57.403 5.17536 57.5848 5.34086C57.6676 5.41903 57.7328 5.51383 57.7764 5.61903C57.8199 5.72423 57.8407 5.83744 57.8373 5.95123C57.8406 6.06455 57.8199 6.17729 57.7766 6.28206C57.7333 6.38683 57.6684 6.48127 57.586 6.55918C57.4035 6.7243 57.1631 6.81055 56.9173 6.79911H56.0662V7.93718ZM56.0662 5.15686V6.74197L56.9169 6.74034C57.1454 6.75083 57.3689 6.67123 57.5394 6.51865C57.6169 6.44631 57.6781 6.35829 57.7189 6.26045C57.7597 6.16261 57.7792 6.0572 57.7761 5.95123C57.7797 5.84459 57.7605 5.7384 57.7197 5.63977C57.679 5.54115 57.6176 5.45237 57.5398 5.37936C57.3696 5.22626 57.146 5.14633 56.9173 5.15686H56.0662ZM58.3366 7.60717C58.2992 7.5225 58.2821 7.43022 58.2868 7.33775C58.2827 7.21703 58.3198 7.09851 58.3922 7.00176C58.4657 6.90734 58.5638 6.8351 58.6759 6.79303C58.7966 6.74709 58.9249 6.72427 59.054 6.72575C59.2981 6.72544 59.5366 6.79859 59.7385 6.9357V6.5993C59.7387 6.54664 59.7327 6.49413 59.7207 6.44286C59.7076 6.38974 59.6863 6.33901 59.6575 6.29249C59.6272 6.24245 59.5879 6.19847 59.5416 6.1628C59.4858 6.12225 59.423 6.09242 59.3563 6.07485C59.2719 6.05136 59.1846 6.04004 59.097 6.04121C58.9715 6.04161 58.8468 6.0606 58.7269 6.09755C58.6116 6.13143 58.5007 6.17891 58.3966 6.23899V6.16199C58.6122 6.04642 58.8528 5.98533 59.0974 5.98406C59.1933 5.98253 59.2889 5.99523 59.3811 6.02176C59.4539 6.04158 59.5226 6.07439 59.5837 6.11862C59.6346 6.15767 59.6775 6.2061 59.7102 6.26129C59.7415 6.31261 59.7648 6.36835 59.7795 6.42665C59.7929 6.48335 59.7996 6.54144 59.7993 6.59971V7.93718H59.741V7.72116C59.6511 7.81065 59.5443 7.88128 59.4267 7.92889C59.3091 7.97649 59.1833 8.00012 59.0564 7.99838C58.8572 8.00702 58.6613 7.9458 58.5024 7.82532C58.4308 7.76657 58.3741 7.69185 58.3366 7.60717ZM58.3976 7.11188C58.3623 7.18185 58.3446 7.25938 58.3459 7.33775C58.3417 7.42205 58.3572 7.50618 58.3915 7.58335C58.4257 7.66051 58.4776 7.72854 58.5429 7.78195C58.6903 7.8933 58.8719 7.94965 59.0564 7.94123C59.1937 7.94254 59.3295 7.91231 59.4532 7.85288C59.5589 7.80471 59.6564 7.7403 59.7422 7.66199V6.9973C59.653 6.9352 59.5558 6.88557 59.4532 6.84977C59.3264 6.80337 59.1923 6.7803 59.0572 6.78168C58.8752 6.77471 58.6961 6.82909 58.5486 6.9361C58.4847 6.98157 58.4329 7.0419 58.3976 7.11188ZM60.5459 7.93718H60.4883V6.04932H60.5447V6.49798C60.5702 6.43675 60.6027 6.37868 60.6415 6.32492C60.6848 6.26482 60.7343 6.2094 60.7891 6.15956C60.8486 6.10542 60.9172 6.0622 60.9917 6.03189C61.0687 5.99956 61.1514 5.98303 61.2349 5.98325C61.2974 5.98347 61.3598 5.99012 61.4209 6.00311V6.07647C61.3611 6.05553 61.2982 6.04485 61.2349 6.04486C61.0813 6.05625 60.9343 6.11214 60.8119 6.20571C60.6896 6.29928 60.5971 6.42648 60.5459 6.57174V7.93718ZM62.1699 6.10079H61.8096V6.04932H62.1695V5.30317L62.2271 5.26953V6.04932H62.7377V6.10079H62.2271V7.58133C62.2225 7.63129 62.228 7.68166 62.2433 7.72943C62.2586 7.7772 62.2834 7.82139 62.3162 7.85936C62.3426 7.88646 62.3741 7.90802 62.4089 7.92278C62.4437 7.93753 62.4811 7.94519 62.5189 7.94529C62.5959 7.94454 62.6717 7.92624 62.7406 7.89179V7.95785C62.6691 7.98239 62.5944 7.99606 62.5189 7.99838C62.4736 7.99835 62.4288 7.98934 62.3871 7.97188C62.3453 7.95442 62.3075 7.92885 62.2757 7.89665C62.2375 7.85401 62.2084 7.804 62.1902 7.74971C62.172 7.69542 62.1651 7.63798 62.1699 7.58093V6.10079ZM64.4392 7.49865C64.36 7.34063 64.32 7.16591 64.3224 6.9892H64.3212C64.313 6.72425 64.4086 6.46657 64.5875 6.27101C64.6764 6.17527 64.7849 6.09988 64.9056 6.05C65.0264 6.00012 65.1565 5.97694 65.287 5.98204C65.4666 5.97845 65.6435 6.02536 65.7977 6.11741C65.9425 6.20462 66.0595 6.33111 66.1353 6.48217C66.2138 6.63938 66.2536 6.81309 66.2512 6.98879C66.2536 7.16541 66.2139 7.34005 66.1353 7.49825C66.0596 7.64938 65.9425 7.77588 65.7977 7.86301C65.6439 7.95498 65.4674 8.00202 65.2883 7.99879C65.1087 8.00237 64.9318 7.95547 64.7776 7.86342C64.6327 7.77609 64.5154 7.64966 64.4392 7.49865ZM64.6305 6.31357C64.4625 6.49774 64.3726 6.74002 64.38 6.9892H64.3792C64.371 7.2397 64.4605 7.48357 64.6288 7.66928C64.7124 7.75946 64.8145 7.83046 64.9281 7.87741C65.0417 7.92436 65.1642 7.94613 65.287 7.94123C65.41 7.94641 65.5327 7.92477 65.6465 7.87781C65.7603 7.83085 65.8625 7.7597 65.946 7.66928C66.1139 7.4835 66.2033 7.23987 66.1953 6.9896C66.1975 6.82392 66.1601 6.6601 66.0863 6.51176C66.0149 6.36984 65.9047 6.25109 65.7685 6.16928C65.6237 6.08264 65.4574 6.0384 65.2887 6.04162C65.1658 6.03672 65.0434 6.05849 64.9297 6.10544C64.8161 6.15239 64.714 6.22339 64.6305 6.31357ZM66.9808 6.10079H66.6205L66.6209 6.05013H66.9812V5.40895C66.9762 5.3515 66.9834 5.29366 67.0022 5.23914C67.0209 5.18462 67.0509 5.13464 67.0902 5.09241C67.162 5.02544 67.2571 4.98921 67.3553 4.9915C67.4221 4.9923 67.4885 5.00156 67.553 5.01906V5.08431C67.4846 5.05905 67.4124 5.04536 67.3394 5.04378C67.305 5.04381 67.2709 5.04984 67.2385 5.06161C67.2033 5.07484 67.1708 5.09434 67.1425 5.11916C67.1082 5.15023 67.0823 5.18939 67.0671 5.23305C67.0468 5.28916 67.0371 5.34851 67.0383 5.40814V6.04932H67.549V6.10079H67.0383V7.93718H66.9808V6.10079ZM57.6594 11.9901H56.0106V9.15307H57.6594V9.20981H56.0662V10.5311H57.5345V10.587H56.0662V11.9326H57.6594V11.9901ZM58.8797 11.9901L58.0691 10.1023H58.1324L58.9121 11.9168L59.6753 10.1023H59.7385L58.945 11.9901H58.8797ZM60.1434 11.5516C60.0643 11.3936 60.0243 11.2189 60.0267 11.0421C60.0187 10.7773 60.114 10.5198 60.293 10.3244C60.3819 10.2286 60.4904 10.1532 60.6111 10.1034C60.7319 10.0535 60.862 10.0303 60.9925 10.0354C61.1721 10.0318 61.349 10.0787 61.5032 10.1708C61.648 10.258 61.765 10.3845 61.8408 10.5355C61.917 10.6941 61.9565 10.8677 61.9565 11.0436C61.9565 11.2194 61.917 11.3931 61.8408 11.5516C61.7651 11.7027 61.648 11.8292 61.5032 11.9164C61.3477 12.0052 61.1716 12.052 60.9925 12.052C60.8134 12.052 60.6374 12.0052 60.4819 11.9164C60.337 11.829 60.2197 11.7026 60.1434 11.5516ZM60.3347 10.3665C60.1667 10.5507 60.0769 10.793 60.0843 11.0421H60.083C60.0755 11.293 60.1659 11.5369 60.3351 11.7222C60.4187 11.8124 60.5208 11.8834 60.6344 11.9304C60.7481 11.9773 60.8705 11.9991 60.9933 11.9942C61.116 11.9991 61.2383 11.9773 61.3517 11.9303C61.4651 11.8834 61.567 11.8124 61.6503 11.7222C61.8182 11.5364 61.9075 11.2928 61.8996 11.0426C61.9018 10.8769 61.8644 10.7131 61.7906 10.5647C61.7192 10.4228 61.609 10.304 61.4728 10.2222C61.328 10.1356 61.1617 10.0914 60.9929 10.0946C60.8701 10.0897 60.7476 10.1114 60.634 10.1584C60.5204 10.2053 60.4183 10.2763 60.3347 10.3665ZM62.6251 11.9901H62.5675V9.05134H62.6251V11.9901ZM63.4232 11.6473C63.3907 11.5658 63.3753 11.4784 63.3781 11.3907L63.3773 10.0982H63.4328V11.3822C63.4298 11.4634 63.4439 11.5444 63.4743 11.6198C63.5047 11.6953 63.5506 11.7634 63.6091 11.8199C63.6695 11.8768 63.7407 11.9212 63.8184 11.9504C63.8961 11.9797 63.9789 11.9931 64.0618 11.9901C64.1978 11.9897 64.3318 11.9572 64.4529 11.8953C64.574 11.8334 64.6789 11.7438 64.7589 11.6339V10.0982H64.8165V11.9901H64.7589V11.6991C64.6841 11.8008 64.5884 11.8851 64.4781 11.9464C64.3515 12.018 64.208 12.0542 64.0626 12.0513C63.9717 12.0553 63.8809 12.0407 63.7957 12.0086C63.7105 11.9765 63.6327 11.9275 63.567 11.8645C63.5046 11.8027 63.4557 11.7288 63.4232 11.6473ZM65.6859 10.1537H65.3255L65.3251 10.1023H65.6854V9.35612L65.743 9.32248V10.1023H66.2537V10.1537H65.743V11.6343C65.7384 11.6842 65.7439 11.7346 65.7593 11.7824C65.7746 11.8302 65.7994 11.8743 65.8322 11.9123C65.8585 11.9394 65.89 11.961 65.9248 11.9757C65.9596 11.9905 65.997 11.9981 66.0348 11.9982C66.1118 11.9975 66.1876 11.9792 66.2565 11.9447V12.0108C66.185 12.0353 66.1103 12.049 66.0348 12.0513C65.9896 12.0513 65.9448 12.0423 65.903 12.0248C65.8613 12.0074 65.8234 11.9818 65.7916 11.9496C65.7534 11.907 65.7243 11.857 65.7061 11.8027C65.688 11.7484 65.681 11.6909 65.6859 11.6339V10.1537ZM66.828 9.33424C66.8043 9.30924 66.7914 9.27586 66.7923 9.24142H66.7915C66.7911 9.22449 66.794 9.20765 66.8001 9.19186C66.8063 9.17607 66.8154 9.16165 66.8272 9.14942C66.8387 9.13732 66.8527 9.12782 66.8682 9.12153C66.8837 9.11524 66.9004 9.11232 66.9171 9.11294C66.9345 9.1123 66.9517 9.1152 66.9679 9.12147C66.9841 9.12774 66.9988 9.13725 67.0112 9.14942C67.0232 9.16146 67.0326 9.17583 67.0389 9.19165C67.0452 9.20747 67.0481 9.22441 67.0476 9.24142C67.0481 9.25854 67.0451 9.27558 67.0388 9.29152C67.0325 9.30747 67.0231 9.32199 67.0112 9.33424C66.999 9.3467 66.9843 9.35649 66.9681 9.36298C66.9519 9.36947 66.9346 9.37251 66.9171 9.37193C66.9005 9.37234 66.8839 9.36919 66.8685 9.36269C66.8531 9.35619 66.8393 9.34649 66.828 9.33424ZM66.9459 10.1023V11.9901H66.8884V10.1023H66.9459ZM67.6722 11.5516C67.5931 11.3936 67.553 11.2189 67.5555 11.0421C67.5474 10.7773 67.6429 10.5198 67.8218 10.3244C67.9106 10.2286 68.0192 10.1532 68.1399 10.1034C68.2607 10.0535 68.3908 10.0303 68.5213 10.0354C68.7008 10.0318 68.8778 10.0787 69.032 10.1708C69.1767 10.258 69.2938 10.3845 69.3696 10.5355C69.4458 10.6941 69.4853 10.8677 69.4853 11.0436C69.4853 11.2194 69.4458 11.3931 69.3696 11.5516C69.2939 11.7027 69.1768 11.8292 69.032 11.9164C68.8764 12.0052 68.7004 12.052 68.5213 12.052C68.3422 12.052 68.1661 12.0052 68.0106 11.9164C67.8657 11.829 67.7484 11.7026 67.6722 11.5516ZM67.8647 10.3665C67.6963 10.5505 67.606 10.7928 67.613 11.0421C67.6056 11.293 67.6958 11.537 67.8651 11.7222C68.0398 11.8961 68.2762 11.9937 68.5227 11.9937C68.7692 11.9937 69.0056 11.8961 69.1803 11.7222C69.3482 11.5364 69.4375 11.2928 69.4296 11.0426C69.4317 10.8769 69.3944 10.7131 69.3205 10.5647C69.2491 10.4228 69.139 10.304 69.0028 10.2222C68.8579 10.1356 68.6917 10.0914 68.5229 10.0946C68.4001 10.0897 68.2776 10.1114 68.164 10.1584C68.0504 10.2053 67.9483 10.2763 67.8647 10.3665ZM70.1542 11.9901H70.0967L70.0983 10.1023H70.1558V10.3892C70.2308 10.2885 70.3258 10.2044 70.4347 10.142C70.5591 10.0702 70.7008 10.0339 70.8444 10.037C70.9345 10.0332 71.0243 10.0478 71.1085 10.08C71.1927 10.1121 71.2694 10.161 71.334 10.2239C71.3951 10.284 71.4431 10.3561 71.4753 10.4355C71.5074 10.515 71.5229 10.6002 71.5209 10.6859V11.9901H71.4633V10.694C71.4654 10.6149 71.451 10.5362 71.421 10.4629C71.391 10.3896 71.346 10.3234 71.2891 10.2684C71.23 10.2116 71.1601 10.1672 71.0835 10.138C71.0069 10.1087 70.9252 10.0952 70.8432 10.0982C70.7085 10.0994 70.5759 10.1323 70.4562 10.1942C70.3366 10.2561 70.2331 10.3452 70.1542 10.4545V11.9901ZM55.9158 15.6037C55.8415 15.4446 55.8043 15.2707 55.8068 15.0951C55.8051 14.9214 55.8425 14.7495 55.9162 14.5921C55.9863 14.4423 56.0978 14.3157 56.2376 14.2274C56.3856 14.1354 56.5571 14.0883 56.7313 14.092C56.8759 14.0922 57.0186 14.126 57.1479 14.1909C57.2708 14.2478 57.3774 14.335 57.4575 14.4442V14.1572H57.5147V16.1027C57.5273 16.3212 57.4547 16.5361 57.312 16.7021C57.2276 16.7804 57.1278 16.8402 57.0189 16.8777C56.91 16.9152 56.7945 16.9295 56.6798 16.9197C56.5421 16.9204 56.4049 16.9024 56.2721 16.8662C56.156 16.8363 56.0451 16.7889 55.9434 16.7256V16.6486C56.0523 16.7268 56.1754 16.7832 56.3057 16.8148C56.4279 16.8463 56.5535 16.8629 56.6798 16.8642C56.8025 16.8668 56.9248 16.8477 57.0409 16.8079C57.1346 16.7757 57.2184 16.7199 57.2841 16.6458C57.3441 16.5758 57.3892 16.4943 57.4166 16.4062C57.4456 16.3073 57.4593 16.2045 57.4571 16.1014V15.7472C57.3747 15.8559 57.2676 15.9434 57.1447 16.0026C57.0169 16.0693 56.875 16.1045 56.7308 16.1051C56.5565 16.1087 56.3849 16.0612 56.2372 15.9685C56.0976 15.8799 55.9862 15.7534 55.9158 15.6037ZM55.9681 14.6173C55.8975 14.7665 55.862 14.93 55.8643 15.0951C55.8558 15.3434 55.9404 15.586 56.1014 15.7752C56.1794 15.8647 56.2763 15.9355 56.3853 15.9826C56.4942 16.0297 56.6123 16.0517 56.7308 16.0471C56.8795 16.0465 57.0256 16.008 57.1552 15.9353C57.2741 15.8758 57.3775 15.7893 57.4571 15.6828V14.5074C57.3787 14.4008 57.2755 14.3148 57.1564 14.257C57.0259 14.1854 56.8796 14.1476 56.7308 14.1471C56.5719 14.1433 56.4152 14.1857 56.2798 14.2692C56.1444 14.3526 56.0361 14.4735 55.9681 14.6173ZM58.2633 16.0431H58.2057V14.1552H58.2621V14.6039C58.2876 14.5427 58.3201 14.4846 58.3589 14.4308C58.4022 14.3707 58.4517 14.3153 58.5064 14.2655C58.566 14.2113 58.6346 14.1681 58.7091 14.1378C58.7861 14.1055 58.8688 14.0889 58.9523 14.0892C59.0148 14.0894 59.0771 14.096 59.1383 14.109V14.1824C59.0785 14.1614 59.0156 14.1508 58.9523 14.1508C58.7987 14.1622 58.6517 14.218 58.5293 14.3116C58.407 14.4052 58.3145 14.5324 58.2633 14.6776V16.0431ZM59.6011 15.6046C59.522 15.4465 59.482 15.2718 59.4844 15.0951C59.4763 14.8303 59.5719 14.5728 59.7507 14.3773C59.8396 14.2816 59.9481 14.2062 60.0689 14.1563C60.1896 14.1064 60.3197 14.0832 60.4502 14.0883C60.6298 14.0848 60.8067 14.1317 60.9609 14.2237C61.1057 14.3109 61.2227 14.4374 61.2985 14.5885C61.3747 14.747 61.4143 14.9206 61.4143 15.0965C61.4143 15.2724 61.3747 15.446 61.2985 15.6046C61.2228 15.7557 61.1058 15.8822 60.9609 15.9693C60.8054 16.0582 60.6294 16.1049 60.4502 16.1049C60.2711 16.1049 60.0951 16.0582 59.9396 15.9693C59.7947 15.882 59.6774 15.7556 59.6011 15.6046ZM59.7924 14.4195C59.6244 14.6036 59.5346 14.8459 59.542 15.0951C59.5342 15.3458 59.624 15.5897 59.7929 15.7752C59.8764 15.8654 59.9785 15.9364 60.0921 15.9833C60.2058 16.0303 60.3282 16.052 60.451 16.0471C60.5737 16.052 60.696 16.0302 60.8094 15.9833C60.9228 15.9363 61.0247 15.8653 61.108 15.7752C61.2759 15.5894 61.3653 15.3458 61.3573 15.0955C61.3595 14.9298 61.3221 14.766 61.2483 14.6177C61.1769 14.4757 61.0667 14.357 60.9305 14.2752C60.7857 14.1885 60.6194 14.1443 60.4506 14.1475C60.3278 14.1426 60.2054 14.1644 60.0917 14.2113C59.9781 14.2583 59.876 14.3293 59.7924 14.4195ZM62.0513 15.6998C62.0188 15.6183 62.0034 15.531 62.0062 15.4432L62.0054 14.1512H62.0609V15.4351C62.0581 15.5165 62.0726 15.5976 62.1033 15.6731C62.134 15.7485 62.1803 15.8166 62.2392 15.8729C62.2995 15.9296 62.3703 15.9739 62.4477 16.0031C62.5252 16.0323 62.6076 16.0459 62.6903 16.0431C62.8262 16.0425 62.9602 16.01 63.0812 15.9481C63.2022 15.8862 63.307 15.7967 63.387 15.6868V14.1512H63.4446V16.0431H63.387V15.7517C63.3122 15.8533 63.2164 15.9376 63.1061 15.9989C62.9796 16.0705 62.8361 16.1068 62.6907 16.1039C62.5998 16.1078 62.5089 16.0933 62.4238 16.0612C62.3386 16.0291 62.2608 15.98 62.195 15.917C62.1327 15.8553 62.0838 15.7813 62.0513 15.6998ZM64.2547 16.8087H64.1972L64.1956 14.1516H64.2531V14.4385C64.3313 14.3307 64.4345 14.2435 64.5539 14.1844C64.679 14.1193 64.8181 14.0856 64.9592 14.0863C65.1348 14.0831 65.3077 14.1301 65.4577 14.2217C65.6004 14.3096 65.7153 14.436 65.7892 14.5865C65.8664 14.744 65.9054 14.9176 65.9031 15.0931C65.9041 15.2273 65.8813 15.3607 65.8358 15.487C65.7938 15.6048 65.73 15.7135 65.6477 15.8076C65.565 15.9003 65.4631 15.9739 65.349 16.0232C65.2263 16.0775 65.0934 16.1051 64.9592 16.1043C64.8189 16.1042 64.6809 16.0693 64.5575 16.0026C64.438 15.9419 64.3344 15.8542 64.2547 15.7464V16.8087ZM64.5652 14.2457C64.4431 14.3081 64.3369 14.3977 64.2547 14.5074V15.6828H64.2539C64.3312 15.7887 64.4312 15.8759 64.5466 15.9381C64.6716 16.0108 64.8137 16.049 64.9583 16.0488C65.0787 16.0528 65.1984 16.0304 65.3092 15.9832C65.4199 15.936 65.519 15.8651 65.5995 15.7756C65.7592 15.5862 65.8469 15.3465 65.8469 15.0987C65.8469 14.851 65.7592 14.6113 65.5995 14.4219C65.5193 14.3322 65.4204 14.2611 65.3098 14.2136C65.1991 14.1661 65.0795 14.1434 64.9592 14.1471C64.822 14.1495 64.6873 14.1832 64.5652 14.2457Z" fill="#EBEBEC"/>
</svg>
