<svg width="77" height="19" viewBox="0 0 77 19" fill="none" xmlns="http://www.w3.org/2000/svg">
<path fill-rule="evenodd" clip-rule="evenodd" d="M20.0146 4.36722C20.0375 8.24875 20.0513 8.66105 20.1702 9.02138C20.5525 10.1802 21.1356 10.746 22.4203 11.2046C23.7987 11.6967 25.6733 11.5489 26.6101 10.8741C27.7 10.089 28.271 8.5137 28.1546 6.61344C28.0988 5.7041 27.9667 5.18671 27.5979 4.4322C26.9034 3.01151 25.5927 2.29143 24.1519 2.53891C23.5062 2.64975 23.0662 2.87782 22.6036 3.34122L22.2309 3.71456L22.2088 2.2529C22.1841 0.617948 22.1669 0.557857 21.6387 0.257044C21.4245 0.135065 21.2533 0.108398 20.6835 0.108398H19.9894L20.0146 4.36722ZM28.7359 0.148507C28.7063 0.179127 28.6821 2.7056 28.6821 5.76289V11.3215H29.7945H30.907L30.9067 6.09231C30.9065 1.03269 30.9019 0.855651 30.7663 0.633042C30.5517 0.280405 30.2494 0.161804 29.4716 0.125002C29.0966 0.107248 28.7656 0.117815 28.7359 0.148507ZM61.9842 1.04282V1.90537H63.0967H64.2091L64.2076 1.49207C64.2055 0.961313 64.0154 0.5373 63.6888 0.335176C63.4757 0.203279 63.3307 0.180277 62.7114 0.180277H61.9842V1.04282ZM73.0425 5.22977C73.0465 8.9173 73.0708 10.3423 73.1327 10.5131C73.2547 10.85 73.5796 11.1644 73.885 11.2411C74.2634 11.3361 75.7661 11.4076 76.1927 11.351L76.5539 11.303V10.4856V9.66829H76.0482C75.6071 9.66829 75.5201 9.64579 75.3664 9.49183C75.1902 9.31543 75.1902 9.31543 75.1902 6.80578V4.29606L75.5214 4.25868C76.1324 4.18968 76.5138 3.76581 76.5163 3.15297L76.518 2.7534L75.872 2.74269L75.2261 2.73198L75.1902 1.79389C75.1506 0.757824 75.0864 0.577624 74.666 0.320872C74.4801 0.207376 74.3038 0.18078 73.7368 0.180565L73.0371 0.180277L73.0425 5.22977ZM10.6593 1.24049C10.4408 1.62598 9.97362 2.46595 9.62129 3.10711C9.26896 3.74827 8.95761 4.2658 8.92941 4.25717C8.8745 4.24036 6.81681 1.22187 6.76843 1.0871C6.67326 0.822443 6.68955 1.29591 6.83611 3.05256C6.92669 4.13814 6.98683 5.04037 6.96975 5.0574C6.95267 5.07451 6.89755 5.05661 6.84724 5.01758C6.04411 4.39454 3.47482 2.54365 3.44906 2.56953C3.42982 2.58872 3.75724 3.40376 4.17654 4.38066C4.5959 5.35757 4.92002 6.17577 4.89684 6.19898C4.87373 6.22213 4.15299 6.09224 3.29518 5.91024C2.43743 5.72825 1.71936 5.59563 1.69948 5.61554C1.67959 5.63545 1.98606 5.96516 2.38052 6.3482C2.7749 6.73132 3.44475 7.38125 3.86899 7.79261C4.29316 8.2039 4.63178 8.5454 4.62145 8.55143C4.61111 8.55754 3.71447 8.7335 2.62892 8.9426C0.356553 9.3802 0.369687 9.37711 0.450574 9.45014C0.484163 9.48047 1.29483 9.77273 2.25212 10.0998C3.20934 10.4268 3.99258 10.7187 3.99258 10.7486C3.99258 10.7785 3.94134 10.8227 3.87875 10.8467C3.7739 10.887 1.12365 12.4544 1.0559 12.5162C0.932594 12.6286 1.35676 12.6039 3.01785 12.4017C4.06407 12.2744 4.95153 12.1814 4.99 12.1951C5.02847 12.2088 4.49685 12.9478 3.80878 13.8373C3.12063 14.7268 2.55751 15.477 2.55736 15.5043C2.55708 15.5631 3.09149 15.3207 5.0256 14.3845C5.81085 14.0045 6.46778 13.6935 6.48529 13.6935C6.50288 13.6935 6.49828 13.8148 6.47517 13.963C6.45206 14.1113 6.30385 15.0435 6.14588 16.0347C5.98791 17.0257 5.85865 17.8775 5.85865 17.9275C5.85865 18.0901 5.9742 17.981 6.5745 17.2515C7.99889 15.5204 8.26509 15.2046 8.29889 15.2058C8.31863 15.2066 8.54342 15.8535 8.7985 16.6436C9.05357 17.4336 9.29257 18.0698 9.32968 18.0575C9.36686 18.045 9.61031 17.4141 9.87077 16.6553C10.1313 15.8965 10.3801 15.2755 10.4236 15.2753C10.4672 15.2751 11.0306 15.9379 11.6757 16.7484C12.6616 17.9871 12.9665 18.3316 12.9636 18.2039C12.9634 18.1941 12.8832 17.2641 12.7853 16.1374C12.5822 13.7998 12.5805 13.7654 12.6753 13.7654C12.7417 13.7654 13.5221 14.254 15.2936 15.4049C15.7261 15.686 16.093 15.9029 16.1087 15.8872C16.1245 15.8714 15.7909 14.9913 15.3673 13.9314C14.9437 12.8715 14.5832 11.9681 14.5659 11.9237C14.5438 11.8663 15.0699 11.824 16.387 11.7772C18.5201 11.7015 18.5514 11.8121 16.1043 10.7767C15.3643 10.4636 14.7586 10.1866 14.7586 10.1612C14.7584 10.1357 14.8096 10.0952 14.8722 10.0712C14.959 10.0378 18.483 7.79354 18.6281 7.67926C18.7062 7.61766 18.4584 7.59422 16.5174 7.47994C15.373 7.41258 14.4255 7.34624 14.4117 7.33251C14.398 7.31878 14.705 6.89261 15.094 6.38544C15.483 5.87833 15.8654 5.37863 15.9437 5.27505C16.022 5.17147 16.2911 4.82157 16.5417 4.49739C16.7923 4.17329 16.9837 3.8944 16.9671 3.8778C16.9505 3.86119 16.0688 4.2354 15.0079 4.70936C13.1965 5.51872 12.8923 5.63624 12.8923 5.52684C12.8923 5.50248 13.0863 4.70491 13.3234 3.75438C13.5606 2.80393 13.7379 2.00945 13.7174 1.98904C13.697 1.96855 13.5918 2.03303 13.4837 2.13229C12.1981 3.31254 11.5118 3.91798 11.4591 3.91798C11.4241 3.91798 11.3768 3.7482 11.3541 3.54061C11.3046 3.08821 11.1698 1.04627 11.1698 0.749558C11.1698 0.63412 11.1444 0.539672 11.1133 0.539672C11.0822 0.539672 10.8779 0.855004 10.6593 1.24049ZM42.7135 2.52561C41.4639 2.72005 40.4998 3.42144 39.9825 4.51242C39.599 5.32113 39.5014 5.91535 39.5371 7.22441C39.5638 8.20217 39.5915 8.4089 39.7637 8.91356C40.1895 10.1612 40.9729 10.9709 42.1034 11.3319C42.4598 11.4456 42.7649 11.4814 43.3953 11.4838C44.7694 11.4889 45.6217 11.1673 46.4082 10.347C46.835 9.90197 47.1516 9.34994 47.2432 8.89106C47.2889 8.66198 47.2889 8.66198 46.4234 8.66198C45.9473 8.66198 45.4689 8.69584 45.3601 8.73724C45.2514 8.77864 45.0212 8.94289 44.8487 9.10217C44.4323 9.48651 44.1439 9.5967 43.5591 9.59483C42.9717 9.59296 42.5902 9.43777 42.2673 9.06961C42.0238 8.79187 41.8163 8.21799 41.8163 7.82229C41.8163 7.5838 41.8163 7.5838 44.6154 7.5838H47.4145L47.4133 6.8111C47.4118 5.87258 47.2783 5.20094 46.9601 4.53103C46.5187 3.60157 45.7631 2.9612 44.759 2.66535C44.3621 2.5484 43.1147 2.46322 42.7135 2.52561ZM51.3979 2.55508C50.8228 2.6146 50.356 2.74405 49.7632 3.00821C48.881 3.40131 48.434 3.86536 48.0766 4.75889C47.881 5.24774 47.881 5.24774 47.8602 9.91038L47.8392 14.573L48.5579 14.5441C49.3507 14.5122 49.5299 14.4334 49.8368 13.9817C49.9931 13.7517 49.9983 13.6893 49.9983 12.0297C49.9983 11.0867 50.0176 10.3152 50.0412 10.3152C50.0648 10.3152 50.2278 10.4753 50.4035 10.671C50.9 11.224 51.3567 11.4124 52.295 11.4512C52.898 11.476 53.1501 11.4557 53.452 11.3579C54.5718 10.9953 55.3893 10.0264 55.7873 8.5901C55.9718 7.92415 55.9715 6.01936 55.7867 5.35556C55.4668 4.20636 54.8534 3.36588 54.0564 2.98499C53.2535 2.60123 52.3549 2.45589 51.3979 2.55508ZM68.0246 2.56134C66.7781 2.71343 65.6384 3.36573 65.2387 4.15554C64.8929 4.83896 64.8577 5.22955 64.8563 8.39244L64.8551 11.3215H65.9675H67.08V8.37217C67.08 5.25478 67.0924 5.12439 67.4237 4.75752C68.0504 4.06346 69.5059 4.22009 69.9754 5.0321C70.0325 5.13079 70.0698 6.02044 70.0944 7.87132C70.1281 10.4017 70.1391 10.5817 70.2738 10.8102C70.508 11.2073 70.8083 11.3215 71.6184 11.3215H72.3193L72.3183 8.3565C72.3171 5.15983 72.2888 4.85348 71.9291 4.14246C71.3816 3.06046 69.657 2.36209 68.0246 2.56134ZM31.5515 2.74995C31.5507 2.77963 31.5513 4.14928 31.5529 5.79366C31.5561 9.0704 31.5832 9.32463 32.0063 10.0477C32.4974 10.8869 33.8795 11.4852 35.321 11.4825C36.8386 11.4797 38.1035 10.8981 38.6071 9.9714C38.9854 9.27518 39.015 8.96567 39.0162 5.69066L39.0172 2.68332L38.2323 2.70768C37.4736 2.73119 37.4396 2.73924 37.2186 2.94761C36.7981 3.34417 36.7923 3.38744 36.7923 6.12868C36.7923 8.58148 36.7891 8.6379 36.6308 8.95166C36.2684 9.67008 35.3007 9.93604 34.5133 9.53351C34.3654 9.4579 34.1848 9.3301 34.112 9.24945C33.8035 8.90781 33.7843 8.69807 33.781 5.6251L33.7779 2.69604H32.6654C32.0536 2.69604 31.5523 2.72026 31.5515 2.74995ZM59.9292 2.77453C59.3239 2.87588 58.492 3.16835 58.1088 3.41468C57.3969 3.87219 56.9244 4.53448 56.5962 5.53525C56.4386 6.01548 56.4298 6.1588 56.4024 8.67995L56.3738 11.3215H57.4868H58.5997L58.6233 8.78777C58.6455 6.39924 58.6554 6.2355 58.7963 5.93059C58.9793 5.53482 59.3766 5.17327 59.7394 5.07235C59.8885 5.03088 60.2931 4.99681 60.6385 4.99659L61.2665 4.99616V3.8461V2.69604L60.782 2.70445C60.5156 2.70905 60.1318 2.7406 59.9292 2.77453ZM61.9842 7.00223V11.3215H63.099H64.2138L64.1936 7.37334C64.1737 3.51409 64.1699 3.42079 64.0253 3.22679C63.7077 2.80105 63.5407 2.73392 62.7328 2.70747L61.9842 2.68296V7.00223ZM43.8999 4.42832C44.5332 4.56431 44.9568 5.07084 45.0811 5.84074L45.1305 6.14622H43.4734C41.8163 6.14622 41.8163 6.14622 41.8163 5.95689C41.8163 5.25241 42.3554 4.59127 43.0723 4.41646C43.3883 4.3394 43.493 4.34091 43.8999 4.42832ZM24.5179 4.49883C25.4516 4.71432 26.0346 5.85044 25.9319 7.25416C25.8179 8.81171 25.1956 9.59641 24.0746 9.59641C23.4863 9.59641 23.1597 9.45395 22.778 9.03087C22.4485 8.66558 22.2958 8.16832 22.2455 7.29629C22.1987 6.48283 22.2952 5.89436 22.5624 5.3649C22.7913 4.9112 23.1083 4.64683 23.5734 4.5214C23.9912 4.40877 24.1147 4.40582 24.5179 4.49883ZM52.622 4.55669C52.9866 4.72252 53.3988 5.19807 53.5553 5.63351C53.7114 6.06752 53.7747 7.4192 53.664 7.95347C53.5539 8.48473 53.1931 9.07255 52.8139 9.33872C52.4225 9.61344 51.7448 9.68 51.2532 9.49197C50.829 9.32974 50.3199 8.75967 50.181 8.29138C49.8356 7.12629 50.0483 5.51886 50.6302 4.89726C51.0681 4.42947 51.9941 4.27112 52.622 4.55669ZM52.6704 13.7572C52.1148 13.9494 51.6618 14.3673 51.344 14.9808C51.0996 15.4528 51.0749 15.5525 51.0749 16.0678C51.0749 16.81 51.2592 17.307 51.7229 17.8151C52.4046 18.5621 53.4843 18.8232 54.4482 18.474C55.2823 18.1719 56.0271 17.1531 56.0271 16.3144V15.9936H54.5162H53.0052L53.0269 16.371L53.0486 16.7484L53.9637 16.7685C54.5898 16.7822 54.8788 16.8145 54.8788 16.8706C54.8788 16.9158 54.7381 17.0877 54.5662 17.2527C53.6602 18.122 52.2446 17.5904 52.0391 16.3036C51.945 15.7145 52.3317 14.9745 52.88 14.6943C53.1213 14.571 53.2744 14.5465 53.6656 14.5686C54.0836 14.5923 54.1917 14.6284 54.4392 14.8277C54.7022 15.0394 54.7702 15.0592 55.2334 15.0592C55.8181 15.0592 55.8442 15.0183 55.5427 14.5751C55.0952 13.9173 54.4896 13.6203 53.6041 13.624C53.2589 13.6254 52.9054 13.6759 52.6704 13.7572ZM73.0788 13.7999C72.2924 14.1237 71.6572 14.9813 71.5587 15.8525C71.4978 16.3905 71.6782 17.0759 72.0074 17.5574C72.8584 18.8024 74.6205 18.9967 75.7543 17.9708C76.1312 17.6299 76.4774 16.9311 76.532 16.401L76.574 15.9936H75.0567H73.5395V16.389V16.7843H74.4725C74.995 16.7843 75.4055 16.8135 75.4055 16.8506C75.4055 16.8872 75.3209 17.0177 75.2176 17.1407C74.6786 17.7822 73.7054 17.854 73.0892 17.2977C72.3466 16.6272 72.3484 15.5741 73.0933 14.9016C73.585 14.4576 74.3729 14.4287 74.9465 14.8335C75.2309 15.0343 75.3214 15.0592 75.7665 15.0592C76.3214 15.0592 76.3483 15.0285 76.1187 14.6565C75.8804 14.2703 75.3473 13.8469 74.9514 13.7291C74.3863 13.561 73.5855 13.5913 73.0788 13.7999ZM57.2107 14.574C57.0234 15.0583 56.6333 16.0583 56.3439 16.7963C55.613 18.6595 55.6272 18.5094 56.1814 18.5094C56.6383 18.5094 56.6383 18.5094 56.8254 18.0242L57.0125 17.539H57.9279H58.8433L59.0223 18.0242C59.2014 18.5094 59.2014 18.5094 59.6957 18.5094C59.9675 18.5094 60.1899 18.4922 60.1899 18.4713C60.1899 18.4503 60.1146 18.2482 60.0225 18.022C59.9305 17.7959 59.5191 16.7295 59.1083 15.6522L58.3615 13.6935H57.9563C57.5512 13.6935 57.5511 13.6935 57.2107 14.574ZM60.477 16.1014V18.5094H60.9435H61.41V16.8418C61.41 15.9197 61.4373 15.2048 61.4711 15.2425C61.5216 15.2989 61.8132 16.109 62.5646 18.2792C62.6446 18.5105 62.6557 18.5158 63.0152 18.4949C63.3838 18.4734 63.3838 18.4734 63.5651 17.9344C64.1298 16.2548 64.5385 15.1311 64.5846 15.1311C64.6135 15.1311 64.6164 15.8912 64.5911 16.8202L64.545 18.5094H65.023H65.501V16.1014V13.6935L64.873 13.6939L64.245 13.6942L64.0024 14.3947C63.2307 16.6226 63.0405 17.1437 62.9991 17.1433C62.9738 17.1431 62.844 16.8278 62.7105 16.4425C62.577 16.0572 62.3071 15.2812 62.1105 14.7178L61.7532 13.6935H61.1151H60.477V16.1014ZM66.0034 16.1014V18.5094H66.4699H66.9365V16.1014V13.6935H66.4699H66.0034V16.1014ZM67.4389 16.1014V18.5094H67.8695H68.3001V16.958C68.3001 15.9862 68.3262 15.4156 68.3698 15.4306C68.4081 15.4438 68.8693 16.1338 69.3946 16.964C70.3499 18.4734 70.3499 18.4734 70.7963 18.4949L71.2428 18.5162V16.1049V13.6935H70.8121H70.3815V15.203C70.3815 16.0332 70.3573 16.7123 70.3277 16.7123C70.269 16.7121 70.1871 16.5922 69.0638 14.8615C68.3057 13.6935 68.3056 13.6935 67.8723 13.6935H67.4389V16.1014ZM58.2477 15.8368C58.3686 16.1656 58.4674 16.481 58.4674 16.5376C58.4674 16.6178 58.3483 16.6405 57.9291 16.6405C57.5771 16.6405 57.3908 16.6124 57.3908 16.5594C57.3908 16.4869 57.5951 15.8923 57.8176 15.317C57.9237 15.0425 57.9815 15.1123 58.2477 15.8368Z" fill="#EBEBEC"/>
</svg>
