<svg width="70" height="23" viewBox="0 0 70 23" fill="none" xmlns="http://www.w3.org/2000/svg">
<path fill-rule="evenodd" clip-rule="evenodd" d="M14.6263 0.239074C19.5488 -0.581324 23.3432 4.08465 21.2921 8.5968L17.2415 17.9287C15.3445 22.1332 9.75557 22.5947 6.88425 18.903L1.34652 11.7245C-1.52479 7.9815 0.525831 2.59769 5.0892 1.82858L14.6263 0.239074ZM12.2165 15.3137C11.1397 15.3137 10.2166 15.1086 9.34522 14.6472C8.47331 14.1857 7.80684 13.5191 7.34527 12.75C6.8837 11.9296 6.62758 11.0067 6.62758 9.9812C6.62758 8.95572 6.8837 8.03277 7.34527 7.21239C7.85807 6.392 8.52453 5.7767 9.34522 5.31523C10.2166 4.85376 11.1909 4.59739 12.2165 4.59739C13.0879 4.59739 13.9086 4.75122 14.6263 5.05886C15.344 5.36651 15.9592 5.82798 16.472 6.44327L14.9342 7.87895C14.2159 7.05856 13.3446 6.64837 12.319 6.64837C11.7037 6.64837 11.0885 6.80219 10.5757 7.05856C10.0629 7.31493 9.70379 7.72513 9.39645 8.23787C9.13977 8.75062 8.9861 9.31463 8.9861 9.9812C8.9861 10.6478 9.191 11.1092 9.44767 11.622C9.75502 12.1347 10.1141 12.5449 10.6269 12.8013C11.1397 13.0577 11.7037 13.2115 12.3702 13.2115C13.3958 13.2115 14.2672 12.8013 14.9854 11.9809L16.5232 13.4166C16.011 14.0319 15.3952 14.4934 14.6775 14.801C13.9086 15.1599 13.0879 15.3137 12.2165 15.3137ZM34.5724 1.05946H37.5461V15.1599H34.5724V1.05946ZM26.9322 4.80249C28.5218 4.80249 29.7523 5.16141 30.573 5.93053C31.4444 6.69964 31.8547 7.82768 31.8547 9.31464V15.1599H29.0859V13.8781C28.5218 14.8523 27.4963 15.3137 25.9579 15.3137C25.189 15.3137 24.4713 15.1599 23.9072 14.9035C23.3432 14.6472 22.8817 14.2883 22.5738 13.8268C22.2664 13.3653 22.1127 12.8013 22.1127 12.2373C22.1127 11.2631 22.4713 10.5452 23.1896 9.9812C23.9072 9.41719 25.0353 9.16082 26.5219 9.16082H28.881C28.881 8.49425 28.6755 8.03278 28.2657 7.67386C27.8554 7.31494 27.2914 7.16111 26.4707 7.16111C25.9066 7.16111 25.3939 7.26366 24.8298 7.41748C24.3176 7.57131 23.856 7.82768 23.4969 8.08405L22.4201 6.03308C22.9841 5.62288 23.6506 5.31523 24.42 5.11014C25.2914 4.90504 26.1121 4.80249 26.9322 4.80249ZM26.7273 13.314C27.2401 13.314 27.7017 13.2115 28.0603 12.9551C28.4706 12.6987 28.7267 12.3398 28.881 11.9296V10.9041H26.8298C25.5993 10.9041 24.9841 11.3143 24.9841 12.0835C24.9841 12.4424 25.1377 12.75 25.4456 13.0064C25.8042 13.2115 26.2145 13.314 26.7273 13.314ZM50.2624 10.9041C50.3136 10.3914 50.3136 10.135 50.3136 10.0838C50.3136 9.05827 50.1082 8.08405 49.6984 7.26366C49.2368 6.44327 48.6216 5.82798 47.8009 5.41778C46.9808 4.95632 46.1088 4.75122 45.0833 4.75122C44.0582 4.75122 43.0839 4.95632 42.2632 5.41778C41.443 5.87925 40.7766 6.49455 40.315 7.31494C39.8534 8.13533 39.5973 9.00699 39.5973 10.0325C39.5973 11.058 39.8534 11.9296 40.315 12.75C40.7766 13.5704 41.4943 14.1857 42.3662 14.6472C43.2888 15.1086 44.2631 15.3137 45.4424 15.3137C47.2881 15.3137 48.6728 14.7497 49.6466 13.673L48.0576 11.9809C47.6985 12.3398 47.2881 12.5962 46.8783 12.75C46.468 12.9038 45.9552 12.9551 45.4424 12.9551C44.6735 12.9551 44.0064 12.75 43.4942 12.3911C42.9814 12.0322 42.6735 11.5194 42.5198 10.9041H50.2624ZM43.34 7.62258C43.8016 7.26366 44.3656 7.05857 45.032 7.05857C45.6985 7.05857 46.2113 7.21239 46.7241 7.62258C47.1857 7.9815 47.4423 8.49425 47.5448 9.16082H42.5198C42.6223 8.49425 42.8784 7.9815 43.34 7.62258ZM58.9276 14.6984C58.6197 14.9035 58.2611 15.0574 57.8508 15.2112C57.4404 15.3137 56.9789 15.365 56.5178 15.365C55.2868 15.365 54.3642 15.0574 53.6978 14.4421C53.0307 13.8268 52.7234 12.9038 52.7234 11.7245V7.52003H51.1338V5.26396H52.7234V2.70024H55.6972V5.21269H58.2611V7.46876H55.6972V11.622C55.6972 12.0322 55.7996 12.3911 56.0051 12.6475C56.2099 12.8526 56.5691 13.0064 56.9789 13.0064C57.4404 13.0064 57.8508 12.9038 58.1587 12.6475L58.9276 14.6984ZM68.3622 5.93053C67.5415 5.16141 66.3111 4.80249 64.7214 4.80249C63.9013 4.80249 63.0806 4.90504 62.2093 5.11014C61.4398 5.31523 60.7733 5.62288 60.2093 6.03308L61.2861 8.08405C61.6452 7.82768 62.1068 7.57131 62.619 7.41748C63.1831 7.26366 63.6959 7.16111 64.2599 7.16111C65.0806 7.16111 65.6446 7.31494 66.0549 7.67386C66.4647 8.03278 66.6702 8.49425 66.6702 9.16082H64.3111C62.8245 9.16082 61.6965 9.41719 60.9788 9.9812C60.2605 10.5452 59.902 11.2631 59.902 12.2373C59.902 12.8013 60.0556 13.3653 60.363 13.8268C60.6709 14.2883 61.1324 14.6472 61.6965 14.9035C62.2605 15.1599 62.9782 15.3137 63.7471 15.3137C65.2855 15.3137 66.3111 14.8523 66.8751 13.8781V15.1599H69.6439V9.31464C69.6439 7.82768 69.2336 6.69964 68.3622 5.93053ZM65.7983 12.9551C65.4391 13.2115 64.9781 13.314 64.4653 13.314C63.9525 13.314 63.5422 13.2115 63.1831 13.0064C62.8757 12.75 62.722 12.4424 62.722 12.0835C62.722 11.3143 63.3373 10.9041 64.5678 10.9041H66.6189V11.9296C66.4647 12.3398 66.2086 12.6987 65.7983 12.9551ZM23.3944 18.4415V21.6205H23.0866V19.0568L21.8048 21.2103H21.6512L20.3695 19.0568V21.6205H20.0616V18.4415H20.3177L21.7024 20.8001L23.0866 18.4415H23.3944ZM25.9579 19.467C25.8042 19.2619 25.5481 19.2106 25.2402 19.2106C25.1989 19.2106 25.1598 19.2127 25.1218 19.2161L25.0408 19.2252L24.9598 19.237C24.8783 19.2496 24.8028 19.2619 24.7274 19.2619C24.5225 19.3131 24.3688 19.4157 24.2658 19.5182L24.42 19.7746C24.5225 19.6721 24.6249 19.6208 24.7786 19.5695C24.8557 19.5695 24.9328 19.5567 25.0099 19.5438L25.0166 19.5428L25.1212 19.5267C25.1609 19.5216 25.2005 19.5182 25.2402 19.5182C25.4456 19.5182 25.6505 19.5695 25.753 19.6721C25.8554 19.7746 25.9066 19.9284 25.9066 20.1335V20.2874H25.1377C24.8298 20.2874 24.5737 20.3899 24.42 20.4925C24.2658 20.6463 24.2146 20.8001 24.2146 21.0052C24.2146 21.2103 24.3176 21.4154 24.4713 21.5179C24.6249 21.6718 24.8298 21.723 25.0865 21.723C25.2914 21.723 25.4456 21.6718 25.5993 21.6205C25.6334 21.5863 25.6731 21.5521 25.7128 21.5179C25.7926 21.4496 25.8725 21.3812 25.9066 21.3128V21.6718H26.2145V20.1848C26.2145 19.8772 26.1121 19.6208 25.9579 19.467ZM25.5993 21.3128C25.4968 21.3641 25.3426 21.4154 25.1377 21.4154C24.9328 21.4154 24.7786 21.3641 24.6762 21.3128C24.5737 21.2103 24.5225 21.1077 24.5225 20.9539C24.5225 20.6976 24.7274 20.5437 25.1377 20.5437H25.9066V20.9539L25.8637 21.0195C25.7866 21.1384 25.7298 21.2256 25.5993 21.3128ZM28.009 20.4412L27.445 20.9539V21.6205H27.1377V18.2877H27.445V20.595L28.881 19.2619H29.2908L28.2657 20.2361L29.3938 21.6718H28.9834L28.009 20.4412ZM30.1114 19.2619H29.8035V21.6718H30.1114V19.2619ZM29.8035 18.6979C29.8548 18.7491 29.906 18.7491 29.9578 18.7491C30.0602 18.7491 30.1114 18.6979 30.1114 18.6979C30.15 18.6593 30.1594 18.6208 30.1621 18.5822L30.1627 18.544C30.1627 18.4928 30.1627 18.4415 30.1114 18.3902C30.0745 18.3533 30.0376 18.3429 30.0007 18.3401L29.9578 18.3389C29.906 18.3389 29.8548 18.3389 29.8035 18.3902C29.7523 18.4415 29.7523 18.4928 29.7523 18.544C29.7523 18.5953 29.7523 18.6466 29.8035 18.6979ZM32.2651 19.2106C32.5724 19.2106 32.8291 19.3131 32.9828 19.467C33.1877 19.6208 33.2389 19.8772 33.2389 20.2361V21.6205H32.9315V20.2361C32.9315 19.9797 32.8803 19.7746 32.7261 19.6721C32.6236 19.5182 32.4187 19.467 32.2138 19.467C31.9572 19.467 31.7523 19.5182 31.598 19.6721C31.4444 19.8259 31.3932 20.031 31.3932 20.2874V21.5692H31.0858V19.1593H31.3932V19.6208C31.4956 19.467 31.598 19.3644 31.7523 19.2619C31.8547 19.2619 32.0596 19.2106 32.2651 19.2106ZM36.3669 21.3641V19.2619H36.0077V19.7233C35.9053 19.5695 35.7516 19.4157 35.5979 19.3644C35.4437 19.3131 35.2388 19.2619 35.0339 19.2619C34.8285 19.2619 34.6236 19.3131 34.4181 19.4157C34.2132 19.5182 34.0596 19.6721 33.9571 19.8259C33.8541 20.031 33.8029 20.1848 33.8029 20.4412C33.8029 20.6976 33.8541 20.8514 33.9571 21.0565L34.0342 21.1371L34.0673 21.1735C34.1703 21.2855 34.2656 21.3903 34.4181 21.4667C34.6236 21.5692 34.8285 21.6205 35.0339 21.6205C35.2388 21.6205 35.4437 21.5692 35.5979 21.5179C35.7516 21.4154 35.9053 21.3128 36.0077 21.159V21.4667C36.0077 21.7743 35.9565 21.9794 35.8028 22.1332C35.6492 22.2871 35.4437 22.3383 35.1364 22.3383C35.0604 22.3383 34.9722 22.3259 34.8841 22.3072C34.7932 22.2879 34.7018 22.2618 34.6236 22.2358C34.4699 22.1845 34.3157 22.082 34.2132 21.9794L34.0596 22.2358C34.162 22.3383 34.3157 22.4409 34.5211 22.4922C34.6748 22.5434 34.9309 22.5947 35.1364 22.5947C35.5462 22.5947 35.8541 22.4922 36.059 22.2871C36.2644 22.082 36.3669 21.7743 36.3669 21.3641ZM35.5979 21.159C35.4949 21.2103 35.2901 21.2616 35.1364 21.2616C34.9822 21.2616 34.8285 21.2616 34.6748 21.159C34.5724 21.1077 34.4181 21.0052 34.3669 20.8514C34.3157 20.6976 34.2645 20.5437 34.2645 20.3899C34.2645 20.2361 34.3157 20.0823 34.3669 19.9284C34.4181 19.7746 34.5211 19.6721 34.6748 19.6208C34.7773 19.5695 34.9822 19.5182 35.1364 19.5182C35.2901 19.5182 35.4437 19.5695 35.5979 19.6208C35.7004 19.6721 35.8541 19.7746 35.9053 19.9284C35.9565 20.0823 36.0077 20.2361 36.0077 20.3899C36.0077 20.4239 36.005 20.458 36.0006 20.492L35.994 20.5381L35.9841 20.5854C35.9763 20.6206 35.967 20.6557 35.9571 20.6908C35.9417 20.7443 35.9235 20.7979 35.9053 20.8514C35.8541 20.9539 35.7004 21.1077 35.5979 21.159ZM40.5711 20.031C40.7766 20.0823 40.9302 20.1848 41.0327 20.2874C41.1351 20.4412 41.1864 20.595 41.1864 20.8001C41.1864 21.0565 41.0839 21.2616 40.879 21.4154C40.6741 21.5692 40.3662 21.6205 40.0071 21.6205H38.5205V18.4415H39.9559C40.315 18.4415 40.5711 18.4928 40.7766 18.6466C40.9815 18.8004 41.0839 19.0055 41.0839 19.2619C41.0839 19.4157 41.0327 19.5695 40.9302 19.7233C40.879 19.8772 40.7253 19.9284 40.5711 20.031ZM38.9303 18.7491V19.9284H39.9559C40.2125 19.9284 40.4174 19.8772 40.5711 19.7746C40.7253 19.6721 40.7766 19.5182 40.7766 19.3644C40.7766 19.2106 40.7253 19.0055 40.5711 18.9542C40.4174 18.8517 40.2125 18.8004 39.9559 18.8004L38.9303 18.7491ZM40.0071 21.3641C40.315 21.3641 40.5199 21.3128 40.6741 21.2103C40.8278 21.1077 40.879 20.9539 40.879 20.7488C40.879 20.3386 40.5711 20.1335 40.0071 20.1335H38.9303V21.3641H40.0071ZM42.0583 20.5437H44.0582L44.1094 20.4412C44.1094 20.2361 44.0582 20.031 43.9552 19.8259C43.9068 19.7532 43.8467 19.6805 43.7806 19.6132C43.7074 19.5381 43.6264 19.4698 43.5454 19.4157C43.34 19.3131 43.1863 19.2619 42.9302 19.2619C42.6735 19.2619 42.5198 19.3131 42.3144 19.4157C42.1607 19.467 42.007 19.6208 41.9046 19.8259C41.8022 19.9797 41.7504 20.2361 41.7504 20.4412C41.7504 20.6463 41.8022 20.8514 41.9046 21.0565C42.007 21.2616 42.1607 21.4154 42.3662 21.5179C42.5711 21.6205 42.776 21.6718 43.0326 21.6718C43.1863 21.6718 43.3912 21.6205 43.5454 21.5692C43.6176 21.521 43.6897 21.4728 43.7564 21.4246C43.7949 21.3968 43.8318 21.369 43.866 21.3412L43.9117 21.3022L43.9552 21.2616L43.7503 21.0565C43.6991 21.159 43.5454 21.2616 43.4424 21.3128C43.3862 21.3128 43.3146 21.3282 43.2364 21.3422C43.1714 21.3536 43.102 21.3641 43.0326 21.3641C42.776 21.3641 42.5198 21.3128 42.3662 21.159C42.1607 21.0052 42.0583 20.8001 42.0583 20.5437ZM42.3144 19.7233C42.4686 19.5695 42.6735 19.5182 42.8784 19.5182C43.1351 19.5182 43.34 19.5695 43.4942 19.7233C43.6479 19.8772 43.7503 20.031 43.7503 20.2874H42.0583C42.0583 20.0823 42.1607 19.8772 42.3144 19.7233ZM46.0064 21.5179C45.9552 21.5692 45.8527 21.6205 45.8015 21.6205C45.6985 21.6718 45.5961 21.6718 45.5448 21.6718C45.3399 21.6718 45.1345 21.6205 45.032 21.4667C44.9296 21.3641 44.8271 21.159 44.8271 20.9539V19.5182H44.4168V19.2619H44.8271V18.7491H45.0833V19.2619H45.8015V19.5182H45.0833V20.9539C45.0833 21.1077 45.1345 21.2103 45.1863 21.2616C45.1951 21.2703 45.2055 21.279 45.2171 21.2875C45.2353 21.3008 45.2573 21.3134 45.2826 21.3245C45.3124 21.3375 45.3476 21.3482 45.3879 21.3552L45.4231 21.3603L45.4578 21.3632L45.4936 21.3641C45.5448 21.3641 45.6473 21.3641 45.6985 21.3128C45.7503 21.3128 45.8015 21.2616 45.8527 21.2103L46.0064 21.5179ZM47.3393 21.6718C47.3906 21.6718 47.4936 21.6718 47.596 21.6205C47.6472 21.6205 47.7497 21.5692 47.8009 21.5179L47.6985 21.2103C47.6472 21.2616 47.596 21.3128 47.5448 21.3128C47.4936 21.3641 47.3906 21.3641 47.3393 21.3641C47.1857 21.3641 47.0832 21.3128 47.032 21.2616C46.9808 21.2103 46.9295 21.1077 46.9295 20.9539V19.5182H47.6472V19.2619H46.9295V18.7491H46.6216V19.2619H46.2113V19.5182H46.6216V20.9539C46.6216 21.159 46.7241 21.3641 46.8265 21.4667C46.9295 21.6205 47.1344 21.6718 47.3393 21.6718ZM50.4161 20.5437H48.4161C48.4161 20.8001 48.5186 21.0052 48.724 21.159C48.8777 21.3128 49.1344 21.3641 49.3905 21.3641C49.4136 21.3641 49.4368 21.363 49.4599 21.361L49.5034 21.3564C49.5497 21.3506 49.5943 21.3424 49.6362 21.3346C49.6984 21.3232 49.7546 21.3128 49.8009 21.3128C49.9033 21.2616 50.057 21.159 50.1082 21.0565L50.3136 21.2616C50.2106 21.3641 50.057 21.4667 49.9033 21.5692C49.7496 21.6718 49.5442 21.6718 49.3905 21.6718C49.1344 21.6718 48.9289 21.6205 48.724 21.5179C48.5186 21.4154 48.3649 21.2616 48.2625 21.0565C48.16 20.8514 48.1088 20.6463 48.1088 20.4412C48.1088 20.2361 48.16 19.9797 48.2625 19.8259C48.3649 19.6208 48.5186 19.467 48.6728 19.4157C48.8777 19.3131 49.0314 19.2619 49.2881 19.2619C49.5442 19.2619 49.6984 19.3131 49.9033 19.4157C50.057 19.5182 50.2106 19.6721 50.3136 19.8259C50.4161 20.031 50.4673 20.2361 50.4673 20.4412L50.4161 20.5437ZM49.2368 19.5182C49.0314 19.5182 48.8265 19.5695 48.6728 19.7233C48.5186 19.8772 48.4161 20.0823 48.4161 20.2874H50.1082C50.1082 20.031 50.0057 19.8772 49.8521 19.7233C49.6466 19.5695 49.4417 19.5182 49.2368 19.5182ZM51.749 19.3644C51.5954 19.4157 51.4417 19.5695 51.3905 19.7233L51.4417 19.2619H51.1338V21.6718H51.4417V20.4412C51.4417 20.1335 51.4929 19.9284 51.6466 19.7746C51.8003 19.6208 52.0057 19.5695 52.2618 19.5695H52.313V19.2619C52.1082 19.2619 51.9027 19.3131 51.749 19.3644ZM56.4148 20.0823H56.7227V21.3128C56.6902 21.3453 56.6577 21.3732 56.6253 21.3979C56.5983 21.4183 56.5707 21.4366 56.5426 21.4535C56.5057 21.4757 56.4683 21.4956 56.4286 21.5151L56.3328 21.5612L56.2099 21.6205C56.0051 21.6718 55.7996 21.723 55.5435 21.723C55.2356 21.723 54.9282 21.6718 54.6716 21.5179C54.4154 21.3641 54.2105 21.159 54.0563 20.9539C53.9027 20.6976 53.8514 20.4412 53.8514 20.1335C53.8514 19.8259 53.9027 19.5695 54.0563 19.3131C54.2105 19.0568 54.4154 18.8517 54.6716 18.7491C54.9282 18.5953 55.2356 18.544 55.5435 18.544C55.7996 18.544 56.0051 18.5953 56.2099 18.6466C56.4148 18.6979 56.5691 18.8517 56.7227 19.0055L56.5178 19.2106C56.2612 18.9542 55.9538 18.8517 55.5435 18.8517C55.2868 18.8517 55.0307 18.903 54.8258 19.0055C54.6203 19.108 54.4667 19.2619 54.313 19.467L54.3113 19.4696C54.2094 19.6738 54.1075 19.8783 54.1075 20.1335C54.1075 20.3899 54.1588 20.595 54.313 20.8001C54.4154 21.0052 54.6203 21.159 54.8258 21.2616C55.0307 21.3641 55.2868 21.4154 55.5435 21.4154C55.8508 21.4154 56.1587 21.3128 56.3636 21.159V20.0823H56.4148ZM59.2349 19.467C59.0813 19.2619 58.8251 19.2106 58.5172 19.2106C58.3972 19.2106 58.2771 19.2282 58.1774 19.2428C58.1069 19.2531 58.0469 19.2619 58.0045 19.2619C57.7996 19.3131 57.6459 19.4157 57.5429 19.5182L57.6971 19.7746C57.7996 19.6721 57.902 19.5695 58.0557 19.5695C58.1328 19.5695 58.2099 19.5567 58.287 19.5438C58.3641 19.531 58.4407 19.5182 58.5172 19.5182C58.7227 19.5182 58.9276 19.5695 59.03 19.6721C59.1325 19.7746 59.1837 19.9284 59.1837 20.1335V20.2874H58.4148C58.1069 20.2874 57.8508 20.3899 57.6971 20.4925C57.5429 20.6463 57.4917 20.8001 57.4917 21.0052C57.4917 21.2103 57.5947 21.4154 57.7483 21.5179C57.902 21.6718 58.1069 21.723 58.3636 21.723C58.4462 21.723 58.5205 21.7147 58.59 21.7014C58.6924 21.6817 58.7844 21.6511 58.8764 21.6205C58.9105 21.5863 58.9502 21.5521 58.9898 21.5179C59.0697 21.4496 59.1496 21.3812 59.1837 21.3128V21.6718H59.4916V20.1848C59.4916 19.8772 59.3892 19.6208 59.2349 19.467ZM58.8251 21.3128C58.7227 21.3641 58.5685 21.4154 58.3636 21.4154C58.2099 21.4154 58.0557 21.3641 57.902 21.3128C57.7996 21.2103 57.7483 21.1077 57.7483 20.9539C57.7483 20.6976 57.9532 20.5437 58.3636 20.5437H59.1325V20.9539L59.0895 21.0195C59.0124 21.1384 58.9557 21.2256 58.8251 21.3128ZM63.3373 19.2106C63.6446 19.2106 63.9013 19.3131 64.055 19.467C64.2086 19.6208 64.3111 19.8772 64.3111 20.2361V21.6205H64.0038V20.2361C64.0038 19.9797 63.9525 19.7746 63.7989 19.6721C63.6959 19.5182 63.491 19.467 63.2861 19.467C63.0294 19.467 62.8245 19.5182 62.6708 19.6721C62.5166 19.8259 62.4654 20.031 62.4654 20.2874V21.5692H62.158V20.1848C62.158 19.9284 62.1068 19.7233 61.9526 19.6208C61.8501 19.467 61.6452 19.4157 61.4398 19.4157C61.1837 19.4157 60.9788 19.467 60.8245 19.6208C60.6709 19.7746 60.6196 19.9797 60.6196 20.2361V21.5179H60.3117V19.108H60.6196V19.5695C60.6775 19.4823 60.7353 19.4115 60.8031 19.3479C60.8306 19.3223 60.8592 19.2978 60.8901 19.2739C60.9182 19.2525 60.9474 19.2316 60.9788 19.2106C61.1324 19.1593 61.2861 19.108 61.491 19.108C61.6965 19.108 61.8501 19.1593 62.0038 19.2106C62.158 19.3131 62.2605 19.4157 62.3629 19.5695C62.4654 19.4157 62.5678 19.3131 62.722 19.2106C62.8928 19.2448 63.0178 19.2334 63.1434 19.222C63.2062 19.2163 63.269 19.2106 63.3373 19.2106ZM65.3367 20.5437H67.3366L67.3879 20.4412C67.3879 20.3176 67.3691 20.1939 67.3317 20.0703C67.3074 19.9888 67.2749 19.9074 67.2342 19.8259C67.1312 19.6721 66.9775 19.5182 66.8238 19.4157C66.6189 19.3131 66.4135 19.2619 66.2086 19.2619C65.9519 19.2619 65.7983 19.3131 65.5934 19.4157C65.4391 19.467 65.2855 19.6721 65.183 19.8259C65.0806 19.9797 65.0293 20.2361 65.0293 20.4412C65.0293 20.6463 65.0806 20.8514 65.183 21.0565C65.2855 21.2616 65.4391 21.4154 65.6446 21.5179C65.8495 21.6205 66.0549 21.6718 66.3111 21.6718C66.4647 21.6718 66.6702 21.6718 66.8238 21.5692C66.9241 21.5024 67.0243 21.4357 67.1103 21.3689C67.1565 21.3331 67.1984 21.2973 67.2342 21.2616L67.0287 21.0565C66.9775 21.159 66.8238 21.2616 66.7214 21.3128C66.6751 21.3128 66.6189 21.3232 66.5567 21.3346C66.4807 21.3486 66.3959 21.3641 66.3111 21.3641C66.0549 21.3641 65.7983 21.3128 65.6446 21.159C65.4391 21.0052 65.3367 20.8001 65.3367 20.5437ZM65.5934 19.7233C65.747 19.5695 65.9519 19.5182 66.1574 19.5182C66.4135 19.5182 66.5672 19.5695 66.7726 19.7233C66.9263 19.8772 67.0287 20.031 67.0287 20.2874H65.3367C65.3367 20.0823 65.4391 19.8772 65.5934 19.7233ZM68.6183 21.6718C68.5495 21.6718 68.4867 21.666 68.4256 21.6564C68.3352 21.6423 68.2488 21.6197 68.154 21.5949L68.0543 21.5692C67.937 21.5301 67.8197 21.4612 67.725 21.4079L67.644 21.3641L67.7982 21.1077C67.9007 21.159 68.0031 21.2616 68.1568 21.3128C68.311 21.3641 68.4647 21.3641 68.6183 21.3641C68.8232 21.3641 68.9775 21.3128 69.0799 21.2616C69.1824 21.2103 69.2336 21.1077 69.2336 20.9539C69.2336 20.8514 69.1824 20.8001 69.1311 20.7488C69.0799 20.6976 68.9775 20.6463 68.9262 20.6463C68.8232 20.595 68.7208 20.595 68.5671 20.595C68.3622 20.5437 68.208 20.5437 68.1056 20.4925C68.0031 20.4412 67.9007 20.3899 67.7982 20.2874C67.7486 20.238 67.7227 20.1886 67.7095 20.1335C67.6952 20.0741 67.6952 20.0082 67.6952 19.9284C67.6952 19.7233 67.7982 19.5695 67.9519 19.4157C68.1056 19.2619 68.3622 19.2106 68.6696 19.2106C68.75 19.2106 68.831 19.2106 68.9114 19.218C68.9846 19.2247 69.0579 19.2375 69.1311 19.2619C69.2848 19.3131 69.439 19.3644 69.4903 19.4157L69.336 19.6721C69.1311 19.5182 68.875 19.467 68.6183 19.467C68.4135 19.467 68.2592 19.5182 68.1568 19.5695C68.0543 19.6208 68.0031 19.7233 68.0031 19.8772C68.0031 19.9797 68.0543 20.031 68.1056 20.0823C68.1568 20.1335 68.2592 20.1848 68.311 20.1848C68.36 20.2094 68.409 20.2222 68.4641 20.2289C68.5236 20.2361 68.5897 20.2361 68.6696 20.2361C68.7555 20.2575 68.8326 20.27 68.9004 20.281C68.9516 20.2893 68.9973 20.2968 69.0381 20.3066C69.0728 20.3149 69.1036 20.3249 69.1311 20.3386C69.2336 20.3899 69.336 20.4412 69.439 20.5437C69.5415 20.6463 69.5415 20.7488 69.5415 20.9026C69.5415 21.1077 69.439 21.2616 69.2848 21.4154C69.1824 21.6205 68.9262 21.6718 68.6183 21.6718Z" fill="#EBEBEC"/>
</svg>
