<svg width="72" height="26" viewBox="0 0 72 26" fill="none" xmlns="http://www.w3.org/2000/svg">
<path fill-rule="evenodd" clip-rule="evenodd" d="M10.9651 18.5432L8.7197 14.7243L6.65057 11.1501H6.64101L0.540283 0.841675L21.3883 0.863091L19.2263 4.57769L7.04933 4.55793L8.75181 7.4351L17.5139 7.43518L15.3515 11.1501H11.0041L13.1458 14.8509L15.3064 18.5822L19.7046 11.1496L17.5364 11.1496L19.6985 7.43463H26.1123L15.2891 25.8976L10.9651 18.5432ZM33.6112 8.78613H30.2751V10.6315H33.0087V11.9959H30.2751V14.803H28.7687V7.42175H33.6112V8.78613ZM37.8064 14.9372C39.5915 14.9372 40.9304 13.7293 40.9304 11.7498V7.42175H39.424V11.8617C39.424 12.9689 38.7324 13.5392 37.8064 13.5392C36.8915 13.5392 36.1884 12.9689 36.1884 11.8617V7.42175H34.6821V11.7498C34.6821 13.7293 36.0099 14.9372 37.8064 14.9372ZM49.187 8.88674L48.1161 9.77031C47.6249 9.08813 46.9669 8.68543 46.0631 8.68543C44.6347 8.68543 43.6976 9.70321 43.6976 11.1123C43.6976 12.5438 44.6684 13.584 46.1522 13.584C47.0116 13.584 47.6922 13.2261 48.0936 12.6669V12.0629H46.0631V10.7544H49.6003V12.9353C48.9531 14.0984 47.6585 14.9372 46.0853 14.9372C43.8762 14.9372 42.1466 13.282 42.1466 11.1123C42.1466 8.94269 43.8647 7.28751 46.0853 7.28751C47.402 7.28751 48.4843 7.88028 49.187 8.88674ZM52.1332 13.8412H55.1455L55.5584 14.803H57.1764L53.8961 7.28751H53.3937L50.1023 14.803H51.7199L52.1332 13.8412ZM52.6574 12.5998L53.6392 10.1058L54.621 12.5998H52.6574ZM62.8776 8.68543L61.8515 9.47951C61.4944 8.94269 61.0478 8.6296 60.4453 8.6296C59.9544 8.6296 59.5304 8.85323 59.5304 9.34534C59.5304 9.77031 59.8542 9.94923 60.3899 10.1952L61.2264 10.5644C62.3867 11.0788 63.0455 11.6715 63.0455 12.7228C63.0455 14.0984 61.9295 14.9372 60.4678 14.9372C59.1959 14.9372 58.1693 14.2885 57.6226 13.3044L58.6602 12.5215C59.062 13.0806 59.5866 13.5951 60.4678 13.5951C61.1147 13.5951 61.5166 13.2932 61.5166 12.7787C61.5166 12.2978 61.1595 12.1301 60.5795 11.8617L59.7873 11.5037C58.7386 11.0229 58.0023 10.419 58.0023 9.37885C58.0023 8.1039 59.062 7.28751 60.4453 7.28751C61.6171 7.28751 62.4429 7.88028 62.8776 8.68543ZM67.865 14.9372C70.0297 14.9372 71.793 13.282 71.793 11.1123C71.793 8.94269 70.0297 7.28751 67.865 7.28751C65.7007 7.28751 63.96 8.94269 63.96 11.1123C63.96 13.282 65.7007 14.9372 67.865 14.9372ZM67.8765 13.5392C66.504 13.5392 65.5111 12.5438 65.5111 11.1123C65.5111 9.69201 66.504 8.68543 67.8765 8.68543C69.2265 8.68543 70.2419 9.69201 70.2419 11.1123C70.2419 12.5438 69.2265 13.5392 67.8765 13.5392Z" fill="#EBEBEC"/>
</svg>
