<svg width="73" height="17" viewBox="0 0 73 17" fill="none" xmlns="http://www.w3.org/2000/svg">
<path fill-rule="evenodd" clip-rule="evenodd" d="M6.89364 0.435367C2.74553 1.06434 -0.189683 4.69334 0.0740686 8.86702C0.208203 10.9908 0.955951 12.5914 2.55253 14.1721C3.95301 15.5588 5.55255 16.2309 7.8282 16.3888C9.1711 16.4818 10.7894 16.1854 11.8885 15.6449C14.0497 14.5823 15.8319 11.9249 15.9171 9.63839C15.9734 8.1274 16.4554 8.29704 12.1062 8.29704H8.29774V9.65259V11.0081H10.4924C11.6995 11.0081 12.6871 11.0393 12.6871 11.0772C12.6871 11.1153 12.5897 11.304 12.4705 11.4968C12.0721 12.1411 11.3378 12.8345 10.6861 13.1817C10.0902 13.4991 9.92155 13.5256 8.49139 13.5256C7.01693 13.5256 6.90023 13.5057 6.07192 13.1134C4.94566 12.5798 4.01497 11.6491 3.4814 10.5229C3.09927 9.71611 3.06919 9.5537 3.06919 8.29704C3.06919 7.10596 3.10985 6.85538 3.40446 6.23144C4.43778 4.04332 6.81115 2.82552 9.23306 3.24084C10.4085 3.44249 11.2619 3.83044 12.1869 4.58374L12.9114 5.17398L13.9064 4.17307L14.9013 3.17229L14.1118 2.45785C13.156 1.59288 12.1568 1.04265 10.9185 0.699505C9.78368 0.385018 7.99848 0.267924 6.89364 0.435367ZM56.9972 0.558528C56.6344 0.74327 56.3303 1.03568 56.1102 1.41123C55.9259 1.72559 55.8023 2.00987 55.8354 2.04305C55.8686 2.07623 56.1754 1.97966 56.5171 1.82848C57.0332 1.60024 57.3154 1.56331 58.1831 1.61056C58.8277 1.64568 59.3929 1.75399 59.6592 1.89342C59.8967 2.01762 60.1203 2.08978 60.1564 2.05364C60.2929 1.91718 59.6073 0.914844 59.2092 0.668779C58.5587 0.266633 57.6586 0.221835 56.9972 0.558528ZM17.9038 9.28169C16.4903 12.9475 15.3137 15.9995 15.2891 16.0641C15.2636 16.1312 15.8155 16.1657 16.5794 16.1445L17.9143 16.1076L18.4818 14.7173L19.0493 13.327L21.8343 13.3618L24.6192 13.3965L25.145 14.752L25.671 16.1076L27.0052 16.1445C28.0514 16.1736 28.3254 16.1457 28.2747 16.0154C28.239 15.9241 27.093 12.9446 25.7282 9.39439C24.3633 5.84414 23.2173 2.86684 23.1815 2.77802C23.1356 2.66363 22.7316 2.61664 21.7953 2.61664H20.4741L17.9038 9.28169ZM31.6036 3.03622C30.8063 7.62933 29.341 16.1146 29.341 16.1392C29.341 16.1573 29.8867 16.1721 30.5537 16.1721C31.4068 16.1721 31.7835 16.1242 31.8243 16.0108C31.8563 15.9221 32.1949 14.034 32.5768 11.815C32.9588 9.59617 33.312 7.78064 33.3617 7.78064C33.4114 7.78064 34.0805 9.66873 34.8486 11.9764L36.2449 16.1721L37.3437 16.1719L38.4426 16.1716L39.8627 11.9766C40.6437 9.6695 41.3166 7.78154 41.358 7.78116C41.421 7.78077 41.9975 10.9895 42.68 15.1393L42.8393 16.1076L44.1046 16.1446C45.2687 16.1787 45.3643 16.1632 45.3004 15.951C45.2621 15.8241 44.7633 12.9027 44.1919 9.45894C43.6205 6.0152 43.1227 3.06475 43.0857 2.90247C43.0205 2.61664 42.9789 2.60851 41.7633 2.64427L40.5082 2.68119L38.9592 7.29651C38.1073 9.83488 37.3802 11.9118 37.3434 11.9118C37.3068 11.9118 36.5813 9.82042 35.7315 7.26424L34.1863 2.61664H32.9314C31.6766 2.61664 31.6766 2.61664 31.6036 3.03622ZM46.6404 3.84309V5.06954H48.8351C50.092 5.06954 51.0298 5.12053 51.0298 5.18883C51.0298 5.2863 48.0231 12.2621 46.7199 15.1876C46.5342 15.6047 46.3822 15.997 46.3822 16.059C46.3822 16.1214 48.2091 16.1721 50.4489 16.1721H54.5155V14.9457V13.7192H52.3208C51.1003 13.7192 50.1261 13.6675 50.1261 13.6027C50.1261 13.5385 51.1488 11.142 52.3988 8.27729C53.6487 5.41243 54.7012 2.96676 54.7376 2.84257C54.7997 2.63071 54.5486 2.61664 50.7222 2.61664H46.6404V3.84309ZM56.7102 9.39904V16.1814L57.9689 16.1445L59.2277 16.1076L59.2611 9.36211L59.2945 2.61664H58.0024H56.7102V9.39904ZM61.5244 2.78602C61.56 2.87923 62.4668 4.29662 63.5392 5.9358C64.6115 7.57511 65.489 9.01316 65.489 9.13141C65.489 9.2498 64.5014 10.8528 63.2943 12.6939C62.0872 14.535 61.0996 16.0708 61.0996 16.1067C61.0996 16.1427 61.7314 16.1721 62.5037 16.1721H63.9078L65.4208 13.8483C66.2532 12.5703 67.001 11.5265 67.083 11.5288C67.1649 11.5311 67.8375 12.4751 68.5777 13.6267C69.318 14.7781 70.0097 15.8219 70.1147 15.9462C70.2741 16.1348 70.5288 16.1721 71.6551 16.1721C72.7744 16.1721 72.9923 16.1405 72.9333 15.9869C72.8942 15.885 71.9166 14.36 70.7609 12.598C69.6052 10.8361 68.6602 9.2782 68.661 9.13619C68.6617 8.99418 69.546 7.53019 70.6259 5.88287C71.7059 4.23555 72.5895 2.82669 72.5895 2.7522C72.5895 2.66621 72.0994 2.61664 71.2505 2.61664H69.9113L68.5717 4.67359C67.8348 5.80489 67.1647 6.73441 67.0826 6.73919C67.0005 6.74397 66.3324 5.82026 65.598 4.6865L64.2626 2.62516L62.8609 2.6209C61.756 2.61754 61.4731 2.65253 61.5244 2.78602ZM22.7657 8.50928C23.2225 9.69119 23.6154 10.7079 23.6391 10.7685C23.6628 10.8293 22.864 10.879 21.8639 10.879C20.749 10.879 20.0458 10.8296 20.0458 10.7511C20.0458 10.6456 20.4548 9.56893 21.6034 6.65101C21.6663 6.49132 21.7667 6.36054 21.8266 6.36054C21.8864 6.36054 22.3091 7.3275 22.7657 8.50928Z" fill="#EBEBEC"/>
</svg>
