<svg width="81" height="15" viewBox="0 0 81 15" fill="none" xmlns="http://www.w3.org/2000/svg">
<path fill-rule="evenodd" clip-rule="evenodd" d="M80.3327 6.92899L79.8807 10.084L80.8111 9.77928L79.4843 13.0555L74.8714 14.7361L72.1947 14.6379L68.9185 13.5174L67.5326 11.1422L66.9234 7.44008L67.8176 7.86598L67.8733 5.57265L69.1479 3.36122L71.4214 1.13997L71.8802 2.39474L72.5355 0.00312805L75.484 1.61502L77.1583 3.41036L78.4425 2.97135L80.3327 6.92899ZM75.2646 8.40328L77.8855 8.33119L77.9869 6.01167L77.915 5.6349L73.7477 5.75283L69.7213 5.77577L69.8163 8.59984L72.5486 8.4819L72.7354 11.401V13.0718L75.0288 13.0948L75.1695 11.3518L75.2646 8.40328ZM1.18333 4.91741L6.399 4.73722C6.44283 4.73365 6.48698 4.73894 6.52858 4.75279C6.56505 4.76488 6.59928 4.78328 6.62904 4.80709L6.64183 4.81777C6.67511 4.84681 6.70198 4.88221 6.72086 4.92183C6.74006 4.96146 6.75093 5.00453 6.75285 5.04847L6.84788 6.56534C6.8498 6.59134 6.84852 6.61741 6.84436 6.64301C6.84116 6.66204 6.83636 6.68084 6.82996 6.69914C6.8146 6.74201 6.79061 6.78124 6.75925 6.81432C6.72918 6.84785 6.69239 6.87476 6.65111 6.89338C6.60984 6.91198 6.56537 6.92188 6.52026 6.92244L5.11476 6.93881L5.3112 13.5371C5.3112 13.6239 5.27697 13.7073 5.21522 13.7687C5.1973 13.7865 5.17779 13.8021 5.15667 13.8152C5.10516 13.8473 5.04533 13.8647 4.98358 13.8647L3.38164 13.9728C3.33717 13.9761 3.29238 13.9703 3.24983 13.9556C3.20759 13.941 3.16888 13.9178 3.13593 13.8876C3.10265 13.8584 3.07546 13.8227 3.05626 13.7827C3.03739 13.7427 3.02651 13.6993 3.02459 13.655L2.69697 6.97813H1.27835C1.19421 6.97825 1.11326 6.94597 1.05216 6.88804C0.991368 6.83009 0.954894 6.75091 0.950735 6.6669L0.855713 5.24503C0.858592 5.16408 0.891226 5.08706 0.947536 5.02881C0.97697 4.99508 1.01312 4.96778 1.05376 4.94862C1.09439 4.92945 1.13854 4.91883 1.18333 4.91741ZM10.9006 5.08778L12.4798 5.17296L12.4926 5.14675C12.5374 5.14667 12.5818 5.15575 12.6228 5.17342C12.6638 5.1911 12.7009 5.21701 12.7316 5.24955C12.7623 5.28208 12.786 5.32055 12.8013 5.36261C12.8093 5.38462 12.8148 5.40738 12.818 5.43049C12.8208 5.45149 12.8215 5.47277 12.8202 5.49402V13.7304C12.8202 13.8172 12.786 13.9006 12.7245 13.962C12.6823 14.0043 12.6295 14.0338 12.5726 14.0481C12.5467 14.0546 12.5198 14.058 12.4926 14.058H12.4731L10.835 13.9466C10.7902 13.9464 10.7457 13.9371 10.7044 13.919C10.6836 13.9099 10.6641 13.8988 10.6459 13.8857C10.628 13.8728 10.611 13.8581 10.596 13.8417C10.5643 13.8093 10.54 13.7708 10.5243 13.7285C10.5086 13.6862 10.5016 13.6411 10.5042 13.596L10.396 10.9751L9.78653 10.9325L9.95706 13.8811C9.9577 13.9255 9.94938 13.9696 9.93242 14.0108C9.91546 14.0519 9.89051 14.0891 9.85884 14.1202C9.82748 14.152 9.79037 14.1771 9.7491 14.194C9.70814 14.2109 9.66399 14.2192 9.61952 14.2185L8.06333 14.2578C7.97631 14.2578 7.89312 14.2233 7.83169 14.1619C7.77026 14.1004 7.73571 14.0171 7.73571 13.9302L7.47688 5.13363C7.47688 5.04675 7.51143 4.96342 7.57286 4.90197C7.61413 4.86083 7.665 4.83177 7.72003 4.81705C7.74723 4.80979 7.7757 4.80602 7.8045 4.80602L9.36069 4.76671C9.44771 4.76671 9.5309 4.80122 9.59233 4.86266C9.65375 4.92411 9.68831 5.00743 9.68831 5.09432L9.86203 9.0454L10.5499 8.89799L10.5729 5.4154C10.5729 5.32849 10.6075 5.24517 10.6689 5.18372C10.7304 5.12229 10.8135 5.08778 10.9006 5.08778ZM16.909 4.54392L18.3341 4.43581C18.3849 4.43323 18.4358 4.44256 18.4825 4.46303C18.5292 4.4835 18.5702 4.51457 18.6028 4.55376C18.6367 4.58504 18.6633 4.62311 18.6815 4.66544C18.6994 4.70778 18.7084 4.75344 18.7077 4.79947C18.701 5.39574 18.606 10.7654 18.5535 11.3518C18.4291 12.7639 18.0621 13.9728 16.0311 14.0285C15.7166 14.0466 15.4018 14.0011 15.1052 13.8945C14.8086 13.788 14.537 13.6227 14.306 13.4085C14.075 13.1944 13.8894 12.9358 13.7608 12.6482C13.6322 12.3607 13.5631 12.0501 13.5573 11.7352C13.5541 11.5091 13.4921 5.06812 13.4921 5.06812C13.4921 5.04493 13.4943 5.02185 13.4988 4.99927C13.5036 4.97654 13.5106 4.9543 13.5202 4.93295C13.5391 4.89041 13.5666 4.85236 13.6015 4.82137C13.6361 4.79036 13.677 4.76712 13.7215 4.75318C13.7659 4.73923 13.8127 4.73491 13.859 4.74049L15.4971 4.91413C15.5493 4.91883 15.5989 4.93589 15.6424 4.96334C15.667 4.97896 15.6897 4.99794 15.7099 5.01993C15.7649 5.08058 15.7953 5.15974 15.795 5.24175L15.7902 5.7001C15.7768 6.97809 15.7393 10.5264 15.7393 11.1389C15.7461 11.804 15.8507 12.2593 16.1783 12.2593C16.6099 12.2412 16.6048 11.6313 16.6016 11.2023L16.6009 11.0963V4.87154C16.6009 4.78795 16.6326 4.70747 16.6899 4.64656C16.7472 4.58566 16.8255 4.54894 16.909 4.54392ZM23.1568 4.85844L24.6474 4.78636C24.7386 4.78488 24.8266 4.81896 24.8932 4.88138C24.9261 4.91192 24.9523 4.9489 24.9703 4.99006C24.9885 5.03121 24.9978 5.07562 24.9981 5.12053L25.0931 13.6059C25.0918 13.6984 25.0541 13.7867 24.9882 13.8516C24.9299 13.9078 24.8528 13.9405 24.7719 13.9433H23.1732C23.1076 13.9404 23.0445 13.9179 22.9921 13.8788C22.9396 13.8397 22.8999 13.7857 22.8782 13.7238L21.584 10.0283L21.8332 13.5764C21.8358 13.6238 21.8281 13.6712 21.8105 13.7153C21.7929 13.7594 21.7661 13.7992 21.7315 13.8319C21.6979 13.8656 21.6573 13.8916 21.6128 13.908C21.568 13.9244 21.5203 13.9308 21.4727 13.9269L19.9757 13.8155C19.8886 13.8155 19.8055 13.781 19.744 13.7196C19.6826 13.6581 19.6481 13.5748 19.6481 13.4879L19.4023 5.35643C19.402 5.2744 19.4324 5.19526 19.4874 5.13459C19.5428 5.07392 19.6186 5.03619 19.7002 5.02881L21.1943 4.86499C21.2407 4.85951 21.2877 4.86408 21.3316 4.87801C21.3575 4.88622 21.3824 4.89767 21.4058 4.91224C21.4688 4.95154 21.5168 5.01113 21.5415 5.08122L23.0845 9.34026L22.8388 5.21553C22.8353 5.12585 22.866 5.03811 22.9242 4.96982C22.9402 4.95166 22.9578 4.93537 22.977 4.92119C22.9933 4.90936 23.0106 4.899 23.0289 4.89029C23.0689 4.87114 23.1124 4.8603 23.1568 4.85844ZM26.3182 4.61273H26.6458C29.3029 4.61273 30.7116 5.51696 30.9378 7.34834C31.059 8.30172 31.1374 10.3035 30.6559 11.7679C30.0794 13.5436 27.573 13.7336 26.5245 13.7336C26.2267 13.7336 26.0299 13.7172 26.0299 13.7172C25.9464 13.7122 25.868 13.6755 25.8107 13.6146C25.7538 13.5537 25.7218 13.4732 25.7221 13.3896L25.9905 4.94035C25.9905 4.85345 26.0251 4.77012 26.0865 4.70868C26.148 4.64724 26.2315 4.61273 26.3182 4.61273ZM27.8257 11.8469C28.2909 11.6885 28.7081 11.5465 28.8771 10.1822V10.179C29.0505 8.78331 29.0572 7.50233 28.6445 6.96831C28.5715 6.85665 28.4752 6.76235 28.3619 6.69214C28.2967 6.65163 28.2266 6.61969 28.1537 6.59698C28.1002 6.58032 28.0452 6.5686 27.9892 6.56206L27.7598 11.8695L27.8257 11.8469ZM33.8732 12.4035L35.839 12.2495V12.2462C35.8831 12.2425 35.9279 12.2478 35.9701 12.2619C36.0124 12.276 36.0514 12.2985 36.0847 12.3281C36.1192 12.3602 36.1464 12.3993 36.1647 12.4428C36.1826 12.4864 36.1912 12.5333 36.1893 12.5804L36.1599 13.6714C36.1599 13.7583 36.1253 13.8416 36.0639 13.9031C36.0024 13.9645 35.9193 13.999 35.8322 13.999H32.0678C31.9811 13.999 31.8976 13.9645 31.8362 13.9031C31.7748 13.8416 31.7402 13.7583 31.7402 13.6714L31.6225 5.31384C31.6225 5.22693 31.657 5.14361 31.7184 5.08216C31.7799 5.02073 31.8631 4.98622 31.9501 4.98622L35.6716 4.89447C35.757 4.88995 35.8409 4.91891 35.9052 4.97522C35.9695 5.03153 36.0092 5.11071 36.0159 5.19588L36.1304 6.38842C36.1314 6.40461 36.1317 6.42083 36.1314 6.43703L36.1304 6.46376C36.1304 6.51431 36.1186 6.56366 36.0968 6.60819C36.0812 6.64021 36.06 6.66974 36.0344 6.69544C35.973 6.75687 35.8898 6.79138 35.8028 6.79138H33.7683V8.78331L35.1444 8.71124C35.193 8.70806 35.2419 8.71584 35.2874 8.73398C35.3325 8.75211 35.3734 8.78017 35.4064 8.81608C35.4397 8.85104 35.4649 8.89297 35.4803 8.93884C35.4957 8.98473 35.5008 9.03342 35.495 9.08145L35.377 10.2052C35.3696 10.2869 35.3318 10.3628 35.2711 10.418C35.2106 10.4732 35.1312 10.5036 35.0493 10.5033L33.7814 10.5754L33.8732 12.4035ZM38.8857 4.60617C41.4379 4.60617 41.8442 6.16236 41.9261 7.33524V7.34506C42.0439 8.97333 41.5035 9.77928 40.917 10.2412L41.7492 13.3831C41.7582 13.4291 41.7572 13.4766 41.746 13.5222C41.7351 13.5678 41.7147 13.6105 41.6855 13.6475C41.6567 13.6845 41.6203 13.7148 41.5787 13.7364C41.5371 13.7581 41.4913 13.7705 41.4443 13.773L40.2714 13.8647H40.2455C40.1674 13.8658 40.0913 13.839 40.0315 13.7892C39.9902 13.7551 39.9585 13.7117 39.938 13.663C39.9288 13.6406 39.922 13.617 39.9179 13.5927L39.2626 10.7687L38.6663 10.8015V13.4224C38.6666 13.4687 38.657 13.5145 38.6384 13.5568C38.6199 13.5992 38.5924 13.6371 38.5581 13.6681C38.538 13.687 38.5159 13.7032 38.4922 13.7164C38.4759 13.7254 38.4589 13.7331 38.4413 13.7392C38.3978 13.7545 38.3518 13.7604 38.3057 13.7566L37.1331 13.6648C37.0496 13.6598 36.9712 13.6231 36.914 13.5622C36.8567 13.5013 36.8247 13.4208 36.825 13.3372L36.707 5.14675C36.7057 5.06916 36.7322 4.99366 36.7812 4.93367C36.8304 4.87367 36.8992 4.83308 36.9757 4.81913C37.6041 4.68792 38.2436 4.61663 38.8857 4.60617ZM38.6631 8.9373C39.086 8.92642 39.4917 8.76759 39.8097 8.48846V8.49828C39.9099 8.38514 39.9841 8.25143 40.027 8.10653C40.057 8.00529 40.0714 7.90029 40.0695 7.79521C40.0689 7.74992 40.0654 7.70461 40.0586 7.65958C39.9735 6.69966 39.4392 6.49981 38.9907 6.49981C38.8803 6.49999 38.7706 6.51207 38.6631 6.53585V8.9373ZM47.9772 5.02881C48.076 6.74435 47.5091 8.43187 46.3947 9.73995C47.5776 10.6933 48.0786 13.2946 48.0853 13.6124C48.0869 13.6572 48.0792 13.7018 48.0629 13.7435C48.0466 13.7852 48.022 13.8231 47.9903 13.8549C47.9337 13.9147 47.8562 13.951 47.774 13.9564H47.7545H46.2802C46.1986 13.9568 46.1199 13.9268 46.0591 13.8723C45.9987 13.8178 45.9606 13.7426 45.9526 13.6616C45.8115 12.469 44.9793 11.2634 44.6943 11.093L44.6716 13.5731C44.6719 13.6541 44.6424 13.7324 44.5887 13.7929C44.5346 13.8534 44.4604 13.8918 44.3798 13.9007L42.981 14.0875C42.9343 14.094 42.8866 14.0904 42.8412 14.0768C42.8153 14.069 42.7903 14.058 42.7669 14.0441C42.75 14.0339 42.734 14.0221 42.719 14.0088C42.6828 13.9787 42.6534 13.9412 42.6332 13.8988C42.6223 13.8766 42.6143 13.8532 42.6089 13.8293C42.6041 13.8076 42.6012 13.7855 42.6009 13.7631L42.4044 5.26469C42.4029 5.22071 42.4102 5.17686 42.4259 5.13577C42.4416 5.09468 42.4656 5.05718 42.496 5.02553C42.5267 4.99358 42.5631 4.96812 42.6038 4.95066C42.6441 4.93321 42.6879 4.92413 42.7321 4.92397L44.5273 4.89775C44.5724 4.8966 44.6172 4.90474 44.6588 4.92165C44.7003 4.93857 44.7384 4.96388 44.7698 4.99604C44.8018 5.02753 44.8274 5.0653 44.844 5.10701C44.861 5.14873 44.8693 5.19348 44.868 5.23847L44.7666 8.42622C45.4644 7.44336 45.9491 5.88389 45.9001 5.15003C45.896 5.10458 45.9014 5.05878 45.9161 5.01557C45.9305 4.97236 45.9542 4.93267 45.9849 4.89905C46.0156 4.86543 46.0534 4.83862 46.095 4.82035C46.1369 4.80207 46.182 4.79273 46.2277 4.79291L47.6201 4.70118C47.6656 4.69707 47.7113 4.7025 47.7545 4.71712C47.7836 4.72699 47.8111 4.7409 47.8364 4.7584C47.8486 4.76681 47.8601 4.77605 47.871 4.78605C47.9045 4.8169 47.9314 4.85442 47.9497 4.89622C47.9679 4.93803 47.9775 4.98318 47.9772 5.02881ZM48.9731 4.74377L50.5687 4.53737L50.5719 4.5472C50.6192 4.53901 50.6679 4.54138 50.7143 4.55414C50.761 4.56689 50.8038 4.58972 50.8406 4.621C50.8771 4.65228 50.9062 4.69124 50.9261 4.73511C50.9459 4.77898 50.9558 4.82668 50.9552 4.87482L51.0796 13.2422C51.08 13.3263 51.0476 13.4073 50.9897 13.4683C50.9651 13.4942 50.9366 13.5157 50.9056 13.5321C50.8634 13.5544 50.8166 13.5674 50.7683 13.5698L49.032 13.6976C48.9879 13.7 48.9434 13.6935 48.9018 13.6782C48.8602 13.663 48.8218 13.6395 48.7895 13.6091C48.7553 13.5781 48.7278 13.5402 48.7092 13.4979C48.6906 13.4555 48.681 13.4097 48.6817 13.3634V5.07138C48.681 4.9904 48.7105 4.91209 48.7645 4.85159C48.8183 4.79109 48.8925 4.75268 48.9731 4.74377ZM51.7611 7.43352C51.8923 5.10743 53.4779 4.81257 53.9626 4.77981C55.1422 4.70118 56.04 4.9731 56.6197 5.57593C57.0404 6.02796 57.2746 6.62259 57.275 7.24024C57.275 7.32712 57.2404 7.41044 57.179 7.47189C57.1175 7.53332 57.0344 7.56785 56.9473 7.56785L55.45 7.5482C55.4011 7.54796 55.3524 7.53666 55.3083 7.5151C55.2638 7.49355 55.2251 7.46231 55.1947 7.4237C55.1634 7.38591 55.1406 7.34156 55.1288 7.29393C55.125 7.27793 55.1221 7.26169 55.1205 7.24538C55.1176 7.21308 55.1192 7.18043 55.1259 7.14849C55.1602 6.97183 55.125 6.78872 55.0274 6.63741C54.9525 6.56662 54.8616 6.51459 54.7625 6.48556C54.6633 6.45652 54.559 6.4513 54.4576 6.47032C54.0708 6.48998 53.9825 6.68328 53.9236 7.14521V7.15505C53.8449 7.76114 53.8055 8.7309 53.7726 9.5827C53.7678 9.70674 53.7611 9.82795 53.7547 9.94511C53.7438 10.1374 53.7335 10.3188 53.7335 10.4837C53.6779 11.6238 53.8807 12.089 54.0612 12.279C54.1143 12.336 54.1795 12.3805 54.2522 12.4094C54.3245 12.4382 54.4025 12.4508 54.4803 12.4461H54.4969C54.5699 12.4514 54.6428 12.4397 54.7106 12.4118C54.7781 12.3839 54.8386 12.3407 54.8866 12.2856C55.0498 11.9939 55.1064 11.6546 55.0472 11.3256C55.0443 11.3049 55.0434 11.284 55.0443 11.2632C55.0453 11.237 55.0491 11.211 55.0562 11.1856C55.0683 11.14 55.0901 11.0974 55.1192 11.0603C55.1486 11.0229 55.1861 10.9924 55.2283 10.9709C55.26 10.955 55.2936 10.9443 55.3284 10.9391C55.3406 10.9373 55.3528 10.9362 55.3649 10.9358L56.6066 10.8801C56.636 10.8783 56.6655 10.8804 56.6943 10.8865C56.7077 10.8893 56.7208 10.8929 56.7336 10.8973C56.7515 10.9035 56.7688 10.9112 56.7851 10.9203C56.8062 10.9319 56.8261 10.9459 56.8443 10.9619C56.8763 10.9906 56.9029 11.0252 56.9217 11.0641C56.9403 11.1029 56.9515 11.145 56.9541 11.188V11.2765C56.9931 11.7188 57.0654 12.528 56.5247 13.1832C56.1478 13.6386 55.5386 13.8974 54.7164 13.9662C54.5884 13.9826 54.4608 13.9826 54.3395 13.9826C52.3706 13.9826 51.876 12.6132 51.7512 12.0169C51.5483 11.021 51.6171 9.87101 51.7122 8.28206C51.7285 8.01341 51.7611 7.73166 51.7611 7.43352ZM61.9304 9.42545C63.2572 10.6376 63.8897 13.1603 63.9124 13.2586C63.9204 13.3017 63.9195 13.346 63.9099 13.3887C63.9003 13.4315 63.8824 13.4719 63.8568 13.5076C63.8296 13.5461 63.7947 13.5784 63.7541 13.6021C63.7131 13.6259 63.668 13.6406 63.621 13.6452L61.8943 13.8385C61.8507 13.8444 61.8066 13.8415 61.764 13.83C61.7215 13.8184 61.6818 13.7984 61.6476 13.7712C61.6278 13.7556 61.6098 13.7379 61.5942 13.7183C61.5823 13.7037 61.5721 13.6881 61.5631 13.6716C61.5417 13.633 61.5286 13.5907 61.5241 13.5469C61.3241 12.5327 60.8545 11.5911 60.1647 10.8211L60.0434 13.4421C60.0437 13.5241 60.0133 13.6032 59.958 13.6639C59.903 13.7245 59.8268 13.7623 59.7452 13.7697L58.2841 13.9335H58.2578C58.1727 13.9375 58.0892 13.9081 58.0252 13.8516C57.99 13.8215 57.9616 13.7844 57.942 13.7426C57.9222 13.7008 57.9113 13.6554 57.9107 13.6091L57.7075 5.20244C57.7072 5.12043 57.7376 5.04127 57.7926 4.98062C57.848 4.91995 57.9238 4.8822 58.0057 4.87482L59.7353 4.68152C59.7823 4.6754 59.8303 4.67955 59.8754 4.69369C59.9205 4.70783 59.9625 4.73163 59.9973 4.76343C60.0332 4.79485 60.0616 4.83371 60.0812 4.87727C60.0933 4.90479 60.1013 4.93377 60.1055 4.96338C60.108 4.98066 60.1093 4.99816 60.109 5.01569L60.076 8.37379C61.3523 7.24725 61.089 5.40736 61.0611 5.21246L61.0589 5.19588C61.0551 5.17448 61.0535 5.15283 61.0541 5.13123C61.0547 5.10783 61.0576 5.08448 61.0634 5.0616C61.0739 5.01761 61.0938 4.97632 61.1213 4.94035C61.1392 4.91592 61.1606 4.89418 61.1846 4.87572C61.1965 4.86654 61.2089 4.85817 61.2221 4.85068C61.2617 4.82813 61.3052 4.81403 61.3507 4.8093L63.0803 4.616C63.166 4.60479 63.2524 4.62773 63.3212 4.67986C63.3897 4.73199 63.4351 4.80911 63.4473 4.89447C63.8942 7.60901 62.5965 8.8094 61.9384 9.41791L61.9304 9.42545Z" fill="#EBEBEC"/>
</svg>
