<svg width="75" height="17" viewBox="0 0 75 17" fill="none" xmlns="http://www.w3.org/2000/svg">
<path fill-rule="evenodd" clip-rule="evenodd" d="M3.634 10.978C3.2811 10.978 2.9282 10.9797 2.5753 10.9854C2.12491 10.9878 1.69715 11.34 1.62852 11.7893C1.38909 12.863 1.14811 13.9363 0.906341 15.0096C0.859157 15.2233 0.801056 15.4354 0.786628 15.6548V15.7247C0.765571 16.0468 1.08649 16.2738 1.38324 16.2731C2.20056 16.2758 3.01827 16.2728 3.83521 16.2748C4.2774 16.2821 4.72038 15.9703 4.81825 15.5309L5.04403 14.5209C5.25772 13.5649 5.4718 12.609 5.68198 11.6525C5.73891 11.4003 5.57474 11.1435 5.34819 11.0395C5.20859 10.9669 5.04715 10.9828 4.89507 10.9815C4.47471 10.9804 4.05435 10.9779 3.634 10.978ZM68.6266 0.416317C68.3751 0.414246 68.1236 0.412162 67.8752 0.453813C67.0251 0.56714 66.2379 1.09567 65.8292 1.85186C65.5726 2.28275 65.4677 2.77148 65.3632 3.2573C65.3312 3.40625 65.2993 3.55492 65.263 3.70158C65.0454 4.66788 64.8247 5.63349 64.604 6.5991C64.3189 7.84645 64.0339 9.09378 63.7555 10.3426L63.7446 10.3882C63.7301 10.4476 63.7157 10.5071 63.7118 10.5683C63.7087 10.7611 63.8818 10.9473 64.0795 10.9364C64.6204 10.9374 65.1612 10.9357 65.7021 10.9377C65.853 10.945 66.014 10.9351 66.1412 10.843C66.3256 10.7263 66.4246 10.5182 66.4527 10.3075C66.6999 9.21049 66.9499 8.11405 67.1998 7.0176C67.5488 5.48584 67.8978 3.95406 68.2398 2.42082C68.2515 2.36943 68.2609 2.31676 68.2741 2.26527C68.2886 2.20888 68.3077 2.15393 68.3381 2.1037C68.4531 1.9019 68.6824 1.77133 68.9156 1.77995L69.9634 1.77989C70.5085 1.77944 71.0537 1.77899 71.5988 1.78161C71.8234 1.77299 72.0492 1.98607 71.9977 2.21803C71.9271 2.63622 71.8308 3.04909 71.7345 3.46186C71.6846 3.67576 71.6347 3.88963 71.5883 4.1042C71.538 4.33847 71.3126 4.52404 71.0716 4.5184C70.4672 4.52404 69.8398 4.56446 69.2934 4.84944C68.7089 5.1447 68.2422 5.65832 67.9895 6.26108C67.8877 6.49504 68.0484 6.8221 68.3186 6.8264C68.7499 6.83461 69.1808 6.83291 69.612 6.83121C69.8772 6.83016 70.1424 6.82911 70.4075 6.83038C70.544 6.82872 70.6953 6.86849 70.7772 6.98712C70.8844 7.13192 70.8567 7.32677 70.8216 7.49179C70.6649 8.14438 70.5183 8.79934 70.372 9.45421C70.2937 9.80461 70.2153 10.155 70.1353 10.505C70.0963 10.7074 70.2609 10.9361 70.4738 10.9357C70.794 10.9394 71.1149 10.9371 71.4354 10.9367C71.7208 10.954 71.9786 10.725 72.0449 10.4556L72.6049 7.99212C73.1387 5.64701 73.6725 3.30166 74.1978 0.954841C74.2118 0.858745 74.2247 0.758334 74.2005 0.662908C74.1393 0.51412 73.981 0.413709 73.8207 0.415696C72.8072 0.417316 71.7938 0.417329 70.7803 0.41717L68.8501 0.417024C68.7756 0.41756 68.7011 0.416939 68.6266 0.416317ZM58.3836 2.25746C58.4441 2.03544 58.6367 1.85916 58.8597 1.80812C59.7469 1.76106 60.6375 1.80481 61.5258 1.78625C61.709 1.78029 61.9278 1.80448 62.0389 1.9705C62.1306 2.09933 62.0982 2.25843 62.0686 2.40543L62.053 2.48478C61.9298 3.0322 61.8038 3.5793 61.6747 4.12507C61.649 4.26126 61.5574 4.37956 61.4353 4.44352C61.2286 4.55253 60.9943 4.55083 60.7654 4.54915C60.7088 4.54873 60.6527 4.54832 60.5973 4.54956C59.8081 4.57375 59.0021 4.89286 58.4924 5.51153C58.2674 5.77729 58.0526 6.07618 57.9991 6.42843C57.9718 6.65541 58.1922 6.85126 58.4109 6.84595C58.7002 6.84789 58.9896 6.8465 59.2789 6.84511C59.7301 6.84294 60.182 6.84076 60.6336 6.85126C60.8617 6.85888 60.9896 7.12099 60.9514 7.32479C60.8808 7.67114 60.802 8.01572 60.7233 8.36031C60.6663 8.61081 60.6094 8.86132 60.5556 9.11253C60.5139 9.32892 60.3411 9.50885 60.1329 9.57413C60.0264 9.61092 59.9126 9.59932 59.803 9.59999C59.3795 9.59787 58.9561 9.59823 58.5326 9.5986C58.0954 9.59898 57.6583 9.59935 57.2212 9.597C57.0445 9.59103 56.8566 9.46147 56.8422 9.27524C56.8418 8.96375 56.935 8.6632 57.0063 8.36265C57.4661 6.32769 57.9332 4.2944 58.3836 2.25746ZM58.8991 0.429612C58.5918 0.432415 58.2846 0.435217 57.98 0.47833C57.5019 0.545596 57.0375 0.728187 56.6569 1.02708C56.2257 1.35879 55.9047 1.82204 55.7125 2.32837C55.622 2.58158 55.5667 2.84415 55.5113 3.10672C55.4801 3.25409 55.4493 3.40147 55.4119 3.54716C55.1642 4.66017 54.9104 5.7717 54.6565 6.88324C54.3992 8.01111 54.1418 9.13898 53.8907 10.2684C53.8653 10.3886 53.8166 10.5079 53.8283 10.6332C53.8548 10.8118 54.0225 10.9573 54.2038 10.9583L59.9368 10.9579C60.8087 10.9314 61.6802 10.4655 62.1173 9.69906C62.4343 9.14069 62.5997 8.51308 62.7249 7.88745L62.7432 7.79178C62.7978 7.50569 62.8528 7.21599 62.8216 6.92416C62.781 6.41882 62.5416 5.91746 62.1216 5.62054C62.6434 5.39256 63.123 5.01016 63.3647 4.48427C63.4353 4.34177 63.4954 4.19477 63.548 4.04496C63.6284 3.81575 63.6911 3.57997 63.7469 3.3437C63.9224 2.58221 64.0783 1.81641 64.2612 1.05657L64.2815 0.975082C64.2967 0.915201 64.3123 0.855272 64.3178 0.793466C64.3189 0.5963 64.1361 0.426638 63.9438 0.420667C62.9853 0.42252 62.0269 0.422069 61.068 0.421862L59.3086 0.422325C59.1721 0.427114 59.0356 0.428369 58.8991 0.429612ZM49.0679 0.413709C48.7407 0.416695 48.4124 0.402779 48.0883 0.452155C47.6216 0.516764 47.163 0.677811 46.7816 0.958156C46.2267 1.35812 45.8411 1.9705 45.6769 2.63092C45.3958 3.89393 45.1076 5.1555 44.8194 6.41709C44.5086 7.77863 44.1979 9.14019 43.8957 10.5036C43.8434 10.7081 44.0181 10.9311 44.2267 10.9397C44.5788 10.9415 44.931 10.9396 45.2831 10.9393C45.517 10.9391 45.751 10.9396 45.9846 10.9424C46.2696 10.9457 46.5332 10.722 46.5909 10.4453C47.1841 7.80361 47.792 5.16524 48.3808 2.52256L48.3937 2.46379C48.4252 2.31964 48.4576 2.17337 48.5333 2.04505C48.6732 1.79552 49.0261 1.71268 49.2738 1.84291C49.4063 1.92411 49.4488 2.10106 49.4122 2.2452C49.0928 3.61277 48.7867 4.98332 48.4857 6.35487C48.4276 6.56032 48.591 6.78929 48.8008 6.81017C48.9571 6.82498 49.1139 6.82375 49.271 6.8225C49.4021 6.82147 49.5331 6.82043 49.6637 6.82872C49.9636 6.84065 50.2958 6.66337 50.3718 6.35685C50.5263 5.69091 50.676 5.02399 50.8257 4.35705C50.9907 3.62419 51.1556 2.89131 51.3264 2.15971C51.3978 1.8406 51.815 1.68319 52.0903 1.84623C52.143 1.8756 52.1788 1.92507 52.2003 1.9807C52.2135 2.01483 52.2217 2.05127 52.2248 2.0868C52.233 2.19177 52.2178 2.29547 52.1968 2.39822C52.1835 2.46188 52.1683 2.52517 52.1547 2.58817C51.8618 3.90824 51.5608 5.22649 51.2597 6.54473C50.9587 7.86287 50.6577 9.18102 50.3652 10.501C50.3313 10.6786 50.4432 10.8874 50.6257 10.9281C50.9002 10.9576 51.1767 10.9308 51.452 10.941L51.5113 10.9419C51.6863 10.945 51.8747 10.9484 52.0154 10.8297C52.2455 10.6803 52.2896 10.3903 52.3387 10.1421L52.6487 8.77528C53.2422 6.1601 53.8357 3.54485 54.4194 0.927667C54.4253 0.884249 54.4323 0.839101 54.4335 0.794404C54.4347 0.747001 54.4296 0.700099 54.4093 0.656279C54.3407 0.50152 54.1672 0.412052 54.0026 0.413709C52.3574 0.413051 50.7127 0.410395 49.0679 0.413709ZM39.3926 0.418352C38.9859 0.425639 38.5772 0.400122 38.1713 0.435254C37.6874 0.491247 37.2093 0.647663 36.81 0.930653C36.3986 1.21629 36.0796 1.62355 35.8675 2.07521C35.7076 2.4026 35.6261 2.75916 35.5509 3.11373C35.2947 4.25172 35.0346 5.38893 34.7745 6.52614C34.4738 7.84171 34.1732 9.1573 33.8784 10.4741C33.8063 10.7018 34.0141 10.9619 34.2535 10.9364L34.8111 10.9371C35.1999 10.9371 35.5887 10.9364 35.9775 10.9371C36.2637 10.944 36.5179 10.7087 36.5772 10.4364C36.842 9.26196 37.1091 8.0881 37.3762 6.91425C37.7295 5.3602 38.0832 3.80616 38.431 2.25083C38.4985 1.97347 38.7769 1.76968 39.0611 1.77929L39.9338 1.77869C40.5484 1.77784 41.1629 1.77699 41.7775 1.78195C41.9927 1.78492 42.1998 1.9927 42.1534 2.21438C42.1058 2.4944 42.0469 2.77217 41.9842 3.0492C41.9046 3.40193 41.8184 3.75345 41.7416 4.10684C41.6929 4.33251 41.4807 4.51343 41.2487 4.51874C40.7921 4.53067 40.3265 4.53563 39.8874 4.67548C39.0974 4.9081 38.4345 5.52577 38.137 6.29223C38.0485 6.5179 38.213 6.81216 38.4626 6.82442C39.182 6.84132 39.9019 6.82342 40.6209 6.83138C40.803 6.83072 40.9832 6.97353 41.0007 7.15877C41.0179 7.35179 40.9687 7.53907 40.9196 7.72459L40.8876 7.85001C40.7979 8.243 40.7094 8.63618 40.6213 9.02939C40.5129 9.51149 40.4049 9.99362 40.2945 10.4755C40.2329 10.6935 40.4166 10.9526 40.6505 10.9361C40.9941 10.9338 41.3384 10.947 41.6819 10.9298C41.9697 10.9013 42.1889 10.6332 42.2224 10.3548C42.4739 9.24185 42.727 8.12921 42.9801 7.01656C43.4188 5.08718 43.8574 3.1578 44.2879 1.22656L44.3117 1.12493C44.3488 0.975045 44.3862 0.821907 44.355 0.668537C44.2985 0.523722 44.1483 0.422995 43.9939 0.417682C42.4607 0.418681 40.9266 0.41901 39.3926 0.418352ZM30.2145 0.419278C30.1388 0.420594 30.0628 0.421898 29.9891 0.438568C29.7828 0.510135 29.607 0.682125 29.5512 0.895862C29.1078 2.90037 28.6508 4.90189 28.1938 6.90334C27.9205 8.10104 27.6471 9.29872 27.3765 10.497C27.3219 10.7233 27.5321 10.9593 27.7614 10.945C28.7885 10.9477 29.8156 10.947 30.8431 10.9391C31.4327 10.9222 32.0308 10.7628 32.5144 10.4165C32.9554 10.101 33.3056 9.65565 33.4994 9.14898C33.5836 8.89714 33.3496 8.62774 33.0938 8.63404C32.7324 8.62953 32.3705 8.63032 32.0086 8.63112C31.6522 8.6319 31.2962 8.63268 30.9402 8.62841C30.806 8.63469 30.6859 8.53827 30.645 8.41401C30.5787 8.25196 30.6161 8.07567 30.6602 7.91364C30.8774 6.94171 31.0981 5.97056 31.3188 4.99942C31.6323 3.62174 31.9454 2.24403 32.2484 0.864045C32.3139 0.635734 32.0936 0.404765 31.8675 0.41438C31.3492 0.41901 30.8306 0.411723 30.3124 0.416366C30.28 0.418157 30.2472 0.418718 30.2145 0.419278ZM21.8748 0.420801C21.7652 0.424945 21.656 0.433865 21.5476 0.452484C21.0118 0.524721 20.4983 0.753362 20.0896 1.10793C19.7792 1.37105 19.5441 1.71203 19.3686 2.07653C19.2196 2.3963 19.1362 2.74093 19.0598 3.08357C18.7876 4.30532 18.5084 5.52538 18.2292 6.74547C17.9422 7.99865 17.6552 9.25187 17.3764 10.5069C17.3308 10.7111 17.5062 10.9361 17.7168 10.9357C18.3033 10.9391 18.8898 10.9357 19.4758 10.9371C19.7663 10.9467 20.0253 10.7081 20.0826 10.4311C20.3411 9.28248 20.6024 8.13449 20.8636 6.98652C21.2204 5.41935 21.5772 3.85222 21.9274 2.28364C21.9781 2.01655 22.2226 1.80381 22.4924 1.78261C23.0251 1.77709 23.5578 1.77778 24.0904 1.77849C24.4523 1.77896 24.8142 1.77944 25.176 1.77796C25.341 1.76902 25.527 1.8237 25.6147 1.97447C25.6833 2.0912 25.6584 2.231 25.6362 2.3585L25.6307 2.38835C25.5278 2.87802 25.4155 3.36552 25.3043 3.85332L25.247 4.1032C25.199 4.33284 24.9818 4.51674 24.7459 4.51907L24.6473 4.52183C24.3825 4.52903 24.1177 4.53624 23.8557 4.57308C23.4026 4.63604 22.9612 4.80073 22.5907 5.07113C22.1668 5.37798 21.828 5.80579 21.6396 6.29489C21.555 6.51823 21.7149 6.80785 21.9606 6.82409C22.3314 6.83492 22.7022 6.83284 23.0731 6.83075C23.4388 6.82869 23.805 6.82664 24.1708 6.83701C24.4344 6.84961 24.5654 7.16109 24.501 7.3904C24.3579 7.99124 24.2226 8.59403 24.0873 9.19681C23.9926 9.61995 23.8974 10.0431 23.7999 10.4655C23.7414 10.6759 23.8919 10.9185 24.115 10.9347C24.4347 10.946 24.7553 10.9357 25.0754 10.9397C25.2529 10.9444 25.4279 10.8718 25.5488 10.7419C25.6779 10.6064 25.7165 10.42 25.7528 10.2413L25.7691 10.1643L26.3583 7.57065C26.8454 5.42701 27.3324 3.2833 27.8124 1.13776C27.8432 1.00322 27.885 0.866032 27.8674 0.7262C27.8475 0.547911 27.6666 0.422654 27.4958 0.418023C25.784 0.418352 24.0717 0.419339 22.3595 0.418023C22.1984 0.41901 22.0362 0.414709 21.8748 0.420801ZM14.77 0.416695C14.685 0.415696 14.5996 0.423324 14.5165 0.444527C14.1742 0.530022 13.8743 0.805066 13.7951 1.15432C13.6707 1.69927 13.5491 2.24481 13.4274 2.79035C13.2753 3.47156 13.1233 4.15278 12.9657 4.83288C12.9209 5.01779 12.8417 5.19373 12.7384 5.35347C12.4299 5.82633 11.939 6.1408 11.4364 6.37641C10.7462 6.72259 9.97682 6.84061 9.22071 6.95665L9.03354 6.98546L8.86197 7.01335C8.50322 7.07083 8.14057 7.12884 7.80834 7.28171C7.6005 7.38012 7.395 7.51234 7.27802 7.71713C7.04756 8.10385 7.06433 8.62972 7.33339 8.99291C7.45739 9.1629 7.64534 9.26928 7.83135 9.35842C8.27822 9.56287 8.77579 9.59899 9.24372 9.73386C9.75338 9.86939 10.2166 10.1438 10.6179 10.4801C10.9489 10.7797 11.0733 11.2317 11.1494 11.6565C11.1989 12.1346 11.1201 12.6148 11.0238 13.0824C10.8433 13.924 10.6421 14.7618 10.4635 15.6041C10.3882 15.9371 10.6889 16.2831 11.0262 16.2721C11.5128 16.2749 11.9995 16.2745 12.4861 16.2742L13.3132 16.2741C13.3526 16.2737 13.3923 16.2742 13.4321 16.2747C13.5951 16.2768 13.76 16.279 13.9125 16.2148C14.2147 16.0988 14.4612 15.8304 14.5275 15.5107C14.6222 15.0546 14.7267 14.6004 14.8312 14.1463C15.0223 13.3159 15.2134 12.4855 15.3436 11.6432C15.4473 10.9308 15.1861 10.1948 14.7146 9.66062C14.4655 9.37266 14.1457 9.15727 13.817 8.9707C13.2301 8.64464 12.5793 8.44647 11.9183 8.3411C11.8462 8.32979 11.7733 8.32134 11.7004 8.31287C11.5639 8.29704 11.4278 8.28121 11.2948 8.24666C11.2543 8.24033 11.2192 8.21081 11.2044 8.17422C11.1946 8.14957 11.1938 8.1217 11.2075 8.09556C11.2313 8.06939 11.2609 8.05114 11.2929 8.0374C11.3284 8.02208 11.367 8.01234 11.404 8.00344C12.1433 7.85763 12.8838 7.70653 13.6041 7.48219C14.4943 7.2098 15.3534 6.80189 16.0709 6.2021C16.5626 5.77761 16.9295 5.20103 17.0711 4.56446C17.3136 3.47923 17.5604 2.39465 17.7995 1.30874C17.8108 1.25415 17.8248 1.19987 17.8365 1.14523C17.8451 1.10503 17.8525 1.06463 17.8568 1.02376C17.8778 0.712272 17.5998 0.418681 17.2875 0.421996C16.8336 0.416975 16.3793 0.417682 15.925 0.418389C15.5401 0.418986 15.1553 0.419583 14.77 0.416695ZM5.03623 0.418657C4.9598 0.421118 4.88376 0.428125 4.80928 0.446855C4.53944 0.524063 4.29924 0.7136 4.17563 0.967429C4.13156 1.05646 4.11051 1.15329 4.08984 1.2497L4.07697 1.30808L3.6145 3.37727L3.26628 4.9303C3.23001 5.09201 3.22689 5.27426 3.32087 5.41775C3.43941 5.61591 3.68001 5.70703 3.90267 5.70571C4.3164 5.70435 4.72974 5.70456 5.14347 5.70477C5.53497 5.70498 5.92647 5.70518 6.31798 5.70405C6.75081 5.70306 7.18014 5.3982 7.28387 4.97072C7.41918 4.35939 7.55605 3.74835 7.69292 3.13728C7.84616 2.45493 7.99902 1.77255 8.14993 1.08971C8.22207 0.765962 7.94131 0.421338 7.61064 0.422995C7.26008 0.418096 6.90991 0.417645 6.55974 0.418145C6.1269 0.418754 5.69407 0.420801 5.26123 0.417682C5.18636 0.418182 5.1111 0.416232 5.03623 0.418657ZM59.2298 12.5823C58.3824 12.5856 57.5351 12.5787 56.6877 12.5866C56.5497 13.3064 56.4054 14.0247 56.2612 14.7431C56.1574 15.2595 56.0537 15.7758 55.9523 16.2927L56.894 16.2943C57.438 16.2951 57.9824 16.2951 58.5267 16.2907L58.5677 16.0792C58.5926 15.9522 58.618 15.8253 58.6445 15.6985L57.4345 15.6979L56.7443 15.6979C56.8078 15.3718 56.8753 15.0464 56.9381 14.72C57.4392 14.7158 57.9406 14.7168 58.4417 14.7178L58.7178 14.7183C58.756 14.5149 58.795 14.3114 58.8367 14.1086H57.0679L57.2559 13.1738C57.5437 13.1751 57.8311 13.1748 58.1188 13.1746C58.4499 13.1744 58.781 13.1742 59.112 13.1761C59.1276 13.0944 59.1444 13.0129 59.1612 12.9314C59.1853 12.8153 59.2095 12.6991 59.2298 12.5823ZM42.8592 13.3912C42.6658 14.3583 42.4724 15.3256 42.2805 16.293C42.4919 16.293 42.7036 16.2953 42.9153 16.2927C43.0873 15.4321 43.2581 14.5709 43.4316 13.7106C43.5435 14.2819 43.6566 14.8528 43.7701 15.4238L43.9421 16.2933L44.394 16.2946L44.5239 16.2953C44.844 15.7616 45.1587 15.2248 45.4738 14.6879C45.6652 14.3612 45.8571 14.0344 46.0497 13.7083C45.9351 14.2897 45.8185 14.8708 45.7023 15.4518L45.5338 16.2937H46.1702C46.4178 15.057 46.6611 13.8193 46.913 12.5837C46.6818 12.5823 46.4506 12.5833 46.2193 12.584C45.9004 13.0906 45.5783 13.5952 45.2562 14.0997C44.9797 14.533 44.7032 14.9663 44.4287 15.401C44.279 14.7848 44.1265 14.1692 43.974 13.5535L43.7346 12.5833C43.6321 12.5825 43.5295 12.5828 43.4269 12.5831C43.2916 12.5835 43.1563 12.5839 43.021 12.5817L42.8592 13.3912ZM30.204 14.1408C29.7559 14.8588 29.3079 15.5768 28.8618 16.296C29.1067 16.291 29.3519 16.298 29.5968 16.2917C29.8904 15.8036 30.1849 15.3164 30.48 14.8293L30.8856 14.1603C31.0622 13.879 31.2225 13.5857 31.4124 13.3133C31.4845 13.6014 31.5469 13.8918 31.6097 14.1821C31.646 14.3496 31.6822 14.5171 31.7201 14.6842C31.4678 14.6902 31.2159 14.6816 30.964 14.6902C30.8942 14.8174 30.8197 14.9421 30.7452 15.0668L30.6185 15.2817C31.0287 15.2843 31.4397 15.28 31.8503 15.284C31.9221 15.6207 31.9969 15.957 32.0695 16.2937L32.7827 16.294C32.4945 15.0563 32.2052 13.8193 31.9174 12.5817C31.7419 12.5833 31.5668 12.5834 31.3917 12.5834L31.1745 12.5833L30.204 14.1408ZM71.5259 12.7278C70.776 12.5051 69.9357 12.4561 69.2088 12.7825C68.684 13.0386 68.4079 13.6835 68.5362 14.2451C68.5986 14.4817 68.8193 14.6421 69.0509 14.6908C69.4584 14.7932 69.8834 14.6772 70.2921 14.7684C70.4165 14.7919 70.4984 14.9165 70.5027 15.0384C70.5031 15.2684 70.3631 15.4841 70.163 15.5932C69.9875 15.6999 69.7766 15.7068 69.5777 15.7168C69.1449 15.7337 68.7089 15.6674 68.3014 15.5216C68.2566 15.729 68.2176 15.9375 68.1813 16.1466C68.7195 16.3003 69.2899 16.3742 69.8472 16.2917C70.197 16.2483 70.551 16.123 70.806 15.8709C71.0377 15.6458 71.1632 15.329 71.196 15.0113C71.2206 14.8224 71.2069 14.6176 71.0954 14.4566C71.0232 14.3402 70.9109 14.2634 70.7865 14.2125C70.7249 14.1872 70.6606 14.1683 70.597 14.154C70.3798 14.1044 70.1587 14.1069 69.9372 14.1093C69.7598 14.1113 69.5824 14.1133 69.4069 14.0884C69.2669 14.0669 69.1893 13.9131 69.2131 13.7819C69.2147 13.5204 69.4256 13.3093 69.6623 13.2308C70.2359 13.0757 70.8513 13.1576 71.405 13.3538L71.4155 13.2983C71.4533 13.1083 71.4916 12.9183 71.5259 12.7278ZM20.2101 12.7321C19.6864 12.5406 19.1124 12.5078 18.5645 12.6002C18.0724 12.6797 17.5858 12.9051 17.2699 13.3004C16.8905 13.7806 16.7299 14.4039 16.733 15.0086C16.7018 15.5133 17.0118 16.0405 17.5082 16.189C18.1613 16.409 18.8784 16.3487 19.5242 16.132C19.6053 15.7589 19.6786 15.3842 19.7527 15.0095L19.8397 14.5758L19.8326 14.5758C19.6061 14.5752 19.3799 14.5745 19.1534 14.5752L19.0543 15.0702C19.0141 15.2707 18.974 15.4711 18.9326 15.6714C18.5641 15.7333 18.1539 15.7635 17.8186 15.568C17.5756 15.4318 17.4669 15.1435 17.4614 14.8767C17.4559 14.4247 17.5651 13.9469 17.8708 13.601C18.0541 13.3895 18.3189 13.2709 18.5856 13.206C19.0843 13.0853 19.6143 13.1602 20.0849 13.3524C20.1247 13.145 20.1653 12.9379 20.2101 12.7321ZM5.50923 7.27011C5.16452 6.93874 4.66189 6.76444 4.18732 6.85059C3.58135 6.95266 3.06 7.44607 2.9438 8.05149C2.88101 8.42427 2.92079 8.82887 3.12473 9.15428C3.42187 9.67155 4.04461 9.97509 4.63498 9.89722C4.9329 9.85315 5.22301 9.73153 5.44684 9.52841C5.79467 9.21792 5.99861 8.74836 5.97327 8.28178C5.9487 7.90336 5.78843 7.53057 5.50923 7.27011Z" fill="#EBEBEC"/>
</svg>
