<svg width="77" height="13" viewBox="0 0 77 13" fill="none" xmlns="http://www.w3.org/2000/svg">
<path fill-rule="evenodd" clip-rule="evenodd" d="M7.00666 1.82889C3.6728 2.70944 0.903486 3.45558 0.852721 3.48701C0.735605 3.55941 0.725384 6.05744 0.841904 6.1295C0.972904 6.2105 12.0279 3.35711 12.1835 3.20218C12.3499 3.03651 13.4574 0.331505 13.3875 0.261576C13.3603 0.23432 13.2774 0.215581 13.2032 0.219925C13.1291 0.224269 10.3406 0.948262 7.00666 1.82889ZM37.0558 2.13518C36.2575 2.34991 35.4746 2.82391 34.8835 3.45047C33.0988 5.3423 33.1307 8.12167 34.9582 9.97253C35.8317 10.8573 37.0308 11.3671 38.2377 11.3671C40.2835 11.3671 42.2906 9.77552 42.7451 7.79272C42.9046 7.09752 42.8547 5.85532 42.6424 5.23251C42.1127 3.67882 40.8993 2.52861 39.3753 2.1357C38.7336 1.97028 37.6699 1.97003 37.0558 2.13518ZM62.9476 2.27521C62.907 2.38194 62.064 4.39839 61.0743 6.7563C60.0845 9.11422 59.2965 11.0785 59.3231 11.1216C59.4005 11.2468 61.7091 11.2205 61.8086 11.0933C61.8544 11.0348 61.9994 10.7085 62.131 10.3682C62.2625 10.028 62.4168 9.71088 62.4737 9.66369C62.5378 9.61045 63.2215 9.58652 64.2689 9.60083L65.9606 9.624L66.2743 10.3906L66.588 11.1572L67.8723 11.1807C69.0562 11.2024 69.1561 11.1923 69.1509 11.0529C69.1479 10.9697 68.3131 8.92769 67.2958 6.51509L65.4462 2.12854L64.2338 2.10486C63.0405 2.08161 63.0203 2.08433 62.9476 2.27521ZM16.6422 2.2776C16.6197 2.3362 16.6114 4.35801 16.6236 6.77061L16.6457 11.1572H20.2657H23.8857V10.135V9.11294L21.5007 9.07035L19.1158 9.02777V8.34636V7.66496L20.3211 7.64136C21.1458 7.62527 21.5517 7.58489 21.6067 7.5136C21.7247 7.3608 22.3099 5.92184 22.3099 5.78445C22.3099 5.68973 22.0016 5.66265 20.7129 5.64391L19.1158 5.62074V4.93934V4.25793L21.0692 4.21534L23.0224 4.17276L23.3902 3.32909C23.5924 2.86505 23.7579 2.41473 23.7579 2.32828C23.7579 2.17803 23.6021 2.17113 20.2205 2.17113C17.4689 2.17113 16.6739 2.19481 16.6422 2.2776ZM24.5244 2.27547C24.5243 2.41175 27.9279 10.9482 28.0403 11.0933C28.1564 11.2434 30.2618 11.2434 30.378 11.0933C30.4891 10.9497 33.894 2.41252 33.8939 2.2776C33.8938 2.19719 33.5835 2.17113 32.6265 2.17113C31.7142 2.17113 31.336 2.20094 31.2757 2.2776C31.2297 2.3362 30.7787 3.5531 30.2737 4.98192C29.7686 6.41075 29.3244 7.61436 29.2864 7.65661C29.1934 7.7601 29.1694 7.70082 28.1212 4.76898L27.2075 2.21372L25.866 2.19029C24.8231 2.17207 24.5245 2.19097 24.5244 2.27547ZM43.9836 2.2776C43.9611 2.3362 43.9528 4.35801 43.9649 6.77061L43.9871 11.1572H45.1796H46.372L46.4146 9.87952L46.4572 8.60189L47.6496 8.54891C48.9652 8.49048 49.4792 8.35105 50.2223 7.85089C51.1169 7.24887 51.4835 6.41466 51.4231 5.11872C51.3793 4.18076 51.191 3.70633 50.6457 3.16112C50.2016 2.71702 49.7658 2.47648 49.0823 2.29847C48.4291 2.12837 44.0476 2.1104 43.9836 2.2776ZM52.4168 2.27521C52.3939 2.33509 52.3852 4.35801 52.3973 6.77061L52.4195 11.1572H55.1416H57.8638L58.2654 10.2202C58.4863 9.70491 58.6699 9.21694 58.6734 9.13585C58.6794 9.00094 58.519 8.98646 56.7847 8.9655L54.8896 8.94259L54.847 5.57815L54.8044 2.21372L53.6314 2.19004C52.7403 2.17198 52.4485 2.19242 52.4168 2.27521ZM67.8789 2.25281C67.8789 2.30008 68.6167 3.55625 69.5185 5.04444L71.1581 7.75013L71.2007 9.45364L71.2433 11.1572H72.4357H73.6282L73.6513 9.43286L73.6743 7.70857L75.2909 5.04862C76.18 3.58564 76.9075 2.33867 76.9075 2.27768C76.9075 2.19038 76.6256 2.17181 75.5804 2.19029L74.2535 2.21372L73.3872 3.76502C72.9108 4.61822 72.4826 5.31718 72.4357 5.31811C72.3889 5.31913 71.961 4.62104 71.4848 3.76681L70.6189 2.21372L69.2489 2.19029C68.3692 2.1753 67.8789 2.19762 67.8789 2.25281ZM39.3024 4.44958C39.735 4.67461 40.2084 5.17118 40.4594 5.66333C40.7214 6.17685 40.7312 7.07086 40.481 7.62671C39.9507 8.80486 38.7278 9.3844 37.5157 9.03203C37.1199 8.91695 36.9213 8.78962 36.5349 8.40326C35.9342 7.80252 35.7252 7.2642 35.7882 6.47957C35.8616 5.56521 36.3197 4.89138 37.1552 4.46874C37.6389 4.22403 37.7388 4.20419 38.3229 4.23672C38.7469 4.26032 39.0763 4.33195 39.3024 4.44958ZM48.3467 4.38084C48.7822 4.57862 48.9699 4.91029 48.9699 5.48225C48.9699 5.80881 48.9215 5.96323 48.7586 6.15684C48.4437 6.5311 48.1656 6.61014 47.2618 6.58237L46.4572 6.55767L46.4332 5.49766C46.4199 4.91472 46.4283 4.38765 46.4517 4.3265C46.5226 4.14201 47.9081 4.1817 48.3467 4.38084ZM64.7394 6.34882C64.9667 6.93219 65.1529 7.45738 65.153 7.5159C65.1532 7.5946 64.9092 7.62237 64.2163 7.62237C63.4653 7.62237 63.2794 7.59843 63.2794 7.50185C63.2794 7.39606 63.9991 5.47603 64.106 5.29682C64.2097 5.12272 64.3562 5.36598 64.7394 6.34882ZM5.70066 6.0358L0.803064 6.73101L0.779555 8.0284C0.756047 9.32588 0.756047 9.32588 0.992494 9.32682C1.35389 9.32827 9.98627 8.13538 10.1145 8.06622C10.2292 8.00447 11.2371 5.64331 11.2371 5.43642C11.2371 5.3601 11.1319 5.32561 10.9177 5.33166C10.742 5.3366 8.39434 5.65353 5.70066 6.0358ZM0.797868 10.0327C0.77453 10.0935 0.766183 10.678 0.779215 11.3316L0.803064 12.52H4.62063H8.43812L8.9433 11.306C9.22106 10.6384 9.44839 10.0538 9.44839 10.0071C9.44839 9.95167 7.95015 9.92211 5.14438 9.92211C1.69451 9.92211 0.831853 9.94409 0.797868 10.0327Z" fill="#EBEBEC"/>
</svg>
