<svg width="76" height="15" viewBox="0 0 76 15" fill="none" xmlns="http://www.w3.org/2000/svg">
<path fill-rule="evenodd" clip-rule="evenodd" d="M7.27842 13.3737C3.6122 13.3737 0.636719 10.3983 0.636719 6.73204C0.636719 3.06582 3.6122 0.090332 7.27842 0.090332C10.9446 0.090332 13.9201 3.06582 13.9201 6.73204C13.9201 10.3983 10.9446 13.3737 7.27842 13.3737ZM7.27842 1.86145C4.58632 1.86145 2.40784 4.03993 2.40784 6.73204C2.40784 9.42414 4.58632 11.6026 7.27842 11.6026C9.97053 11.6026 12.149 9.42414 12.149 6.73204C12.149 4.03993 9.97053 1.86145 7.27842 1.86145ZM36.2894 11.2838H38.4679V1.89688H36.2894V11.2838ZM22.209 2.26881C24.7594 2.26881 26.7785 4.1462 26.7785 6.82059C26.7785 9.49499 24.7417 11.3724 22.209 11.3901C19.6763 11.3901 17.6218 9.49499 17.6218 6.82059C17.6218 4.1462 19.6763 2.26881 22.209 2.26881ZM22.209 4.23476C20.7567 4.23476 19.8357 5.2443 19.8357 6.82059C19.8357 8.37918 20.7567 9.40643 22.209 9.40643C23.6436 9.40643 24.5646 8.37918 24.5646 6.82059C24.5646 5.2443 23.6259 4.23476 22.209 4.23476ZM34.9079 11.2838H32.7649V7.44049C32.7649 6.48408 32.2335 5.95274 31.4011 5.95274C30.5687 5.95274 30.0373 6.48408 30.0373 7.44049V11.2838H27.8589V4.21705H30.0373V5.15574C30.4624 4.57127 31.224 4.1462 32.1804 4.1462C33.8098 4.1462 34.9079 5.26201 34.9079 7.15711V11.2838ZM41.5496 4.21705L43.1968 8.64485L44.8085 4.21705H47.1641L42.7186 14.649H40.3807L42.0101 11.0536L39.1232 4.21705H41.5496ZM49.9979 5.20887V4.19933H47.8194V14.649H49.9979V10.292C50.3875 10.8942 51.1491 11.3901 52.1763 11.3901C53.912 11.3901 55.3112 9.97319 55.3112 7.74158C55.3112 5.50996 53.9298 4.11078 52.1763 4.11078C51.1491 4.11078 50.4052 4.58898 49.9979 5.20887ZM53.115 7.74158C53.115 8.8751 52.3712 9.49499 51.5565 9.49499C50.7417 9.49499 49.9979 8.8751 49.9979 7.74158C49.9979 6.60806 50.7417 5.98817 51.5565 5.98817C52.3712 6.00588 53.115 6.60806 53.115 7.74158ZM58.517 11.2838H56.3385V1.89688H58.517V11.2838ZM59.5265 7.74158C59.5265 9.97319 60.908 11.3901 62.6437 11.3901C63.7063 11.3901 64.4502 10.9119 64.8399 10.292V11.3015H67.0183V4.21705H64.8399V5.22658C64.4502 4.60669 63.7063 4.12849 62.6437 4.12849C60.908 4.11078 59.5265 5.50996 59.5265 7.74158ZM64.8399 7.74158C64.8399 8.8751 64.1137 9.49499 63.2813 9.49499C62.4666 9.49499 61.7227 8.85738 61.7227 7.74158C61.7227 6.62577 62.4666 6.00588 63.2813 6.00588C64.1137 6.00588 64.8399 6.62577 64.8399 7.74158ZM70.0824 4.21705L71.7295 8.64485L73.3412 4.21705H75.6968L71.2513 14.649H68.9134L70.5429 11.0536L67.6559 4.21705H70.0824ZM9.49233 6.73204C9.49233 7.95474 8.50113 8.94594 7.27842 8.94594C6.05572 8.94594 5.06452 7.95474 5.06452 6.73204C5.06452 5.50933 6.05572 4.51814 7.27842 4.51814C8.50113 4.51814 9.49233 5.50933 9.49233 6.73204Z" fill="#EBEBEC"/>
</svg>
