<svg width="77" height="22" viewBox="0 0 77 22" fill="none" xmlns="http://www.w3.org/2000/svg">
<path fill-rule="evenodd" clip-rule="evenodd" d="M2.3649 0.875311H14.0044C14.1879 0.874791 14.3698 0.910487 14.5394 0.980354C14.7092 1.05022 14.8634 1.15289 14.9934 1.28247C15.1233 1.41204 15.2264 1.56599 15.2967 1.73549C15.3671 1.90498 15.4033 2.08669 15.4033 2.2702V20.469C15.4033 20.6526 15.3671 20.8343 15.2967 21.0038C15.2264 21.1733 15.1233 21.3272 14.9934 21.4568C14.8634 21.5864 14.7092 21.689 14.5394 21.7589C14.3698 21.8288 14.1879 21.8645 14.0044 21.8639H2.3649C2.18166 21.8639 2.00026 21.8279 1.83102 21.7578C1.66179 21.6877 1.50809 21.5849 1.37853 21.4554C1.24898 21.3259 1.14626 21.1721 1.07617 21.0028C1.00608 20.8336 0.969971 20.6522 0.969971 20.469V2.2702C0.969971 1.90025 1.11691 1.54546 1.37853 1.28387C1.64016 1.02227 1.99495 0.875311 2.3649 0.875311ZM12.2615 14.1688C12.7112 13.5622 12.9538 12.8271 12.9536 12.072V7.05989C12.9536 5.58888 12.5068 4.92455 11.9927 4.47277C11.4104 3.96068 10.3694 3.51088 8.1847 3.51088C5.99987 3.51088 4.95887 3.96068 4.37663 4.47277C3.86254 4.92455 3.41575 5.58888 3.41575 7.05989V12.1728C3.41575 12.658 3.51606 13.1379 3.7103 13.5824C3.90463 14.0269 4.18866 14.4265 4.5447 14.756L5.91385 16.0234C5.9459 16.0529 5.98375 16.0753 6.02507 16.0892C6.04573 16.0962 6.06697 16.1009 6.0885 16.1034C6.09747 16.1045 6.10655 16.1051 6.11562 16.1054C6.12817 16.1057 6.14082 16.1053 6.15337 16.1041C6.19682 16.1 6.23881 16.0868 6.27675 16.0654C6.3146 16.044 6.34761 16.0149 6.37358 15.9799L7.5342 14.4189C7.58016 14.3569 7.60159 14.2801 7.59425 14.2032C7.58701 14.1264 7.55148 14.0549 7.49462 14.0027L6.52486 13.1051C6.31537 12.9113 6.14816 12.6763 6.03385 12.4148C5.91955 12.1533 5.86047 11.871 5.86047 11.5856V8.11174C5.86047 7.0589 6.26478 6.6091 6.41905 6.48849L6.43769 6.47401C6.62131 6.33036 7.01085 6.02583 8.18663 6.02583C9.36086 6.02583 9.74905 6.32957 9.93297 6.47345L9.95227 6.48849C10.1045 6.60811 10.5088 7.0589 10.5088 8.11174V11.3909C10.5092 11.9249 10.3376 12.4448 10.0195 12.8738L7.12689 16.7737C7.08162 16.8354 7.06047 16.9115 7.06762 16.9877C7.07467 17.0638 7.10952 17.1347 7.16541 17.1869L8.18663 18.1251L8.59394 18.5057L8.8628 18.7548L9.198 19.0653C9.31336 19.1704 9.46397 19.2282 9.62008 19.2274H12.3476C12.4099 19.2271 12.4708 19.2082 12.5223 19.1729C12.5738 19.1377 12.6134 19.0878 12.6362 19.0298C12.659 18.9717 12.6638 18.9082 12.6501 18.8474C12.6364 18.7865 12.6047 18.7312 12.5592 18.6886L10.3941 16.6857L12.2615 14.1688ZM74.8557 18.3347V12.0275H76.0301V18.3347V19.7355C76.0301 20.4601 75.6584 20.8229 75.1335 20.8229C74.6085 20.8229 74.3308 20.5887 73.9274 19.869L70.6019 13.8258V14.5178V20.8249H69.4244V14.5178V13.1169C69.4244 12.3923 69.7952 12.0295 70.3201 12.0295C70.845 12.0295 71.1228 12.2638 71.5261 12.9835L74.8557 19.0267V18.3347ZM51.4006 12.0325H49.7882L46.5437 15.4974V12.0374H45.3672V20.8407H46.5437V17.2186L46.8906 16.8479L49.8771 20.8358H51.4036L47.7043 15.9799L51.4006 12.0325ZM61.5148 12.0325C62.2542 12.0325 63.0045 12.1293 63.66 12.5604C64.3105 12.9894 64.8562 13.7269 64.8562 14.8875C64.8562 16.0481 64.3154 16.7846 63.66 17.2136C63.0045 17.6427 62.2542 17.7415 61.5148 17.7415H60.5667V20.8358H59.3468V12.0325H61.5148ZM61.5148 16.6541C62.1999 16.6541 62.708 16.4939 63.0352 16.2349C63.2402 16.0751 63.4061 15.8706 63.5201 15.637C63.6342 15.4035 63.6935 15.1469 63.6935 14.887C63.6935 14.6271 63.6342 14.3705 63.5201 14.137C63.4061 13.9034 63.2402 13.6989 63.0352 13.5391C62.708 13.2801 62.1999 13.1199 61.5148 13.1199H60.5667V16.6541H61.5148ZM25.1231 19.7998C25.2771 19.6057 25.4097 19.3956 25.5185 19.173C25.8353 18.5207 25.8338 17.7719 25.8328 17.2756V17.2729V15.5409C25.8328 15.0467 25.8328 14.2943 25.5185 13.6409C24.956 12.4823 23.9506 11.901 22.7573 11.899H22.7426C21.5503 11.899 20.5449 12.4823 19.9824 13.6409C19.6656 14.2934 19.667 15.0425 19.668 15.5387V15.5409V17.2729C19.668 17.7672 19.668 18.5196 19.9824 19.173C20.5459 20.3336 21.5542 20.9149 22.7505 20.9149C23.2141 20.9195 23.6729 20.8213 24.0939 20.6272L25.041 21.8639H26.7088L25.1231 19.7998ZM24.6505 17.3234V17.3513C24.6506 17.7509 24.6508 18.2849 24.4528 18.6896C24.2402 19.1265 23.7331 19.7879 22.7435 19.7879C21.754 19.7879 21.2488 19.1265 21.0382 18.6896C20.8389 18.2758 20.8397 17.6944 20.8405 17.2922V17.2265V15.5874L20.8403 15.5093C20.8394 15.1076 20.8381 14.5339 21.0382 14.1243C21.2518 13.6874 21.7579 13.026 22.7475 13.026C23.737 13.026 24.2442 13.6874 24.4567 14.1243C24.6565 14.5349 24.6554 15.1105 24.6547 15.5123V15.5132L24.6545 15.5874V17.3234H24.6505ZM43.5383 13.1169C42.1207 12.7868 41.2023 12.85 40.3976 13.457C39.5771 14.0749 39.4041 15.2305 39.4091 16.4396C39.414 17.6486 39.5771 18.8003 40.3976 19.4182C41.2023 20.0242 42.1207 20.0874 43.5383 19.7573V20.5738C43.5383 20.5738 42.8444 20.9782 41.7224 20.9782C40.6003 20.9782 39.9587 20.6905 39.4417 20.2308C38.8525 19.7029 38.3988 18.8636 38.2673 17.5616C38.2281 17.1889 38.2102 16.8143 38.2139 16.4396C38.2102 16.0645 38.2281 15.6896 38.2673 15.3165C38.3988 14.0106 38.8485 13.1713 39.4417 12.6474C39.9587 12.1867 40.6082 11.899 41.7224 11.899C42.8365 11.899 43.5383 12.3033 43.5383 12.3033V13.1169ZM55.8947 12.9281C56.495 12.9526 57.0933 13.0143 57.686 13.113V12.1649C56.911 11.9579 56.1088 11.8712 55.3075 11.9079C54.8409 11.9249 54.3772 11.9888 53.9235 12.0987C53.2769 12.2658 52.9181 12.5732 52.7174 12.8767C52.5935 13.0642 52.5149 13.2778 52.4878 13.5009C52.4607 13.7239 52.4858 13.9502 52.5612 14.1619L52.5638 14.169C52.565 14.1725 52.5661 14.1761 52.5671 14.1797C52.581 14.2182 52.5957 14.2568 52.6125 14.2963C52.84 14.8835 53.186 15.3333 53.6763 15.8652C53.8954 16.1024 54.2126 16.4178 54.5414 16.7445C55.0018 17.2021 55.4847 17.682 55.7524 18.0015C56.038 18.3525 56.3742 18.8201 56.2071 19.2234C56.0232 19.6653 55.2185 19.9718 54.2565 19.9441C53.6564 19.9154 53.0584 19.8531 52.4653 19.7573V20.7004C52.4653 20.7004 53.2107 21.0286 54.8428 20.9633C56.475 20.8981 57.1234 20.4611 57.4319 19.9945C57.5863 19.7355 57.673 19.4418 57.6841 19.1404V19.1157C57.6849 19.0652 57.683 19.0147 57.6781 18.9644C57.6543 18.5126 57.5614 18.1735 56.9861 17.5072C56.5536 17.0093 55.8916 16.3526 55.345 15.8104C55.0754 15.5431 54.834 15.3036 54.6619 15.1248L54.5186 14.9745C54.1369 14.5652 53.7188 14.0551 53.9135 13.5687C54.1192 13.0586 55.0287 12.9103 55.8947 12.9281ZM35.3845 12.0325H36.6044V20.8358H35.3845V12.0325ZM67.5886 12.0186H66.3687V20.822H67.5886V12.0186ZM27.4878 12.0325H28.6652V17.8018C28.6652 19.6416 29.9236 19.8729 30.4822 19.8729C31.0407 19.8729 32.3001 19.6416 32.3001 17.8018V12.0325H33.4776V17.8018C33.4776 18.83 33.1286 20.9653 30.4822 20.9653C27.8357 20.9653 27.4878 18.8339 27.4878 17.8018V12.0325Z" fill="#EBEBEC"/>
</svg>
