<svg width="78" height="35" viewBox="0 0 78 35" fill="none" xmlns="http://www.w3.org/2000/svg">
<path fill-rule="evenodd" clip-rule="evenodd" d="M58.0097 0.318461C57.8803 0.725959 58.1943 4.59571 58.4978 6.33412C58.6279 7.0791 58.7013 7.72147 58.6609 7.76185C58.6205 7.80224 58.2847 7.4914 57.9146 7.07099C57.2285 6.29158 55.7025 5.42544 54.6445 5.21474C54.1274 5.11195 54.1719 5.17932 55.4841 6.48656C56.559 7.55728 57.0158 8.16406 57.5198 9.19108C57.8772 9.91935 58.1868 10.5448 58.2079 10.5811C58.2289 10.6173 58.8261 10.3818 59.535 10.0577C60.7227 9.51483 62.8732 8.94281 63.7266 8.94281C64.0315 8.94281 64.0686 8.87594 63.9792 8.48764C63.9216 8.23721 63.8306 7.28765 63.7768 6.37732C63.6851 4.82048 63.8559 3.49007 64.3079 2.23943C64.4028 1.97709 64.3182 2.01019 63.9006 2.39915C63.1579 3.09101 62.4245 4.64718 62.2929 5.81092C62.2319 6.35001 62.1357 6.78912 62.0793 6.78664C62.0227 6.78432 61.5668 5.91189 61.0661 4.84812C60.1543 2.91076 58.4515 0.00497437 58.2281 0.00497437C58.1627 0.00497437 58.0644 0.145993 58.0097 0.318461ZM62.8041 10.5036C60.1277 11.0329 58.3015 12.0161 56.3452 13.9808C54.6125 15.7208 53.6775 17.3662 53.0974 19.6962C52.6399 21.5339 52.7268 24.5016 53.2863 26.1509C55.0119 31.2371 59.0947 34.4118 64.2967 34.7129C69.2376 34.9986 73.7589 32.4064 75.8899 28.0661C76.9093 25.9896 77.1822 24.8146 77.1794 22.5151C77.1766 20.2879 76.905 19.0861 75.9637 17.1358C74.4651 14.0312 71.6591 11.6928 68.3205 10.7663C66.7263 10.3239 64.2977 10.2082 62.8041 10.5036ZM67.935 11.9479C71.7139 13.0426 74.8504 16.2453 75.7085 19.8857C76.0284 21.2426 76.0279 23.7895 75.7075 25.1488C74.8471 28.7984 71.9847 31.8402 68.2661 33.0563C67.1589 33.4182 66.6301 33.4904 65.0385 33.4968C62.8403 33.5055 61.8505 33.2666 59.8845 32.2527C53.366 28.8911 51.9734 20.0466 57.1453 14.8562C60.0858 11.9052 64.0754 10.8298 67.935 11.9479ZM65.4329 13.6737C64.1492 14.307 64.2732 16.0411 65.6887 17.2528C67.0739 18.4384 69.761 18.5319 70.6025 17.4236C70.8959 17.0372 70.8882 15.9876 70.5876 15.4063C70.2417 14.7373 69.1261 13.8296 68.3723 13.6039C67.4797 13.3364 66.0477 13.3705 65.4329 13.6737ZM0.487549 23.0116C0.487549 26.3219 0.487549 26.3219 0.977143 26.3219C1.46674 26.3219 1.46674 26.3219 1.51507 25.0392L1.5634 23.7564L2.78805 23.6613C3.89998 23.5749 4.05606 23.5176 4.48458 23.0379C4.86344 22.614 4.95646 22.3544 4.95646 21.7218C4.95646 20.2255 4.16348 19.7013 1.89973 19.7013H0.487549V23.0116ZM5.94955 23.0116C5.94955 26.3219 5.94955 26.3219 6.4461 26.3219C6.94265 26.3219 6.94265 26.3219 6.94265 24.9978C6.94265 23.6737 6.94265 23.6737 7.39897 23.6737C7.79025 23.6737 7.97281 23.8624 8.68056 24.9978C9.3883 26.1332 9.57086 26.3219 9.96214 26.3219C10.2131 26.3219 10.4185 26.2418 10.4185 26.144C10.4185 26.0462 10.0833 25.448 9.67365 24.8147C9.264 24.1815 8.92883 23.6285 8.92883 23.5858C8.92883 23.5431 9.05925 23.5065 9.21848 23.5045C9.88749 23.4959 10.584 22.5705 10.584 21.6901C10.584 20.2748 9.68192 19.7013 7.45558 19.7013H5.94955V23.0116ZM19.2704 19.932C18.4726 20.2796 17.7536 21.2279 17.5298 22.2281C17.3613 22.9808 17.3723 23.2654 17.5995 24.0472C18.1995 26.1112 20.5526 26.9918 22.3768 25.8348C23.2843 25.2593 23.6837 24.5714 23.7176 23.5255C23.7424 22.7633 23.7424 22.7633 22.1287 22.716C20.5149 22.6687 20.5149 22.6687 20.5149 23.0884C20.5149 23.4977 20.5435 23.5082 21.6735 23.5082C22.7401 23.5082 22.8321 23.5358 22.8321 23.8557C22.8321 24.3549 21.835 25.2836 21.1652 25.4086C19.6863 25.6842 18.5287 24.6537 18.5287 23.0616C18.5287 21.6557 19.0832 20.8897 20.2933 20.6239C20.9087 20.4888 21.9486 20.872 22.2904 21.3598C22.5627 21.7487 23.4942 21.8199 23.4942 21.452C23.4942 21.0736 22.6459 20.1724 22.059 19.9271C21.3799 19.6434 19.927 19.6459 19.2704 19.932ZM38.0595 20.1151C38.0595 20.5064 38.1092 20.5289 38.9699 20.5289H39.8802V23.4254C39.8802 26.3219 39.8802 26.3219 40.3728 26.3219C40.8655 26.3219 40.8655 26.3219 40.9107 23.4668L40.956 20.6116L41.825 20.5617C42.6229 20.5156 42.6939 20.4786 42.6939 20.1065C42.6939 19.7013 42.694 19.7013 40.3767 19.7013C38.0595 19.7013 38.0595 19.7013 38.0595 20.1151ZM43.3939 22.9702C43.4388 26.2392 43.4388 26.2392 43.8939 26.2915C44.3491 26.3439 44.3491 26.3439 44.3491 23.0225C44.3491 19.7013 44.3491 19.7013 43.8491 19.7013C43.3491 19.7013 43.3491 19.7013 43.3939 22.9702ZM46.9692 20.0368C45.7417 20.6853 45.1356 22.1867 45.4658 23.7611C45.5714 24.2647 45.8108 24.8917 45.9978 25.1542C46.7135 26.1594 48.6067 26.6222 49.8604 26.0983C50.4558 25.8495 51.4663 24.7889 51.4663 24.4127C51.4663 23.9981 50.5208 24.1091 50.2264 24.5585C49.8887 25.0738 49.2904 25.3288 48.4188 25.3288C46.0468 25.3288 45.6146 21.4511 47.9024 20.6962C48.6975 20.4337 49.7047 20.7295 50.1729 21.3627C50.4252 21.7039 50.6769 21.853 51.0008 21.853C51.5492 21.853 51.5854 21.6233 51.143 20.9523C50.3513 19.7513 48.3435 19.3109 46.9692 20.0368ZM55.6041 23.0116C55.6041 26.3219 55.6041 26.3219 56.1007 26.3219C56.5972 26.3219 56.5972 26.3219 56.5972 25.0158V23.7099L57.8558 23.6464C59.0303 23.5869 59.1465 23.5469 59.5937 23.0464C59.964 22.6319 60.0726 22.3504 60.0706 21.809C60.0651 20.245 59.2875 19.702 57.0524 19.7016L55.6041 19.7013V23.0116ZM60.9006 23.0116V26.3219H62.5558C64.2109 26.3219 64.2109 26.3219 64.2109 25.9081C64.2109 25.5061 64.1778 25.4943 63.0523 25.4943H61.8937V22.5978C61.8937 19.7013 61.8937 19.7013 61.3972 19.7013C60.9006 19.7013 60.9006 19.7013 60.9006 23.0116ZM69.8385 19.868C69.8385 19.9597 70.2854 20.8781 70.8316 21.9093C71.796 23.7298 71.8246 23.8205 71.8246 25.0529C71.8246 26.3219 71.8246 26.3219 72.3212 26.3219C72.8177 26.3219 72.8177 26.3219 72.8177 25.1896C72.8177 24.1196 72.8768 23.9433 73.8936 21.9793C74.4853 20.8364 74.9694 19.8514 74.9694 19.7907C74.9694 19.7301 74.7286 19.7036 74.4343 19.7323C73.9419 19.7799 73.8472 19.8926 73.2449 21.1496C72.8849 21.9005 72.5092 22.5151 72.4099 22.5151C72.3106 22.5151 71.9155 21.882 71.5317 21.1082C70.8875 19.8092 70.7958 19.7013 70.3362 19.7013C70.0624 19.7013 69.8385 19.7763 69.8385 19.868ZM13.3828 20.3121C12.5371 22.4992 11.246 26.0338 11.246 26.1624C11.246 26.2501 11.4634 26.3219 11.7289 26.3219C12.1496 26.3219 12.2416 26.2317 12.446 25.6185C12.6806 24.915 12.6806 24.915 14.1426 24.915C15.6046 24.915 15.6046 24.915 15.8391 25.6185C16.0435 26.2317 16.1355 26.3219 16.5563 26.3219C16.8333 26.3219 17.0382 26.2337 17.0371 26.115C17.0359 26.0013 16.5331 24.5675 15.9199 22.9289C14.8046 19.9496 14.8046 19.9496 14.1836 19.8983C13.6349 19.8528 13.5417 19.9009 13.3828 20.3121ZM24.4873 23.0944C24.4873 26.3219 24.4873 26.3219 24.9838 26.3219C25.4804 26.3219 25.4804 26.3219 25.4804 24.0875C25.4804 22.8585 25.5419 21.853 25.6172 21.853C25.6925 21.853 26.1288 22.84 26.5868 24.0461C27.3866 26.1529 27.4379 26.2392 27.8916 26.2392C28.3429 26.2392 28.3996 26.1475 29.1667 24.1702C29.6081 23.0323 30.0393 22.0306 30.1249 21.944C30.2219 21.8459 30.2803 22.639 30.2803 24.0544C30.2803 26.3219 30.2803 26.3219 30.7768 26.3219C31.2734 26.3219 31.2734 26.3219 31.2734 23.0944C31.2734 19.8668 31.2734 19.8668 30.6527 19.8688C30.032 19.871 30.032 19.871 29.0389 22.3496C28.4927 23.7127 28.002 24.8291 27.9484 24.8303C27.8279 24.8328 27.7213 24.5997 26.64 21.9697C25.7753 19.8668 25.7753 19.8668 25.1313 19.8668H24.4873V23.0944ZM34.4362 20.2392C34.3596 20.444 33.84 21.8235 33.2818 23.3049C32.7233 24.7861 32.2665 26.071 32.2665 26.1601C32.2665 26.2491 32.4798 26.3219 32.7405 26.3219C33.1505 26.3219 33.2535 26.2203 33.5014 25.5708C33.7882 24.8199 33.7882 24.8199 35.207 24.8674C36.626 24.915 36.626 24.915 36.86 25.6185C37.0639 26.2317 37.1558 26.3219 37.5767 26.3219C37.8424 26.3219 38.0595 26.2349 38.0595 26.1286C38.0595 26.0223 37.5569 24.5708 36.9423 22.903C35.8251 19.8708 35.8251 19.8708 35.2002 19.8688C34.703 19.8672 34.5471 19.9428 34.4362 20.2392ZM67.0098 20.3121C66.164 22.4992 64.873 26.0338 64.873 26.1624C64.873 26.2501 65.0903 26.3219 65.3558 26.3219C65.7765 26.3219 65.8686 26.2317 66.073 25.6185C66.3075 24.915 66.3075 24.915 67.7695 24.915C69.2315 24.915 69.2315 24.915 69.466 25.6185C69.6705 26.2317 69.7625 26.3219 70.1832 26.3219C70.4621 26.3219 70.6637 26.2345 70.6606 26.115C70.6576 26.0013 70.1541 24.5675 69.5419 22.9289C68.4286 19.9496 68.4286 19.9496 67.8091 19.8983C67.2619 19.8528 67.1687 19.9011 67.0098 20.3121ZM3.73992 20.9486C3.86274 21.1166 3.96337 21.4965 3.96337 21.7924C3.96337 22.5225 3.46914 22.8461 2.35406 22.8461C1.48064 22.8461 1.48064 22.8461 1.48064 21.7979C1.48064 21.2212 1.53658 20.6927 1.60478 20.6232C1.84875 20.375 3.50489 20.6274 3.73992 20.9486ZM9.28734 21.0183C9.67249 21.4938 9.67414 22.0447 9.2918 22.5169C9.0475 22.8183 8.81164 22.8901 8.00906 22.9075C7.0254 22.9289 7.0254 22.9289 6.97509 21.9543C6.9016 20.5319 6.94612 20.4744 8.04862 20.566C8.76182 20.625 9.05578 20.7323 9.28734 21.0183ZM58.4702 20.7192C58.9477 20.9705 59.0743 21.1812 59.0775 21.7289C59.0816 22.475 58.5601 22.8461 57.5076 22.8461C56.5972 22.8461 56.5972 22.8461 56.5972 21.6875C56.5972 20.5289 56.5972 20.5289 57.353 20.5289C57.7686 20.5289 58.2713 20.6145 58.4702 20.7192ZM14.7872 22.6491C15.0244 23.3145 15.2184 23.8917 15.2184 23.9319C15.2184 23.9719 14.7263 24.0047 14.1249 24.0047C13.149 24.0047 13.0439 23.9736 13.1488 23.7151C13.2134 23.5557 13.4083 23.0158 13.5821 22.5151C13.7558 22.0144 13.9368 21.4991 13.9843 21.3702C14.1176 21.0084 14.3139 21.321 14.7872 22.6491ZM35.7536 22.4755C35.9562 23.0889 36.1561 23.6841 36.198 23.7978C36.2542 23.9504 35.9823 24.0047 35.163 24.0047C34.1702 24.0047 34.0643 23.9738 34.1693 23.7151C34.2338 23.5557 34.4288 23.0158 34.6026 22.5151C34.7762 22.0144 34.9543 21.5069 34.9981 21.3874C35.1412 20.9975 35.3787 21.3396 35.7536 22.4755ZM68.4142 22.6491C68.6514 23.3145 68.8454 23.8917 68.8454 23.9319C68.8454 23.9719 68.3612 24.0047 67.7695 24.0047C67.1778 24.0047 66.6937 23.9791 66.6937 23.9479C66.6937 23.8738 67.2662 22.2403 67.51 21.6191C67.7513 21.0041 67.8801 21.1509 68.4142 22.6491Z" fill="#EBEBEC"/>
</svg>
