<svg width="39" height="39" viewBox="0 0 39 39" fill="none" xmlns="http://www.w3.org/2000/svg">
<path fill-rule="evenodd" clip-rule="evenodd" d="M16.2551 24.168V30.5076H0.335778V8.05953C0.335778 1.13136 8.55601 -2.50806 13.6853 2.14915L19.1901 7.14727L24.6949 2.14915C29.8242 -2.50806 38.0444 1.13136 38.0444 8.05953V30.5076H22.1251V24.168L19.5893 26.6099V21.7731L25.6001 16.3727V27.1265H34.2407V8.20599C34.2407 4.37675 29.6987 2.36373 26.8617 4.93559L19.1901 11.8902L11.5185 4.93559C8.68148 2.36373 4.13952 4.37675 4.13952 8.20599V27.1265H12.7801V16.3727L18.7909 21.7731V26.6099L16.2551 24.168ZM27.2044 11.9478L19.1901 19.456L11.1758 11.9478C10.8759 11.6668 10.3852 11.8795 10.3852 12.2905V25.1072H6.7223V9.53535C6.7223 7.06939 9.66608 5.79318 11.4659 7.47886L19.1901 14.7131L26.9143 7.47886C28.7141 5.79318 31.6579 7.06939 31.6579 9.53535V25.1072H27.9951V12.2905C27.9951 11.8795 27.5044 11.6668 27.2044 11.9478ZM0.288818 38.6786V32.339H4.89087C5.85047 32.339 6.62838 33.1169 6.62838 34.0765C6.62838 35.0361 5.85047 35.814 4.89087 35.814H1.55673V38.6786H0.288818ZM11.3713 36.6123V32.339H12.6392V36.5654C12.6392 37.1359 13.1018 37.5985 13.6723 37.5985H17.1474V38.6786H13.4375C12.2964 38.6786 11.3713 37.7535 11.3713 36.6123ZM21.4677 32.339V38.6786L28.6525 35.5323L21.4677 32.339ZM32.5971 32.339H31.0005L33.865 35.6731V38.6786H35.2268V35.6731L37.9975 32.339H36.4478L34.5694 34.687L32.5971 32.339ZM1.55673 34.7339V33.466H4.82043C5.17056 33.466 5.45439 33.7499 5.45439 34.1C5.45439 34.4501 5.17056 34.7339 4.82043 34.7339H1.55673ZM22.6416 37.035V33.9826L26.0697 35.5792L22.6416 37.035Z" fill="#EBEBEC"/>
</svg>
