<svg width="79" height="21" viewBox="0 0 79 21" fill="none" xmlns="http://www.w3.org/2000/svg">
<path fill-rule="evenodd" clip-rule="evenodd" d="M9.01139 3.9365C7.26441 5.70667 5.8272 7.17813 5.81748 7.20641C5.80776 7.23477 7.24752 8.71949 9.01689 10.5058L12.2339 13.7538L15.4512 10.5032C17.2207 8.71541 18.6613 7.23322 18.6524 7.2095C18.626 7.13892 12.2728 0.719933 12.2284 0.718994C12.206 0.718458 10.7583 2.16639 9.01139 3.9365ZM27.1815 6.9205V10.9783L27.6674 10.9586L28.1533 10.9388L28.1708 8.1407C28.1804 6.60168 28.2135 5.34254 28.2443 5.34254C28.2936 5.34254 29.6828 6.77567 30.8342 8.01429C31.0553 8.25222 31.3418 8.55616 31.4709 8.68967C31.5999 8.82324 32.186 9.43669 32.7734 10.053C33.3607 10.6692 33.8659 11.1734 33.896 11.1734C33.9261 11.1734 33.9507 9.37892 33.9507 7.18564V3.19785H33.448H32.9453L32.9441 5.99601L32.943 8.79416L32.0226 7.85378C30.6338 6.43473 29.6546 5.41258 28.6547 4.33809C27.543 3.1435 27.27 2.86275 27.2202 2.86275C27.1989 2.86275 27.1815 4.68875 27.1815 6.9205ZM58.6169 3.0242C58.5832 3.11294 58.4152 3.49751 58.2437 3.87873C58.0722 4.25988 57.8926 4.66228 57.8446 4.77286C57.705 5.0943 57.4126 5.7241 56.5369 7.58904C56.3895 7.9031 56.2688 8.17582 56.2688 8.19505C56.2688 8.21429 56.1749 8.43237 56.06 8.67968C55.9451 8.92693 55.7475 9.35546 55.6209 9.63193C55.4942 9.90839 55.3055 10.3068 55.2015 10.5173C55.0976 10.7279 55.0288 10.9164 55.0486 10.9362C55.1254 11.0129 56.052 10.9716 56.116 10.8886C56.1515 10.8425 56.2327 10.6691 56.2964 10.5032C56.3601 10.3373 56.5362 9.93775 56.6877 9.61517L56.9632 9.02873H58.7279H60.4926L60.7322 9.54815C60.864 9.8338 61.028 10.1882 61.0967 10.3357C61.1653 10.4831 61.2525 10.6867 61.2903 10.788C61.3576 10.9681 61.3717 10.9724 61.897 10.9724C62.1928 10.9724 62.4348 10.9584 62.4348 10.9413C62.4348 10.9242 62.2693 10.5605 62.0669 10.1332C61.8647 9.70592 61.6054 9.13932 61.4908 8.87418C61.2017 8.20484 60.817 7.36519 60.2413 6.1468C60.0409 5.72289 59.8009 5.1951 59.7078 4.97393C59.5513 4.60222 59.3227 4.10124 58.9047 3.21461C58.8135 3.02105 58.7252 2.86275 58.7086 2.86275C58.6919 2.86275 58.6506 2.9354 58.6169 3.0242ZM64.9176 3.34865C64.8723 3.57907 64.7951 3.96358 64.7462 4.20318C64.6973 4.44278 64.5768 5.07613 64.4784 5.61063C64.3801 6.14513 64.273 6.71816 64.2405 6.88404C64.208 7.04992 64.1376 7.41184 64.0842 7.6883C64.0307 7.96476 63.9218 8.50764 63.8423 8.89469C63.6868 9.65083 63.5176 10.4899 63.4603 10.788C63.4249 10.9724 63.4249 10.9724 63.9312 10.9724C64.2097 10.9724 64.4543 10.9453 64.4748 10.9122C64.4952 10.8791 64.5718 10.4795 64.645 10.0241C64.8009 9.05454 65.0219 7.7824 65.1499 7.11862C65.1996 6.86058 65.2594 6.50617 65.2826 6.33111C65.3059 6.15605 65.347 6.01276 65.374 6.01276C65.401 6.01276 65.5171 6.21631 65.6321 6.46516C66.0835 7.44166 66.2392 7.79553 66.2882 7.95639C66.3162 8.04854 66.456 8.37574 66.5987 8.6835C66.7414 8.99127 66.8582 9.25299 66.8582 9.26505C66.8582 9.27711 66.9673 9.52295 67.1007 9.81134C67.2341 10.0997 67.4134 10.494 67.4992 10.6875C67.585 10.881 67.6718 11.0394 67.6922 11.0394C67.749 11.0394 68.0646 10.3584 68.0646 10.236C68.0646 10.1765 68.0918 10.0993 68.1249 10.0642C68.1581 10.0292 68.2761 9.78943 68.3873 9.53139C68.6049 9.02585 69.1366 7.83635 69.4357 7.18564C69.6006 6.82674 69.7648 6.42535 69.8987 6.05344C69.9238 5.98367 69.9601 5.94232 69.9794 5.96162C70.017 5.99922 70.2895 7.47222 70.6834 9.76597C70.7181 9.96871 70.784 10.3155 70.8298 10.5367C70.913 10.9388 70.913 10.9388 71.3989 10.9586C72.0149 10.9835 72.0019 11.1074 71.5777 9.2495C71.5255 9.02076 71.4827 8.74047 71.4827 8.6266C71.4827 8.51273 71.4382 8.23245 71.3839 8.0037C71.3004 7.65285 71.0903 6.61857 70.8772 5.5101C70.5088 3.59402 70.3822 2.95865 70.3639 2.93466C70.3107 2.86516 70.1261 3.22661 69.8016 4.03562C69.6093 4.51483 69.3793 5.0577 69.2906 5.24201C69.2018 5.42632 69.0065 5.86364 68.8565 6.21383C68.7065 6.56401 68.467 7.09992 68.3242 7.40473C68.1814 7.70955 68.0646 7.9848 68.0646 8.01637C68.0646 8.09961 67.737 8.82767 67.6996 8.82767C67.6701 8.82767 67.2604 7.98031 67.2604 7.91946C67.2604 7.90431 67.136 7.62744 66.9839 7.3042C66.8318 6.98095 66.5914 6.42508 66.4497 6.06892C66.3079 5.71277 66.097 5.21514 65.9811 4.96307C65.8651 4.711 65.6523 4.23334 65.508 3.90158C65.3637 3.56982 65.209 3.21548 65.1643 3.11408C65.1196 3.01267 65.0643 2.92977 65.0415 2.92977C65.0186 2.92977 64.9629 3.1183 64.9176 3.34865ZM50.0677 3.07112C49.1752 3.15335 48.2277 3.64341 47.6059 4.34419C46.8924 5.14832 46.5507 6.03246 46.5507 7.07458C46.5507 8.20738 46.9187 9.08262 47.7677 9.96938C48.6762 10.9183 50.2151 11.3384 51.4433 10.9728C52.4178 10.6826 52.9633 10.2903 53.4746 9.51182C53.904 8.85803 54.1176 8.17327 54.1217 7.43697L54.1241 7.01808H52.5826H51.0411V7.48724V7.95639H52.013C53.1269 7.95639 53.0988 7.93541 52.8678 8.59282C52.7346 8.97196 52.0955 9.6594 51.7079 9.84036C51.5808 9.89968 51.389 9.99016 51.2816 10.0414C51.1558 10.1015 50.8578 10.1339 50.4439 10.1326C49.8471 10.1309 49.7678 10.1141 49.3325 9.89807C47.9502 9.21197 47.2513 7.6066 47.6966 6.14037C47.774 5.88575 47.8645 5.66063 47.8977 5.64012C47.931 5.61954 47.9582 5.54361 47.9582 5.47136C47.9582 5.39918 48.147 5.15214 48.3779 4.92239C49.1274 4.17677 50.1379 3.82424 51.0221 3.99997C51.2696 4.04916 51.6088 4.14983 51.776 4.22375C52.1531 4.39037 52.7242 4.80704 52.8928 5.03853C53.0195 5.21239 53.0195 5.21239 53.3437 4.88318C53.727 4.49405 53.7193 4.45598 53.161 3.97892C52.3154 3.25657 51.2972 2.95772 50.0677 3.07112ZM14.2725 5.18846C15.364 6.28333 16.257 7.2042 16.257 7.23497C16.257 7.26566 15.3492 8.199 14.2396 9.30908L12.2223 11.3273L10.1772 9.28221L8.13207 7.23711L10.1402 5.21748C11.2448 4.10667 12.1798 3.19785 12.2182 3.19785C12.2566 3.19785 13.181 4.09366 14.2725 5.18846ZM35.6262 7.08604V10.9743L37.6871 10.9565L39.748 10.9388V10.4697V10.0005L38.1563 9.98258L36.5645 9.96462V8.55837V7.15213H38.1395H39.7145V6.68298V6.21383H38.1395H36.5645V5.17499V4.13616H38.173H39.7815V3.66701V3.19785H37.7039H35.6262V7.08604ZM41.0549 3.66701V4.13616H41.9597H42.8645V7.55426V10.9724H43.3672H43.8698V7.55426V4.13616H44.7746H45.6794V3.66701V3.19785H43.3672H41.0549V3.66701ZM73.7615 7.08511V10.9724H75.8391H77.9168V10.4697V9.96703H76.3418H74.7668V8.55958V7.15213H76.3083H77.8498V6.68298V6.21383H76.3083H74.7668V5.17499V4.13616H76.3418H77.9168V3.66701V3.19785H75.8391H73.7615V7.08511ZM10.761 5.77839L9.32103 7.21955L10.7783 8.67687L12.2357 10.1342L13.6912 8.67868L15.1467 7.2231L13.708 5.78033C12.9166 4.98679 12.2538 4.33749 12.2351 4.33742C12.2163 4.33729 11.553 4.98572 10.761 5.77839ZM58.8157 5.2081C58.8157 5.24469 58.9467 5.55386 59.1068 5.89507C59.2669 6.23628 59.4985 6.77178 59.6215 7.08511C59.7444 7.39843 59.8848 7.7143 59.9335 7.78702C60.1308 8.08165 60.0957 8.09043 58.7151 8.09043C57.9963 8.09043 57.4082 8.07716 57.4082 8.06094C57.4082 8.04472 57.5439 7.74292 57.7098 7.39032C57.8757 7.03765 58.0114 6.72292 58.0114 6.69088C58.0114 6.63016 58.2402 6.09687 58.5252 5.49334C58.6758 5.17445 58.8157 5.03706 58.8157 5.2081ZM16.1564 12.3706C14.8294 13.7281 13.7437 14.878 13.7437 14.9262C13.7437 14.9743 14.8294 16.125 16.1564 17.4834L18.5692 19.953L21.0322 17.4694C22.3869 16.1034 23.4953 14.962 23.4953 14.9329C23.4953 14.9038 22.3869 13.7601 21.0322 12.3913L18.5692 9.90263L16.1564 12.3706ZM5.06436 10.7298C4.64045 11.1468 3.52601 12.2611 2.58785 13.2061L0.88208 14.9241L2.55434 16.6034C4.98883 19.0482 5.80032 19.8504 5.86017 19.8713C5.91848 19.8918 10.7612 15.0168 10.7612 14.9377C10.7612 14.8746 5.93879 9.9663 5.87974 9.96931C5.85521 9.97052 5.48827 10.3127 5.06436 10.7298ZM7.49335 13.3008C8.36913 14.176 9.08565 14.9125 9.08565 14.9375C9.08565 14.9985 5.91855 18.1437 5.85716 18.1437C5.77465 18.1437 2.65158 15.0209 2.65158 14.9384C2.65158 14.8642 5.79195 11.7096 5.8658 11.7096C5.88524 11.7096 6.61765 12.4257 7.49335 13.3008ZM20.2422 13.3156C21.1249 14.1988 21.8334 14.9366 21.8167 14.955C21.3711 15.4451 18.6279 18.1435 18.5758 18.143C18.4884 18.1422 15.3857 15.0298 15.3857 14.9429C15.3857 14.8743 18.5242 11.7096 18.5924 11.7096C18.6171 11.7096 19.3595 12.4323 20.2422 13.3156ZM4.80358 13.8864L3.77205 14.921L4.81497 15.9772L5.85783 17.0334L6.86737 16.0303C7.42258 15.4786 7.87739 14.9858 7.87806 14.9353C7.87893 14.867 5.90588 12.8427 5.8459 12.8504C5.83993 12.8511 5.37092 13.3173 4.80358 13.8864ZM17.5326 13.8855L16.4977 14.9221L17.548 15.974L18.5982 17.0259L19.639 15.9755L20.6797 14.9252L19.6503 13.8871C19.0842 13.3161 18.609 12.849 18.5943 12.849C18.5796 12.849 18.1019 13.3154 17.5326 13.8855ZM30.7336 15.5953V17.7496L30.9849 17.7288C31.2363 17.708 31.2363 17.708 31.2544 16.2503C31.2643 15.4485 31.2982 14.7926 31.3298 14.7926C31.38 14.7926 32.2504 15.6903 33.7829 17.3227C34.0338 17.5899 34.2647 17.8086 34.2959 17.8086C34.3272 17.8086 34.3528 16.8585 34.3528 15.6974V13.5862H34.086H33.8192L33.8011 15.0723L33.7831 16.5584L33.1421 15.8934C32.7896 15.5275 32.1278 14.8362 31.6715 14.3569C31.2152 13.8777 30.8175 13.4756 30.7878 13.4633C30.758 13.451 30.7336 14.4104 30.7336 15.5953ZM56.4699 15.5968V17.7415H56.7367H57.0035L57.0216 16.2275L57.0396 14.7135L57.615 15.306C57.9314 15.6318 58.5921 16.3207 59.0833 16.8367C59.5744 17.3528 60.0017 17.7851 60.0326 17.7974C60.0637 17.8097 60.0891 16.8672 60.0891 15.7029C60.0891 13.5862 60.0891 13.5862 59.8545 13.5862C59.6199 13.5862 59.6199 13.5862 59.6199 15.0232C59.6199 15.8136 59.5926 16.4771 59.5591 16.4978C59.5257 16.5185 58.9904 16.0011 58.3695 15.3481C56.8395 13.7389 56.5584 13.4522 56.5107 13.4522C56.4883 13.4522 56.4699 14.4173 56.4699 15.5968ZM70.9466 15.5913V17.7415H71.2146H71.4827V16.2671C71.4827 15.4246 71.5089 14.7926 71.5438 14.7926C71.5972 14.7926 72.2022 15.4135 73.9975 17.3111C74.2563 17.5847 74.4901 17.8086 74.5169 17.8086C74.5437 17.8086 74.5657 16.8585 74.5657 15.6974V13.5862H74.2989H74.0321L74.0141 15.0717L73.996 16.5572L72.5313 15.0214C71.7257 14.1767 71.0396 13.4756 71.0066 13.4633C70.972 13.4505 70.9466 14.3527 70.9466 15.5913ZM51.3811 13.8253C51.3047 13.998 51.2422 14.1533 51.2422 14.1703C51.2422 14.1873 51.148 14.4021 51.0328 14.6477C50.9176 14.8933 50.6349 15.5013 50.4046 15.999C50.1743 16.4966 49.9066 17.0678 49.8098 17.2682C49.7129 17.4686 49.6337 17.6571 49.6337 17.687C49.6337 17.717 49.7559 17.7415 49.9052 17.7415C50.1767 17.7415 50.1767 17.7415 50.4207 17.2054L50.6647 16.6692H51.5952H52.5257L52.772 17.2045C53.0157 17.7341 53.021 17.7398 53.2696 17.7407C53.4079 17.7411 53.521 17.7096 53.521 17.6704C53.521 17.6313 53.4003 17.343 53.2529 17.0298C53.1054 16.7165 52.9848 16.4435 52.9848 16.423C52.9848 16.4024 52.8631 16.1252 52.7143 15.807C52.5656 15.4887 52.2705 14.8534 52.0586 14.3953C51.8466 13.9371 51.6387 13.5508 51.5966 13.5368C51.5545 13.5227 51.4576 13.6526 51.3811 13.8253ZM61.7376 15.5116C61.52 16.6073 61.328 17.5574 61.3109 17.6227C61.2849 17.7219 61.3243 17.7415 61.5485 17.7415C61.8624 17.7415 61.8742 17.7221 61.9978 17.0043C62.0455 16.7278 62.1377 16.1925 62.2029 15.8147C62.268 15.4369 62.3412 15.1277 62.3655 15.1277C62.4171 15.1277 62.7694 15.9145 63.4232 17.4902C63.4806 17.6285 63.5494 17.7415 63.5761 17.7415C63.6028 17.7415 63.6927 17.5832 63.7758 17.3897C63.8588 17.1962 64.0092 16.8569 64.11 16.6357C64.2108 16.4145 64.3911 16.0074 64.5107 15.7309C64.6304 15.4544 64.7499 15.2048 64.7764 15.1761C64.8028 15.1475 64.8798 15.434 64.9475 15.8128C65.3157 17.8755 65.2602 17.7056 65.573 17.7286C65.7269 17.74 65.8529 17.732 65.8529 17.7108C65.8529 17.6896 65.774 17.2883 65.6776 16.8189C65.5812 16.3495 65.4802 15.8448 65.4532 15.6974C65.2287 14.4718 65.0113 13.5205 64.9596 13.5377C64.9254 13.5491 64.8524 13.6778 64.7973 13.8237C64.5835 14.3901 63.6177 16.5351 63.5765 16.5351C63.5325 16.5351 63.038 15.4908 63.038 15.398C63.038 15.2717 62.2293 13.5192 62.1711 13.5192C62.1502 13.5192 61.9552 14.4158 61.7376 15.5116ZM27.1815 15.6639V17.7415H28.2873H29.3932V17.4735C29.3932 17.2054 29.3932 17.2054 28.5554 17.2054H27.7176V16.4702V15.735L28.5387 15.7162C29.3597 15.6974 29.3597 15.6974 29.3597 15.4628C29.3597 15.2282 29.3597 15.2282 28.5387 15.2094L27.7176 15.1906V14.623V14.0554H28.5554C29.3932 14.0554 29.3932 14.0554 29.3932 13.8208C29.3932 13.5862 29.3932 13.5862 28.2873 13.5862H27.1815V15.6639ZM35.4251 13.8208C35.4251 14.0554 35.4251 14.0554 35.8932 14.0554H36.3613L36.3791 15.8817L36.3969 17.708L36.6818 17.7286L36.9666 17.7492V15.9023V14.0554H37.4358C37.9049 14.0554 37.9049 14.0554 37.9049 13.8208C37.9049 13.5862 37.9049 13.5862 36.665 13.5862C35.4251 13.5862 35.4251 13.5862 35.4251 13.8208ZM39.1113 15.6655V17.7449L40.2004 17.7265C41.2895 17.708 41.2895 17.708 41.2895 17.4735C41.2895 17.2389 41.2895 17.2389 40.435 17.2201L39.5805 17.2013V16.4661V15.7309H40.4182C41.256 15.7309 41.256 15.7309 41.256 15.4628C41.256 15.1947 41.256 15.1947 40.4182 15.1947H39.5805V14.625V14.0554H40.4517C41.323 14.0554 41.323 14.0554 41.323 13.8208C41.323 13.5862 41.323 13.5862 40.2172 13.5862H39.1113V15.6655ZM42.9315 15.6605V17.7496L43.1829 17.7288C43.4342 17.708 43.4342 17.708 43.453 16.849C43.4696 16.0897 43.4847 15.9924 43.5833 16.0114C43.6446 16.0232 43.9529 16.4166 44.2683 16.8855C44.8417 17.7382 44.8417 17.7382 45.1265 17.7399C45.2953 17.7409 45.4113 17.7106 45.4113 17.6655C45.4113 17.6236 45.2222 17.3296 44.9911 17.012C44.3173 16.0862 44.2454 15.9743 44.3107 15.9523C44.5263 15.8795 44.8281 15.6308 44.9807 15.4002C45.3245 14.8807 45.1812 14.1722 44.6592 13.8105C44.4083 13.6365 44.3269 13.6191 43.6588 13.5963L42.9315 13.5714V15.6605ZM46.2156 13.8208C46.2156 14.0554 46.2156 14.0554 46.7183 14.0554H47.2209V15.8984V17.7415H47.489H47.7571V15.8984V14.0554H48.2598C48.7624 14.0554 48.7624 14.0554 48.7624 13.8208C48.7624 13.5862 48.7624 13.5862 47.489 13.5862C46.2156 13.5862 46.2156 13.5862 46.2156 13.8208ZM54.6237 13.6708C54.6058 13.7172 54.5993 14.6447 54.609 15.7317L54.6268 17.708H54.8949H55.163L55.1807 15.6471L55.1984 13.5862H54.9273C54.7708 13.5862 54.6424 13.622 54.6237 13.6708ZM67.3274 15.6639V17.7448L68.45 17.7264C69.5726 17.708 69.5726 17.708 69.5726 17.4735C69.5726 17.2389 69.5726 17.2389 68.7181 17.2201L67.8636 17.2013V16.4682V15.735L68.6846 15.7162C69.5056 15.6974 69.5056 15.6974 69.5264 15.446C69.5472 15.1947 69.5472 15.1947 68.7054 15.1947H67.8636V14.627V14.0594L68.7181 14.0406C69.5726 14.0218 69.5726 14.0218 69.5726 13.8208C69.5726 13.6197 69.5726 13.6197 68.45 13.6013L67.3274 13.583V15.6639ZM75.6381 13.8208C75.6381 14.0554 75.6381 14.0554 76.1407 14.0554H76.6434V15.8984V17.7415H76.9115H77.1796V15.8984V14.0554H77.6487C78.1179 14.0554 78.1179 14.0554 78.1179 13.8208C78.1179 13.5862 78.1179 13.5862 76.878 13.5862C75.6381 13.5862 75.6381 13.5862 75.6381 13.8208ZM44.3551 14.1982C44.4982 14.2746 44.6741 14.6023 44.6741 14.7926C44.6741 14.9879 44.4968 15.3113 44.3454 15.3924C44.2759 15.4296 44.05 15.4798 43.8434 15.5042L43.4677 15.5483V14.7941V14.0399L43.8531 14.0879C44.0651 14.1143 44.2909 14.1639 44.3551 14.1982ZM51.9012 15.2688C52.3593 16.2662 52.3823 16.2 51.5774 16.2C51.0544 16.2 50.9016 16.1803 50.9304 16.1163C51.0682 15.8092 51.4586 14.8725 51.489 14.7758C51.5093 14.7113 51.5473 14.6585 51.5734 14.6585C51.5995 14.6585 51.747 14.9332 51.9012 15.2688ZM10.4089 18.1274C9.42304 19.1137 8.6165 19.9431 8.6165 19.9705C8.6165 19.9979 10.2451 20.0203 12.2357 20.0203C14.2262 20.0203 15.8548 19.9991 15.8548 19.9732C15.8548 19.9196 12.2892 16.3341 12.2359 16.3341C12.2168 16.3341 11.3947 17.1411 10.4089 18.1274Z" fill="#EBEBEC"/>
</svg>
