<svg width="76" height="19" viewBox="0 0 76 19" fill="none" xmlns="http://www.w3.org/2000/svg">
<path fill-rule="evenodd" clip-rule="evenodd" d="M6.97782 0.141519C5.69837 0.290193 5.48865 0.355301 4.80318 0.816838C3.27659 1.84457 1.6494 3.74559 0.936859 5.33384C0.543776 6.20996 0.152722 7.45087 0.0661141 8.09688C-0.00183364 8.60395 -0.00183365 8.60395 0.369343 7.95246C1.55894 5.86444 2.92438 4.44677 4.74152 3.41285C5.8724 2.76947 6.42734 2.54971 7.92584 2.15216C8.62631 1.96627 9.06675 1.92276 10.3065 1.91729C11.2503 1.91313 12.0395 1.96191 12.3855 2.04578C14.0255 2.44312 15.2755 2.99177 16.3128 3.76972C16.9219 4.2265 17.1393 4.49747 16.7717 4.3418C16.6741 4.30043 16.3999 4.25236 16.1623 4.23491C15.9248 4.21757 15.6801 4.17214 15.6185 4.13421C15.5571 4.09618 15.1809 4.02843 14.7828 3.98381C13.6603 3.85785 12.6665 4.05977 13.5038 4.24374C13.6726 4.28075 14.0151 4.42527 14.2646 4.56481C15.0423 4.99948 14.9843 5.54103 14.0957 6.14343C13.8273 6.32537 13.6066 6.50589 13.6051 6.54463C13.6017 6.63681 14.4899 6.24647 14.8351 6.00409C15.1608 5.7754 15.2663 5.76434 15.1884 5.96717C15.0994 6.19931 15.2253 6.15722 16.0841 5.6679C17.1215 5.07665 17.4006 5.0158 17.6572 5.32481C17.947 5.67398 18.5108 6.86956 18.8115 7.77286C19.2073 8.96204 19.3146 9.7618 19.2554 11.0796C19.2113 12.0574 19.1481 12.4082 18.8787 13.1676C18.4885 14.2674 18.1081 14.9694 17.4866 15.7364C16.7348 16.6644 15.4427 17.7291 15.2736 17.5601C15.245 17.5314 15.2687 17.1758 15.3263 16.7698C15.5099 15.4752 15.2603 13.9558 14.6846 12.8634C14.3215 12.1746 13.2186 11.0259 12.5361 10.626C12.215 10.4377 12.0813 10.2936 12.0813 10.1354C12.0813 9.88765 12.5231 9.14145 13.063 8.47718C13.2557 8.24008 13.3918 8.04617 13.3655 8.04617C13.3392 8.04617 12.9368 8.22882 12.4713 8.45213C11.4214 8.95576 10.3332 9.19915 9.44452 9.12918C8.55785 9.0594 7.96914 9.1812 7.63194 9.50431C7.47931 9.65055 7.32029 9.77022 7.27861 9.77022C7.23693 9.77022 7.21654 9.53057 7.23348 9.23779C7.26411 8.70536 7.26411 8.70536 7.9233 8.3782C8.71018 7.98755 8.8909 7.9763 9.57788 8.27435C9.98293 8.4501 10.29 8.50152 10.915 8.49807C11.3613 8.49574 11.803 8.4501 11.8968 8.39666C12.0152 8.32932 11.7982 8.29971 11.1869 8.29971C10.4228 8.29971 10.2365 8.26289 9.77594 8.02082C9.14687 7.6901 8.72012 7.67114 8.00646 7.94232C7.71642 8.05256 7.46471 8.12842 7.44716 8.11087C7.42962 8.09343 7.46339 7.941 7.52221 7.77235C7.6432 7.42521 7.84024 7.31335 8.64984 7.13222C9.15224 7.01975 9.2569 7.02574 9.55922 7.18394C10.4845 7.6681 10.6864 7.74284 11.2357 7.8048C11.9266 7.88269 11.905 7.75856 11.2049 7.62784C10.9338 7.57713 10.4445 7.35544 10.0809 7.11853C9.44493 6.70425 9.42809 6.69979 8.73076 6.75821C8.34245 6.79076 8.02543 6.78579 8.02624 6.74725C8.03263 6.46005 8.43048 6.27284 9.24828 6.17213C9.78781 6.10571 9.81184 6.11392 10.383 6.55903C11.0969 7.11519 12.0152 7.33414 12.9122 7.16194C13.4504 7.0587 13.4504 7.0587 12.6105 7.04531C11.6021 7.02939 11.1707 6.86915 10.5811 6.292C10.1484 5.86829 10.1412 5.86576 9.38945 5.86576C8.97355 5.86576 8.6332 5.84193 8.6332 5.81282C8.6332 5.63007 9.36207 4.93792 10.0128 4.50265C11.2765 3.65746 12.6887 3.37522 14.5152 3.60269C15.073 3.67216 15.073 3.67216 14.6167 3.51223C14.3037 3.4025 13.7619 3.34875 12.8926 3.34135C11.8198 3.33212 11.5142 3.3667 10.9045 3.56649C9.20265 4.12437 7.55882 5.96403 6.94688 7.99546C6.66982 8.91549 6.69314 10.7852 6.99516 11.8464C7.30295 12.9284 8.05261 14.4139 8.83258 15.4873C9.42992 16.3094 10.9699 17.8834 11.177 17.8834C11.2281 17.8834 11.27 17.929 11.27 17.9848C11.27 18.2783 9.40101 17.8718 8.25351 17.3288C7.00063 16.736 5.41015 15.5141 4.62733 14.543C4.10799 13.8987 3.98223 13.8925 4.32826 14.5282C5.01646 15.7927 6.73178 17.3046 8.18799 17.9301C9.51784 18.5015 10.063 18.6158 11.71 18.6688C13.3108 18.7204 13.675 18.6395 13.1245 18.3547C12.9604 18.2699 12.4584 17.9278 12.0091 17.5946C10.9235 16.7898 9.56277 15.1133 10.2305 15.4034C10.8399 15.6682 11.5903 15.8767 12.2907 15.9757C12.9629 16.0708 13.2368 16.0619 13.9505 15.9216C14.4206 15.8292 14.8604 15.7537 14.9278 15.7537C15.1476 15.7537 14.915 17.2749 14.5673 18.1116C14.4518 18.3896 14.666 18.329 15.4543 17.8607C17.6117 16.579 19.1748 14.2372 19.5895 11.6655C19.9177 9.63016 19.385 7.29641 18.1879 5.52501C17.9753 5.21042 17.723 4.74432 17.6272 4.48916C17.2384 3.45321 15.7407 2.06586 14.1603 1.27756C12.1876 0.29354 9.42667 -0.143151 6.97782 0.141519ZM47.311 4.13106C46.2966 4.45975 45.5759 4.9006 44.9072 5.60168C44.5903 5.93381 44.3311 6.23065 44.3311 6.26117C44.3311 6.2918 44.6759 7.33343 45.0973 8.57596C45.5187 9.81849 46.1142 11.5837 46.4205 12.4987C46.7268 13.4137 47.0195 14.2408 47.0708 14.3366C47.1951 14.569 47.9146 14.7398 48.7622 14.7381C49.8693 14.7359 49.7934 14.8127 50.3972 13.0862C51.1963 10.8015 51.1984 10.8489 50.3235 11.4376C49.5575 11.9531 48.3577 12.0504 47.6 11.6586C47.1309 11.416 46.5803 10.7814 46.413 10.2906C46.1857 9.62317 46.2114 8.68924 46.4709 8.19677C47.2256 6.7649 48.7364 6.33815 50.2009 7.14328C50.5904 7.35736 50.8509 7.446 50.908 7.38393C51.0021 7.28151 51.7344 5.00292 51.7344 4.81237C51.7344 4.66298 51.1111 4.35904 50.2786 4.10247C49.3359 3.81191 48.2641 3.82226 47.311 4.13106ZM24.9398 4.57272C24.8512 4.83762 24.0664 7.15372 23.1957 9.71951C22.3252 12.2853 21.6346 14.4417 21.6611 14.5113C21.696 14.603 22.0455 14.6381 22.9235 14.6381C23.7837 14.6381 24.1615 14.6012 24.2193 14.5113C24.304 14.3798 24.8834 12.6989 25.7928 9.94617C26.0834 9.06691 26.3654 8.36218 26.4196 8.38023C26.5139 8.41167 26.7852 9.15757 27.5525 11.4943C27.7448 12.0799 28.0668 13.0269 28.2681 13.5986L28.634 14.6381H29.8781C30.7513 14.6381 31.1529 14.6003 31.2248 14.5113C31.2811 14.4417 31.4923 13.8826 31.6941 13.269C32.7908 9.93481 33.3383 8.40295 33.4274 8.41846C33.4823 8.4281 33.977 9.77437 34.5269 11.4102C35.0766 13.0461 35.5736 14.4417 35.6311 14.5113C35.7041 14.5998 36.1007 14.6381 36.9435 14.6381C37.8171 14.6381 38.1641 14.603 38.1979 14.5113C38.2234 14.4417 37.9227 13.449 37.5295 12.3056C37.1364 11.1621 36.3786 8.92594 35.8457 7.33627C35.3127 5.7466 34.8345 4.36604 34.7831 4.26848C34.7015 4.11362 34.5246 4.09101 33.393 4.09101H32.0965L31.2461 6.60101C30.7784 7.98157 30.3091 9.37561 30.2032 9.69913C30.0972 10.0225 29.9634 10.2714 29.9059 10.2522C29.8483 10.2331 29.3582 8.89166 28.8166 7.27136C28.2751 5.65106 27.7994 4.27264 27.7596 4.20824C27.7109 4.12944 27.2628 4.09101 26.3941 4.09101C25.1011 4.09101 25.1011 4.09101 24.9398 4.57272ZM38.721 6.44889C38.2881 7.74568 37.9357 8.89592 37.9379 9.00474C37.9418 9.19033 38.5266 11.0403 38.9284 12.1375C39.0273 12.4076 39.1513 12.6358 39.2038 12.6446C39.2563 12.6533 39.6214 11.7116 40.0151 10.5517C40.4088 9.39194 40.7765 8.43357 40.8323 8.42201C40.9235 8.40325 41.2021 9.17887 42.6191 13.3958L43.0365 14.6381H44.2955C45.2096 14.6381 45.5675 14.6034 45.6022 14.5113C45.6285 14.4417 44.9605 12.3538 44.1178 9.87163C43.2751 7.38951 42.4899 5.07351 42.3728 4.72485L42.16 4.09101H40.834H39.508L38.721 6.44889ZM53.4643 8.32506C52.6706 10.6538 51.8666 12.9916 51.6778 13.5203C51.4889 14.049 51.3711 14.5182 51.4159 14.5631C51.4607 14.6079 52.0642 14.6317 52.7568 14.616L54.0162 14.5874L54.7958 12.3056C55.2245 11.0506 55.6951 9.6472 55.8414 9.18708C55.9877 8.72697 56.1441 8.35041 56.1889 8.35041C56.2337 8.35041 56.6907 9.59396 57.2044 11.114C57.7181 12.634 58.194 14.0372 58.2618 14.2325C58.3851 14.5874 58.3851 14.5874 59.6741 14.6158C60.8607 14.642 60.9631 14.6296 60.9631 14.4606C60.9631 14.3597 60.7654 13.6852 60.5239 12.9617C59.2098 9.02553 58.0696 5.66648 57.7969 4.92767L57.488 4.09101H56.1977H54.9074L53.4643 8.32506ZM59.0364 4.26848C59.0366 4.36604 59.4274 5.58687 59.905 6.98132C60.3826 8.37577 60.9781 10.1328 61.2285 10.8858C61.4789 11.6388 61.8695 12.791 62.0965 13.4465L62.5092 14.6381H63.8067H65.1042L65.5407 13.3451C65.7808 12.634 66.2523 11.2306 66.5886 10.2266C66.9249 9.22258 67.2433 8.40112 67.2962 8.40112C67.349 8.40112 67.851 9.74993 68.4118 11.3985C68.9724 13.0471 69.4681 14.4504 69.5132 14.517C69.5694 14.6 69.9926 14.6381 70.857 14.6381C71.5509 14.6381 72.1187 14.6252 72.1187 14.6095C72.1187 14.5939 72.5992 13.1677 73.1865 11.4403C73.7738 9.71302 74.5463 7.43261 74.9033 6.37283C75.2603 5.31305 75.5833 4.36604 75.6211 4.26848C75.6844 4.105 75.5854 4.09101 74.3666 4.09101C73.5432 4.09101 73.0182 4.13167 72.9768 4.19861C72.9403 4.25773 72.4609 5.632 71.9117 7.2523C71.3623 8.8727 70.8851 10.2263 70.8511 10.2604C70.7422 10.3692 70.6421 10.1089 69.6247 7.07269L68.6255 4.09101H67.3357C66.4511 4.09101 66.0224 4.12873 65.9715 4.21118C65.9307 4.2772 65.4514 5.65137 64.9065 7.26477C64.3615 8.87817 63.8877 10.2261 63.8536 10.2601C63.7446 10.3692 63.6448 10.1099 62.6271 7.07269L61.628 4.09101H60.3321C59.1654 4.09101 59.0362 4.10875 59.0364 4.26848ZM11.5122 4.49464C10.8816 4.74939 10.6795 5.57987 11.1206 6.10408C11.442 6.48601 11.849 6.58235 12.3162 6.38713C12.7385 6.21077 12.8926 5.96281 12.8926 5.4601C12.8926 4.96145 12.7389 4.70963 12.33 4.53875C11.9435 4.3773 11.8191 4.3706 11.5122 4.49464ZM12.2334 7.64051C11.9292 7.71789 11.9292 7.71789 12.2334 7.72834C12.4008 7.73412 12.6061 7.69457 12.6898 7.64051C12.825 7.55309 12.825 7.54336 12.6898 7.55269C12.6061 7.55837 12.4008 7.59792 12.2334 7.64051ZM12.6548 10.9537C13.4097 11.53 13.8641 12.0813 14.312 12.9648C14.7219 13.7732 15.0861 15.122 14.9352 15.2729C14.8916 15.3165 14.4598 15.4052 13.9756 15.47C12.5618 15.6592 10.9827 15.3774 9.87553 14.7384C9.4218 14.4766 9.3431 14.3867 9.3431 14.13C9.3431 13.0384 11.1031 10.5815 11.885 10.5815C12.0538 10.5815 12.3631 10.7311 12.6548 10.9537ZM34.4134 16.208C33.645 16.8545 33.7678 17.8593 34.6724 18.3272C35.0853 18.5406 35.3586 18.5322 35.8937 18.2893C36.3301 18.0913 36.3301 18.0913 36.2994 17.5563C36.2687 17.0214 36.2687 17.0214 35.7616 17.0214C35.3221 17.0214 35.2545 17.0484 35.2545 17.2242C35.2545 17.37 35.3328 17.436 35.5334 17.4591C35.8453 17.495 35.9276 17.8175 35.6518 17.9232C35.0605 18.1501 34.4939 17.7763 34.4939 17.1593C34.4939 16.5387 35.0182 16.2195 35.6457 16.4581C35.837 16.5308 35.9296 16.5159 36.0288 16.3964C36.2302 16.1538 35.8778 15.9565 35.2429 15.9565C34.826 15.9565 34.6483 16.0105 34.4134 16.208ZM40.5788 16.0573C40.5788 16.1127 40.3734 16.615 40.1224 17.1735C39.8714 17.732 39.666 18.2343 39.666 18.2896C39.666 18.5028 40.0796 18.3826 40.1916 18.1369C40.295 17.9098 40.3671 17.8834 40.883 17.8834C41.3989 17.8834 41.471 17.9098 41.5745 18.1369C41.6888 18.3879 42.1 18.5008 42.1 18.2812C42.1 18.2211 41.8849 17.6734 41.6221 17.0643C41.1776 16.0341 41.1244 15.9565 40.8615 15.9565C40.7059 15.9565 40.5788 16.0018 40.5788 16.0573ZM45.5481 17.1735C45.5481 18.3904 45.5481 18.3904 45.8016 18.3904C46.0495 18.3904 46.0551 18.3735 46.0551 17.6298C46.0551 16.9174 46.1712 16.643 46.3017 17.0467C46.3332 17.1444 46.4649 17.3561 46.5944 17.5174C46.8296 17.8107 46.8297 17.8107 47.127 17.3401C47.2905 17.0813 47.4584 16.8695 47.5003 16.8694C47.5422 16.8693 47.5764 17.2115 47.5764 17.6298C47.5764 18.3735 47.582 18.3904 47.8299 18.3904C48.0834 18.3904 48.0834 18.3904 48.0834 17.1735C48.0834 15.9565 48.0834 15.9565 47.7885 15.9565C47.5493 15.9565 47.4392 16.0427 47.2054 16.4127C47.0469 16.6636 46.8715 16.8675 46.8158 16.8659C46.76 16.8642 46.5906 16.6589 46.4393 16.4096C46.2107 16.0329 46.1124 15.9565 45.8562 15.9565C45.5481 15.9565 45.5481 15.9565 45.5481 17.1735ZM51.6329 17.1735C51.6329 18.3904 51.6329 18.3904 51.8865 18.3904C52.14 18.3904 52.14 18.3904 52.14 17.1735C52.14 15.9565 52.14 15.9565 51.8865 15.9565C51.6329 15.9565 51.6329 15.9565 51.6329 17.1735ZM55.7909 17.1735C55.7909 18.3228 55.8022 18.3904 55.9938 18.3904C56.1774 18.3904 56.1966 18.3228 56.1966 17.6731C56.1966 16.78 56.2906 16.7808 56.9776 17.6805C57.3414 18.1569 57.556 18.3487 57.7515 18.3718C58.0221 18.4039 58.0221 18.4039 58.0221 17.1802C58.0221 15.9565 58.0221 15.9565 57.7685 15.9565C57.5222 15.9565 57.515 15.9768 57.515 16.6664C57.515 17.0568 57.4751 17.3763 57.4263 17.3763C57.3776 17.3763 57.0948 17.0568 56.798 16.6664C56.4046 16.1491 56.1949 15.9565 56.0246 15.9565C55.7937 15.9565 55.7909 15.9706 55.7909 17.1735ZM61.815 16.3013C61.5144 16.6019 61.4701 16.7114 61.4701 17.1555C61.4701 18.0826 62.2359 18.6446 63.1503 18.3885C63.7305 18.2261 63.8208 18.1008 63.7832 17.511C63.752 17.0214 63.752 17.0214 63.2703 16.9904C62.8132 16.9611 62.7885 16.9728 62.7885 17.2186C62.7885 17.4274 62.8378 17.4777 63.0421 17.4777C63.2232 17.4777 63.2956 17.5325 63.2956 17.6697C63.2956 18.0355 62.6571 18.0992 62.2444 17.7746C62.0383 17.6125 61.9772 17.475 61.9772 17.1735C61.9772 16.5513 62.6357 16.1647 63.1902 16.4614C63.325 16.5336 63.4098 16.5197 63.5002 16.4107C63.7298 16.1342 63.4426 15.9565 62.766 15.9565C62.2118 15.9565 62.1302 15.9861 61.815 16.3013ZM41.0695 16.9247C41.245 17.3096 41.2174 17.3763 40.883 17.3763C40.7157 17.3763 40.5788 17.3603 40.5788 17.3407C40.5788 17.2034 40.816 16.6664 40.8766 16.6664C40.918 16.6664 41.0048 16.7826 41.0695 16.9247Z" fill="#EBEBEC"/>
</svg>
